ISO-10303-21;
HEADER;
FILE_DESCRIPTION(('FreeCAD Model'),'2;1');
FILE_NAME('Open CASCADE Shape Model','2026-02-24T00:58:23',(''),(''),
  'Open CASCADE STEP processor 7.9','FreeCAD','Unknown');
FILE_SCHEMA(('AUTOMOTIVE_DESIGN { 1 0 10303 214 1 1 1 1 }'));
ENDSEC;
DATA;
#1 = APPLICATION_PROTOCOL_DEFINITION('international standard',
  'automotive_design',2000,#2);
#2 = APPLICATION_CONTEXT(
  'core data for automotive mechanical design processes');
#3 = SHAPE_DEFINITION_REPRESENTATION(#4,#10);
#4 = PRODUCT_DEFINITION_SHAPE('','',#5);
#5 = PRODUCT_DEFINITION('design','',#6,#9);
#6 = PRODUCT_DEFINITION_FORMATION('','',#7);
#7 = PRODUCT('DrillMarker004','DrillMarker004','',(#8));
#8 = PRODUCT_CONTEXT('',#2,'mechanical');
#9 = PRODUCT_DEFINITION_CONTEXT('part definition',#2,'design');
#10 = ADVANCED_BREP_SHAPE_REPRESENTATION('',(#11,#15),#609);
#11 = AXIS2_PLACEMENT_3D('',#12,#13,#14);
#12 = CARTESIAN_POINT('',(0.,0.,0.));
#13 = DIRECTION('',(0.,0.,1.));
#14 = DIRECTION('',(1.,0.,-0.));
#15 = MANIFOLD_SOLID_BREP('',#16);
#16 = CLOSED_SHELL('',(#17,#57,#112,#152,#231,#253,#277,#325,#356,#378,
    #395,#412,#429,#451,#463,#512,#536,#560,#584));
#17 = ADVANCED_FACE('',(#18),#52,.F.);
#18 = FACE_BOUND('',#19,.F.);
#19 = EDGE_LOOP('',(#20,#30,#38,#46));
#20 = ORIENTED_EDGE('',*,*,#21,.T.);
#21 = EDGE_CURVE('',#22,#24,#26,.T.);
#22 = VERTEX_POINT('',#23);
#23 = CARTESIAN_POINT('',(-10.,240.,-7.5));
#24 = VERTEX_POINT('',#25);
#25 = CARTESIAN_POINT('',(-10.,236.,-7.5));
#26 = LINE('',#27,#28);
#27 = CARTESIAN_POINT('',(-10.,240.,-7.5));
#28 = VECTOR('',#29,1.);
#29 = DIRECTION('',(0.,-1.,2.22044604925E-16));
#30 = ORIENTED_EDGE('',*,*,#31,.T.);
#31 = EDGE_CURVE('',#24,#32,#34,.T.);
#32 = VERTEX_POINT('',#33);
#33 = CARTESIAN_POINT('',(-4.3,236.,-7.5));
#34 = LINE('',#35,#36);
#35 = CARTESIAN_POINT('',(-10.,236.,-7.5));
#36 = VECTOR('',#37,1.);
#37 = DIRECTION('',(1.,0.,0.));
#38 = ORIENTED_EDGE('',*,*,#39,.F.);
#39 = EDGE_CURVE('',#40,#32,#42,.T.);
#40 = VERTEX_POINT('',#41);
#41 = CARTESIAN_POINT('',(-4.3,240.,-7.5));
#42 = LINE('',#43,#44);
#43 = CARTESIAN_POINT('',(-4.3,240.,-7.5));
#44 = VECTOR('',#45,1.);
#45 = DIRECTION('',(0.,-1.,2.22044604925E-16));
#46 = ORIENTED_EDGE('',*,*,#47,.F.);
#47 = EDGE_CURVE('',#22,#40,#48,.T.);
#48 = LINE('',#49,#50);
#49 = CARTESIAN_POINT('',(-10.,240.,-7.5));
#50 = VECTOR('',#51,1.);
#51 = DIRECTION('',(1.,0.,0.));
#52 = PLANE('',#53);
#53 = AXIS2_PLACEMENT_3D('',#54,#55,#56);
#54 = CARTESIAN_POINT('',(-10.,240.,-7.5));
#55 = DIRECTION('',(0.,2.22044604925E-16,1.));
#56 = DIRECTION('',(1.,0.,0.));
#57 = ADVANCED_FACE('',(#58),#107,.T.);
#58 = FACE_BOUND('',#59,.T.);
#59 = EDGE_LOOP('',(#60,#68,#76,#84,#92,#100,#106));
#60 = ORIENTED_EDGE('',*,*,#61,.F.);
#61 = EDGE_CURVE('',#62,#22,#64,.T.);
#62 = VERTEX_POINT('',#63);
#63 = CARTESIAN_POINT('',(-10.,240.,-3.1));
#64 = LINE('',#65,#66);
#65 = CARTESIAN_POINT('',(-10.,240.,7.5));
#66 = VECTOR('',#67,1.);
#67 = DIRECTION('',(0.,-2.22044604925E-16,-1.));
#68 = ORIENTED_EDGE('',*,*,#69,.F.);
#69 = EDGE_CURVE('',#70,#62,#72,.T.);
#70 = VERTEX_POINT('',#71);
#71 = CARTESIAN_POINT('',(-8.,240.,-3.1));
#72 = LINE('',#73,#74);
#73 = CARTESIAN_POINT('',(-8.,240.,-3.1));
#74 = VECTOR('',#75,1.);
#75 = DIRECTION('',(-1.,0.,0.));
#76 = ORIENTED_EDGE('',*,*,#77,.F.);
#77 = EDGE_CURVE('',#78,#70,#80,.T.);
#78 = VERTEX_POINT('',#79);
#79 = CARTESIAN_POINT('',(-8.,240.,-5.1));
#80 = LINE('',#81,#82);
#81 = CARTESIAN_POINT('',(-8.,240.,-5.5));
#82 = VECTOR('',#83,1.);
#83 = DIRECTION('',(0.,2.22044604925E-16,1.));
#84 = ORIENTED_EDGE('',*,*,#85,.T.);
#85 = EDGE_CURVE('',#78,#86,#88,.T.);
#86 = VERTEX_POINT('',#87);
#87 = CARTESIAN_POINT('',(-6.465685424949,240.,-5.1));
#88 = LINE('',#89,#90);
#89 = CARTESIAN_POINT('',(-8.,240.,-5.1));
#90 = VECTOR('',#91,1.);
#91 = DIRECTION('',(1.,0.,0.));
#92 = ORIENTED_EDGE('',*,*,#93,.T.);
#93 = EDGE_CURVE('',#86,#94,#96,.T.);
#94 = VERTEX_POINT('',#95);
#95 = CARTESIAN_POINT('',(-4.3,240.,-2.934314575051));
#96 = LINE('',#97,#98);
#97 = CARTESIAN_POINT('',(-6.465685424949,240.,-5.1));
#98 = VECTOR('',#99,1.);
#99 = DIRECTION('',(0.707106781187,1.570092458684E-16,0.707106781187));
#100 = ORIENTED_EDGE('',*,*,#101,.F.);
#101 = EDGE_CURVE('',#40,#94,#102,.T.);
#102 = LINE('',#103,#104);
#103 = CARTESIAN_POINT('',(-4.3,240.,-7.5));
#104 = VECTOR('',#105,1.);
#105 = DIRECTION('',(0.,2.22044604925E-16,1.));
#106 = ORIENTED_EDGE('',*,*,#47,.F.);
#107 = PLANE('',#108);
#108 = AXIS2_PLACEMENT_3D('',#109,#110,#111);
#109 = CARTESIAN_POINT('',(-7.15,240.,-1.716286801353E-16));
#110 = DIRECTION('',(0.,1.,0.));
#111 = DIRECTION('',(0.,0.,1.));
#112 = ADVANCED_FACE('',(#113),#147,.F.);
#113 = FACE_BOUND('',#114,.F.);
#114 = EDGE_LOOP('',(#115,#125,#133,#141));
#115 = ORIENTED_EDGE('',*,*,#116,.T.);
#116 = EDGE_CURVE('',#117,#119,#121,.T.);
#117 = VERTEX_POINT('',#118);
#118 = CARTESIAN_POINT('',(-10.,240.,3.1));
#119 = VERTEX_POINT('',#120);
#120 = CARTESIAN_POINT('',(-10.,330.,3.1));
#121 = LINE('',#122,#123);
#122 = CARTESIAN_POINT('',(-10.,240.,3.1));
#123 = VECTOR('',#124,1.);
#124 = DIRECTION('',(0.,1.,-2.22044604925E-16));
#125 = ORIENTED_EDGE('',*,*,#126,.T.);
#126 = EDGE_CURVE('',#119,#127,#129,.T.);
#127 = VERTEX_POINT('',#128);
#128 = CARTESIAN_POINT('',(-8.,330.,3.1));
#129 = LINE('',#130,#131);
#130 = CARTESIAN_POINT('',(-10.,330.,3.1));
#131 = VECTOR('',#132,1.);
#132 = DIRECTION('',(1.,0.,0.));
#133 = ORIENTED_EDGE('',*,*,#134,.F.);
#134 = EDGE_CURVE('',#135,#127,#137,.T.);
#135 = VERTEX_POINT('',#136);
#136 = CARTESIAN_POINT('',(-8.,240.,3.1));
#137 = LINE('',#138,#139);
#138 = CARTESIAN_POINT('',(-8.,240.,3.1));
#139 = VECTOR('',#140,1.);
#140 = DIRECTION('',(0.,1.,-2.22044604925E-16));
#141 = ORIENTED_EDGE('',*,*,#142,.F.);
#142 = EDGE_CURVE('',#117,#135,#143,.T.);
#143 = LINE('',#144,#145);
#144 = CARTESIAN_POINT('',(-10.,240.,3.1));
#145 = VECTOR('',#146,1.);
#146 = DIRECTION('',(1.,0.,0.));
#147 = PLANE('',#148);
#148 = AXIS2_PLACEMENT_3D('',#149,#150,#151);
#149 = CARTESIAN_POINT('',(-10.,240.,3.1));
#150 = DIRECTION('',(0.,-2.22044604925E-16,-1.));
#151 = DIRECTION('',(1.,0.,0.));
#152 = ADVANCED_FACE('',(#153),#226,.T.);
#153 = FACE_BOUND('',#154,.T.);
#154 = EDGE_LOOP('',(#155,#163,#164,#172,#180,#188,#196,#204,#212,#220)
  );
#155 = ORIENTED_EDGE('',*,*,#156,.F.);
#156 = EDGE_CURVE('',#119,#157,#159,.T.);
#157 = VERTEX_POINT('',#158);
#158 = CARTESIAN_POINT('',(-10.,330.,-3.1));
#159 = LINE('',#160,#161);
#160 = CARTESIAN_POINT('',(-10.,330.,3.1));
#161 = VECTOR('',#162,1.);
#162 = DIRECTION('',(0.,-2.22044604925E-16,-1.));
#163 = ORIENTED_EDGE('',*,*,#126,.T.);
#164 = ORIENTED_EDGE('',*,*,#165,.T.);
#165 = EDGE_CURVE('',#127,#166,#168,.T.);
#166 = VERTEX_POINT('',#167);
#167 = CARTESIAN_POINT('',(-8.,330.,5.1));
#168 = LINE('',#169,#170);
#169 = CARTESIAN_POINT('',(-8.,330.,3.1));
#170 = VECTOR('',#171,1.);
#171 = DIRECTION('',(0.,2.22044604925E-16,1.));
#172 = ORIENTED_EDGE('',*,*,#173,.T.);
#173 = EDGE_CURVE('',#166,#174,#176,.T.);
#174 = VERTEX_POINT('',#175);
#175 = CARTESIAN_POINT('',(-6.465685424949,330.,5.1));
#176 = LINE('',#177,#178);
#177 = CARTESIAN_POINT('',(-6.729535298816,330.,5.1));
#178 = VECTOR('',#179,1.);
#179 = DIRECTION('',(1.,0.,0.));
#180 = ORIENTED_EDGE('',*,*,#181,.T.);
#181 = EDGE_CURVE('',#174,#182,#184,.T.);
#182 = VERTEX_POINT('',#183);
#183 = CARTESIAN_POINT('',(-4.3,330.,2.934314575051));
#184 = LINE('',#185,#186);
#185 = CARTESIAN_POINT('',(-4.239767649408,330.,2.874082224459));
#186 = VECTOR('',#187,1.);
#187 = DIRECTION('',(0.707106781187,0.,-0.707106781187));
#188 = ORIENTED_EDGE('',*,*,#189,.T.);
#189 = EDGE_CURVE('',#182,#190,#192,.T.);
#190 = VERTEX_POINT('',#191);
#191 = CARTESIAN_POINT('',(-4.3,330.,-2.934314575051));
#192 = LINE('',#193,#194);
#193 = CARTESIAN_POINT('',(-4.3,330.,-1.467157287525));
#194 = VECTOR('',#195,1.);
#195 = DIRECTION('',(0.,0.,-1.));
#196 = ORIENTED_EDGE('',*,*,#197,.T.);
#197 = EDGE_CURVE('',#190,#198,#200,.T.);
#198 = VERTEX_POINT('',#199);
#199 = CARTESIAN_POINT('',(-6.465685424949,330.,-5.1));
#200 = LINE('',#201,#202);
#201 = CARTESIAN_POINT('',(-5.322610361882,330.,-3.956924936933));
#202 = VECTOR('',#203,1.);
#203 = DIRECTION('',(-0.707106781187,0.,-0.707106781187));
#204 = ORIENTED_EDGE('',*,*,#205,.T.);
#205 = EDGE_CURVE('',#198,#206,#208,.T.);
#206 = VERTEX_POINT('',#207);
#207 = CARTESIAN_POINT('',(-8.,330.,-5.1));
#208 = LINE('',#209,#210);
#209 = CARTESIAN_POINT('',(-7.496692586341,330.,-5.1));
#210 = VECTOR('',#211,1.);
#211 = DIRECTION('',(-1.,0.,0.));
#212 = ORIENTED_EDGE('',*,*,#213,.T.);
#213 = EDGE_CURVE('',#206,#214,#216,.T.);
#214 = VERTEX_POINT('',#215);
#215 = CARTESIAN_POINT('',(-8.,330.,-3.1));
#216 = LINE('',#217,#218);
#217 = CARTESIAN_POINT('',(-8.,330.,-5.5));
#218 = VECTOR('',#219,1.);
#219 = DIRECTION('',(0.,2.22044604925E-16,1.));
#220 = ORIENTED_EDGE('',*,*,#221,.T.);
#221 = EDGE_CURVE('',#214,#157,#222,.T.);
#222 = LINE('',#223,#224);
#223 = CARTESIAN_POINT('',(-8.,330.,-3.1));
#224 = VECTOR('',#225,1.);
#225 = DIRECTION('',(-1.,0.,0.));
#226 = PLANE('',#227);
#227 = AXIS2_PLACEMENT_3D('',#228,#229,#230);
#228 = CARTESIAN_POINT('',(-6.993385172682,330.,-1.955956622252E-14));
#229 = DIRECTION('',(0.,1.,0.));
#230 = DIRECTION('',(0.,0.,1.));
#231 = ADVANCED_FACE('',(#232),#248,.F.);
#232 = FACE_BOUND('',#233,.F.);
#233 = EDGE_LOOP('',(#234,#240,#241,#247));
#234 = ORIENTED_EDGE('',*,*,#235,.T.);
#235 = EDGE_CURVE('',#70,#214,#236,.T.);
#236 = LINE('',#237,#238);
#237 = CARTESIAN_POINT('',(-8.,240.,-3.1));
#238 = VECTOR('',#239,1.);
#239 = DIRECTION('',(0.,1.,-2.22044604925E-16));
#240 = ORIENTED_EDGE('',*,*,#221,.T.);
#241 = ORIENTED_EDGE('',*,*,#242,.F.);
#242 = EDGE_CURVE('',#62,#157,#243,.T.);
#243 = LINE('',#244,#245);
#244 = CARTESIAN_POINT('',(-10.,240.,-3.1));
#245 = VECTOR('',#246,1.);
#246 = DIRECTION('',(0.,1.,-2.22044604925E-16));
#247 = ORIENTED_EDGE('',*,*,#69,.F.);
#248 = PLANE('',#249);
#249 = AXIS2_PLACEMENT_3D('',#250,#251,#252);
#250 = CARTESIAN_POINT('',(-8.,240.,-3.1));
#251 = DIRECTION('',(0.,2.22044604925E-16,1.));
#252 = DIRECTION('',(-1.,0.,0.));
#253 = ADVANCED_FACE('',(#254),#272,.F.);
#254 = FACE_BOUND('',#255,.F.);
#255 = EDGE_LOOP('',(#256,#264,#265,#266));
#256 = ORIENTED_EDGE('',*,*,#257,.F.);
#257 = EDGE_CURVE('',#135,#258,#260,.T.);
#258 = VERTEX_POINT('',#259);
#259 = CARTESIAN_POINT('',(-8.,240.,5.1));
#260 = LINE('',#261,#262);
#261 = CARTESIAN_POINT('',(-8.,240.,3.1));
#262 = VECTOR('',#263,1.);
#263 = DIRECTION('',(0.,2.22044604925E-16,1.));
#264 = ORIENTED_EDGE('',*,*,#134,.T.);
#265 = ORIENTED_EDGE('',*,*,#165,.T.);
#266 = ORIENTED_EDGE('',*,*,#267,.F.);
#267 = EDGE_CURVE('',#258,#166,#268,.T.);
#268 = LINE('',#269,#270);
#269 = CARTESIAN_POINT('',(-8.,240.,5.1));
#270 = VECTOR('',#271,1.);
#271 = DIRECTION('',(0.,1.,-2.22044604925E-16));
#272 = PLANE('',#273);
#273 = AXIS2_PLACEMENT_3D('',#274,#275,#276);
#274 = CARTESIAN_POINT('',(-8.,240.,3.1));
#275 = DIRECTION('',(1.,0.,0.));
#276 = DIRECTION('',(0.,2.22044604925E-16,1.));
#277 = ADVANCED_FACE('',(#278),#320,.T.);
#278 = FACE_BOUND('',#279,.T.);
#279 = EDGE_LOOP('',(#280,#288,#296,#304,#312,#318,#319));
#280 = ORIENTED_EDGE('',*,*,#281,.F.);
#281 = EDGE_CURVE('',#282,#117,#284,.T.);
#282 = VERTEX_POINT('',#283);
#283 = CARTESIAN_POINT('',(-10.,240.,7.5));
#284 = LINE('',#285,#286);
#285 = CARTESIAN_POINT('',(-10.,240.,7.5));
#286 = VECTOR('',#287,1.);
#287 = DIRECTION('',(0.,-2.22044604925E-16,-1.));
#288 = ORIENTED_EDGE('',*,*,#289,.F.);
#289 = EDGE_CURVE('',#290,#282,#292,.T.);
#290 = VERTEX_POINT('',#291);
#291 = CARTESIAN_POINT('',(-4.3,240.,7.5));
#292 = LINE('',#293,#294);
#293 = CARTESIAN_POINT('',(-4.3,240.,7.5));
#294 = VECTOR('',#295,1.);
#295 = DIRECTION('',(-1.,0.,0.));
#296 = ORIENTED_EDGE('',*,*,#297,.F.);
#297 = EDGE_CURVE('',#298,#290,#300,.T.);
#298 = VERTEX_POINT('',#299);
#299 = CARTESIAN_POINT('',(-4.3,240.,2.934314575051));
#300 = LINE('',#301,#302);
#301 = CARTESIAN_POINT('',(-4.3,240.,-7.5));
#302 = VECTOR('',#303,1.);
#303 = DIRECTION('',(0.,2.22044604925E-16,1.));
#304 = ORIENTED_EDGE('',*,*,#305,.T.);
#305 = EDGE_CURVE('',#298,#306,#308,.T.);
#306 = VERTEX_POINT('',#307);
#307 = CARTESIAN_POINT('',(-6.465685424949,240.,5.1));
#308 = LINE('',#309,#310);
#309 = CARTESIAN_POINT('',(-4.3,240.,2.934314575051));
#310 = VECTOR('',#311,1.);
#311 = DIRECTION('',(-0.707106781187,1.570092458684E-16,0.707106781187)
  );
#312 = ORIENTED_EDGE('',*,*,#313,.T.);
#313 = EDGE_CURVE('',#306,#258,#314,.T.);
#314 = LINE('',#315,#316);
#315 = CARTESIAN_POINT('',(-6.465685424949,240.,5.1));
#316 = VECTOR('',#317,1.);
#317 = DIRECTION('',(-1.,0.,0.));
#318 = ORIENTED_EDGE('',*,*,#257,.F.);
#319 = ORIENTED_EDGE('',*,*,#142,.F.);
#320 = PLANE('',#321);
#321 = AXIS2_PLACEMENT_3D('',#322,#323,#324);
#322 = CARTESIAN_POINT('',(-7.15,240.,-1.716286801353E-16));
#323 = DIRECTION('',(0.,1.,0.));
#324 = DIRECTION('',(0.,0.,1.));
#325 = ADVANCED_FACE('',(#326),#351,.F.);
#326 = FACE_BOUND('',#327,.F.);
#327 = EDGE_LOOP('',(#328,#336,#344,#350));
#328 = ORIENTED_EDGE('',*,*,#329,.T.);
#329 = EDGE_CURVE('',#290,#330,#332,.T.);
#330 = VERTEX_POINT('',#331);
#331 = CARTESIAN_POINT('',(-4.3,236.,7.5));
#332 = LINE('',#333,#334);
#333 = CARTESIAN_POINT('',(-4.3,240.,7.5));
#334 = VECTOR('',#335,1.);
#335 = DIRECTION('',(0.,-1.,2.22044604925E-16));
#336 = ORIENTED_EDGE('',*,*,#337,.T.);
#337 = EDGE_CURVE('',#330,#338,#340,.T.);
#338 = VERTEX_POINT('',#339);
#339 = CARTESIAN_POINT('',(-10.,236.,7.5));
#340 = LINE('',#341,#342);
#341 = CARTESIAN_POINT('',(-4.3,236.,7.5));
#342 = VECTOR('',#343,1.);
#343 = DIRECTION('',(-1.,0.,0.));
#344 = ORIENTED_EDGE('',*,*,#345,.F.);
#345 = EDGE_CURVE('',#282,#338,#346,.T.);
#346 = LINE('',#347,#348);
#347 = CARTESIAN_POINT('',(-10.,240.,7.5));
#348 = VECTOR('',#349,1.);
#349 = DIRECTION('',(0.,-1.,2.22044604925E-16));
#350 = ORIENTED_EDGE('',*,*,#289,.F.);
#351 = PLANE('',#352);
#352 = AXIS2_PLACEMENT_3D('',#353,#354,#355);
#353 = CARTESIAN_POINT('',(-4.3,240.,7.5));
#354 = DIRECTION('',(-0.,-2.22044604925E-16,-1.));
#355 = DIRECTION('',(-1.,0.,0.));
#356 = ADVANCED_FACE('',(#357),#373,.F.);
#357 = FACE_BOUND('',#358,.T.);
#358 = EDGE_LOOP('',(#359,#365,#366,#372));
#359 = ORIENTED_EDGE('',*,*,#360,.T.);
#360 = EDGE_CURVE('',#338,#24,#361,.T.);
#361 = LINE('',#362,#363);
#362 = CARTESIAN_POINT('',(-10.,236.,7.5));
#363 = VECTOR('',#364,1.);
#364 = DIRECTION('',(0.,-2.22044604925E-16,-1.));
#365 = ORIENTED_EDGE('',*,*,#31,.T.);
#366 = ORIENTED_EDGE('',*,*,#367,.T.);
#367 = EDGE_CURVE('',#32,#330,#368,.T.);
#368 = LINE('',#369,#370);
#369 = CARTESIAN_POINT('',(-4.3,236.,-7.5));
#370 = VECTOR('',#371,1.);
#371 = DIRECTION('',(0.,2.22044604925E-16,1.));
#372 = ORIENTED_EDGE('',*,*,#337,.T.);
#373 = PLANE('',#374);
#374 = AXIS2_PLACEMENT_3D('',#375,#376,#377);
#375 = CARTESIAN_POINT('',(-7.15,236.,7.165497395648E-16));
#376 = DIRECTION('',(0.,1.,0.));
#377 = DIRECTION('',(0.,0.,1.));
#378 = ADVANCED_FACE('',(#379),#390,.F.);
#379 = FACE_BOUND('',#380,.F.);
#380 = EDGE_LOOP('',(#381,#382,#388,#389));
#381 = ORIENTED_EDGE('',*,*,#77,.F.);
#382 = ORIENTED_EDGE('',*,*,#383,.T.);
#383 = EDGE_CURVE('',#78,#206,#384,.T.);
#384 = LINE('',#385,#386);
#385 = CARTESIAN_POINT('',(-8.,240.,-5.1));
#386 = VECTOR('',#387,1.);
#387 = DIRECTION('',(0.,1.,-2.22044604925E-16));
#388 = ORIENTED_EDGE('',*,*,#213,.T.);
#389 = ORIENTED_EDGE('',*,*,#235,.F.);
#390 = PLANE('',#391);
#391 = AXIS2_PLACEMENT_3D('',#392,#393,#394);
#392 = CARTESIAN_POINT('',(-8.,240.,-5.5));
#393 = DIRECTION('',(1.,0.,0.));
#394 = DIRECTION('',(0.,2.22044604925E-16,1.));
#395 = ADVANCED_FACE('',(#396),#407,.T.);
#396 = FACE_BOUND('',#397,.T.);
#397 = EDGE_LOOP('',(#398,#399,#400,#401));
#398 = ORIENTED_EDGE('',*,*,#85,.F.);
#399 = ORIENTED_EDGE('',*,*,#383,.T.);
#400 = ORIENTED_EDGE('',*,*,#205,.F.);
#401 = ORIENTED_EDGE('',*,*,#402,.F.);
#402 = EDGE_CURVE('',#86,#198,#403,.T.);
#403 = LINE('',#404,#405);
#404 = CARTESIAN_POINT('',(-6.465685424949,240.,-5.1));
#405 = VECTOR('',#406,1.);
#406 = DIRECTION('',(0.,1.,-2.22044604925E-16));
#407 = PLANE('',#408);
#408 = AXIS2_PLACEMENT_3D('',#409,#410,#411);
#409 = CARTESIAN_POINT('',(-8.,240.,-5.1));
#410 = DIRECTION('',(0.,-2.22044604925E-16,-1.));
#411 = DIRECTION('',(1.,0.,0.));
#412 = ADVANCED_FACE('',(#413),#424,.T.);
#413 = FACE_BOUND('',#414,.T.);
#414 = EDGE_LOOP('',(#415,#416,#417,#418));
#415 = ORIENTED_EDGE('',*,*,#93,.F.);
#416 = ORIENTED_EDGE('',*,*,#402,.T.);
#417 = ORIENTED_EDGE('',*,*,#197,.F.);
#418 = ORIENTED_EDGE('',*,*,#419,.F.);
#419 = EDGE_CURVE('',#94,#190,#420,.T.);
#420 = LINE('',#421,#422);
#421 = CARTESIAN_POINT('',(-4.3,240.,-2.934314575051));
#422 = VECTOR('',#423,1.);
#423 = DIRECTION('',(0.,1.,-2.22044604925E-16));
#424 = PLANE('',#425);
#425 = AXIS2_PLACEMENT_3D('',#426,#427,#428);
#426 = CARTESIAN_POINT('',(-6.465685424949,240.,-5.1));
#427 = DIRECTION('',(0.707106781187,-1.570092458684E-16,-0.707106781187)
  );
#428 = DIRECTION('',(0.707106781187,1.570092458684E-16,0.707106781187));
#429 = ADVANCED_FACE('',(#430),#446,.T.);
#430 = FACE_BOUND('',#431,.T.);
#431 = EDGE_LOOP('',(#432,#433,#439,#440));
#432 = ORIENTED_EDGE('',*,*,#305,.F.);
#433 = ORIENTED_EDGE('',*,*,#434,.T.);
#434 = EDGE_CURVE('',#298,#182,#435,.T.);
#435 = LINE('',#436,#437);
#436 = CARTESIAN_POINT('',(-4.3,240.,2.934314575051));
#437 = VECTOR('',#438,1.);
#438 = DIRECTION('',(0.,1.,-2.22044604925E-16));
#439 = ORIENTED_EDGE('',*,*,#181,.F.);
#440 = ORIENTED_EDGE('',*,*,#441,.F.);
#441 = EDGE_CURVE('',#306,#174,#442,.T.);
#442 = LINE('',#443,#444);
#443 = CARTESIAN_POINT('',(-6.465685424949,240.,5.1));
#444 = VECTOR('',#445,1.);
#445 = DIRECTION('',(0.,1.,-2.22044604925E-16));
#446 = PLANE('',#447);
#447 = AXIS2_PLACEMENT_3D('',#448,#449,#450);
#448 = CARTESIAN_POINT('',(-4.3,240.,2.934314575051));
#449 = DIRECTION('',(0.707106781187,1.570092458684E-16,0.707106781187));
#450 = DIRECTION('',(-0.707106781187,1.570092458684E-16,0.707106781187)
  );
#451 = ADVANCED_FACE('',(#452),#458,.T.);
#452 = FACE_BOUND('',#453,.T.);
#453 = EDGE_LOOP('',(#454,#455,#456,#457));
#454 = ORIENTED_EDGE('',*,*,#313,.F.);
#455 = ORIENTED_EDGE('',*,*,#441,.T.);
#456 = ORIENTED_EDGE('',*,*,#173,.F.);
#457 = ORIENTED_EDGE('',*,*,#267,.F.);
#458 = PLANE('',#459);
#459 = AXIS2_PLACEMENT_3D('',#460,#461,#462);
#460 = CARTESIAN_POINT('',(-6.465685424949,240.,5.1));
#461 = DIRECTION('',(0.,2.22044604925E-16,1.));
#462 = DIRECTION('',(-1.,0.,0.));
#463 = ADVANCED_FACE('',(#464,#474,#485,#496),#507,.T.);
#464 = FACE_BOUND('',#465,.T.);
#465 = EDGE_LOOP('',(#466,#467,#468,#469,#470,#471,#472,#473));
#466 = ORIENTED_EDGE('',*,*,#116,.T.);
#467 = ORIENTED_EDGE('',*,*,#156,.T.);
#468 = ORIENTED_EDGE('',*,*,#242,.F.);
#469 = ORIENTED_EDGE('',*,*,#61,.T.);
#470 = ORIENTED_EDGE('',*,*,#21,.T.);
#471 = ORIENTED_EDGE('',*,*,#360,.F.);
#472 = ORIENTED_EDGE('',*,*,#345,.F.);
#473 = ORIENTED_EDGE('',*,*,#281,.T.);
#474 = FACE_BOUND('',#475,.T.);
#475 = EDGE_LOOP('',(#476));
#476 = ORIENTED_EDGE('',*,*,#477,.F.);
#477 = EDGE_CURVE('',#478,#478,#480,.T.);
#478 = VERTEX_POINT('',#479);
#479 = CARTESIAN_POINT('',(-10.,316.,0.));
#480 = CIRCLE('',#481,2.);
#481 = AXIS2_PLACEMENT_3D('',#482,#483,#484);
#482 = CARTESIAN_POINT('',(-10.,318.,0.));
#483 = DIRECTION('',(-1.,0.,0.));
#484 = DIRECTION('',(0.,-1.,0.));
#485 = FACE_BOUND('',#486,.T.);
#486 = EDGE_LOOP('',(#487));
#487 = ORIENTED_EDGE('',*,*,#488,.F.);
#488 = EDGE_CURVE('',#489,#489,#491,.T.);
#489 = VERTEX_POINT('',#490);
#490 = CARTESIAN_POINT('',(-10.,308.,0.));
#491 = CIRCLE('',#492,2.);
#492 = AXIS2_PLACEMENT_3D('',#493,#494,#495);
#493 = CARTESIAN_POINT('',(-10.,310.,0.));
#494 = DIRECTION('',(-1.,0.,0.));
#495 = DIRECTION('',(0.,-1.,0.));
#496 = FACE_BOUND('',#497,.T.);
#497 = EDGE_LOOP('',(#498));
#498 = ORIENTED_EDGE('',*,*,#499,.F.);
#499 = EDGE_CURVE('',#500,#500,#502,.T.);
#500 = VERTEX_POINT('',#501);
#501 = CARTESIAN_POINT('',(-10.,300.,0.));
#502 = CIRCLE('',#503,2.);
#503 = AXIS2_PLACEMENT_3D('',#504,#505,#506);
#504 = CARTESIAN_POINT('',(-10.,302.,0.));
#505 = DIRECTION('',(-1.,0.,0.));
#506 = DIRECTION('',(0.,-1.,0.));
#507 = PLANE('',#508);
#508 = AXIS2_PLACEMENT_3D('',#509,#510,#511);
#509 = CARTESIAN_POINT('',(-10.,279.36697247706,-8.804374151248E-15));
#510 = DIRECTION('',(-1.,-0.,-0.));
#511 = DIRECTION('',(0.,0.,-1.));
#512 = ADVANCED_FACE('',(#513),#531,.F.);
#513 = FACE_BOUND('',#514,.T.);
#514 = EDGE_LOOP('',(#515,#522,#523,#524));
#515 = ORIENTED_EDGE('',*,*,#516,.F.);
#516 = EDGE_CURVE('',#478,#517,#519,.T.);
#517 = VERTEX_POINT('',#518);
#518 = CARTESIAN_POINT('',(-4.3,316.49868538209,0.));
#519 = B_SPLINE_CURVE_WITH_KNOTS('',1,(#520,#521),.UNSPECIFIED.,.F.,.F.,
  (2,2),(0.,1.),.PIECEWISE_BEZIER_KNOTS.);
#520 = CARTESIAN_POINT('',(-10.,316.,0.));
#521 = CARTESIAN_POINT('',(0.,316.87488663525,0.));
#522 = ORIENTED_EDGE('',*,*,#477,.T.);
#523 = ORIENTED_EDGE('',*,*,#516,.T.);
#524 = ORIENTED_EDGE('',*,*,#525,.T.);
#525 = EDGE_CURVE('',#517,#517,#526,.T.);
#526 = CIRCLE('',#527,1.501314617902);
#527 = AXIS2_PLACEMENT_3D('',#528,#529,#530);
#528 = CARTESIAN_POINT('',(-4.3,318.,0.));
#529 = DIRECTION('',(1.,0.,-0.));
#530 = DIRECTION('',(0.,-1.,0.));
#531 = CONICAL_SURFACE('',#532,2.,8.726646259972E-02);
#532 = AXIS2_PLACEMENT_3D('',#533,#534,#535);
#533 = CARTESIAN_POINT('',(-10.,318.,0.));
#534 = DIRECTION('',(-1.,-0.,-0.));
#535 = DIRECTION('',(0.,-1.,0.));
#536 = ADVANCED_FACE('',(#537),#555,.F.);
#537 = FACE_BOUND('',#538,.T.);
#538 = EDGE_LOOP('',(#539,#546,#547,#548));
#539 = ORIENTED_EDGE('',*,*,#540,.F.);
#540 = EDGE_CURVE('',#489,#541,#543,.T.);
#541 = VERTEX_POINT('',#542);
#542 = CARTESIAN_POINT('',(-4.3,308.49868538209,0.));
#543 = B_SPLINE_CURVE_WITH_KNOTS('',1,(#544,#545),.UNSPECIFIED.,.F.,.F.,
  (2,2),(0.,1.),.PIECEWISE_BEZIER_KNOTS.);
#544 = CARTESIAN_POINT('',(-10.,308.,0.));
#545 = CARTESIAN_POINT('',(0.,308.87488663525,0.));
#546 = ORIENTED_EDGE('',*,*,#488,.T.);
#547 = ORIENTED_EDGE('',*,*,#540,.T.);
#548 = ORIENTED_EDGE('',*,*,#549,.T.);
#549 = EDGE_CURVE('',#541,#541,#550,.T.);
#550 = CIRCLE('',#551,1.501314617902);
#551 = AXIS2_PLACEMENT_3D('',#552,#553,#554);
#552 = CARTESIAN_POINT('',(-4.3,310.,0.));
#553 = DIRECTION('',(1.,0.,-0.));
#554 = DIRECTION('',(0.,-1.,0.));
#555 = CONICAL_SURFACE('',#556,2.,8.726646259972E-02);
#556 = AXIS2_PLACEMENT_3D('',#557,#558,#559);
#557 = CARTESIAN_POINT('',(-10.,310.,0.));
#558 = DIRECTION('',(-1.,-0.,-0.));
#559 = DIRECTION('',(0.,-1.,0.));
#560 = ADVANCED_FACE('',(#561),#579,.F.);
#561 = FACE_BOUND('',#562,.T.);
#562 = EDGE_LOOP('',(#563,#570,#571,#572));
#563 = ORIENTED_EDGE('',*,*,#564,.F.);
#564 = EDGE_CURVE('',#500,#565,#567,.T.);
#565 = VERTEX_POINT('',#566);
#566 = CARTESIAN_POINT('',(-4.3,300.49868538209,0.));
#567 = B_SPLINE_CURVE_WITH_KNOTS('',1,(#568,#569),.UNSPECIFIED.,.F.,.F.,
  (2,2),(0.,1.),.PIECEWISE_BEZIER_KNOTS.);
#568 = CARTESIAN_POINT('',(-10.,300.,0.));
#569 = CARTESIAN_POINT('',(0.,300.87488663525,0.));
#570 = ORIENTED_EDGE('',*,*,#499,.T.);
#571 = ORIENTED_EDGE('',*,*,#564,.T.);
#572 = ORIENTED_EDGE('',*,*,#573,.T.);
#573 = EDGE_CURVE('',#565,#565,#574,.T.);
#574 = CIRCLE('',#575,1.501314617902);
#575 = AXIS2_PLACEMENT_3D('',#576,#577,#578);
#576 = CARTESIAN_POINT('',(-4.3,302.,0.));
#577 = DIRECTION('',(1.,0.,-0.));
#578 = DIRECTION('',(0.,-1.,0.));
#579 = CONICAL_SURFACE('',#580,2.,8.726646259972E-02);
#580 = AXIS2_PLACEMENT_3D('',#581,#582,#583);
#581 = CARTESIAN_POINT('',(-10.,302.,0.));
#582 = DIRECTION('',(-1.,-0.,-0.));
#583 = DIRECTION('',(0.,-1.,0.));
#584 = ADVANCED_FACE('',(#585,#595,#598,#601),#604,.T.);
#585 = FACE_BOUND('',#586,.T.);
#586 = EDGE_LOOP('',(#587,#588,#589,#590,#591,#592,#593,#594));
#587 = ORIENTED_EDGE('',*,*,#419,.T.);
#588 = ORIENTED_EDGE('',*,*,#189,.F.);
#589 = ORIENTED_EDGE('',*,*,#434,.F.);
#590 = ORIENTED_EDGE('',*,*,#297,.T.);
#591 = ORIENTED_EDGE('',*,*,#329,.T.);
#592 = ORIENTED_EDGE('',*,*,#367,.F.);
#593 = ORIENTED_EDGE('',*,*,#39,.F.);
#594 = ORIENTED_EDGE('',*,*,#101,.T.);
#595 = FACE_BOUND('',#596,.T.);
#596 = EDGE_LOOP('',(#597));
#597 = ORIENTED_EDGE('',*,*,#525,.F.);
#598 = FACE_BOUND('',#599,.T.);
#599 = EDGE_LOOP('',(#600));
#600 = ORIENTED_EDGE('',*,*,#573,.F.);
#601 = FACE_BOUND('',#602,.T.);
#602 = EDGE_LOOP('',(#603));
#603 = ORIENTED_EDGE('',*,*,#549,.F.);
#604 = PLANE('',#605);
#605 = AXIS2_PLACEMENT_3D('',#606,#607,#608);
#606 = CARTESIAN_POINT('',(-4.3,279.23016799774,-7.89989887981E-15));
#607 = DIRECTION('',(1.,0.,0.));
#608 = DIRECTION('',(0.,0.,1.));
#609 = ( GEOMETRIC_REPRESENTATION_CONTEXT(3) 
GLOBAL_UNCERTAINTY_ASSIGNED_CONTEXT((#613)) GLOBAL_UNIT_ASSIGNED_CONTEXT
((#610,#611,#612)) REPRESENTATION_CONTEXT('Context #1',
  '3D Context with UNIT and UNCERTAINTY') );
#610 = ( LENGTH_UNIT() NAMED_UNIT(*) SI_UNIT(.MILLI.,.METRE.) );
#611 = ( NAMED_UNIT(*) PLANE_ANGLE_UNIT() SI_UNIT($,.RADIAN.) );
#612 = ( NAMED_UNIT(*) SI_UNIT($,.STERADIAN.) SOLID_ANGLE_UNIT() );
#613 = UNCERTAINTY_MEASURE_WITH_UNIT(LENGTH_MEASURE(5.E-05),#610,
  'distance_accuracy_value','confusion accuracy');
#614 = PRODUCT_RELATED_PRODUCT_CATEGORY('part',$,(#7));
#615 = MECHANICAL_DESIGN_GEOMETRIC_PRESENTATION_REPRESENTATION('',(#616)
  ,#609);
#616 = STYLED_ITEM('color',(#617),#15);
#617 = PRESENTATION_STYLE_ASSIGNMENT((#618,#624));
#618 = SURFACE_STYLE_USAGE(.BOTH.,#619);
#619 = SURFACE_SIDE_STYLE('',(#620));
#620 = SURFACE_STYLE_FILL_AREA(#621);
#621 = FILL_AREA_STYLE('',(#622));
#622 = FILL_AREA_STYLE_COLOUR('',#623);
#623 = COLOUR_RGB('',0.447058818107,0.474509808674,0.501960817233);
#624 = CURVE_STYLE('',#625,POSITIVE_LENGTH_MEASURE(0.1),#626);
#625 = DRAUGHTING_PRE_DEFINED_CURVE_FONT('continuous');
#626 = COLOUR_RGB('',9.803921802644E-02,9.803921802644E-02,
  9.803921802644E-02);
ENDSEC;
END-ISO-10303-21;
