ISO-10303-21;
HEADER;
FILE_DESCRIPTION(('FreeCAD Model'),'2;1');
FILE_NAME('Open CASCADE Shape Model','2026-02-23T20:09:51',(''),(''),
  'Open CASCADE STEP processor 7.9','FreeCAD','Unknown');
FILE_SCHEMA(('AUTOMOTIVE_DESIGN { 1 0 10303 214 1 1 1 1 }'));
ENDSEC;
DATA;
#1 = APPLICATION_PROTOCOL_DEFINITION('international standard',
  'automotive_design',2000,#2);
#2 = APPLICATION_CONTEXT(
  'core data for automotive mechanical design processes');
#3 = SHAPE_DEFINITION_REPRESENTATION(#4,#10);
#4 = PRODUCT_DEFINITION_SHAPE('','',#5);
#5 = PRODUCT_DEFINITION('design','',#6,#9);
#6 = PRODUCT_DEFINITION_FORMATION('','',#7);
#7 = PRODUCT('2040 corner bracket','2040 corner bracket','',(#8));
#8 = PRODUCT_CONTEXT('',#2,'mechanical');
#9 = PRODUCT_DEFINITION_CONTEXT('part definition',#2,'design');
#10 = ADVANCED_BREP_SHAPE_REPRESENTATION('',(#11,#15),#2082);
#11 = AXIS2_PLACEMENT_3D('',#12,#13,#14);
#12 = CARTESIAN_POINT('',(0.,0.,0.));
#13 = DIRECTION('',(0.,0.,1.));
#14 = DIRECTION('',(1.,0.,-0.));
#15 = MANIFOLD_SOLID_BREP('',#16);
#16 = CLOSED_SHELL('',(#17,#265,#470,#502,#534,#615,#646,#670,#694,#711,
    #743,#767,#791,#809,#840,#864,#888,#905,#936,#960,#984,#1001,#1033,
    #1057,#1081,#1099,#1130,#1154,#1178,#1195,#1276,#1307,#1331,#1355,
    #1372,#1403,#1428,#1453,#1470,#1501,#1525,#1549,#1566,#1597,#1622,
    #1647,#1664,#1695,#1719,#1743,#1760,#1777,#1794,#1819,#1849,#1872,
    #1889,#1914,#1944,#1962,#1974,#1986,#1998,#2010,#2028,#2046,#2058,
    #2070));
#17 = ADVANCED_FACE('',(#18,#52,#86,#122,#156,#190,#226),#260,.T.);
#18 = FACE_BOUND('',#19,.T.);
#19 = EDGE_LOOP('',(#20,#30,#38,#46));
#20 = ORIENTED_EDGE('',*,*,#21,.T.);
#21 = EDGE_CURVE('',#22,#24,#26,.T.);
#22 = VERTEX_POINT('',#23);
#23 = CARTESIAN_POINT('',(0.,0.,0.));
#24 = VERTEX_POINT('',#25);
#25 = CARTESIAN_POINT('',(0.,-40.,9.E-15));
#26 = LINE('',#27,#28);
#27 = CARTESIAN_POINT('',(0.,0.,0.));
#28 = VECTOR('',#29,1.);
#29 = DIRECTION('',(0.,-1.,2.2E-16));
#30 = ORIENTED_EDGE('',*,*,#31,.T.);
#31 = EDGE_CURVE('',#24,#32,#34,.T.);
#32 = VERTEX_POINT('',#33);
#33 = CARTESIAN_POINT('',(0.,-40.,20.));
#34 = LINE('',#35,#36);
#35 = CARTESIAN_POINT('',(0.,-40.,9.E-15));
#36 = VECTOR('',#37,1.);
#37 = DIRECTION('',(0.,0.,1.));
#38 = ORIENTED_EDGE('',*,*,#39,.F.);
#39 = EDGE_CURVE('',#40,#32,#42,.T.);
#40 = VERTEX_POINT('',#41);
#41 = CARTESIAN_POINT('',(0.,0.,20.));
#42 = LINE('',#43,#44);
#43 = CARTESIAN_POINT('',(0.,4.44E-15,20.));
#44 = VECTOR('',#45,1.);
#45 = DIRECTION('',(0.,-1.,2.2E-16));
#46 = ORIENTED_EDGE('',*,*,#47,.F.);
#47 = EDGE_CURVE('',#22,#40,#48,.T.);
#48 = LINE('',#49,#50);
#49 = CARTESIAN_POINT('',(0.,0.,0.));
#50 = VECTOR('',#51,1.);
#51 = DIRECTION('',(0.,0.,1.));
#52 = FACE_BOUND('',#53,.T.);
#53 = EDGE_LOOP('',(#54,#64,#72,#80));
#54 = ORIENTED_EDGE('',*,*,#55,.F.);
#55 = EDGE_CURVE('',#56,#58,#60,.T.);
#56 = VERTEX_POINT('',#57);
#57 = CARTESIAN_POINT('',(0.,-27.5,3.499999999924));
#58 = VERTEX_POINT('',#59);
#59 = CARTESIAN_POINT('',(0.,-27.5,1.500000000026));
#60 = LINE('',#61,#62);
#61 = CARTESIAN_POINT('',(0.,-27.5,3.499999999924));
#62 = VECTOR('',#63,1.);
#63 = DIRECTION('',(0.,0.,-1.));
#64 = ORIENTED_EDGE('',*,*,#65,.F.);
#65 = EDGE_CURVE('',#66,#56,#68,.T.);
#66 = VERTEX_POINT('',#67);
#67 = CARTESIAN_POINT('',(0.,-32.5,3.499999999924));
#68 = LINE('',#69,#70);
#69 = CARTESIAN_POINT('',(0.,-32.5,3.499999999924));
#70 = VECTOR('',#71,1.);
#71 = DIRECTION('',(0.,1.,0.));
#72 = ORIENTED_EDGE('',*,*,#73,.F.);
#73 = EDGE_CURVE('',#74,#66,#76,.T.);
#74 = VERTEX_POINT('',#75);
#75 = CARTESIAN_POINT('',(0.,-32.5,1.500000000026));
#76 = LINE('',#77,#78);
#77 = CARTESIAN_POINT('',(0.,-32.5,1.500000000026));
#78 = VECTOR('',#79,1.);
#79 = DIRECTION('',(0.,0.,1.));
#80 = ORIENTED_EDGE('',*,*,#81,.F.);
#81 = EDGE_CURVE('',#58,#74,#82,.T.);
#82 = LINE('',#83,#84);
#83 = CARTESIAN_POINT('',(0.,-27.5,1.500000000026));
#84 = VECTOR('',#85,1.);
#85 = DIRECTION('',(0.,-1.,0.));
#86 = FACE_BOUND('',#87,.T.);
#87 = EDGE_LOOP('',(#88,#99,#107,#116));
#88 = ORIENTED_EDGE('',*,*,#89,.F.);
#89 = EDGE_CURVE('',#90,#92,#94,.T.);
#90 = VERTEX_POINT('',#91);
#91 = CARTESIAN_POINT('',(0.,-27.,10.000000000001));
#92 = VERTEX_POINT('',#93);
#93 = CARTESIAN_POINT('',(0.,-33.,10.000000000033));
#94 = CIRCLE('',#95,3.);
#95 = AXIS2_PLACEMENT_3D('',#96,#97,#98);
#96 = CARTESIAN_POINT('',(0.,-30.,10.));
#97 = DIRECTION('',(-1.,0.,1.1E-16));
#98 = DIRECTION('',(1.1E-16,2.2E-16,1.));
#99 = ORIENTED_EDGE('',*,*,#100,.T.);
#100 = EDGE_CURVE('',#90,#101,#103,.T.);
#101 = VERTEX_POINT('',#102);
#102 = CARTESIAN_POINT('',(0.,-27.,12.999999999999));
#103 = LINE('',#104,#105);
#104 = CARTESIAN_POINT('',(0.,-27.,5.));
#105 = VECTOR('',#106,1.);
#106 = DIRECTION('',(0.,2.2E-16,1.));
#107 = ORIENTED_EDGE('',*,*,#108,.F.);
#108 = EDGE_CURVE('',#109,#101,#111,.T.);
#109 = VERTEX_POINT('',#110);
#110 = CARTESIAN_POINT('',(0.,-33.,12.999999999967));
#111 = CIRCLE('',#112,3.);
#112 = AXIS2_PLACEMENT_3D('',#113,#114,#115);
#113 = CARTESIAN_POINT('',(0.,-30.,13.));
#114 = DIRECTION('',(-1.,0.,1.1E-16));
#115 = DIRECTION('',(1.1E-16,2.2E-16,1.));
#116 = ORIENTED_EDGE('',*,*,#117,.F.);
#117 = EDGE_CURVE('',#92,#109,#118,.T.);
#118 = LINE('',#119,#120);
#119 = CARTESIAN_POINT('',(0.,-32.99999999999,5.000000000012));
#120 = VECTOR('',#121,1.);
#121 = DIRECTION('',(0.,-2.5084E-13,1.));
#122 = FACE_BOUND('',#123,.T.);
#123 = EDGE_LOOP('',(#124,#134,#142,#150));
#124 = ORIENTED_EDGE('',*,*,#125,.F.);
#125 = EDGE_CURVE('',#126,#128,#130,.T.);
#126 = VERTEX_POINT('',#127);
#127 = CARTESIAN_POINT('',(0.,-27.5,18.499999999999));
#128 = VERTEX_POINT('',#129);
#129 = CARTESIAN_POINT('',(0.,-27.5,16.500000000006));
#130 = LINE('',#131,#132);
#131 = CARTESIAN_POINT('',(0.,-27.5,18.499999999999));
#132 = VECTOR('',#133,1.);
#133 = DIRECTION('',(0.,0.,-1.));
#134 = ORIENTED_EDGE('',*,*,#135,.F.);
#135 = EDGE_CURVE('',#136,#126,#138,.T.);
#136 = VERTEX_POINT('',#137);
#137 = CARTESIAN_POINT('',(0.,-32.5,18.499999999999));
#138 = LINE('',#139,#140);
#139 = CARTESIAN_POINT('',(0.,-32.5,18.499999999999));
#140 = VECTOR('',#141,1.);
#141 = DIRECTION('',(0.,1.,0.));
#142 = ORIENTED_EDGE('',*,*,#143,.F.);
#143 = EDGE_CURVE('',#144,#136,#146,.T.);
#144 = VERTEX_POINT('',#145);
#145 = CARTESIAN_POINT('',(0.,-32.5,16.500000000006));
#146 = LINE('',#147,#148);
#147 = CARTESIAN_POINT('',(0.,-32.5,16.500000000006));
#148 = VECTOR('',#149,1.);
#149 = DIRECTION('',(0.,0.,1.));
#150 = ORIENTED_EDGE('',*,*,#151,.F.);
#151 = EDGE_CURVE('',#128,#144,#152,.T.);
#152 = LINE('',#153,#154);
#153 = CARTESIAN_POINT('',(0.,-27.5,16.500000000006));
#154 = VECTOR('',#155,1.);
#155 = DIRECTION('',(0.,-1.,0.));
#156 = FACE_BOUND('',#157,.T.);
#157 = EDGE_LOOP('',(#158,#168,#176,#184));
#158 = ORIENTED_EDGE('',*,*,#159,.F.);
#159 = EDGE_CURVE('',#160,#162,#164,.T.);
#160 = VERTEX_POINT('',#161);
#161 = CARTESIAN_POINT('',(0.,-7.5,3.499999999924));
#162 = VERTEX_POINT('',#163);
#163 = CARTESIAN_POINT('',(0.,-7.5,1.5));
#164 = LINE('',#165,#166);
#165 = CARTESIAN_POINT('',(0.,-7.5,3.499999999924));
#166 = VECTOR('',#167,1.);
#167 = DIRECTION('',(0.,0.,-1.));
#168 = ORIENTED_EDGE('',*,*,#169,.F.);
#169 = EDGE_CURVE('',#170,#160,#172,.T.);
#170 = VERTEX_POINT('',#171);
#171 = CARTESIAN_POINT('',(0.,-12.5,3.499999999924));
#172 = LINE('',#173,#174);
#173 = CARTESIAN_POINT('',(0.,-12.5,3.499999999924));
#174 = VECTOR('',#175,1.);
#175 = DIRECTION('',(0.,1.,0.));
#176 = ORIENTED_EDGE('',*,*,#177,.F.);
#177 = EDGE_CURVE('',#178,#170,#180,.T.);
#178 = VERTEX_POINT('',#179);
#179 = CARTESIAN_POINT('',(0.,-12.5,1.5));
#180 = LINE('',#181,#182);
#181 = CARTESIAN_POINT('',(0.,-12.5,1.5));
#182 = VECTOR('',#183,1.);
#183 = DIRECTION('',(0.,0.,1.));
#184 = ORIENTED_EDGE('',*,*,#185,.F.);
#185 = EDGE_CURVE('',#162,#178,#186,.T.);
#186 = LINE('',#187,#188);
#187 = CARTESIAN_POINT('',(0.,-7.5,1.5));
#188 = VECTOR('',#189,1.);
#189 = DIRECTION('',(0.,-1.,0.));
#190 = FACE_BOUND('',#191,.T.);
#191 = EDGE_LOOP('',(#192,#203,#211,#220));
#192 = ORIENTED_EDGE('',*,*,#193,.F.);
#193 = EDGE_CURVE('',#194,#196,#198,.T.);
#194 = VERTEX_POINT('',#195);
#195 = CARTESIAN_POINT('',(0.,-7.,9.99999999996));
#196 = VERTEX_POINT('',#197);
#197 = CARTESIAN_POINT('',(0.,-13.,10.000000000001));
#198 = CIRCLE('',#199,3.);
#199 = AXIS2_PLACEMENT_3D('',#200,#201,#202);
#200 = CARTESIAN_POINT('',(0.,-10.,9.999999999958));
#201 = DIRECTION('',(-1.,0.,1.1E-16));
#202 = DIRECTION('',(1.1E-16,2.2E-16,1.));
#203 = ORIENTED_EDGE('',*,*,#204,.T.);
#204 = EDGE_CURVE('',#194,#205,#207,.T.);
#205 = VERTEX_POINT('',#206);
#206 = CARTESIAN_POINT('',(0.,-7.,13.000000000042));
#207 = LINE('',#208,#209);
#208 = CARTESIAN_POINT('',(0.,-7.,4.99999999998));
#209 = VECTOR('',#210,1.);
#210 = DIRECTION('',(0.,2.2E-16,1.));
#211 = ORIENTED_EDGE('',*,*,#212,.F.);
#212 = EDGE_CURVE('',#213,#205,#215,.T.);
#213 = VERTEX_POINT('',#214);
#214 = CARTESIAN_POINT('',(0.,-13.,13.));
#215 = CIRCLE('',#216,3.);
#216 = AXIS2_PLACEMENT_3D('',#217,#218,#219);
#217 = CARTESIAN_POINT('',(0.,-10.,13.000000000042));
#218 = DIRECTION('',(-1.,0.,1.1E-16));
#219 = DIRECTION('',(1.1E-16,2.2E-16,1.));
#220 = ORIENTED_EDGE('',*,*,#221,.F.);
#221 = EDGE_CURVE('',#196,#213,#222,.T.);
#222 = LINE('',#223,#224);
#223 = CARTESIAN_POINT('',(0.,-13.,5.000000000001));
#224 = VECTOR('',#225,1.);
#225 = DIRECTION('',(0.,-3.7E-16,1.));
#226 = FACE_BOUND('',#227,.T.);
#227 = EDGE_LOOP('',(#228,#238,#246,#254));
#228 = ORIENTED_EDGE('',*,*,#229,.F.);
#229 = EDGE_CURVE('',#230,#232,#234,.T.);
#230 = VERTEX_POINT('',#231);
#231 = CARTESIAN_POINT('',(0.,-7.5,18.499999999999));
#232 = VERTEX_POINT('',#233);
#233 = CARTESIAN_POINT('',(0.,-7.5,16.499999999999));
#234 = LINE('',#235,#236);
#235 = CARTESIAN_POINT('',(0.,-7.5,18.499999999999));
#236 = VECTOR('',#237,1.);
#237 = DIRECTION('',(0.,0.,-1.));
#238 = ORIENTED_EDGE('',*,*,#239,.F.);
#239 = EDGE_CURVE('',#240,#230,#242,.T.);
#240 = VERTEX_POINT('',#241);
#241 = CARTESIAN_POINT('',(0.,-12.5,18.499999999999));
#242 = LINE('',#243,#244);
#243 = CARTESIAN_POINT('',(0.,-12.5,18.499999999999));
#244 = VECTOR('',#245,1.);
#245 = DIRECTION('',(0.,1.,0.));
#246 = ORIENTED_EDGE('',*,*,#247,.F.);
#247 = EDGE_CURVE('',#248,#240,#250,.T.);
#248 = VERTEX_POINT('',#249);
#249 = CARTESIAN_POINT('',(0.,-12.5,16.499999999999));
#250 = LINE('',#251,#252);
#251 = CARTESIAN_POINT('',(0.,-12.5,16.499999999999));
#252 = VECTOR('',#253,1.);
#253 = DIRECTION('',(0.,0.,1.));
#254 = ORIENTED_EDGE('',*,*,#255,.F.);
#255 = EDGE_CURVE('',#232,#248,#256,.T.);
#256 = LINE('',#257,#258);
#257 = CARTESIAN_POINT('',(0.,-7.5,16.499999999999));
#258 = VECTOR('',#259,1.);
#259 = DIRECTION('',(0.,-1.,0.));
#260 = PLANE('',#261);
#261 = AXIS2_PLACEMENT_3D('',#262,#263,#264);
#262 = CARTESIAN_POINT('',(0.,0.,0.));
#263 = DIRECTION('',(-1.,0.,0.));
#264 = DIRECTION('',(0.,2.2E-16,1.));
#265 = ADVANCED_FACE('',(#266,#291,#325,#361,#395,#431),#465,.T.);
#266 = FACE_BOUND('',#267,.T.);
#267 = EDGE_LOOP('',(#268,#278,#284,#285));
#268 = ORIENTED_EDGE('',*,*,#269,.T.);
#269 = EDGE_CURVE('',#270,#272,#274,.T.);
#270 = VERTEX_POINT('',#271);
#271 = CARTESIAN_POINT('',(20.,0.,0.));
#272 = VERTEX_POINT('',#273);
#273 = CARTESIAN_POINT('',(20.,-40.,9.E-15));
#274 = LINE('',#275,#276);
#275 = CARTESIAN_POINT('',(20.,0.,0.));
#276 = VECTOR('',#277,1.);
#277 = DIRECTION('',(0.,-1.,2.2E-16));
#278 = ORIENTED_EDGE('',*,*,#279,.T.);
#279 = EDGE_CURVE('',#272,#24,#280,.T.);
#280 = LINE('',#281,#282);
#281 = CARTESIAN_POINT('',(20.,-40.,9.E-15));
#282 = VECTOR('',#283,1.);
#283 = DIRECTION('',(-1.,0.,0.));
#284 = ORIENTED_EDGE('',*,*,#21,.F.);
#285 = ORIENTED_EDGE('',*,*,#286,.F.);
#286 = EDGE_CURVE('',#270,#22,#287,.T.);
#287 = LINE('',#288,#289);
#288 = CARTESIAN_POINT('',(20.,0.,0.));
#289 = VECTOR('',#290,1.);
#290 = DIRECTION('',(-1.,0.,0.));
#291 = FACE_BOUND('',#292,.T.);
#292 = EDGE_LOOP('',(#293,#303,#311,#319));
#293 = ORIENTED_EDGE('',*,*,#294,.F.);
#294 = EDGE_CURVE('',#295,#297,#299,.T.);
#295 = VERTEX_POINT('',#296);
#296 = CARTESIAN_POINT('',(7.499999999978,-37.99999999997,0.));
#297 = VERTEX_POINT('',#298);
#298 = CARTESIAN_POINT('',(7.499999999978,-35.00000000002,0.));
#299 = LINE('',#300,#301);
#300 = CARTESIAN_POINT('',(7.499999999978,-37.99999999997,0.));
#301 = VECTOR('',#302,1.);
#302 = DIRECTION('',(0.,1.,0.));
#303 = ORIENTED_EDGE('',*,*,#304,.F.);
#304 = EDGE_CURVE('',#305,#295,#307,.T.);
#305 = VERTEX_POINT('',#306);
#306 = CARTESIAN_POINT('',(12.499999999978,-37.99999999997,0.));
#307 = LINE('',#308,#309);
#308 = CARTESIAN_POINT('',(12.499999999978,-37.99999999997,0.));
#309 = VECTOR('',#310,1.);
#310 = DIRECTION('',(-1.,0.,0.));
#311 = ORIENTED_EDGE('',*,*,#312,.F.);
#312 = EDGE_CURVE('',#313,#305,#315,.T.);
#313 = VERTEX_POINT('',#314);
#314 = CARTESIAN_POINT('',(12.499999999978,-35.00000000002,0.));
#315 = LINE('',#316,#317);
#316 = CARTESIAN_POINT('',(12.499999999978,-35.00000000002,0.));
#317 = VECTOR('',#318,1.);
#318 = DIRECTION('',(0.,-1.,0.));
#319 = ORIENTED_EDGE('',*,*,#320,.F.);
#320 = EDGE_CURVE('',#297,#313,#321,.T.);
#321 = LINE('',#322,#323);
#322 = CARTESIAN_POINT('',(7.499999999978,-35.00000000002,0.));
#323 = VECTOR('',#324,1.);
#324 = DIRECTION('',(1.,0.,0.));
#325 = FACE_BOUND('',#326,.T.);
#326 = EDGE_LOOP('',(#327,#337,#346,#354));
#327 = ORIENTED_EDGE('',*,*,#328,.T.);
#328 = EDGE_CURVE('',#329,#331,#333,.T.);
#329 = VERTEX_POINT('',#330);
#330 = CARTESIAN_POINT('',(12.999999999999,-27.,6.E-15));
#331 = VERTEX_POINT('',#332);
#332 = CARTESIAN_POINT('',(10.000000000001,-27.,6.E-15));
#333 = LINE('',#334,#335);
#334 = CARTESIAN_POINT('',(15.,-27.,6.11E-15));
#335 = VECTOR('',#336,1.);
#336 = DIRECTION('',(-1.,0.,0.));
#337 = ORIENTED_EDGE('',*,*,#338,.T.);
#338 = EDGE_CURVE('',#331,#339,#341,.T.);
#339 = VERTEX_POINT('',#340);
#340 = CARTESIAN_POINT('',(10.000000000033,-33.,7.E-15));
#341 = CIRCLE('',#342,3.);
#342 = AXIS2_PLACEMENT_3D('',#343,#344,#345);
#343 = CARTESIAN_POINT('',(10.,-30.,6.66E-15));
#344 = DIRECTION('',(0.,0.,1.));
#345 = DIRECTION('',(1.,0.,0.));
#346 = ORIENTED_EDGE('',*,*,#347,.F.);
#347 = EDGE_CURVE('',#348,#339,#350,.T.);
#348 = VERTEX_POINT('',#349);
#349 = CARTESIAN_POINT('',(12.999999999967,-33.,8.E-15));
#350 = LINE('',#351,#352);
#351 = CARTESIAN_POINT('',(15.000000000012,-33.,7.22E-15));
#352 = VECTOR('',#353,1.);
#353 = DIRECTION('',(-1.,2.5106E-13,0.));
#354 = ORIENTED_EDGE('',*,*,#355,.T.);
#355 = EDGE_CURVE('',#348,#329,#356,.T.);
#356 = CIRCLE('',#357,3.);
#357 = AXIS2_PLACEMENT_3D('',#358,#359,#360);
#358 = CARTESIAN_POINT('',(13.,-30.,6.66E-15));
#359 = DIRECTION('',(0.,0.,1.));
#360 = DIRECTION('',(1.,0.,0.));
#361 = FACE_BOUND('',#362,.T.);
#362 = EDGE_LOOP('',(#363,#373,#381,#389));
#363 = ORIENTED_EDGE('',*,*,#364,.F.);
#364 = EDGE_CURVE('',#365,#367,#369,.T.);
#365 = VERTEX_POINT('',#366);
#366 = CARTESIAN_POINT('',(7.499999999978,-21.49999999998,0.));
#367 = VERTEX_POINT('',#368);
#368 = CARTESIAN_POINT('',(7.499999999978,-18.50000000001,0.));
#369 = LINE('',#370,#371);
#370 = CARTESIAN_POINT('',(7.499999999978,-21.49999999998,0.));
#371 = VECTOR('',#372,1.);
#372 = DIRECTION('',(0.,1.,0.));
#373 = ORIENTED_EDGE('',*,*,#374,.F.);
#374 = EDGE_CURVE('',#375,#365,#377,.T.);
#375 = VERTEX_POINT('',#376);
#376 = CARTESIAN_POINT('',(12.5,-21.49999999998,0.));
#377 = LINE('',#378,#379);
#378 = CARTESIAN_POINT('',(12.5,-21.49999999998,0.));
#379 = VECTOR('',#380,1.);
#380 = DIRECTION('',(-1.,0.,0.));
#381 = ORIENTED_EDGE('',*,*,#382,.F.);
#382 = EDGE_CURVE('',#383,#375,#385,.T.);
#383 = VERTEX_POINT('',#384);
#384 = CARTESIAN_POINT('',(12.5,-18.50000000001,0.));
#385 = LINE('',#386,#387);
#386 = CARTESIAN_POINT('',(12.5,-18.50000000001,0.));
#387 = VECTOR('',#388,1.);
#388 = DIRECTION('',(0.,-1.,0.));
#389 = ORIENTED_EDGE('',*,*,#390,.F.);
#390 = EDGE_CURVE('',#367,#383,#391,.T.);
#391 = LINE('',#392,#393);
#392 = CARTESIAN_POINT('',(7.499999999978,-18.50000000001,0.));
#393 = VECTOR('',#394,1.);
#394 = DIRECTION('',(1.,0.,0.));
#395 = FACE_BOUND('',#396,.T.);
#396 = EDGE_LOOP('',(#397,#407,#416,#424));
#397 = ORIENTED_EDGE('',*,*,#398,.T.);
#398 = EDGE_CURVE('',#399,#401,#403,.T.);
#399 = VERTEX_POINT('',#400);
#400 = CARTESIAN_POINT('',(13.000000000042,-7.,1.E-15));
#401 = VERTEX_POINT('',#402);
#402 = CARTESIAN_POINT('',(9.99999999996,-7.,1.E-15));
#403 = LINE('',#404,#405);
#404 = CARTESIAN_POINT('',(14.99999999998,-7.,1.44E-15));
#405 = VECTOR('',#406,1.);
#406 = DIRECTION('',(-1.,0.,0.));
#407 = ORIENTED_EDGE('',*,*,#408,.T.);
#408 = EDGE_CURVE('',#401,#409,#411,.T.);
#409 = VERTEX_POINT('',#410);
#410 = CARTESIAN_POINT('',(10.000000000001,-13.,3.E-15));
#411 = CIRCLE('',#412,3.);
#412 = AXIS2_PLACEMENT_3D('',#413,#414,#415);
#413 = CARTESIAN_POINT('',(9.999999999958,-10.,2.22E-15));
#414 = DIRECTION('',(0.,0.,1.));
#415 = DIRECTION('',(1.,0.,0.));
#416 = ORIENTED_EDGE('',*,*,#417,.F.);
#417 = EDGE_CURVE('',#418,#409,#420,.T.);
#418 = VERTEX_POINT('',#419);
#419 = CARTESIAN_POINT('',(13.,-13.,3.E-15));
#420 = LINE('',#421,#422);
#421 = CARTESIAN_POINT('',(15.000000000001,-13.,2.78E-15));
#422 = VECTOR('',#423,1.);
#423 = DIRECTION('',(-1.,5.9E-16,0.));
#424 = ORIENTED_EDGE('',*,*,#425,.T.);
#425 = EDGE_CURVE('',#418,#399,#426,.T.);
#426 = CIRCLE('',#427,3.);
#427 = AXIS2_PLACEMENT_3D('',#428,#429,#430);
#428 = CARTESIAN_POINT('',(13.000000000042,-10.,2.22E-15));
#429 = DIRECTION('',(0.,0.,1.));
#430 = DIRECTION('',(1.,0.,0.));
#431 = FACE_BOUND('',#432,.T.);
#432 = EDGE_LOOP('',(#433,#443,#451,#459));
#433 = ORIENTED_EDGE('',*,*,#434,.F.);
#434 = EDGE_CURVE('',#435,#437,#439,.T.);
#435 = VERTEX_POINT('',#436);
#436 = CARTESIAN_POINT('',(7.499999999978,-5.,0.));
#437 = VERTEX_POINT('',#438);
#438 = CARTESIAN_POINT('',(7.499999999978,-2.,0.));
#439 = LINE('',#440,#441);
#440 = CARTESIAN_POINT('',(7.499999999978,-5.,0.));
#441 = VECTOR('',#442,1.);
#442 = DIRECTION('',(0.,1.,0.));
#443 = ORIENTED_EDGE('',*,*,#444,.F.);
#444 = EDGE_CURVE('',#445,#435,#447,.T.);
#445 = VERTEX_POINT('',#446);
#446 = CARTESIAN_POINT('',(12.500000000022,-5.,0.));
#447 = LINE('',#448,#449);
#448 = CARTESIAN_POINT('',(12.500000000022,-5.,0.));
#449 = VECTOR('',#450,1.);
#450 = DIRECTION('',(-1.,0.,0.));
#451 = ORIENTED_EDGE('',*,*,#452,.F.);
#452 = EDGE_CURVE('',#453,#445,#455,.T.);
#453 = VERTEX_POINT('',#454);
#454 = CARTESIAN_POINT('',(12.500000000022,-2.,0.));
#455 = LINE('',#456,#457);
#456 = CARTESIAN_POINT('',(12.500000000022,-2.,0.));
#457 = VECTOR('',#458,1.);
#458 = DIRECTION('',(0.,-1.,0.));
#459 = ORIENTED_EDGE('',*,*,#460,.F.);
#460 = EDGE_CURVE('',#437,#453,#461,.T.);
#461 = LINE('',#462,#463);
#462 = CARTESIAN_POINT('',(7.499999999978,-2.,0.));
#463 = VECTOR('',#464,1.);
#464 = DIRECTION('',(1.,0.,0.));
#465 = PLANE('',#466);
#466 = AXIS2_PLACEMENT_3D('',#467,#468,#469);
#467 = CARTESIAN_POINT('',(20.,0.,0.));
#468 = DIRECTION('',(-0.,-2.2E-16,-1.));
#469 = DIRECTION('',(-1.,0.,0.));
#470 = ADVANCED_FACE('',(#471),#497,.T.);
#471 = FACE_BOUND('',#472,.T.);
#472 = EDGE_LOOP('',(#473,#474,#482,#490,#496));
#473 = ORIENTED_EDGE('',*,*,#47,.T.);
#474 = ORIENTED_EDGE('',*,*,#475,.T.);
#475 = EDGE_CURVE('',#40,#476,#478,.T.);
#476 = VERTEX_POINT('',#477);
#477 = CARTESIAN_POINT('',(4.,0.,20.));
#478 = LINE('',#479,#480);
#479 = CARTESIAN_POINT('',(0.,0.,20.));
#480 = VECTOR('',#481,1.);
#481 = DIRECTION('',(1.,0.,0.));
#482 = ORIENTED_EDGE('',*,*,#483,.T.);
#483 = EDGE_CURVE('',#476,#484,#486,.T.);
#484 = VERTEX_POINT('',#485);
#485 = CARTESIAN_POINT('',(20.,0.,4.));
#486 = LINE('',#487,#488);
#487 = CARTESIAN_POINT('',(4.,0.,20.));
#488 = VECTOR('',#489,1.);
#489 = DIRECTION('',(0.707106781187,0.,-0.707106781187));
#490 = ORIENTED_EDGE('',*,*,#491,.T.);
#491 = EDGE_CURVE('',#484,#270,#492,.T.);
#492 = LINE('',#493,#494);
#493 = CARTESIAN_POINT('',(20.,0.,4.));
#494 = VECTOR('',#495,1.);
#495 = DIRECTION('',(0.,0.,-1.));
#496 = ORIENTED_EDGE('',*,*,#286,.T.);
#497 = PLANE('',#498);
#498 = AXIS2_PLACEMENT_3D('',#499,#500,#501);
#499 = CARTESIAN_POINT('',(7.922263446102,1.76E-15,7.922263446102));
#500 = DIRECTION('',(0.,1.,0.));
#501 = DIRECTION('',(0.,0.,1.));
#502 = ADVANCED_FACE('',(#503),#529,.F.);
#503 = FACE_BOUND('',#504,.F.);
#504 = EDGE_LOOP('',(#505,#506,#514,#522,#528));
#505 = ORIENTED_EDGE('',*,*,#31,.T.);
#506 = ORIENTED_EDGE('',*,*,#507,.T.);
#507 = EDGE_CURVE('',#32,#508,#510,.T.);
#508 = VERTEX_POINT('',#509);
#509 = CARTESIAN_POINT('',(4.,-40.,20.));
#510 = LINE('',#511,#512);
#511 = CARTESIAN_POINT('',(0.,-40.,20.));
#512 = VECTOR('',#513,1.);
#513 = DIRECTION('',(1.,0.,0.));
#514 = ORIENTED_EDGE('',*,*,#515,.T.);
#515 = EDGE_CURVE('',#508,#516,#518,.T.);
#516 = VERTEX_POINT('',#517);
#517 = CARTESIAN_POINT('',(20.,-40.,4.));
#518 = LINE('',#519,#520);
#519 = CARTESIAN_POINT('',(4.,-40.,20.));
#520 = VECTOR('',#521,1.);
#521 = DIRECTION('',(0.707106781187,0.,-0.707106781187));
#522 = ORIENTED_EDGE('',*,*,#523,.T.);
#523 = EDGE_CURVE('',#516,#272,#524,.T.);
#524 = LINE('',#525,#526);
#525 = CARTESIAN_POINT('',(20.,-40.,4.));
#526 = VECTOR('',#527,1.);
#527 = DIRECTION('',(0.,0.,-1.));
#528 = ORIENTED_EDGE('',*,*,#279,.T.);
#529 = PLANE('',#530);
#530 = AXIS2_PLACEMENT_3D('',#531,#532,#533);
#531 = CARTESIAN_POINT('',(7.922263446102,-40.,7.922263446102));
#532 = DIRECTION('',(0.,1.,0.));
#533 = DIRECTION('',(0.,0.,1.));
#534 = ADVANCED_FACE('',(#535),#610,.T.);
#535 = FACE_BOUND('',#536,.T.);
#536 = EDGE_LOOP('',(#537,#538,#539,#540,#548,#556,#564,#572,#580,#588,
    #596,#604));
#537 = ORIENTED_EDGE('',*,*,#475,.F.);
#538 = ORIENTED_EDGE('',*,*,#39,.T.);
#539 = ORIENTED_EDGE('',*,*,#507,.T.);
#540 = ORIENTED_EDGE('',*,*,#541,.F.);
#541 = EDGE_CURVE('',#542,#508,#544,.T.);
#542 = VERTEX_POINT('',#543);
#543 = CARTESIAN_POINT('',(4.,-37.,20.));
#544 = LINE('',#545,#546);
#545 = CARTESIAN_POINT('',(4.,4.44E-15,20.));
#546 = VECTOR('',#547,1.);
#547 = DIRECTION('',(0.,-1.,2.2E-16));
#548 = ORIENTED_EDGE('',*,*,#549,.F.);
#549 = EDGE_CURVE('',#550,#542,#552,.T.);
#550 = VERTEX_POINT('',#551);
#551 = CARTESIAN_POINT('',(3.,-37.,20.));
#552 = LINE('',#553,#554);
#553 = CARTESIAN_POINT('',(3.,-37.,20.));
#554 = VECTOR('',#555,1.);
#555 = DIRECTION('',(1.,0.,0.));
#556 = ORIENTED_EDGE('',*,*,#557,.F.);
#557 = EDGE_CURVE('',#558,#550,#560,.T.);
#558 = VERTEX_POINT('',#559);
#559 = CARTESIAN_POINT('',(3.,-21.5,20.));
#560 = LINE('',#561,#562);
#561 = CARTESIAN_POINT('',(3.,-21.5,20.));
#562 = VECTOR('',#563,1.);
#563 = DIRECTION('',(0.,-1.,0.));
#564 = ORIENTED_EDGE('',*,*,#565,.F.);
#565 = EDGE_CURVE('',#566,#558,#568,.T.);
#566 = VERTEX_POINT('',#567);
#567 = CARTESIAN_POINT('',(4.,-21.5,20.));
#568 = LINE('',#569,#570);
#569 = CARTESIAN_POINT('',(20.,-21.5,20.));
#570 = VECTOR('',#571,1.);
#571 = DIRECTION('',(-1.,0.,0.));
#572 = ORIENTED_EDGE('',*,*,#573,.F.);
#573 = EDGE_CURVE('',#574,#566,#576,.T.);
#574 = VERTEX_POINT('',#575);
#575 = CARTESIAN_POINT('',(4.,-18.5,20.));
#576 = LINE('',#577,#578);
#577 = CARTESIAN_POINT('',(4.,4.44E-15,20.));
#578 = VECTOR('',#579,1.);
#579 = DIRECTION('',(0.,-1.,2.2E-16));
#580 = ORIENTED_EDGE('',*,*,#581,.F.);
#581 = EDGE_CURVE('',#582,#574,#584,.T.);
#582 = VERTEX_POINT('',#583);
#583 = CARTESIAN_POINT('',(3.,-18.5,20.));
#584 = LINE('',#585,#586);
#585 = CARTESIAN_POINT('',(3.,-18.5,20.));
#586 = VECTOR('',#587,1.);
#587 = DIRECTION('',(1.,0.,0.));
#588 = ORIENTED_EDGE('',*,*,#589,.F.);
#589 = EDGE_CURVE('',#590,#582,#592,.T.);
#590 = VERTEX_POINT('',#591);
#591 = CARTESIAN_POINT('',(3.,-3.,20.));
#592 = LINE('',#593,#594);
#593 = CARTESIAN_POINT('',(3.,4.44E-15,20.));
#594 = VECTOR('',#595,1.);
#595 = DIRECTION('',(0.,-1.,2.2E-16));
#596 = ORIENTED_EDGE('',*,*,#597,.T.);
#597 = EDGE_CURVE('',#590,#598,#600,.T.);
#598 = VERTEX_POINT('',#599);
#599 = CARTESIAN_POINT('',(4.,-3.,20.));
#600 = LINE('',#601,#602);
#601 = CARTESIAN_POINT('',(0.,-3.,20.));
#602 = VECTOR('',#603,1.);
#603 = DIRECTION('',(1.,0.,0.));
#604 = ORIENTED_EDGE('',*,*,#605,.F.);
#605 = EDGE_CURVE('',#476,#598,#606,.T.);
#606 = LINE('',#607,#608);
#607 = CARTESIAN_POINT('',(4.,4.44E-15,20.));
#608 = VECTOR('',#609,1.);
#609 = DIRECTION('',(0.,-1.,2.2E-16));
#610 = PLANE('',#611);
#611 = AXIS2_PLACEMENT_3D('',#612,#613,#614);
#612 = CARTESIAN_POINT('',(1.861111111111,-19.79444444444,20.));
#613 = DIRECTION('',(-2.9E-16,0.,1.));
#614 = DIRECTION('',(1.,0.,2.9E-16));
#615 = ADVANCED_FACE('',(#616),#641,.F.);
#616 = FACE_BOUND('',#617,.F.);
#617 = EDGE_LOOP('',(#618,#626,#634,#640));
#618 = ORIENTED_EDGE('',*,*,#619,.T.);
#619 = EDGE_CURVE('',#56,#620,#622,.T.);
#620 = VERTEX_POINT('',#621);
#621 = CARTESIAN_POINT('',(-1.25,-27.5,3.499999999924));
#622 = LINE('',#623,#624);
#623 = CARTESIAN_POINT('',(0.,-27.5,3.499999999924));
#624 = VECTOR('',#625,1.);
#625 = DIRECTION('',(-1.,0.,0.));
#626 = ORIENTED_EDGE('',*,*,#627,.T.);
#627 = EDGE_CURVE('',#620,#628,#630,.T.);
#628 = VERTEX_POINT('',#629);
#629 = CARTESIAN_POINT('',(-1.25,-27.5,1.500000000026));
#630 = LINE('',#631,#632);
#631 = CARTESIAN_POINT('',(-1.25,-27.5,3.499999999924));
#632 = VECTOR('',#633,1.);
#633 = DIRECTION('',(0.,0.,-1.));
#634 = ORIENTED_EDGE('',*,*,#635,.F.);
#635 = EDGE_CURVE('',#58,#628,#636,.T.);
#636 = LINE('',#637,#638);
#637 = CARTESIAN_POINT('',(0.,-27.5,1.500000000026));
#638 = VECTOR('',#639,1.);
#639 = DIRECTION('',(-1.,0.,0.));
#640 = ORIENTED_EDGE('',*,*,#55,.F.);
#641 = PLANE('',#642);
#642 = AXIS2_PLACEMENT_3D('',#643,#644,#645);
#643 = CARTESIAN_POINT('',(0.,-27.5,3.499999999924));
#644 = DIRECTION('',(-0.,-1.,-0.));
#645 = DIRECTION('',(0.,0.,-1.));
#646 = ADVANCED_FACE('',(#647),#665,.F.);
#647 = FACE_BOUND('',#648,.F.);
#648 = EDGE_LOOP('',(#649,#650,#658,#664));
#649 = ORIENTED_EDGE('',*,*,#635,.T.);
#650 = ORIENTED_EDGE('',*,*,#651,.T.);
#651 = EDGE_CURVE('',#628,#652,#654,.T.);
#652 = VERTEX_POINT('',#653);
#653 = CARTESIAN_POINT('',(-1.25,-32.5,1.500000000026));
#654 = LINE('',#655,#656);
#655 = CARTESIAN_POINT('',(-1.25,-27.5,1.500000000026));
#656 = VECTOR('',#657,1.);
#657 = DIRECTION('',(0.,-1.,0.));
#658 = ORIENTED_EDGE('',*,*,#659,.F.);
#659 = EDGE_CURVE('',#74,#652,#660,.T.);
#660 = LINE('',#661,#662);
#661 = CARTESIAN_POINT('',(0.,-32.5,1.500000000026));
#662 = VECTOR('',#663,1.);
#663 = DIRECTION('',(-1.,0.,0.));
#664 = ORIENTED_EDGE('',*,*,#81,.F.);
#665 = PLANE('',#666);
#666 = AXIS2_PLACEMENT_3D('',#667,#668,#669);
#667 = CARTESIAN_POINT('',(0.,-27.5,1.500000000026));
#668 = DIRECTION('',(0.,0.,1.));
#669 = DIRECTION('',(0.,-1.,0.));
#670 = ADVANCED_FACE('',(#671),#689,.F.);
#671 = FACE_BOUND('',#672,.F.);
#672 = EDGE_LOOP('',(#673,#674,#682,#688));
#673 = ORIENTED_EDGE('',*,*,#659,.T.);
#674 = ORIENTED_EDGE('',*,*,#675,.T.);
#675 = EDGE_CURVE('',#652,#676,#678,.T.);
#676 = VERTEX_POINT('',#677);
#677 = CARTESIAN_POINT('',(-1.25,-32.5,3.499999999924));
#678 = LINE('',#679,#680);
#679 = CARTESIAN_POINT('',(-1.25,-32.5,1.500000000026));
#680 = VECTOR('',#681,1.);
#681 = DIRECTION('',(0.,0.,1.));
#682 = ORIENTED_EDGE('',*,*,#683,.F.);
#683 = EDGE_CURVE('',#66,#676,#684,.T.);
#684 = LINE('',#685,#686);
#685 = CARTESIAN_POINT('',(0.,-32.5,3.499999999924));
#686 = VECTOR('',#687,1.);
#687 = DIRECTION('',(-1.,0.,0.));
#688 = ORIENTED_EDGE('',*,*,#73,.F.);
#689 = PLANE('',#690);
#690 = AXIS2_PLACEMENT_3D('',#691,#692,#693);
#691 = CARTESIAN_POINT('',(0.,-32.5,1.500000000026));
#692 = DIRECTION('',(0.,1.,0.));
#693 = DIRECTION('',(0.,0.,1.));
#694 = ADVANCED_FACE('',(#695),#706,.F.);
#695 = FACE_BOUND('',#696,.F.);
#696 = EDGE_LOOP('',(#697,#698,#704,#705));
#697 = ORIENTED_EDGE('',*,*,#683,.T.);
#698 = ORIENTED_EDGE('',*,*,#699,.T.);
#699 = EDGE_CURVE('',#676,#620,#700,.T.);
#700 = LINE('',#701,#702);
#701 = CARTESIAN_POINT('',(-1.25,-32.5,3.499999999924));
#702 = VECTOR('',#703,1.);
#703 = DIRECTION('',(0.,1.,0.));
#704 = ORIENTED_EDGE('',*,*,#619,.F.);
#705 = ORIENTED_EDGE('',*,*,#65,.F.);
#706 = PLANE('',#707);
#707 = AXIS2_PLACEMENT_3D('',#708,#709,#710);
#708 = CARTESIAN_POINT('',(0.,-32.5,3.499999999924));
#709 = DIRECTION('',(0.,0.,-1.));
#710 = DIRECTION('',(0.,1.,0.));
#711 = ADVANCED_FACE('',(#712),#738,.F.);
#712 = FACE_BOUND('',#713,.F.);
#713 = EDGE_LOOP('',(#714,#725,#731,#732));
#714 = ORIENTED_EDGE('',*,*,#715,.T.);
#715 = EDGE_CURVE('',#716,#718,#720,.T.);
#716 = VERTEX_POINT('',#717);
#717 = CARTESIAN_POINT('',(3.,-27.,10.000000000001));
#718 = VERTEX_POINT('',#719);
#719 = CARTESIAN_POINT('',(3.,-33.,10.000000000033));
#720 = CIRCLE('',#721,3.);
#721 = AXIS2_PLACEMENT_3D('',#722,#723,#724);
#722 = CARTESIAN_POINT('',(3.,-30.,10.));
#723 = DIRECTION('',(-1.,0.,1.1E-16));
#724 = DIRECTION('',(1.1E-16,2.2E-16,1.));
#725 = ORIENTED_EDGE('',*,*,#726,.F.);
#726 = EDGE_CURVE('',#92,#718,#727,.T.);
#727 = LINE('',#728,#729);
#728 = CARTESIAN_POINT('',(2.,-33.,10.000000000033));
#729 = VECTOR('',#730,1.);
#730 = DIRECTION('',(1.,0.,-1.1E-16));
#731 = ORIENTED_EDGE('',*,*,#89,.F.);
#732 = ORIENTED_EDGE('',*,*,#733,.T.);
#733 = EDGE_CURVE('',#90,#716,#734,.T.);
#734 = LINE('',#735,#736);
#735 = CARTESIAN_POINT('',(-3.,-27.,10.000000000001));
#736 = VECTOR('',#737,1.);
#737 = DIRECTION('',(1.,0.,-1.1E-16));
#738 = CYLINDRICAL_SURFACE('',#739,3.);
#739 = AXIS2_PLACEMENT_3D('',#740,#741,#742);
#740 = CARTESIAN_POINT('',(-3.,-30.,10.));
#741 = DIRECTION('',(-1.,0.,1.1E-16));
#742 = DIRECTION('',(1.1E-16,2.2E-16,1.));
#743 = ADVANCED_FACE('',(#744),#762,.T.);
#744 = FACE_BOUND('',#745,.T.);
#745 = EDGE_LOOP('',(#746,#747,#748,#756));
#746 = ORIENTED_EDGE('',*,*,#100,.F.);
#747 = ORIENTED_EDGE('',*,*,#733,.T.);
#748 = ORIENTED_EDGE('',*,*,#749,.T.);
#749 = EDGE_CURVE('',#716,#750,#752,.T.);
#750 = VERTEX_POINT('',#751);
#751 = CARTESIAN_POINT('',(3.,-27.,12.999999999999));
#752 = LINE('',#753,#754);
#753 = CARTESIAN_POINT('',(3.,-27.,5.));
#754 = VECTOR('',#755,1.);
#755 = DIRECTION('',(0.,2.2E-16,1.));
#756 = ORIENTED_EDGE('',*,*,#757,.F.);
#757 = EDGE_CURVE('',#101,#750,#758,.T.);
#758 = LINE('',#759,#760);
#759 = CARTESIAN_POINT('',(2.,-27.,12.999999999999));
#760 = VECTOR('',#761,1.);
#761 = DIRECTION('',(1.,0.,-1.1E-16));
#762 = PLANE('',#763);
#763 = AXIS2_PLACEMENT_3D('',#764,#765,#766);
#764 = CARTESIAN_POINT('',(1.5,-27.,11.5));
#765 = DIRECTION('',(-0.,-1.,-5.9E-16));
#766 = DIRECTION('',(0.,5.9E-16,-1.));
#767 = ADVANCED_FACE('',(#768),#786,.T.);
#768 = FACE_BOUND('',#769,.T.);
#769 = EDGE_LOOP('',(#770,#771,#779,#785));
#770 = ORIENTED_EDGE('',*,*,#117,.T.);
#771 = ORIENTED_EDGE('',*,*,#772,.T.);
#772 = EDGE_CURVE('',#109,#773,#775,.T.);
#773 = VERTEX_POINT('',#774);
#774 = CARTESIAN_POINT('',(3.,-33.,12.999999999967));
#775 = LINE('',#776,#777);
#776 = CARTESIAN_POINT('',(-3.,-33.,12.999999999967));
#777 = VECTOR('',#778,1.);
#778 = DIRECTION('',(1.,0.,-1.1E-16));
#779 = ORIENTED_EDGE('',*,*,#780,.F.);
#780 = EDGE_CURVE('',#718,#773,#781,.T.);
#781 = LINE('',#782,#783);
#782 = CARTESIAN_POINT('',(3.,-32.99999999999,5.000000000012));
#783 = VECTOR('',#784,1.);
#784 = DIRECTION('',(0.,-2.5084E-13,1.));
#785 = ORIENTED_EDGE('',*,*,#726,.F.);
#786 = PLANE('',#787);
#787 = AXIS2_PLACEMENT_3D('',#788,#789,#790);
#788 = CARTESIAN_POINT('',(1.5,-33.,11.5));
#789 = DIRECTION('',(0.,1.,1.8711E-13));
#790 = DIRECTION('',(0.,-1.8711E-13,1.));
#791 = ADVANCED_FACE('',(#792),#804,.F.);
#792 = FACE_BOUND('',#793,.F.);
#793 = EDGE_LOOP('',(#794,#801,#802,#803));
#794 = ORIENTED_EDGE('',*,*,#795,.T.);
#795 = EDGE_CURVE('',#773,#750,#796,.T.);
#796 = CIRCLE('',#797,3.);
#797 = AXIS2_PLACEMENT_3D('',#798,#799,#800);
#798 = CARTESIAN_POINT('',(3.,-30.,13.));
#799 = DIRECTION('',(-1.,0.,1.1E-16));
#800 = DIRECTION('',(1.1E-16,2.2E-16,1.));
#801 = ORIENTED_EDGE('',*,*,#757,.F.);
#802 = ORIENTED_EDGE('',*,*,#108,.F.);
#803 = ORIENTED_EDGE('',*,*,#772,.T.);
#804 = CYLINDRICAL_SURFACE('',#805,3.);
#805 = AXIS2_PLACEMENT_3D('',#806,#807,#808);
#806 = CARTESIAN_POINT('',(-3.,-30.,13.));
#807 = DIRECTION('',(-1.,0.,1.1E-16));
#808 = DIRECTION('',(1.1E-16,2.2E-16,1.));
#809 = ADVANCED_FACE('',(#810),#835,.F.);
#810 = FACE_BOUND('',#811,.F.);
#811 = EDGE_LOOP('',(#812,#820,#828,#834));
#812 = ORIENTED_EDGE('',*,*,#813,.T.);
#813 = EDGE_CURVE('',#126,#814,#816,.T.);
#814 = VERTEX_POINT('',#815);
#815 = CARTESIAN_POINT('',(-1.25,-27.5,18.499999999999));
#816 = LINE('',#817,#818);
#817 = CARTESIAN_POINT('',(0.,-27.5,18.499999999999));
#818 = VECTOR('',#819,1.);
#819 = DIRECTION('',(-1.,0.,0.));
#820 = ORIENTED_EDGE('',*,*,#821,.T.);
#821 = EDGE_CURVE('',#814,#822,#824,.T.);
#822 = VERTEX_POINT('',#823);
#823 = CARTESIAN_POINT('',(-1.25,-27.5,16.500000000006));
#824 = LINE('',#825,#826);
#825 = CARTESIAN_POINT('',(-1.25,-27.5,18.499999999999));
#826 = VECTOR('',#827,1.);
#827 = DIRECTION('',(0.,0.,-1.));
#828 = ORIENTED_EDGE('',*,*,#829,.F.);
#829 = EDGE_CURVE('',#128,#822,#830,.T.);
#830 = LINE('',#831,#832);
#831 = CARTESIAN_POINT('',(0.,-27.5,16.500000000006));
#832 = VECTOR('',#833,1.);
#833 = DIRECTION('',(-1.,0.,0.));
#834 = ORIENTED_EDGE('',*,*,#125,.F.);
#835 = PLANE('',#836);
#836 = AXIS2_PLACEMENT_3D('',#837,#838,#839);
#837 = CARTESIAN_POINT('',(0.,-27.5,18.499999999999));
#838 = DIRECTION('',(-0.,-1.,-0.));
#839 = DIRECTION('',(0.,0.,-1.));
#840 = ADVANCED_FACE('',(#841),#859,.F.);
#841 = FACE_BOUND('',#842,.F.);
#842 = EDGE_LOOP('',(#843,#844,#852,#858));
#843 = ORIENTED_EDGE('',*,*,#829,.T.);
#844 = ORIENTED_EDGE('',*,*,#845,.T.);
#845 = EDGE_CURVE('',#822,#846,#848,.T.);
#846 = VERTEX_POINT('',#847);
#847 = CARTESIAN_POINT('',(-1.25,-32.5,16.500000000006));
#848 = LINE('',#849,#850);
#849 = CARTESIAN_POINT('',(-1.25,-27.5,16.500000000006));
#850 = VECTOR('',#851,1.);
#851 = DIRECTION('',(0.,-1.,0.));
#852 = ORIENTED_EDGE('',*,*,#853,.F.);
#853 = EDGE_CURVE('',#144,#846,#854,.T.);
#854 = LINE('',#855,#856);
#855 = CARTESIAN_POINT('',(0.,-32.5,16.500000000006));
#856 = VECTOR('',#857,1.);
#857 = DIRECTION('',(-1.,0.,0.));
#858 = ORIENTED_EDGE('',*,*,#151,.F.);
#859 = PLANE('',#860);
#860 = AXIS2_PLACEMENT_3D('',#861,#862,#863);
#861 = CARTESIAN_POINT('',(0.,-27.5,16.500000000006));
#862 = DIRECTION('',(0.,0.,1.));
#863 = DIRECTION('',(0.,-1.,0.));
#864 = ADVANCED_FACE('',(#865),#883,.F.);
#865 = FACE_BOUND('',#866,.F.);
#866 = EDGE_LOOP('',(#867,#868,#876,#882));
#867 = ORIENTED_EDGE('',*,*,#853,.T.);
#868 = ORIENTED_EDGE('',*,*,#869,.T.);
#869 = EDGE_CURVE('',#846,#870,#872,.T.);
#870 = VERTEX_POINT('',#871);
#871 = CARTESIAN_POINT('',(-1.25,-32.5,18.499999999999));
#872 = LINE('',#873,#874);
#873 = CARTESIAN_POINT('',(-1.25,-32.5,16.500000000006));
#874 = VECTOR('',#875,1.);
#875 = DIRECTION('',(0.,0.,1.));
#876 = ORIENTED_EDGE('',*,*,#877,.F.);
#877 = EDGE_CURVE('',#136,#870,#878,.T.);
#878 = LINE('',#879,#880);
#879 = CARTESIAN_POINT('',(0.,-32.5,18.499999999999));
#880 = VECTOR('',#881,1.);
#881 = DIRECTION('',(-1.,0.,0.));
#882 = ORIENTED_EDGE('',*,*,#143,.F.);
#883 = PLANE('',#884);
#884 = AXIS2_PLACEMENT_3D('',#885,#886,#887);
#885 = CARTESIAN_POINT('',(0.,-32.5,16.500000000006));
#886 = DIRECTION('',(0.,1.,0.));
#887 = DIRECTION('',(0.,0.,1.));
#888 = ADVANCED_FACE('',(#889),#900,.F.);
#889 = FACE_BOUND('',#890,.F.);
#890 = EDGE_LOOP('',(#891,#892,#898,#899));
#891 = ORIENTED_EDGE('',*,*,#877,.T.);
#892 = ORIENTED_EDGE('',*,*,#893,.T.);
#893 = EDGE_CURVE('',#870,#814,#894,.T.);
#894 = LINE('',#895,#896);
#895 = CARTESIAN_POINT('',(-1.25,-32.5,18.499999999999));
#896 = VECTOR('',#897,1.);
#897 = DIRECTION('',(0.,1.,0.));
#898 = ORIENTED_EDGE('',*,*,#813,.F.);
#899 = ORIENTED_EDGE('',*,*,#135,.F.);
#900 = PLANE('',#901);
#901 = AXIS2_PLACEMENT_3D('',#902,#903,#904);
#902 = CARTESIAN_POINT('',(0.,-32.5,18.499999999999));
#903 = DIRECTION('',(0.,0.,-1.));
#904 = DIRECTION('',(0.,1.,0.));
#905 = ADVANCED_FACE('',(#906),#931,.F.);
#906 = FACE_BOUND('',#907,.F.);
#907 = EDGE_LOOP('',(#908,#916,#924,#930));
#908 = ORIENTED_EDGE('',*,*,#909,.T.);
#909 = EDGE_CURVE('',#160,#910,#912,.T.);
#910 = VERTEX_POINT('',#911);
#911 = CARTESIAN_POINT('',(-1.25,-7.5,3.499999999924));
#912 = LINE('',#913,#914);
#913 = CARTESIAN_POINT('',(0.,-7.5,3.499999999924));
#914 = VECTOR('',#915,1.);
#915 = DIRECTION('',(-1.,0.,0.));
#916 = ORIENTED_EDGE('',*,*,#917,.T.);
#917 = EDGE_CURVE('',#910,#918,#920,.T.);
#918 = VERTEX_POINT('',#919);
#919 = CARTESIAN_POINT('',(-1.25,-7.5,1.5));
#920 = LINE('',#921,#922);
#921 = CARTESIAN_POINT('',(-1.25,-7.5,3.499999999924));
#922 = VECTOR('',#923,1.);
#923 = DIRECTION('',(0.,0.,-1.));
#924 = ORIENTED_EDGE('',*,*,#925,.F.);
#925 = EDGE_CURVE('',#162,#918,#926,.T.);
#926 = LINE('',#927,#928);
#927 = CARTESIAN_POINT('',(0.,-7.5,1.5));
#928 = VECTOR('',#929,1.);
#929 = DIRECTION('',(-1.,0.,0.));
#930 = ORIENTED_EDGE('',*,*,#159,.F.);
#931 = PLANE('',#932);
#932 = AXIS2_PLACEMENT_3D('',#933,#934,#935);
#933 = CARTESIAN_POINT('',(0.,-7.5,3.499999999924));
#934 = DIRECTION('',(-0.,-1.,-0.));
#935 = DIRECTION('',(0.,0.,-1.));
#936 = ADVANCED_FACE('',(#937),#955,.F.);
#937 = FACE_BOUND('',#938,.F.);
#938 = EDGE_LOOP('',(#939,#940,#948,#954));
#939 = ORIENTED_EDGE('',*,*,#925,.T.);
#940 = ORIENTED_EDGE('',*,*,#941,.T.);
#941 = EDGE_CURVE('',#918,#942,#944,.T.);
#942 = VERTEX_POINT('',#943);
#943 = CARTESIAN_POINT('',(-1.25,-12.5,1.5));
#944 = LINE('',#945,#946);
#945 = CARTESIAN_POINT('',(-1.25,-7.5,1.5));
#946 = VECTOR('',#947,1.);
#947 = DIRECTION('',(0.,-1.,0.));
#948 = ORIENTED_EDGE('',*,*,#949,.F.);
#949 = EDGE_CURVE('',#178,#942,#950,.T.);
#950 = LINE('',#951,#952);
#951 = CARTESIAN_POINT('',(0.,-12.5,1.5));
#952 = VECTOR('',#953,1.);
#953 = DIRECTION('',(-1.,0.,0.));
#954 = ORIENTED_EDGE('',*,*,#185,.F.);
#955 = PLANE('',#956);
#956 = AXIS2_PLACEMENT_3D('',#957,#958,#959);
#957 = CARTESIAN_POINT('',(0.,-7.5,1.5));
#958 = DIRECTION('',(0.,0.,1.));
#959 = DIRECTION('',(0.,-1.,0.));
#960 = ADVANCED_FACE('',(#961),#979,.F.);
#961 = FACE_BOUND('',#962,.F.);
#962 = EDGE_LOOP('',(#963,#964,#972,#978));
#963 = ORIENTED_EDGE('',*,*,#949,.T.);
#964 = ORIENTED_EDGE('',*,*,#965,.T.);
#965 = EDGE_CURVE('',#942,#966,#968,.T.);
#966 = VERTEX_POINT('',#967);
#967 = CARTESIAN_POINT('',(-1.25,-12.5,3.499999999924));
#968 = LINE('',#969,#970);
#969 = CARTESIAN_POINT('',(-1.25,-12.5,1.5));
#970 = VECTOR('',#971,1.);
#971 = DIRECTION('',(0.,0.,1.));
#972 = ORIENTED_EDGE('',*,*,#973,.F.);
#973 = EDGE_CURVE('',#170,#966,#974,.T.);
#974 = LINE('',#975,#976);
#975 = CARTESIAN_POINT('',(0.,-12.5,3.499999999924));
#976 = VECTOR('',#977,1.);
#977 = DIRECTION('',(-1.,0.,0.));
#978 = ORIENTED_EDGE('',*,*,#177,.F.);
#979 = PLANE('',#980);
#980 = AXIS2_PLACEMENT_3D('',#981,#982,#983);
#981 = CARTESIAN_POINT('',(0.,-12.5,1.5));
#982 = DIRECTION('',(0.,1.,0.));
#983 = DIRECTION('',(0.,0.,1.));
#984 = ADVANCED_FACE('',(#985),#996,.F.);
#985 = FACE_BOUND('',#986,.F.);
#986 = EDGE_LOOP('',(#987,#988,#994,#995));
#987 = ORIENTED_EDGE('',*,*,#973,.T.);
#988 = ORIENTED_EDGE('',*,*,#989,.T.);
#989 = EDGE_CURVE('',#966,#910,#990,.T.);
#990 = LINE('',#991,#992);
#991 = CARTESIAN_POINT('',(-1.25,-12.5,3.499999999924));
#992 = VECTOR('',#993,1.);
#993 = DIRECTION('',(0.,1.,0.));
#994 = ORIENTED_EDGE('',*,*,#909,.F.);
#995 = ORIENTED_EDGE('',*,*,#169,.F.);
#996 = PLANE('',#997);
#997 = AXIS2_PLACEMENT_3D('',#998,#999,#1000);
#998 = CARTESIAN_POINT('',(0.,-12.5,3.499999999924));
#999 = DIRECTION('',(0.,0.,-1.));
#1000 = DIRECTION('',(0.,1.,0.));
#1001 = ADVANCED_FACE('',(#1002),#1028,.F.);
#1002 = FACE_BOUND('',#1003,.F.);
#1003 = EDGE_LOOP('',(#1004,#1015,#1021,#1022));
#1004 = ORIENTED_EDGE('',*,*,#1005,.T.);
#1005 = EDGE_CURVE('',#1006,#1008,#1010,.T.);
#1006 = VERTEX_POINT('',#1007);
#1007 = CARTESIAN_POINT('',(3.,-7.,9.99999999996));
#1008 = VERTEX_POINT('',#1009);
#1009 = CARTESIAN_POINT('',(3.,-13.,10.000000000001));
#1010 = CIRCLE('',#1011,3.);
#1011 = AXIS2_PLACEMENT_3D('',#1012,#1013,#1014);
#1012 = CARTESIAN_POINT('',(3.,-10.,9.999999999958));
#1013 = DIRECTION('',(-1.,0.,1.1E-16));
#1014 = DIRECTION('',(1.1E-16,2.2E-16,1.));
#1015 = ORIENTED_EDGE('',*,*,#1016,.F.);
#1016 = EDGE_CURVE('',#196,#1008,#1017,.T.);
#1017 = LINE('',#1018,#1019);
#1018 = CARTESIAN_POINT('',(2.,-13.,10.000000000001));
#1019 = VECTOR('',#1020,1.);
#1020 = DIRECTION('',(1.,0.,-1.1E-16));
#1021 = ORIENTED_EDGE('',*,*,#193,.F.);
#1022 = ORIENTED_EDGE('',*,*,#1023,.T.);
#1023 = EDGE_CURVE('',#194,#1006,#1024,.T.);
#1024 = LINE('',#1025,#1026);
#1025 = CARTESIAN_POINT('',(-3.,-7.,9.99999999996));
#1026 = VECTOR('',#1027,1.);
#1027 = DIRECTION('',(1.,0.,-1.1E-16));
#1028 = CYLINDRICAL_SURFACE('',#1029,3.);
#1029 = AXIS2_PLACEMENT_3D('',#1030,#1031,#1032);
#1030 = CARTESIAN_POINT('',(-3.,-10.,9.999999999958));
#1031 = DIRECTION('',(-1.,0.,1.1E-16));
#1032 = DIRECTION('',(1.1E-16,2.2E-16,1.));
#1033 = ADVANCED_FACE('',(#1034),#1052,.T.);
#1034 = FACE_BOUND('',#1035,.T.);
#1035 = EDGE_LOOP('',(#1036,#1037,#1038,#1046));
#1036 = ORIENTED_EDGE('',*,*,#204,.F.);
#1037 = ORIENTED_EDGE('',*,*,#1023,.T.);
#1038 = ORIENTED_EDGE('',*,*,#1039,.T.);
#1039 = EDGE_CURVE('',#1006,#1040,#1042,.T.);
#1040 = VERTEX_POINT('',#1041);
#1041 = CARTESIAN_POINT('',(3.,-7.,13.000000000042));
#1042 = LINE('',#1043,#1044);
#1043 = CARTESIAN_POINT('',(3.,-7.,4.99999999998));
#1044 = VECTOR('',#1045,1.);
#1045 = DIRECTION('',(0.,2.2E-16,1.));
#1046 = ORIENTED_EDGE('',*,*,#1047,.F.);
#1047 = EDGE_CURVE('',#205,#1040,#1048,.T.);
#1048 = LINE('',#1049,#1050);
#1049 = CARTESIAN_POINT('',(2.,-7.,13.000000000042));
#1050 = VECTOR('',#1051,1.);
#1051 = DIRECTION('',(1.,0.,-1.1E-16));
#1052 = PLANE('',#1053);
#1053 = AXIS2_PLACEMENT_3D('',#1054,#1055,#1056);
#1054 = CARTESIAN_POINT('',(1.5,-7.,11.500000000001));
#1055 = DIRECTION('',(-0.,-1.,-0.));
#1056 = DIRECTION('',(0.,0.,-1.));
#1057 = ADVANCED_FACE('',(#1058),#1076,.T.);
#1058 = FACE_BOUND('',#1059,.T.);
#1059 = EDGE_LOOP('',(#1060,#1061,#1069,#1075));
#1060 = ORIENTED_EDGE('',*,*,#221,.T.);
#1061 = ORIENTED_EDGE('',*,*,#1062,.T.);
#1062 = EDGE_CURVE('',#213,#1063,#1065,.T.);
#1063 = VERTEX_POINT('',#1064);
#1064 = CARTESIAN_POINT('',(3.,-13.,13.));
#1065 = LINE('',#1066,#1067);
#1066 = CARTESIAN_POINT('',(-3.,-13.,13.));
#1067 = VECTOR('',#1068,1.);
#1068 = DIRECTION('',(1.,0.,-1.1E-16));
#1069 = ORIENTED_EDGE('',*,*,#1070,.F.);
#1070 = EDGE_CURVE('',#1008,#1063,#1071,.T.);
#1071 = LINE('',#1072,#1073);
#1072 = CARTESIAN_POINT('',(3.,-13.,5.000000000001));
#1073 = VECTOR('',#1074,1.);
#1074 = DIRECTION('',(0.,-3.7E-16,1.));
#1075 = ORIENTED_EDGE('',*,*,#1016,.F.);
#1076 = PLANE('',#1077);
#1077 = AXIS2_PLACEMENT_3D('',#1078,#1079,#1080);
#1078 = CARTESIAN_POINT('',(1.5,-13.,11.500000000001));
#1079 = DIRECTION('',(0.,1.,3.E-16));
#1080 = DIRECTION('',(0.,-3.E-16,1.));
#1081 = ADVANCED_FACE('',(#1082),#1094,.F.);
#1082 = FACE_BOUND('',#1083,.F.);
#1083 = EDGE_LOOP('',(#1084,#1091,#1092,#1093));
#1084 = ORIENTED_EDGE('',*,*,#1085,.T.);
#1085 = EDGE_CURVE('',#1063,#1040,#1086,.T.);
#1086 = CIRCLE('',#1087,3.);
#1087 = AXIS2_PLACEMENT_3D('',#1088,#1089,#1090);
#1088 = CARTESIAN_POINT('',(3.,-10.,13.000000000042));
#1089 = DIRECTION('',(-1.,0.,1.1E-16));
#1090 = DIRECTION('',(1.1E-16,2.2E-16,1.));
#1091 = ORIENTED_EDGE('',*,*,#1047,.F.);
#1092 = ORIENTED_EDGE('',*,*,#212,.F.);
#1093 = ORIENTED_EDGE('',*,*,#1062,.T.);
#1094 = CYLINDRICAL_SURFACE('',#1095,3.);
#1095 = AXIS2_PLACEMENT_3D('',#1096,#1097,#1098);
#1096 = CARTESIAN_POINT('',(-3.,-10.,13.000000000042));
#1097 = DIRECTION('',(-1.,0.,1.1E-16));
#1098 = DIRECTION('',(1.1E-16,2.2E-16,1.));
#1099 = ADVANCED_FACE('',(#1100),#1125,.F.);
#1100 = FACE_BOUND('',#1101,.F.);
#1101 = EDGE_LOOP('',(#1102,#1110,#1118,#1124));
#1102 = ORIENTED_EDGE('',*,*,#1103,.T.);
#1103 = EDGE_CURVE('',#230,#1104,#1106,.T.);
#1104 = VERTEX_POINT('',#1105);
#1105 = CARTESIAN_POINT('',(-1.25,-7.5,18.499999999999));
#1106 = LINE('',#1107,#1108);
#1107 = CARTESIAN_POINT('',(0.,-7.5,18.499999999999));
#1108 = VECTOR('',#1109,1.);
#1109 = DIRECTION('',(-1.,0.,0.));
#1110 = ORIENTED_EDGE('',*,*,#1111,.T.);
#1111 = EDGE_CURVE('',#1104,#1112,#1114,.T.);
#1112 = VERTEX_POINT('',#1113);
#1113 = CARTESIAN_POINT('',(-1.25,-7.5,16.499999999999));
#1114 = LINE('',#1115,#1116);
#1115 = CARTESIAN_POINT('',(-1.25,-7.5,18.499999999999));
#1116 = VECTOR('',#1117,1.);
#1117 = DIRECTION('',(0.,0.,-1.));
#1118 = ORIENTED_EDGE('',*,*,#1119,.F.);
#1119 = EDGE_CURVE('',#232,#1112,#1120,.T.);
#1120 = LINE('',#1121,#1122);
#1121 = CARTESIAN_POINT('',(0.,-7.5,16.499999999999));
#1122 = VECTOR('',#1123,1.);
#1123 = DIRECTION('',(-1.,0.,0.));
#1124 = ORIENTED_EDGE('',*,*,#229,.F.);
#1125 = PLANE('',#1126);
#1126 = AXIS2_PLACEMENT_3D('',#1127,#1128,#1129);
#1127 = CARTESIAN_POINT('',(0.,-7.5,18.499999999999));
#1128 = DIRECTION('',(-0.,-1.,-0.));
#1129 = DIRECTION('',(0.,0.,-1.));
#1130 = ADVANCED_FACE('',(#1131),#1149,.F.);
#1131 = FACE_BOUND('',#1132,.F.);
#1132 = EDGE_LOOP('',(#1133,#1134,#1142,#1148));
#1133 = ORIENTED_EDGE('',*,*,#1119,.T.);
#1134 = ORIENTED_EDGE('',*,*,#1135,.T.);
#1135 = EDGE_CURVE('',#1112,#1136,#1138,.T.);
#1136 = VERTEX_POINT('',#1137);
#1137 = CARTESIAN_POINT('',(-1.25,-12.5,16.499999999999));
#1138 = LINE('',#1139,#1140);
#1139 = CARTESIAN_POINT('',(-1.25,-7.5,16.499999999999));
#1140 = VECTOR('',#1141,1.);
#1141 = DIRECTION('',(0.,-1.,0.));
#1142 = ORIENTED_EDGE('',*,*,#1143,.F.);
#1143 = EDGE_CURVE('',#248,#1136,#1144,.T.);
#1144 = LINE('',#1145,#1146);
#1145 = CARTESIAN_POINT('',(0.,-12.5,16.499999999999));
#1146 = VECTOR('',#1147,1.);
#1147 = DIRECTION('',(-1.,0.,0.));
#1148 = ORIENTED_EDGE('',*,*,#255,.F.);
#1149 = PLANE('',#1150);
#1150 = AXIS2_PLACEMENT_3D('',#1151,#1152,#1153);
#1151 = CARTESIAN_POINT('',(0.,-7.5,16.499999999999));
#1152 = DIRECTION('',(0.,0.,1.));
#1153 = DIRECTION('',(0.,-1.,0.));
#1154 = ADVANCED_FACE('',(#1155),#1173,.F.);
#1155 = FACE_BOUND('',#1156,.F.);
#1156 = EDGE_LOOP('',(#1157,#1158,#1166,#1172));
#1157 = ORIENTED_EDGE('',*,*,#1143,.T.);
#1158 = ORIENTED_EDGE('',*,*,#1159,.T.);
#1159 = EDGE_CURVE('',#1136,#1160,#1162,.T.);
#1160 = VERTEX_POINT('',#1161);
#1161 = CARTESIAN_POINT('',(-1.25,-12.5,18.499999999999));
#1162 = LINE('',#1163,#1164);
#1163 = CARTESIAN_POINT('',(-1.25,-12.5,16.499999999999));
#1164 = VECTOR('',#1165,1.);
#1165 = DIRECTION('',(0.,0.,1.));
#1166 = ORIENTED_EDGE('',*,*,#1167,.F.);
#1167 = EDGE_CURVE('',#240,#1160,#1168,.T.);
#1168 = LINE('',#1169,#1170);
#1169 = CARTESIAN_POINT('',(0.,-12.5,18.499999999999));
#1170 = VECTOR('',#1171,1.);
#1171 = DIRECTION('',(-1.,0.,0.));
#1172 = ORIENTED_EDGE('',*,*,#247,.F.);
#1173 = PLANE('',#1174);
#1174 = AXIS2_PLACEMENT_3D('',#1175,#1176,#1177);
#1175 = CARTESIAN_POINT('',(0.,-12.5,16.499999999999));
#1176 = DIRECTION('',(0.,1.,0.));
#1177 = DIRECTION('',(0.,0.,1.));
#1178 = ADVANCED_FACE('',(#1179),#1190,.F.);
#1179 = FACE_BOUND('',#1180,.F.);
#1180 = EDGE_LOOP('',(#1181,#1182,#1188,#1189));
#1181 = ORIENTED_EDGE('',*,*,#1167,.T.);
#1182 = ORIENTED_EDGE('',*,*,#1183,.T.);
#1183 = EDGE_CURVE('',#1160,#1104,#1184,.T.);
#1184 = LINE('',#1185,#1186);
#1185 = CARTESIAN_POINT('',(-1.25,-12.5,18.499999999999));
#1186 = VECTOR('',#1187,1.);
#1187 = DIRECTION('',(0.,1.,0.));
#1188 = ORIENTED_EDGE('',*,*,#1103,.F.);
#1189 = ORIENTED_EDGE('',*,*,#239,.F.);
#1190 = PLANE('',#1191);
#1191 = AXIS2_PLACEMENT_3D('',#1192,#1193,#1194);
#1192 = CARTESIAN_POINT('',(0.,-12.5,18.499999999999));
#1193 = DIRECTION('',(0.,0.,-1.));
#1194 = DIRECTION('',(0.,1.,0.));
#1195 = ADVANCED_FACE('',(#1196),#1271,.T.);
#1196 = FACE_BOUND('',#1197,.T.);
#1197 = EDGE_LOOP('',(#1198,#1199,#1200,#1208,#1216,#1224,#1232,#1240,
    #1248,#1256,#1264,#1270));
#1198 = ORIENTED_EDGE('',*,*,#269,.F.);
#1199 = ORIENTED_EDGE('',*,*,#491,.F.);
#1200 = ORIENTED_EDGE('',*,*,#1201,.T.);
#1201 = EDGE_CURVE('',#484,#1202,#1204,.T.);
#1202 = VERTEX_POINT('',#1203);
#1203 = CARTESIAN_POINT('',(20.,-3.,4.));
#1204 = LINE('',#1205,#1206);
#1205 = CARTESIAN_POINT('',(20.,8.9E-16,4.));
#1206 = VECTOR('',#1207,1.);
#1207 = DIRECTION('',(0.,-1.,2.2E-16));
#1208 = ORIENTED_EDGE('',*,*,#1209,.T.);
#1209 = EDGE_CURVE('',#1202,#1210,#1212,.T.);
#1210 = VERTEX_POINT('',#1211);
#1211 = CARTESIAN_POINT('',(20.,-3.,3.));
#1212 = LINE('',#1213,#1214);
#1213 = CARTESIAN_POINT('',(20.,-3.,4.));
#1214 = VECTOR('',#1215,1.);
#1215 = DIRECTION('',(0.,0.,-1.));
#1216 = ORIENTED_EDGE('',*,*,#1217,.T.);
#1217 = EDGE_CURVE('',#1210,#1218,#1220,.T.);
#1218 = VERTEX_POINT('',#1219);
#1219 = CARTESIAN_POINT('',(20.,-18.5,3.));
#1220 = LINE('',#1221,#1222);
#1221 = CARTESIAN_POINT('',(20.,6.7E-16,3.));
#1222 = VECTOR('',#1223,1.);
#1223 = DIRECTION('',(0.,-1.,2.2E-16));
#1224 = ORIENTED_EDGE('',*,*,#1225,.T.);
#1225 = EDGE_CURVE('',#1218,#1226,#1228,.T.);
#1226 = VERTEX_POINT('',#1227);
#1227 = CARTESIAN_POINT('',(20.,-18.5,4.));
#1228 = LINE('',#1229,#1230);
#1229 = CARTESIAN_POINT('',(20.,-18.5,3.5));
#1230 = VECTOR('',#1231,1.);
#1231 = DIRECTION('',(0.,0.,1.));
#1232 = ORIENTED_EDGE('',*,*,#1233,.F.);
#1233 = EDGE_CURVE('',#1234,#1226,#1236,.T.);
#1234 = VERTEX_POINT('',#1235);
#1235 = CARTESIAN_POINT('',(20.,-21.5,4.));
#1236 = LINE('',#1237,#1238);
#1237 = CARTESIAN_POINT('',(20.,-37.,4.));
#1238 = VECTOR('',#1239,1.);
#1239 = DIRECTION('',(0.,1.,0.));
#1240 = ORIENTED_EDGE('',*,*,#1241,.T.);
#1241 = EDGE_CURVE('',#1234,#1242,#1244,.T.);
#1242 = VERTEX_POINT('',#1243);
#1243 = CARTESIAN_POINT('',(20.,-21.5,3.));
#1244 = LINE('',#1245,#1246);
#1245 = CARTESIAN_POINT('',(20.,-21.5,20.));
#1246 = VECTOR('',#1247,1.);
#1247 = DIRECTION('',(-0.,-0.,-1.));
#1248 = ORIENTED_EDGE('',*,*,#1249,.F.);
#1249 = EDGE_CURVE('',#1250,#1242,#1252,.T.);
#1250 = VERTEX_POINT('',#1251);
#1251 = CARTESIAN_POINT('',(20.,-37.,3.));
#1252 = LINE('',#1253,#1254);
#1253 = CARTESIAN_POINT('',(20.,-18.5,3.));
#1254 = VECTOR('',#1255,1.);
#1255 = DIRECTION('',(0.,1.,-2.2E-16));
#1256 = ORIENTED_EDGE('',*,*,#1257,.F.);
#1257 = EDGE_CURVE('',#1258,#1250,#1260,.T.);
#1258 = VERTEX_POINT('',#1259);
#1259 = CARTESIAN_POINT('',(20.,-37.,4.));
#1260 = LINE('',#1261,#1262);
#1261 = CARTESIAN_POINT('',(20.,-37.,20.));
#1262 = VECTOR('',#1263,1.);
#1263 = DIRECTION('',(-0.,-0.,-1.));
#1264 = ORIENTED_EDGE('',*,*,#1265,.F.);
#1265 = EDGE_CURVE('',#516,#1258,#1266,.T.);
#1266 = LINE('',#1267,#1268);
#1267 = CARTESIAN_POINT('',(20.,-37.,4.));
#1268 = VECTOR('',#1269,1.);
#1269 = DIRECTION('',(0.,1.,0.));
#1270 = ORIENTED_EDGE('',*,*,#523,.T.);
#1271 = PLANE('',#1272);
#1272 = AXIS2_PLACEMENT_3D('',#1273,#1274,#1275);
#1273 = CARTESIAN_POINT('',(20.,-19.79444444444,1.861111111111));
#1274 = DIRECTION('',(1.,0.,0.));
#1275 = DIRECTION('',(0.,0.,1.));
#1276 = ADVANCED_FACE('',(#1277),#1302,.F.);
#1277 = FACE_BOUND('',#1278,.F.);
#1278 = EDGE_LOOP('',(#1279,#1287,#1295,#1301));
#1279 = ORIENTED_EDGE('',*,*,#1280,.T.);
#1280 = EDGE_CURVE('',#295,#1281,#1283,.T.);
#1281 = VERTEX_POINT('',#1282);
#1282 = CARTESIAN_POINT('',(7.499999999978,-37.99999999997,-1.25));
#1283 = LINE('',#1284,#1285);
#1284 = CARTESIAN_POINT('',(7.499999999978,-37.99999999997,0.));
#1285 = VECTOR('',#1286,1.);
#1286 = DIRECTION('',(0.,0.,-1.));
#1287 = ORIENTED_EDGE('',*,*,#1288,.T.);
#1288 = EDGE_CURVE('',#1281,#1289,#1291,.T.);
#1289 = VERTEX_POINT('',#1290);
#1290 = CARTESIAN_POINT('',(7.499999999978,-35.00000000002,-1.25));
#1291 = LINE('',#1292,#1293);
#1292 = CARTESIAN_POINT('',(7.499999999978,-37.99999999997,-1.25));
#1293 = VECTOR('',#1294,1.);
#1294 = DIRECTION('',(0.,1.,0.));
#1295 = ORIENTED_EDGE('',*,*,#1296,.F.);
#1296 = EDGE_CURVE('',#297,#1289,#1297,.T.);
#1297 = LINE('',#1298,#1299);
#1298 = CARTESIAN_POINT('',(7.499999999978,-35.00000000002,0.));
#1299 = VECTOR('',#1300,1.);
#1300 = DIRECTION('',(0.,0.,-1.));
#1301 = ORIENTED_EDGE('',*,*,#294,.F.);
#1302 = PLANE('',#1303);
#1303 = AXIS2_PLACEMENT_3D('',#1304,#1305,#1306);
#1304 = CARTESIAN_POINT('',(7.499999999978,-37.99999999997,0.));
#1305 = DIRECTION('',(1.,0.,0.));
#1306 = DIRECTION('',(0.,1.,0.));
#1307 = ADVANCED_FACE('',(#1308),#1326,.F.);
#1308 = FACE_BOUND('',#1309,.F.);
#1309 = EDGE_LOOP('',(#1310,#1311,#1319,#1325));
#1310 = ORIENTED_EDGE('',*,*,#1296,.T.);
#1311 = ORIENTED_EDGE('',*,*,#1312,.T.);
#1312 = EDGE_CURVE('',#1289,#1313,#1315,.T.);
#1313 = VERTEX_POINT('',#1314);
#1314 = CARTESIAN_POINT('',(12.499999999978,-35.00000000002,-1.25));
#1315 = LINE('',#1316,#1317);
#1316 = CARTESIAN_POINT('',(7.499999999978,-35.00000000002,-1.25));
#1317 = VECTOR('',#1318,1.);
#1318 = DIRECTION('',(1.,0.,0.));
#1319 = ORIENTED_EDGE('',*,*,#1320,.F.);
#1320 = EDGE_CURVE('',#313,#1313,#1321,.T.);
#1321 = LINE('',#1322,#1323);
#1322 = CARTESIAN_POINT('',(12.499999999978,-35.00000000002,0.));
#1323 = VECTOR('',#1324,1.);
#1324 = DIRECTION('',(0.,0.,-1.));
#1325 = ORIENTED_EDGE('',*,*,#320,.F.);
#1326 = PLANE('',#1327);
#1327 = AXIS2_PLACEMENT_3D('',#1328,#1329,#1330);
#1328 = CARTESIAN_POINT('',(7.499999999978,-35.00000000002,0.));
#1329 = DIRECTION('',(0.,-1.,0.));
#1330 = DIRECTION('',(1.,0.,0.));
#1331 = ADVANCED_FACE('',(#1332),#1350,.F.);
#1332 = FACE_BOUND('',#1333,.F.);
#1333 = EDGE_LOOP('',(#1334,#1335,#1343,#1349));
#1334 = ORIENTED_EDGE('',*,*,#1320,.T.);
#1335 = ORIENTED_EDGE('',*,*,#1336,.T.);
#1336 = EDGE_CURVE('',#1313,#1337,#1339,.T.);
#1337 = VERTEX_POINT('',#1338);
#1338 = CARTESIAN_POINT('',(12.499999999978,-37.99999999997,-1.25));
#1339 = LINE('',#1340,#1341);
#1340 = CARTESIAN_POINT('',(12.499999999978,-35.00000000002,-1.25));
#1341 = VECTOR('',#1342,1.);
#1342 = DIRECTION('',(0.,-1.,0.));
#1343 = ORIENTED_EDGE('',*,*,#1344,.F.);
#1344 = EDGE_CURVE('',#305,#1337,#1345,.T.);
#1345 = LINE('',#1346,#1347);
#1346 = CARTESIAN_POINT('',(12.499999999978,-37.99999999997,0.));
#1347 = VECTOR('',#1348,1.);
#1348 = DIRECTION('',(0.,0.,-1.));
#1349 = ORIENTED_EDGE('',*,*,#312,.F.);
#1350 = PLANE('',#1351);
#1351 = AXIS2_PLACEMENT_3D('',#1352,#1353,#1354);
#1352 = CARTESIAN_POINT('',(12.499999999978,-35.00000000002,0.));
#1353 = DIRECTION('',(-1.,-0.,-0.));
#1354 = DIRECTION('',(0.,-1.,0.));
#1355 = ADVANCED_FACE('',(#1356),#1367,.F.);
#1356 = FACE_BOUND('',#1357,.F.);
#1357 = EDGE_LOOP('',(#1358,#1359,#1365,#1366));
#1358 = ORIENTED_EDGE('',*,*,#1344,.T.);
#1359 = ORIENTED_EDGE('',*,*,#1360,.T.);
#1360 = EDGE_CURVE('',#1337,#1281,#1361,.T.);
#1361 = LINE('',#1362,#1363);
#1362 = CARTESIAN_POINT('',(12.499999999978,-37.99999999997,-1.25));
#1363 = VECTOR('',#1364,1.);
#1364 = DIRECTION('',(-1.,0.,0.));
#1365 = ORIENTED_EDGE('',*,*,#1280,.F.);
#1366 = ORIENTED_EDGE('',*,*,#304,.F.);
#1367 = PLANE('',#1368);
#1368 = AXIS2_PLACEMENT_3D('',#1369,#1370,#1371);
#1369 = CARTESIAN_POINT('',(12.499999999978,-37.99999999997,0.));
#1370 = DIRECTION('',(0.,1.,0.));
#1371 = DIRECTION('',(-1.,0.,0.));
#1372 = ADVANCED_FACE('',(#1373),#1398,.T.);
#1373 = FACE_BOUND('',#1374,.T.);
#1374 = EDGE_LOOP('',(#1375,#1385,#1391,#1392));
#1375 = ORIENTED_EDGE('',*,*,#1376,.F.);
#1376 = EDGE_CURVE('',#1377,#1379,#1381,.T.);
#1377 = VERTEX_POINT('',#1378);
#1378 = CARTESIAN_POINT('',(10.000000000001,-27.,3.));
#1379 = VERTEX_POINT('',#1380);
#1380 = CARTESIAN_POINT('',(12.999999999999,-27.,3.));
#1381 = LINE('',#1382,#1383);
#1382 = CARTESIAN_POINT('',(10.000000000001,-27.,3.));
#1383 = VECTOR('',#1384,1.);
#1384 = DIRECTION('',(1.,0.,0.));
#1385 = ORIENTED_EDGE('',*,*,#1386,.T.);
#1386 = EDGE_CURVE('',#1377,#331,#1387,.T.);
#1387 = LINE('',#1388,#1389);
#1388 = CARTESIAN_POINT('',(10.000000000001,-27.,3.));
#1389 = VECTOR('',#1390,1.);
#1390 = DIRECTION('',(-0.,-0.,-1.));
#1391 = ORIENTED_EDGE('',*,*,#328,.F.);
#1392 = ORIENTED_EDGE('',*,*,#1393,.F.);
#1393 = EDGE_CURVE('',#1379,#329,#1394,.T.);
#1394 = LINE('',#1395,#1396);
#1395 = CARTESIAN_POINT('',(12.999999999999,-27.,3.));
#1396 = VECTOR('',#1397,1.);
#1397 = DIRECTION('',(-0.,-0.,-1.));
#1398 = PLANE('',#1399);
#1399 = AXIS2_PLACEMENT_3D('',#1400,#1401,#1402);
#1400 = CARTESIAN_POINT('',(10.000000000001,-27.,3.));
#1401 = DIRECTION('',(0.,-1.,0.));
#1402 = DIRECTION('',(1.,0.,0.));
#1403 = ADVANCED_FACE('',(#1404),#1423,.F.);
#1404 = FACE_BOUND('',#1405,.F.);
#1405 = EDGE_LOOP('',(#1406,#1415,#1421,#1422));
#1406 = ORIENTED_EDGE('',*,*,#1407,.F.);
#1407 = EDGE_CURVE('',#1408,#1379,#1410,.T.);
#1408 = VERTEX_POINT('',#1409);
#1409 = CARTESIAN_POINT('',(12.999999999967,-33.,3.));
#1410 = CIRCLE('',#1411,3.);
#1411 = AXIS2_PLACEMENT_3D('',#1412,#1413,#1414);
#1412 = CARTESIAN_POINT('',(13.,-30.,3.));
#1413 = DIRECTION('',(0.,0.,1.));
#1414 = DIRECTION('',(1.,0.,0.));
#1415 = ORIENTED_EDGE('',*,*,#1416,.T.);
#1416 = EDGE_CURVE('',#1408,#348,#1417,.T.);
#1417 = LINE('',#1418,#1419);
#1418 = CARTESIAN_POINT('',(12.999999999967,-33.,3.));
#1419 = VECTOR('',#1420,1.);
#1420 = DIRECTION('',(-0.,-0.,-1.));
#1421 = ORIENTED_EDGE('',*,*,#355,.T.);
#1422 = ORIENTED_EDGE('',*,*,#1393,.F.);
#1423 = CYLINDRICAL_SURFACE('',#1424,3.);
#1424 = AXIS2_PLACEMENT_3D('',#1425,#1426,#1427);
#1425 = CARTESIAN_POINT('',(13.,-30.,3.));
#1426 = DIRECTION('',(0.,0.,1.));
#1427 = DIRECTION('',(1.,0.,0.));
#1428 = ADVANCED_FACE('',(#1429),#1448,.F.);
#1429 = FACE_BOUND('',#1430,.F.);
#1430 = EDGE_LOOP('',(#1431,#1440,#1441,#1442));
#1431 = ORIENTED_EDGE('',*,*,#1432,.F.);
#1432 = EDGE_CURVE('',#1377,#1433,#1435,.T.);
#1433 = VERTEX_POINT('',#1434);
#1434 = CARTESIAN_POINT('',(10.000000000033,-33.,3.));
#1435 = CIRCLE('',#1436,3.);
#1436 = AXIS2_PLACEMENT_3D('',#1437,#1438,#1439);
#1437 = CARTESIAN_POINT('',(10.,-30.,3.));
#1438 = DIRECTION('',(0.,0.,1.));
#1439 = DIRECTION('',(1.,0.,0.));
#1440 = ORIENTED_EDGE('',*,*,#1386,.T.);
#1441 = ORIENTED_EDGE('',*,*,#338,.T.);
#1442 = ORIENTED_EDGE('',*,*,#1443,.F.);
#1443 = EDGE_CURVE('',#1433,#339,#1444,.T.);
#1444 = LINE('',#1445,#1446);
#1445 = CARTESIAN_POINT('',(10.000000000033,-33.,3.));
#1446 = VECTOR('',#1447,1.);
#1447 = DIRECTION('',(-0.,-0.,-1.));
#1448 = CYLINDRICAL_SURFACE('',#1449,3.);
#1449 = AXIS2_PLACEMENT_3D('',#1450,#1451,#1452);
#1450 = CARTESIAN_POINT('',(10.,-30.,3.));
#1451 = DIRECTION('',(0.,0.,1.));
#1452 = DIRECTION('',(1.,0.,0.));
#1453 = ADVANCED_FACE('',(#1454),#1465,.F.);
#1454 = FACE_BOUND('',#1455,.F.);
#1455 = EDGE_LOOP('',(#1456,#1462,#1463,#1464));
#1456 = ORIENTED_EDGE('',*,*,#1457,.F.);
#1457 = EDGE_CURVE('',#1433,#1408,#1458,.T.);
#1458 = LINE('',#1459,#1460);
#1459 = CARTESIAN_POINT('',(10.000000000033,-33.,3.));
#1460 = VECTOR('',#1461,1.);
#1461 = DIRECTION('',(1.,-2.5106E-13,0.));
#1462 = ORIENTED_EDGE('',*,*,#1443,.T.);
#1463 = ORIENTED_EDGE('',*,*,#347,.F.);
#1464 = ORIENTED_EDGE('',*,*,#1416,.F.);
#1465 = PLANE('',#1466);
#1466 = AXIS2_PLACEMENT_3D('',#1467,#1468,#1469);
#1467 = CARTESIAN_POINT('',(10.000000000033,-33.,3.));
#1468 = DIRECTION('',(-2.5106E-13,-1.,0.));
#1469 = DIRECTION('',(1.,-2.5106E-13,0.));
#1470 = ADVANCED_FACE('',(#1471),#1496,.F.);
#1471 = FACE_BOUND('',#1472,.F.);
#1472 = EDGE_LOOP('',(#1473,#1481,#1489,#1495));
#1473 = ORIENTED_EDGE('',*,*,#1474,.T.);
#1474 = EDGE_CURVE('',#365,#1475,#1477,.T.);
#1475 = VERTEX_POINT('',#1476);
#1476 = CARTESIAN_POINT('',(7.499999999978,-21.49999999998,-1.25));
#1477 = LINE('',#1478,#1479);
#1478 = CARTESIAN_POINT('',(7.499999999978,-21.49999999998,0.));
#1479 = VECTOR('',#1480,1.);
#1480 = DIRECTION('',(0.,0.,-1.));
#1481 = ORIENTED_EDGE('',*,*,#1482,.T.);
#1482 = EDGE_CURVE('',#1475,#1483,#1485,.T.);
#1483 = VERTEX_POINT('',#1484);
#1484 = CARTESIAN_POINT('',(7.499999999978,-18.50000000001,-1.25));
#1485 = LINE('',#1486,#1487);
#1486 = CARTESIAN_POINT('',(7.499999999978,-21.49999999998,-1.25));
#1487 = VECTOR('',#1488,1.);
#1488 = DIRECTION('',(0.,1.,0.));
#1489 = ORIENTED_EDGE('',*,*,#1490,.F.);
#1490 = EDGE_CURVE('',#367,#1483,#1491,.T.);
#1491 = LINE('',#1492,#1493);
#1492 = CARTESIAN_POINT('',(7.499999999978,-18.50000000001,0.));
#1493 = VECTOR('',#1494,1.);
#1494 = DIRECTION('',(0.,0.,-1.));
#1495 = ORIENTED_EDGE('',*,*,#364,.F.);
#1496 = PLANE('',#1497);
#1497 = AXIS2_PLACEMENT_3D('',#1498,#1499,#1500);
#1498 = CARTESIAN_POINT('',(7.499999999978,-21.49999999998,0.));
#1499 = DIRECTION('',(1.,0.,0.));
#1500 = DIRECTION('',(0.,1.,0.));
#1501 = ADVANCED_FACE('',(#1502),#1520,.F.);
#1502 = FACE_BOUND('',#1503,.F.);
#1503 = EDGE_LOOP('',(#1504,#1505,#1513,#1519));
#1504 = ORIENTED_EDGE('',*,*,#1490,.T.);
#1505 = ORIENTED_EDGE('',*,*,#1506,.T.);
#1506 = EDGE_CURVE('',#1483,#1507,#1509,.T.);
#1507 = VERTEX_POINT('',#1508);
#1508 = CARTESIAN_POINT('',(12.5,-18.50000000001,-1.25));
#1509 = LINE('',#1510,#1511);
#1510 = CARTESIAN_POINT('',(7.499999999978,-18.50000000001,-1.25));
#1511 = VECTOR('',#1512,1.);
#1512 = DIRECTION('',(1.,0.,0.));
#1513 = ORIENTED_EDGE('',*,*,#1514,.F.);
#1514 = EDGE_CURVE('',#383,#1507,#1515,.T.);
#1515 = LINE('',#1516,#1517);
#1516 = CARTESIAN_POINT('',(12.5,-18.50000000001,0.));
#1517 = VECTOR('',#1518,1.);
#1518 = DIRECTION('',(0.,0.,-1.));
#1519 = ORIENTED_EDGE('',*,*,#390,.F.);
#1520 = PLANE('',#1521);
#1521 = AXIS2_PLACEMENT_3D('',#1522,#1523,#1524);
#1522 = CARTESIAN_POINT('',(7.499999999978,-18.50000000001,0.));
#1523 = DIRECTION('',(0.,-1.,0.));
#1524 = DIRECTION('',(1.,0.,0.));
#1525 = ADVANCED_FACE('',(#1526),#1544,.F.);
#1526 = FACE_BOUND('',#1527,.F.);
#1527 = EDGE_LOOP('',(#1528,#1529,#1537,#1543));
#1528 = ORIENTED_EDGE('',*,*,#1514,.T.);
#1529 = ORIENTED_EDGE('',*,*,#1530,.T.);
#1530 = EDGE_CURVE('',#1507,#1531,#1533,.T.);
#1531 = VERTEX_POINT('',#1532);
#1532 = CARTESIAN_POINT('',(12.5,-21.49999999998,-1.25));
#1533 = LINE('',#1534,#1535);
#1534 = CARTESIAN_POINT('',(12.5,-18.50000000001,-1.25));
#1535 = VECTOR('',#1536,1.);
#1536 = DIRECTION('',(0.,-1.,0.));
#1537 = ORIENTED_EDGE('',*,*,#1538,.F.);
#1538 = EDGE_CURVE('',#375,#1531,#1539,.T.);
#1539 = LINE('',#1540,#1541);
#1540 = CARTESIAN_POINT('',(12.5,-21.49999999998,0.));
#1541 = VECTOR('',#1542,1.);
#1542 = DIRECTION('',(0.,0.,-1.));
#1543 = ORIENTED_EDGE('',*,*,#382,.F.);
#1544 = PLANE('',#1545);
#1545 = AXIS2_PLACEMENT_3D('',#1546,#1547,#1548);
#1546 = CARTESIAN_POINT('',(12.5,-18.50000000001,0.));
#1547 = DIRECTION('',(-1.,-0.,-0.));
#1548 = DIRECTION('',(0.,-1.,0.));
#1549 = ADVANCED_FACE('',(#1550),#1561,.F.);
#1550 = FACE_BOUND('',#1551,.F.);
#1551 = EDGE_LOOP('',(#1552,#1553,#1559,#1560));
#1552 = ORIENTED_EDGE('',*,*,#1538,.T.);
#1553 = ORIENTED_EDGE('',*,*,#1554,.T.);
#1554 = EDGE_CURVE('',#1531,#1475,#1555,.T.);
#1555 = LINE('',#1556,#1557);
#1556 = CARTESIAN_POINT('',(12.5,-21.49999999998,-1.25));
#1557 = VECTOR('',#1558,1.);
#1558 = DIRECTION('',(-1.,0.,0.));
#1559 = ORIENTED_EDGE('',*,*,#1474,.F.);
#1560 = ORIENTED_EDGE('',*,*,#374,.F.);
#1561 = PLANE('',#1562);
#1562 = AXIS2_PLACEMENT_3D('',#1563,#1564,#1565);
#1563 = CARTESIAN_POINT('',(12.5,-21.49999999998,0.));
#1564 = DIRECTION('',(0.,1.,0.));
#1565 = DIRECTION('',(-1.,0.,0.));
#1566 = ADVANCED_FACE('',(#1567),#1592,.T.);
#1567 = FACE_BOUND('',#1568,.T.);
#1568 = EDGE_LOOP('',(#1569,#1579,#1585,#1586));
#1569 = ORIENTED_EDGE('',*,*,#1570,.F.);
#1570 = EDGE_CURVE('',#1571,#1573,#1575,.T.);
#1571 = VERTEX_POINT('',#1572);
#1572 = CARTESIAN_POINT('',(9.99999999996,-7.,3.));
#1573 = VERTEX_POINT('',#1574);
#1574 = CARTESIAN_POINT('',(13.000000000042,-7.,3.));
#1575 = LINE('',#1576,#1577);
#1576 = CARTESIAN_POINT('',(9.99999999996,-7.,3.));
#1577 = VECTOR('',#1578,1.);
#1578 = DIRECTION('',(1.,0.,0.));
#1579 = ORIENTED_EDGE('',*,*,#1580,.T.);
#1580 = EDGE_CURVE('',#1571,#401,#1581,.T.);
#1581 = LINE('',#1582,#1583);
#1582 = CARTESIAN_POINT('',(9.99999999996,-7.,3.));
#1583 = VECTOR('',#1584,1.);
#1584 = DIRECTION('',(-0.,-0.,-1.));
#1585 = ORIENTED_EDGE('',*,*,#398,.F.);
#1586 = ORIENTED_EDGE('',*,*,#1587,.F.);
#1587 = EDGE_CURVE('',#1573,#399,#1588,.T.);
#1588 = LINE('',#1589,#1590);
#1589 = CARTESIAN_POINT('',(13.000000000042,-7.,3.));
#1590 = VECTOR('',#1591,1.);
#1591 = DIRECTION('',(-0.,-0.,-1.));
#1592 = PLANE('',#1593);
#1593 = AXIS2_PLACEMENT_3D('',#1594,#1595,#1596);
#1594 = CARTESIAN_POINT('',(9.99999999996,-7.,3.));
#1595 = DIRECTION('',(0.,-1.,0.));
#1596 = DIRECTION('',(1.,0.,0.));
#1597 = ADVANCED_FACE('',(#1598),#1617,.F.);
#1598 = FACE_BOUND('',#1599,.F.);
#1599 = EDGE_LOOP('',(#1600,#1609,#1615,#1616));
#1600 = ORIENTED_EDGE('',*,*,#1601,.F.);
#1601 = EDGE_CURVE('',#1602,#1573,#1604,.T.);
#1602 = VERTEX_POINT('',#1603);
#1603 = CARTESIAN_POINT('',(13.,-13.,3.));
#1604 = CIRCLE('',#1605,3.);
#1605 = AXIS2_PLACEMENT_3D('',#1606,#1607,#1608);
#1606 = CARTESIAN_POINT('',(13.000000000042,-10.,3.));
#1607 = DIRECTION('',(0.,0.,1.));
#1608 = DIRECTION('',(1.,0.,0.));
#1609 = ORIENTED_EDGE('',*,*,#1610,.T.);
#1610 = EDGE_CURVE('',#1602,#418,#1611,.T.);
#1611 = LINE('',#1612,#1613);
#1612 = CARTESIAN_POINT('',(13.,-13.,3.));
#1613 = VECTOR('',#1614,1.);
#1614 = DIRECTION('',(-0.,-0.,-1.));
#1615 = ORIENTED_EDGE('',*,*,#425,.T.);
#1616 = ORIENTED_EDGE('',*,*,#1587,.F.);
#1617 = CYLINDRICAL_SURFACE('',#1618,3.);
#1618 = AXIS2_PLACEMENT_3D('',#1619,#1620,#1621);
#1619 = CARTESIAN_POINT('',(13.000000000042,-10.,3.));
#1620 = DIRECTION('',(0.,0.,1.));
#1621 = DIRECTION('',(1.,0.,0.));
#1622 = ADVANCED_FACE('',(#1623),#1642,.F.);
#1623 = FACE_BOUND('',#1624,.F.);
#1624 = EDGE_LOOP('',(#1625,#1634,#1635,#1636));
#1625 = ORIENTED_EDGE('',*,*,#1626,.F.);
#1626 = EDGE_CURVE('',#1571,#1627,#1629,.T.);
#1627 = VERTEX_POINT('',#1628);
#1628 = CARTESIAN_POINT('',(10.000000000001,-13.,3.));
#1629 = CIRCLE('',#1630,3.);
#1630 = AXIS2_PLACEMENT_3D('',#1631,#1632,#1633);
#1631 = CARTESIAN_POINT('',(9.999999999958,-10.,3.));
#1632 = DIRECTION('',(0.,0.,1.));
#1633 = DIRECTION('',(1.,0.,0.));
#1634 = ORIENTED_EDGE('',*,*,#1580,.T.);
#1635 = ORIENTED_EDGE('',*,*,#408,.T.);
#1636 = ORIENTED_EDGE('',*,*,#1637,.F.);
#1637 = EDGE_CURVE('',#1627,#409,#1638,.T.);
#1638 = LINE('',#1639,#1640);
#1639 = CARTESIAN_POINT('',(10.000000000001,-13.,3.));
#1640 = VECTOR('',#1641,1.);
#1641 = DIRECTION('',(-0.,-0.,-1.));
#1642 = CYLINDRICAL_SURFACE('',#1643,3.);
#1643 = AXIS2_PLACEMENT_3D('',#1644,#1645,#1646);
#1644 = CARTESIAN_POINT('',(9.999999999958,-10.,3.));
#1645 = DIRECTION('',(0.,0.,1.));
#1646 = DIRECTION('',(1.,0.,0.));
#1647 = ADVANCED_FACE('',(#1648),#1659,.F.);
#1648 = FACE_BOUND('',#1649,.F.);
#1649 = EDGE_LOOP('',(#1650,#1656,#1657,#1658));
#1650 = ORIENTED_EDGE('',*,*,#1651,.F.);
#1651 = EDGE_CURVE('',#1627,#1602,#1652,.T.);
#1652 = LINE('',#1653,#1654);
#1653 = CARTESIAN_POINT('',(10.000000000001,-13.,3.));
#1654 = VECTOR('',#1655,1.);
#1655 = DIRECTION('',(1.,-5.9E-16,0.));
#1656 = ORIENTED_EDGE('',*,*,#1637,.T.);
#1657 = ORIENTED_EDGE('',*,*,#417,.F.);
#1658 = ORIENTED_EDGE('',*,*,#1610,.F.);
#1659 = PLANE('',#1660);
#1660 = AXIS2_PLACEMENT_3D('',#1661,#1662,#1663);
#1661 = CARTESIAN_POINT('',(10.000000000001,-13.,3.));
#1662 = DIRECTION('',(-5.9E-16,-1.,0.));
#1663 = DIRECTION('',(1.,-5.9E-16,0.));
#1664 = ADVANCED_FACE('',(#1665),#1690,.F.);
#1665 = FACE_BOUND('',#1666,.F.);
#1666 = EDGE_LOOP('',(#1667,#1675,#1683,#1689));
#1667 = ORIENTED_EDGE('',*,*,#1668,.T.);
#1668 = EDGE_CURVE('',#435,#1669,#1671,.T.);
#1669 = VERTEX_POINT('',#1670);
#1670 = CARTESIAN_POINT('',(7.499999999978,-5.,-1.25));
#1671 = LINE('',#1672,#1673);
#1672 = CARTESIAN_POINT('',(7.499999999978,-5.,0.));
#1673 = VECTOR('',#1674,1.);
#1674 = DIRECTION('',(0.,0.,-1.));
#1675 = ORIENTED_EDGE('',*,*,#1676,.T.);
#1676 = EDGE_CURVE('',#1669,#1677,#1679,.T.);
#1677 = VERTEX_POINT('',#1678);
#1678 = CARTESIAN_POINT('',(7.499999999978,-2.,-1.25));
#1679 = LINE('',#1680,#1681);
#1680 = CARTESIAN_POINT('',(7.499999999978,-5.,-1.25));
#1681 = VECTOR('',#1682,1.);
#1682 = DIRECTION('',(0.,1.,0.));
#1683 = ORIENTED_EDGE('',*,*,#1684,.F.);
#1684 = EDGE_CURVE('',#437,#1677,#1685,.T.);
#1685 = LINE('',#1686,#1687);
#1686 = CARTESIAN_POINT('',(7.499999999978,-2.,0.));
#1687 = VECTOR('',#1688,1.);
#1688 = DIRECTION('',(0.,0.,-1.));
#1689 = ORIENTED_EDGE('',*,*,#434,.F.);
#1690 = PLANE('',#1691);
#1691 = AXIS2_PLACEMENT_3D('',#1692,#1693,#1694);
#1692 = CARTESIAN_POINT('',(7.499999999978,-5.,0.));
#1693 = DIRECTION('',(1.,0.,0.));
#1694 = DIRECTION('',(0.,1.,0.));
#1695 = ADVANCED_FACE('',(#1696),#1714,.F.);
#1696 = FACE_BOUND('',#1697,.F.);
#1697 = EDGE_LOOP('',(#1698,#1699,#1707,#1713));
#1698 = ORIENTED_EDGE('',*,*,#1684,.T.);
#1699 = ORIENTED_EDGE('',*,*,#1700,.T.);
#1700 = EDGE_CURVE('',#1677,#1701,#1703,.T.);
#1701 = VERTEX_POINT('',#1702);
#1702 = CARTESIAN_POINT('',(12.500000000022,-2.,-1.25));
#1703 = LINE('',#1704,#1705);
#1704 = CARTESIAN_POINT('',(7.499999999978,-2.,-1.25));
#1705 = VECTOR('',#1706,1.);
#1706 = DIRECTION('',(1.,0.,0.));
#1707 = ORIENTED_EDGE('',*,*,#1708,.F.);
#1708 = EDGE_CURVE('',#453,#1701,#1709,.T.);
#1709 = LINE('',#1710,#1711);
#1710 = CARTESIAN_POINT('',(12.500000000022,-2.,0.));
#1711 = VECTOR('',#1712,1.);
#1712 = DIRECTION('',(0.,0.,-1.));
#1713 = ORIENTED_EDGE('',*,*,#460,.F.);
#1714 = PLANE('',#1715);
#1715 = AXIS2_PLACEMENT_3D('',#1716,#1717,#1718);
#1716 = CARTESIAN_POINT('',(7.499999999978,-2.,0.));
#1717 = DIRECTION('',(0.,-1.,0.));
#1718 = DIRECTION('',(1.,0.,0.));
#1719 = ADVANCED_FACE('',(#1720),#1738,.F.);
#1720 = FACE_BOUND('',#1721,.F.);
#1721 = EDGE_LOOP('',(#1722,#1723,#1731,#1737));
#1722 = ORIENTED_EDGE('',*,*,#1708,.T.);
#1723 = ORIENTED_EDGE('',*,*,#1724,.T.);
#1724 = EDGE_CURVE('',#1701,#1725,#1727,.T.);
#1725 = VERTEX_POINT('',#1726);
#1726 = CARTESIAN_POINT('',(12.500000000022,-5.,-1.25));
#1727 = LINE('',#1728,#1729);
#1728 = CARTESIAN_POINT('',(12.500000000022,-2.,-1.25));
#1729 = VECTOR('',#1730,1.);
#1730 = DIRECTION('',(0.,-1.,0.));
#1731 = ORIENTED_EDGE('',*,*,#1732,.F.);
#1732 = EDGE_CURVE('',#445,#1725,#1733,.T.);
#1733 = LINE('',#1734,#1735);
#1734 = CARTESIAN_POINT('',(12.500000000022,-5.,0.));
#1735 = VECTOR('',#1736,1.);
#1736 = DIRECTION('',(0.,0.,-1.));
#1737 = ORIENTED_EDGE('',*,*,#452,.F.);
#1738 = PLANE('',#1739);
#1739 = AXIS2_PLACEMENT_3D('',#1740,#1741,#1742);
#1740 = CARTESIAN_POINT('',(12.500000000022,-2.,0.));
#1741 = DIRECTION('',(-1.,-0.,-0.));
#1742 = DIRECTION('',(0.,-1.,0.));
#1743 = ADVANCED_FACE('',(#1744),#1755,.F.);
#1744 = FACE_BOUND('',#1745,.F.);
#1745 = EDGE_LOOP('',(#1746,#1747,#1753,#1754));
#1746 = ORIENTED_EDGE('',*,*,#1732,.T.);
#1747 = ORIENTED_EDGE('',*,*,#1748,.T.);
#1748 = EDGE_CURVE('',#1725,#1669,#1749,.T.);
#1749 = LINE('',#1750,#1751);
#1750 = CARTESIAN_POINT('',(12.500000000022,-5.,-1.25));
#1751 = VECTOR('',#1752,1.);
#1752 = DIRECTION('',(-1.,0.,0.));
#1753 = ORIENTED_EDGE('',*,*,#1668,.F.);
#1754 = ORIENTED_EDGE('',*,*,#444,.F.);
#1755 = PLANE('',#1756);
#1756 = AXIS2_PLACEMENT_3D('',#1757,#1758,#1759);
#1757 = CARTESIAN_POINT('',(12.500000000022,-5.,0.));
#1758 = DIRECTION('',(0.,1.,0.));
#1759 = DIRECTION('',(-1.,0.,0.));
#1760 = ADVANCED_FACE('',(#1761),#1772,.T.);
#1761 = FACE_BOUND('',#1762,.T.);
#1762 = EDGE_LOOP('',(#1763,#1764,#1770,#1771));
#1763 = ORIENTED_EDGE('',*,*,#605,.T.);
#1764 = ORIENTED_EDGE('',*,*,#1765,.T.);
#1765 = EDGE_CURVE('',#598,#1202,#1766,.T.);
#1766 = LINE('',#1767,#1768);
#1767 = CARTESIAN_POINT('',(4.,-3.,20.));
#1768 = VECTOR('',#1769,1.);
#1769 = DIRECTION('',(0.707106781187,0.,-0.707106781187));
#1770 = ORIENTED_EDGE('',*,*,#1201,.F.);
#1771 = ORIENTED_EDGE('',*,*,#483,.F.);
#1772 = PLANE('',#1773);
#1773 = AXIS2_PLACEMENT_3D('',#1774,#1775,#1776);
#1774 = CARTESIAN_POINT('',(4.,4.44E-15,20.));
#1775 = DIRECTION('',(0.707106781187,1.6E-16,0.707106781187));
#1776 = DIRECTION('',(0.707106781187,-1.6E-16,-0.707106781187));
#1777 = ADVANCED_FACE('',(#1778),#1789,.T.);
#1778 = FACE_BOUND('',#1779,.T.);
#1779 = EDGE_LOOP('',(#1780,#1781,#1782,#1788));
#1780 = ORIENTED_EDGE('',*,*,#515,.T.);
#1781 = ORIENTED_EDGE('',*,*,#1265,.T.);
#1782 = ORIENTED_EDGE('',*,*,#1783,.F.);
#1783 = EDGE_CURVE('',#542,#1258,#1784,.T.);
#1784 = LINE('',#1785,#1786);
#1785 = CARTESIAN_POINT('',(7.75,-37.,16.25));
#1786 = VECTOR('',#1787,1.);
#1787 = DIRECTION('',(0.707106781187,0.,-0.707106781187));
#1788 = ORIENTED_EDGE('',*,*,#541,.T.);
#1789 = PLANE('',#1790);
#1790 = AXIS2_PLACEMENT_3D('',#1791,#1792,#1793);
#1791 = CARTESIAN_POINT('',(12.,-29.25,12.));
#1792 = DIRECTION('',(0.707106781187,-1.7E-16,0.707106781187));
#1793 = DIRECTION('',(0.707106781187,-1.232595164408E-32,-0.707106781187
    ));
#1794 = ADVANCED_FACE('',(#1795),#1814,.F.);
#1795 = FACE_BOUND('',#1796,.F.);
#1796 = EDGE_LOOP('',(#1797,#1798,#1799,#1800,#1808));
#1797 = ORIENTED_EDGE('',*,*,#597,.T.);
#1798 = ORIENTED_EDGE('',*,*,#1765,.T.);
#1799 = ORIENTED_EDGE('',*,*,#1209,.T.);
#1800 = ORIENTED_EDGE('',*,*,#1801,.F.);
#1801 = EDGE_CURVE('',#1802,#1210,#1804,.T.);
#1802 = VERTEX_POINT('',#1803);
#1803 = CARTESIAN_POINT('',(3.,-3.,3.));
#1804 = LINE('',#1805,#1806);
#1805 = CARTESIAN_POINT('',(13.961131723051,-3.,3.));
#1806 = VECTOR('',#1807,1.);
#1807 = DIRECTION('',(1.,0.,0.));
#1808 = ORIENTED_EDGE('',*,*,#1809,.F.);
#1809 = EDGE_CURVE('',#590,#1802,#1810,.T.);
#1810 = LINE('',#1811,#1812);
#1811 = CARTESIAN_POINT('',(3.,-3.,3.961131723051));
#1812 = VECTOR('',#1813,1.);
#1813 = DIRECTION('',(0.,0.,-1.));
#1814 = PLANE('',#1815);
#1815 = AXIS2_PLACEMENT_3D('',#1816,#1817,#1818);
#1816 = CARTESIAN_POINT('',(7.922263446102,-3.,7.922263446102));
#1817 = DIRECTION('',(0.,1.,0.));
#1818 = DIRECTION('',(0.,0.,1.));
#1819 = ADVANCED_FACE('',(#1820,#1838),#1844,.F.);
#1820 = FACE_BOUND('',#1821,.F.);
#1821 = EDGE_LOOP('',(#1822,#1823,#1824,#1832));
#1822 = ORIENTED_EDGE('',*,*,#589,.F.);
#1823 = ORIENTED_EDGE('',*,*,#1809,.T.);
#1824 = ORIENTED_EDGE('',*,*,#1825,.T.);
#1825 = EDGE_CURVE('',#1802,#1826,#1828,.T.);
#1826 = VERTEX_POINT('',#1827);
#1827 = CARTESIAN_POINT('',(3.,-18.5,3.));
#1828 = LINE('',#1829,#1830);
#1829 = CARTESIAN_POINT('',(3.,6.7E-16,3.));
#1830 = VECTOR('',#1831,1.);
#1831 = DIRECTION('',(0.,-1.,2.2E-16));
#1832 = ORIENTED_EDGE('',*,*,#1833,.T.);
#1833 = EDGE_CURVE('',#1826,#582,#1834,.T.);
#1834 = LINE('',#1835,#1836);
#1835 = CARTESIAN_POINT('',(3.,-18.5,3.));
#1836 = VECTOR('',#1837,1.);
#1837 = DIRECTION('',(0.,0.,1.));
#1838 = FACE_BOUND('',#1839,.F.);
#1839 = EDGE_LOOP('',(#1840,#1841,#1842,#1843));
#1840 = ORIENTED_EDGE('',*,*,#1005,.F.);
#1841 = ORIENTED_EDGE('',*,*,#1039,.T.);
#1842 = ORIENTED_EDGE('',*,*,#1085,.F.);
#1843 = ORIENTED_EDGE('',*,*,#1070,.F.);
#1844 = PLANE('',#1845);
#1845 = AXIS2_PLACEMENT_3D('',#1846,#1847,#1848);
#1846 = CARTESIAN_POINT('',(3.,0.,0.));
#1847 = DIRECTION('',(-1.,0.,0.));
#1848 = DIRECTION('',(0.,2.2E-16,1.));
#1849 = ADVANCED_FACE('',(#1850),#1867,.T.);
#1850 = FACE_BOUND('',#1851,.T.);
#1851 = EDGE_LOOP('',(#1852,#1858,#1859,#1860,#1866));
#1852 = ORIENTED_EDGE('',*,*,#1853,.F.);
#1853 = EDGE_CURVE('',#1826,#1218,#1854,.T.);
#1854 = LINE('',#1855,#1856);
#1855 = CARTESIAN_POINT('',(3.,-18.5,3.));
#1856 = VECTOR('',#1857,1.);
#1857 = DIRECTION('',(1.,0.,0.));
#1858 = ORIENTED_EDGE('',*,*,#1833,.T.);
#1859 = ORIENTED_EDGE('',*,*,#581,.T.);
#1860 = ORIENTED_EDGE('',*,*,#1861,.F.);
#1861 = EDGE_CURVE('',#1226,#574,#1862,.T.);
#1862 = LINE('',#1863,#1864);
#1863 = CARTESIAN_POINT('',(8.,-18.5,16.));
#1864 = VECTOR('',#1865,1.);
#1865 = DIRECTION('',(-0.707106781187,0.,0.707106781187));
#1866 = ORIENTED_EDGE('',*,*,#1225,.F.);
#1867 = PLANE('',#1868);
#1868 = AXIS2_PLACEMENT_3D('',#1869,#1870,#1871);
#1869 = CARTESIAN_POINT('',(9.236787696009,-18.5,9.236787696009));
#1870 = DIRECTION('',(0.,1.,0.));
#1871 = DIRECTION('',(0.,0.,1.));
#1872 = ADVANCED_FACE('',(#1873),#1884,.T.);
#1873 = FACE_BOUND('',#1874,.T.);
#1874 = EDGE_LOOP('',(#1875,#1881,#1882,#1883));
#1875 = ORIENTED_EDGE('',*,*,#1876,.F.);
#1876 = EDGE_CURVE('',#1234,#566,#1877,.T.);
#1877 = LINE('',#1878,#1879);
#1878 = CARTESIAN_POINT('',(12.,-21.5,12.));
#1879 = VECTOR('',#1880,1.);
#1880 = DIRECTION('',(-0.707106781187,0.,0.707106781187));
#1881 = ORIENTED_EDGE('',*,*,#1233,.T.);
#1882 = ORIENTED_EDGE('',*,*,#1861,.T.);
#1883 = ORIENTED_EDGE('',*,*,#573,.T.);
#1884 = PLANE('',#1885);
#1885 = AXIS2_PLACEMENT_3D('',#1886,#1887,#1888);
#1886 = CARTESIAN_POINT('',(12.,-29.25,12.));
#1887 = DIRECTION('',(0.707106781187,-1.7E-16,0.707106781187));
#1888 = DIRECTION('',(0.707106781187,-1.232595164408E-32,-0.707106781187
    ));
#1889 = ADVANCED_FACE('',(#1890),#1909,.F.);
#1890 = FACE_BOUND('',#1891,.F.);
#1891 = EDGE_LOOP('',(#1892,#1893,#1894,#1895,#1903));
#1892 = ORIENTED_EDGE('',*,*,#565,.F.);
#1893 = ORIENTED_EDGE('',*,*,#1876,.F.);
#1894 = ORIENTED_EDGE('',*,*,#1241,.T.);
#1895 = ORIENTED_EDGE('',*,*,#1896,.T.);
#1896 = EDGE_CURVE('',#1242,#1897,#1899,.T.);
#1897 = VERTEX_POINT('',#1898);
#1898 = CARTESIAN_POINT('',(3.,-21.5,3.));
#1899 = LINE('',#1900,#1901);
#1900 = CARTESIAN_POINT('',(20.,-21.5,3.));
#1901 = VECTOR('',#1902,1.);
#1902 = DIRECTION('',(-1.,0.,0.));
#1903 = ORIENTED_EDGE('',*,*,#1904,.F.);
#1904 = EDGE_CURVE('',#558,#1897,#1905,.T.);
#1905 = LINE('',#1906,#1907);
#1906 = CARTESIAN_POINT('',(3.,-21.5,20.));
#1907 = VECTOR('',#1908,1.);
#1908 = DIRECTION('',(-0.,-0.,-1.));
#1909 = PLANE('',#1910);
#1910 = AXIS2_PLACEMENT_3D('',#1911,#1912,#1913);
#1911 = CARTESIAN_POINT('',(20.,-21.5,20.));
#1912 = DIRECTION('',(0.,1.,0.));
#1913 = DIRECTION('',(-1.,0.,0.));
#1914 = ADVANCED_FACE('',(#1915,#1933),#1939,.F.);
#1915 = FACE_BOUND('',#1916,.F.);
#1916 = EDGE_LOOP('',(#1917,#1918,#1919,#1927));
#1917 = ORIENTED_EDGE('',*,*,#557,.F.);
#1918 = ORIENTED_EDGE('',*,*,#1904,.T.);
#1919 = ORIENTED_EDGE('',*,*,#1920,.T.);
#1920 = EDGE_CURVE('',#1897,#1921,#1923,.T.);
#1921 = VERTEX_POINT('',#1922);
#1922 = CARTESIAN_POINT('',(3.,-37.,3.));
#1923 = LINE('',#1924,#1925);
#1924 = CARTESIAN_POINT('',(3.,-10.75,3.));
#1925 = VECTOR('',#1926,1.);
#1926 = DIRECTION('',(0.,-1.,2.2E-16));
#1927 = ORIENTED_EDGE('',*,*,#1928,.F.);
#1928 = EDGE_CURVE('',#550,#1921,#1929,.T.);
#1929 = LINE('',#1930,#1931);
#1930 = CARTESIAN_POINT('',(3.,-37.,20.));
#1931 = VECTOR('',#1932,1.);
#1932 = DIRECTION('',(-0.,-0.,-1.));
#1933 = FACE_BOUND('',#1934,.F.);
#1934 = EDGE_LOOP('',(#1935,#1936,#1937,#1938));
#1935 = ORIENTED_EDGE('',*,*,#715,.F.);
#1936 = ORIENTED_EDGE('',*,*,#749,.T.);
#1937 = ORIENTED_EDGE('',*,*,#795,.F.);
#1938 = ORIENTED_EDGE('',*,*,#780,.F.);
#1939 = PLANE('',#1940);
#1940 = AXIS2_PLACEMENT_3D('',#1941,#1942,#1943);
#1941 = CARTESIAN_POINT('',(3.,-21.5,20.));
#1942 = DIRECTION('',(-1.,0.,0.));
#1943 = DIRECTION('',(0.,-1.,0.));
#1944 = ADVANCED_FACE('',(#1945),#1957,.F.);
#1945 = FACE_BOUND('',#1946,.F.);
#1946 = EDGE_LOOP('',(#1947,#1948,#1949,#1955,#1956));
#1947 = ORIENTED_EDGE('',*,*,#549,.F.);
#1948 = ORIENTED_EDGE('',*,*,#1928,.T.);
#1949 = ORIENTED_EDGE('',*,*,#1950,.T.);
#1950 = EDGE_CURVE('',#1921,#1250,#1951,.T.);
#1951 = LINE('',#1952,#1953);
#1952 = CARTESIAN_POINT('',(11.5,-37.,3.));
#1953 = VECTOR('',#1954,1.);
#1954 = DIRECTION('',(1.,0.,0.));
#1955 = ORIENTED_EDGE('',*,*,#1257,.F.);
#1956 = ORIENTED_EDGE('',*,*,#1783,.F.);
#1957 = PLANE('',#1958);
#1958 = AXIS2_PLACEMENT_3D('',#1959,#1960,#1961);
#1959 = CARTESIAN_POINT('',(3.,-37.,20.));
#1960 = DIRECTION('',(0.,-1.,0.));
#1961 = DIRECTION('',(1.,0.,0.));
#1962 = ADVANCED_FACE('',(#1963),#1969,.F.);
#1963 = FACE_BOUND('',#1964,.T.);
#1964 = EDGE_LOOP('',(#1965,#1966,#1967,#1968));
#1965 = ORIENTED_EDGE('',*,*,#627,.T.);
#1966 = ORIENTED_EDGE('',*,*,#651,.T.);
#1967 = ORIENTED_EDGE('',*,*,#675,.T.);
#1968 = ORIENTED_EDGE('',*,*,#699,.T.);
#1969 = PLANE('',#1970);
#1970 = AXIS2_PLACEMENT_3D('',#1971,#1972,#1973);
#1971 = CARTESIAN_POINT('',(-1.25,-19.99999999998,10.00000000003));
#1972 = DIRECTION('',(1.,0.,0.));
#1973 = DIRECTION('',(0.,0.,1.));
#1974 = ADVANCED_FACE('',(#1975),#1981,.F.);
#1975 = FACE_BOUND('',#1976,.T.);
#1976 = EDGE_LOOP('',(#1977,#1978,#1979,#1980));
#1977 = ORIENTED_EDGE('',*,*,#821,.T.);
#1978 = ORIENTED_EDGE('',*,*,#845,.T.);
#1979 = ORIENTED_EDGE('',*,*,#869,.T.);
#1980 = ORIENTED_EDGE('',*,*,#893,.T.);
#1981 = PLANE('',#1982);
#1982 = AXIS2_PLACEMENT_3D('',#1983,#1984,#1985);
#1983 = CARTESIAN_POINT('',(-1.25,-19.99999999998,10.00000000003));
#1984 = DIRECTION('',(1.,0.,0.));
#1985 = DIRECTION('',(0.,0.,1.));
#1986 = ADVANCED_FACE('',(#1987),#1993,.F.);
#1987 = FACE_BOUND('',#1988,.T.);
#1988 = EDGE_LOOP('',(#1989,#1990,#1991,#1992));
#1989 = ORIENTED_EDGE('',*,*,#917,.T.);
#1990 = ORIENTED_EDGE('',*,*,#941,.T.);
#1991 = ORIENTED_EDGE('',*,*,#965,.T.);
#1992 = ORIENTED_EDGE('',*,*,#989,.T.);
#1993 = PLANE('',#1994);
#1994 = AXIS2_PLACEMENT_3D('',#1995,#1996,#1997);
#1995 = CARTESIAN_POINT('',(-1.25,-19.99999999998,10.00000000003));
#1996 = DIRECTION('',(1.,0.,0.));
#1997 = DIRECTION('',(0.,0.,1.));
#1998 = ADVANCED_FACE('',(#1999),#2005,.F.);
#1999 = FACE_BOUND('',#2000,.T.);
#2000 = EDGE_LOOP('',(#2001,#2002,#2003,#2004));
#2001 = ORIENTED_EDGE('',*,*,#1111,.T.);
#2002 = ORIENTED_EDGE('',*,*,#1135,.T.);
#2003 = ORIENTED_EDGE('',*,*,#1159,.T.);
#2004 = ORIENTED_EDGE('',*,*,#1183,.T.);
#2005 = PLANE('',#2006);
#2006 = AXIS2_PLACEMENT_3D('',#2007,#2008,#2009);
#2007 = CARTESIAN_POINT('',(-1.25,-19.99999999998,10.00000000003));
#2008 = DIRECTION('',(1.,0.,0.));
#2009 = DIRECTION('',(0.,0.,1.));
#2010 = ADVANCED_FACE('',(#2011,#2017),#2023,.F.);
#2011 = FACE_BOUND('',#2012,.F.);
#2012 = EDGE_LOOP('',(#2013,#2014,#2015,#2016));
#2013 = ORIENTED_EDGE('',*,*,#1896,.F.);
#2014 = ORIENTED_EDGE('',*,*,#1249,.F.);
#2015 = ORIENTED_EDGE('',*,*,#1950,.F.);
#2016 = ORIENTED_EDGE('',*,*,#1920,.F.);
#2017 = FACE_BOUND('',#2018,.F.);
#2018 = EDGE_LOOP('',(#2019,#2020,#2021,#2022));
#2019 = ORIENTED_EDGE('',*,*,#1376,.F.);
#2020 = ORIENTED_EDGE('',*,*,#1432,.T.);
#2021 = ORIENTED_EDGE('',*,*,#1457,.T.);
#2022 = ORIENTED_EDGE('',*,*,#1407,.T.);
#2023 = PLANE('',#2024);
#2024 = AXIS2_PLACEMENT_3D('',#2025,#2026,#2027);
#2025 = CARTESIAN_POINT('',(20.,6.7E-16,3.));
#2026 = DIRECTION('',(-0.,-2.2E-16,-1.));
#2027 = DIRECTION('',(-1.,0.,0.));
#2028 = ADVANCED_FACE('',(#2029,#2035),#2041,.F.);
#2029 = FACE_BOUND('',#2030,.F.);
#2030 = EDGE_LOOP('',(#2031,#2032,#2033,#2034));
#2031 = ORIENTED_EDGE('',*,*,#1825,.F.);
#2032 = ORIENTED_EDGE('',*,*,#1801,.T.);
#2033 = ORIENTED_EDGE('',*,*,#1217,.T.);
#2034 = ORIENTED_EDGE('',*,*,#1853,.F.);
#2035 = FACE_BOUND('',#2036,.F.);
#2036 = EDGE_LOOP('',(#2037,#2038,#2039,#2040));
#2037 = ORIENTED_EDGE('',*,*,#1570,.F.);
#2038 = ORIENTED_EDGE('',*,*,#1626,.T.);
#2039 = ORIENTED_EDGE('',*,*,#1651,.T.);
#2040 = ORIENTED_EDGE('',*,*,#1601,.T.);
#2041 = PLANE('',#2042);
#2042 = AXIS2_PLACEMENT_3D('',#2043,#2044,#2045);
#2043 = CARTESIAN_POINT('',(20.,6.7E-16,3.));
#2044 = DIRECTION('',(-0.,-2.2E-16,-1.));
#2045 = DIRECTION('',(-1.,0.,0.));
#2046 = ADVANCED_FACE('',(#2047),#2053,.F.);
#2047 = FACE_BOUND('',#2048,.T.);
#2048 = EDGE_LOOP('',(#2049,#2050,#2051,#2052));
#2049 = ORIENTED_EDGE('',*,*,#1288,.T.);
#2050 = ORIENTED_EDGE('',*,*,#1312,.T.);
#2051 = ORIENTED_EDGE('',*,*,#1336,.T.);
#2052 = ORIENTED_EDGE('',*,*,#1360,.T.);
#2053 = PLANE('',#2054);
#2054 = AXIS2_PLACEMENT_3D('',#2055,#2056,#2057);
#2055 = CARTESIAN_POINT('',(9.999999999989,-19.99999999994,-1.25));
#2056 = DIRECTION('',(0.,0.,1.));
#2057 = DIRECTION('',(1.,0.,0.));
#2058 = ADVANCED_FACE('',(#2059),#2065,.F.);
#2059 = FACE_BOUND('',#2060,.T.);
#2060 = EDGE_LOOP('',(#2061,#2062,#2063,#2064));
#2061 = ORIENTED_EDGE('',*,*,#1482,.T.);
#2062 = ORIENTED_EDGE('',*,*,#1506,.T.);
#2063 = ORIENTED_EDGE('',*,*,#1530,.T.);
#2064 = ORIENTED_EDGE('',*,*,#1554,.T.);
#2065 = PLANE('',#2066);
#2066 = AXIS2_PLACEMENT_3D('',#2067,#2068,#2069);
#2067 = CARTESIAN_POINT('',(9.999999999989,-19.99999999994,-1.25));
#2068 = DIRECTION('',(0.,0.,1.));
#2069 = DIRECTION('',(1.,0.,0.));
#2070 = ADVANCED_FACE('',(#2071),#2077,.F.);
#2071 = FACE_BOUND('',#2072,.T.);
#2072 = EDGE_LOOP('',(#2073,#2074,#2075,#2076));
#2073 = ORIENTED_EDGE('',*,*,#1676,.T.);
#2074 = ORIENTED_EDGE('',*,*,#1700,.T.);
#2075 = ORIENTED_EDGE('',*,*,#1724,.T.);
#2076 = ORIENTED_EDGE('',*,*,#1748,.T.);
#2077 = PLANE('',#2078);
#2078 = AXIS2_PLACEMENT_3D('',#2079,#2080,#2081);
#2079 = CARTESIAN_POINT('',(9.999999999989,-19.99999999994,-1.25));
#2080 = DIRECTION('',(0.,0.,1.));
#2081 = DIRECTION('',(1.,0.,0.));
#2082 = ( GEOMETRIC_REPRESENTATION_CONTEXT(3) 
GLOBAL_UNCERTAINTY_ASSIGNED_CONTEXT((#2086)) 
GLOBAL_UNIT_ASSIGNED_CONTEXT((#2083,#2084,#2085)) REPRESENTATION_CONTEXT
('Context #1','3D Context with UNIT and UNCERTAINTY') );
#2083 = ( LENGTH_UNIT() NAMED_UNIT(*) SI_UNIT(.MILLI.,.METRE.) );
#2084 = ( NAMED_UNIT(*) PLANE_ANGLE_UNIT() SI_UNIT($,.RADIAN.) );
#2085 = ( NAMED_UNIT(*) SI_UNIT($,.STERADIAN.) SOLID_ANGLE_UNIT() );
#2086 = UNCERTAINTY_MEASURE_WITH_UNIT(LENGTH_MEASURE(1.E-05),#2083,
  'distance_accuracy_value','confusion accuracy');
#2087 = PRODUCT_RELATED_PRODUCT_CATEGORY('part',$,(#7));
#2088 = MECHANICAL_DESIGN_GEOMETRIC_PRESENTATION_REPRESENTATION('',(
    #2089),#2082);
#2089 = STYLED_ITEM('color',(#2090),#15);
#2090 = PRESENTATION_STYLE_ASSIGNMENT((#2091,#2097));
#2091 = SURFACE_STYLE_USAGE(.BOTH.,#2092);
#2092 = SURFACE_SIDE_STYLE('',(#2093));
#2093 = SURFACE_STYLE_FILL_AREA(#2094);
#2094 = FILL_AREA_STYLE('',(#2095));
#2095 = FILL_AREA_STYLE_COLOUR('',#2096);
#2096 = COLOUR_RGB('',0.447058818107,0.474509808674,0.501960817233);
#2097 = CURVE_STYLE('',#2098,POSITIVE_LENGTH_MEASURE(0.1),#2099);
#2098 = DRAUGHTING_PRE_DEFINED_CURVE_FONT('continuous');
#2099 = COLOUR_RGB('',9.803921802644E-02,9.803921802644E-02,
  9.803921802644E-02);
ENDSEC;
END-ISO-10303-21;
