ISO-10303-21;
HEADER;
FILE_DESCRIPTION(('FreeCAD Model'),'2;1');
FILE_NAME('Open CASCADE Shape Model','2026-02-24T00:52:17',(''),(''),
  'Open CASCADE STEP processor 7.9','FreeCAD','Unknown');
FILE_SCHEMA(('AUTOMOTIVE_DESIGN { 1 0 10303 214 1 1 1 1 }'));
ENDSEC;
DATA;
#1 = APPLICATION_PROTOCOL_DEFINITION('international standard',
  'automotive_design',2000,#2);
#2 = APPLICATION_CONTEXT(
  'core data for automotive mechanical design processes');
#3 = SHAPE_DEFINITION_REPRESENTATION(#4,#10);
#4 = PRODUCT_DEFINITION_SHAPE('','',#5);
#5 = PRODUCT_DEFINITION('design','',#6,#9);
#6 = PRODUCT_DEFINITION_FORMATION('','',#7);
#7 = PRODUCT('LeadScrewHolder','LeadScrewHolder','',(#8));
#8 = PRODUCT_CONTEXT('',#2,'mechanical');
#9 = PRODUCT_DEFINITION_CONTEXT('part definition',#2,'design');
#10 = ADVANCED_BREP_SHAPE_REPRESENTATION('',(#11,#15),#668);
#11 = AXIS2_PLACEMENT_3D('',#12,#13,#14);
#12 = CARTESIAN_POINT('',(0.,0.,0.));
#13 = DIRECTION('',(0.,0.,1.));
#14 = DIRECTION('',(1.,0.,-0.));
#15 = MANIFOLD_SOLID_BREP('',#16);
#16 = CLOSED_SHELL('',(#17,#57,#117,#271,#317,#362,#379,#515,#527,#544,
    #569,#594,#619,#644,#656));
#17 = ADVANCED_FACE('',(#18),#52,.F.);
#18 = FACE_BOUND('',#19,.F.);
#19 = EDGE_LOOP('',(#20,#30,#38,#46));
#20 = ORIENTED_EDGE('',*,*,#21,.T.);
#21 = EDGE_CURVE('',#22,#24,#26,.T.);
#22 = VERTEX_POINT('',#23);
#23 = CARTESIAN_POINT('',(0.,0.,0.));
#24 = VERTEX_POINT('',#25);
#25 = CARTESIAN_POINT('',(0.,-6.5,2.E-15));
#26 = LINE('',#27,#28);
#27 = CARTESIAN_POINT('',(0.,0.,0.));
#28 = VECTOR('',#29,1.);
#29 = DIRECTION('',(0.,-1.,2.2E-16));
#30 = ORIENTED_EDGE('',*,*,#31,.T.);
#31 = EDGE_CURVE('',#24,#32,#34,.T.);
#32 = VERTEX_POINT('',#33);
#33 = CARTESIAN_POINT('',(20.,-6.5,2.E-15));
#34 = LINE('',#35,#36);
#35 = CARTESIAN_POINT('',(0.,-6.5,1.78E-15));
#36 = VECTOR('',#37,1.);
#37 = DIRECTION('',(1.,0.,0.));
#38 = ORIENTED_EDGE('',*,*,#39,.F.);
#39 = EDGE_CURVE('',#40,#32,#42,.T.);
#40 = VERTEX_POINT('',#41);
#41 = CARTESIAN_POINT('',(20.,0.,0.));
#42 = LINE('',#43,#44);
#43 = CARTESIAN_POINT('',(20.,0.,0.));
#44 = VECTOR('',#45,1.);
#45 = DIRECTION('',(0.,-1.,2.2E-16));
#46 = ORIENTED_EDGE('',*,*,#47,.F.);
#47 = EDGE_CURVE('',#22,#40,#48,.T.);
#48 = LINE('',#49,#50);
#49 = CARTESIAN_POINT('',(0.,0.,0.));
#50 = VECTOR('',#51,1.);
#51 = DIRECTION('',(1.,0.,0.));
#52 = PLANE('',#53);
#53 = AXIS2_PLACEMENT_3D('',#54,#55,#56);
#54 = CARTESIAN_POINT('',(0.,0.,0.));
#55 = DIRECTION('',(0.,2.2E-16,1.));
#56 = DIRECTION('',(1.,0.,0.));
#57 = ADVANCED_FACE('',(#58,#101),#112,.F.);
#58 = FACE_BOUND('',#59,.F.);
#59 = EDGE_LOOP('',(#60,#70,#79,#87,#94,#95));
#60 = ORIENTED_EDGE('',*,*,#61,.T.);
#61 = EDGE_CURVE('',#62,#64,#66,.T.);
#62 = VERTEX_POINT('',#63);
#63 = CARTESIAN_POINT('',(0.,5.E-15,24.));
#64 = VERTEX_POINT('',#65);
#65 = CARTESIAN_POINT('',(0.,-6.5,24.));
#66 = LINE('',#67,#68);
#67 = CARTESIAN_POINT('',(0.,5.33E-15,24.));
#68 = VECTOR('',#69,1.);
#69 = DIRECTION('',(0.,-1.,2.2E-16));
#70 = ORIENTED_EDGE('',*,*,#71,.F.);
#71 = EDGE_CURVE('',#72,#64,#74,.T.);
#72 = VERTEX_POINT('',#73);
#73 = CARTESIAN_POINT('',(0.,-16.5,14.));
#74 = CIRCLE('',#75,10.);
#75 = AXIS2_PLACEMENT_3D('',#76,#77,#78);
#76 = CARTESIAN_POINT('',(0.,-6.5,14.));
#77 = DIRECTION('',(-1.,0.,0.));
#78 = DIRECTION('',(0.,0.,-1.));
#79 = ORIENTED_EDGE('',*,*,#80,.T.);
#80 = EDGE_CURVE('',#72,#81,#83,.T.);
#81 = VERTEX_POINT('',#82);
#82 = CARTESIAN_POINT('',(0.,-16.5,10.));
#83 = LINE('',#84,#85);
#84 = CARTESIAN_POINT('',(0.,-16.5,24.));
#85 = VECTOR('',#86,1.);
#86 = DIRECTION('',(0.,0.,-1.));
#87 = ORIENTED_EDGE('',*,*,#88,.F.);
#88 = EDGE_CURVE('',#24,#81,#89,.T.);
#89 = CIRCLE('',#90,10.);
#90 = AXIS2_PLACEMENT_3D('',#91,#92,#93);
#91 = CARTESIAN_POINT('',(0.,-6.5,10.));
#92 = DIRECTION('',(-1.,0.,0.));
#93 = DIRECTION('',(0.,0.,1.));
#94 = ORIENTED_EDGE('',*,*,#21,.F.);
#95 = ORIENTED_EDGE('',*,*,#96,.F.);
#96 = EDGE_CURVE('',#62,#22,#97,.T.);
#97 = LINE('',#98,#99);
#98 = CARTESIAN_POINT('',(0.,0.,24.));
#99 = VECTOR('',#100,1.);
#100 = DIRECTION('',(0.,0.,-1.));
#101 = FACE_BOUND('',#102,.F.);
#102 = EDGE_LOOP('',(#103));
#103 = ORIENTED_EDGE('',*,*,#104,.T.);
#104 = EDGE_CURVE('',#105,#105,#107,.T.);
#105 = VERTEX_POINT('',#106);
#106 = CARTESIAN_POINT('',(0.,-10.55,12.));
#107 = CIRCLE('',#108,5.);
#108 = AXIS2_PLACEMENT_3D('',#109,#110,#111);
#109 = CARTESIAN_POINT('',(0.,-5.55,12.));
#110 = DIRECTION('',(-1.,0.,0.));
#111 = DIRECTION('',(0.,-1.,0.));
#112 = PLANE('',#113);
#113 = AXIS2_PLACEMENT_3D('',#114,#115,#116);
#114 = CARTESIAN_POINT('',(0.,5.33E-15,24.));
#115 = DIRECTION('',(1.,0.,0.));
#116 = DIRECTION('',(0.,-2.2E-16,-1.));
#117 = ADVANCED_FACE('',(#118,#137),#266,.T.);
#118 = FACE_BOUND('',#119,.F.);
#119 = EDGE_LOOP('',(#120,#121,#129,#136));
#120 = ORIENTED_EDGE('',*,*,#88,.T.);
#121 = ORIENTED_EDGE('',*,*,#122,.T.);
#122 = EDGE_CURVE('',#81,#123,#125,.T.);
#123 = VERTEX_POINT('',#124);
#124 = CARTESIAN_POINT('',(20.,-16.5,10.));
#125 = LINE('',#126,#127);
#126 = CARTESIAN_POINT('',(0.,-16.5,10.));
#127 = VECTOR('',#128,1.);
#128 = DIRECTION('',(1.,0.,0.));
#129 = ORIENTED_EDGE('',*,*,#130,.F.);
#130 = EDGE_CURVE('',#32,#123,#131,.T.);
#131 = CIRCLE('',#132,10.);
#132 = AXIS2_PLACEMENT_3D('',#133,#134,#135);
#133 = CARTESIAN_POINT('',(20.,-6.5,10.));
#134 = DIRECTION('',(-1.,0.,0.));
#135 = DIRECTION('',(0.,0.,1.));
#136 = ORIENTED_EDGE('',*,*,#31,.F.);
#137 = FACE_BOUND('',#138,.F.);
#138 = EDGE_LOOP('',(#139));
#139 = ORIENTED_EDGE('',*,*,#140,.T.);
#140 = EDGE_CURVE('',#141,#141,#143,.T.);
#141 = VERTEX_POINT('',#142);
#142 = CARTESIAN_POINT('',(13.1,-14.5,4.));
#143 = B_SPLINE_CURVE_WITH_KNOTS('',6,(#144,#145,#146,#147,#148,#149,
    #150,#151,#152,#153,#154,#155,#156,#157,#158,#159,#160,#161,#162,
    #163,#164,#165,#166,#167,#168,#169,#170,#171,#172,#173,#174,#175,
    #176,#177,#178,#179,#180,#181,#182,#183,#184,#185,#186,#187,#188,
    #189,#190,#191,#192,#193,#194,#195,#196,#197,#198,#199,#200,#201,
    #202,#203,#204,#205,#206,#207,#208,#209,#210,#211,#212,#213,#214,
    #215,#216,#217,#218,#219,#220,#221,#222,#223,#224,#225,#226,#227,
    #228,#229,#230,#231,#232,#233,#234,#235,#236,#237,#238,#239,#240,
    #241,#242,#243,#244,#245,#246,#247,#248,#249,#250,#251,#252,#253,
    #254,#255,#256,#257,#258,#259,#260,#261,#262,#263,#264,#265),
  .UNSPECIFIED.,.T.,.F.,(7,5,5,5,5,5,5,5,5,5,5,5,5,5,5,5,5,5,5,5,5,5,5,5
    ,7),(0.,3.497773680875E-02,0.104306787055,0.127718393091,
    0.155299883066,0.174910138244,0.222309382467,0.289300005839,
    0.317493719302,0.354198333222,0.38062190794,0.430143353729,
    0.458687899833,0.493879568775,0.577217922188,0.642295115875,
    0.68269367685,0.723714881092,0.740122739553,0.764182795578,
    0.78587218784,0.804976326926,0.869248787178,0.960084372201,1.),
  .UNSPECIFIED.);
#144 = CARTESIAN_POINT('',(13.1,-14.5,4.));
#145 = CARTESIAN_POINT('',(13.1,-14.58837920213,4.117838936181));
#146 = CARTESIAN_POINT('',(13.094624751426,-14.67524057445,
    4.237993383325));
#147 = CARTESIAN_POINT('',(13.083478250041,-14.76016979973,
    4.360015417566));
#148 = CARTESIAN_POINT('',(13.066217618564,-14.84281233098,
    4.483425797685));
#149 = CARTESIAN_POINT('',(13.042553725804,-14.92287217712,
    4.607716246368));
#150 = CARTESIAN_POINT('',(12.952190648957,-15.15320443149,
    4.979390579499));
#151 = CARTESIAN_POINT('',(12.866152568228,-15.29495604184,
    5.227367675677));
#152 = CARTESIAN_POINT('',(12.752967743642,-15.42231030542,
    5.470076755103));
#153 = CARTESIAN_POINT('',(12.613679500637,-15.53399819828,
    5.701300850476));
#154 = CARTESIAN_POINT('',(12.451640138171,-15.6301589118,5.915387440812
    ));
#155 = CARTESIAN_POINT('',(12.212235632223,-15.7391861763,6.173455805135
    ));
#156 = CARTESIAN_POINT('',(12.149789991642,-15.76507414194,
    6.236275089659));
#157 = CARTESIAN_POINT('',(12.085471898744,-15.78938775256,
    6.296682689978));
#158 = CARTESIAN_POINT('',(12.019426938449,-15.81218847247,
    6.354604593647));
#159 = CARTESIAN_POINT('',(11.9518088258,-15.83353753737,6.40997766855)
  );
#160 = CARTESIAN_POINT('',(11.801455161726,-15.87700704711,
    6.524923440546));
#161 = CARTESIAN_POINT('',(11.718167906857,-15.89858883027,
    6.583490732292));
#162 = CARTESIAN_POINT('',(11.633117420174,-15.91835686703,
    6.638417864586));
#163 = CARTESIAN_POINT('',(11.546500735143,-15.93641771101,
    6.689680584242));
#164 = CARTESIAN_POINT('',(11.458512200352,-15.95286791716,
    6.737265191034));
#165 = CARTESIAN_POINT('',(11.305945114484,-15.97840641667,6.81238352399
    ));
#166 = CARTESIAN_POINT('',(11.241940253217,-15.98824997247,6.84174228301
    ));
#167 = CARTESIAN_POINT('',(11.177388401128,-15.99735699071,
    6.869247597578));
#168 = CARTESIAN_POINT('',(11.112345141749,-16.00575679267,
    6.894903611613));
#169 = CARTESIAN_POINT('',(11.046862136725,-16.01347573931,
    6.918715830136));
#170 = CARTESIAN_POINT('',(10.821763000396,-16.03760531018,
    6.993806802229));
#171 = CARTESIAN_POINT('',(10.660276587421,-16.05082945985,
    7.036180292212));
#172 = CARTESIAN_POINT('',(10.49716723654,-16.06054423969,7.067920914684
    ));
#173 = CARTESIAN_POINT('',(10.333005620881,-16.06696762666,
    7.089112717803));
#174 = CARTESIAN_POINT('',(10.168323930748,-16.07020711306,
    7.099804169711));
#175 = CARTESIAN_POINT('',(9.770902425334,-16.07034875405,7.100271597634
    ));
#176 = CARTESIAN_POINT('',(9.538065739959,-16.06407771877,7.079576563988
    ));
#177 = CARTESIAN_POINT('',(9.306646557732,-16.05144782175,7.037887595143
    ));
#178 = CARTESIAN_POINT('',(9.07820448372,-16.03203192044,6.975024402862)
  );
#179 = CARTESIAN_POINT('',(8.854500470905,-16.00498658298,6.890693983865
    ));
#180 = CARTESIAN_POINT('',(8.546383480822,-15.95379779466,6.739949258036
    ));
#181 = CARTESIAN_POINT('',(8.456342982176,-15.93704657427,6.691448806965
    ));
#182 = CARTESIAN_POINT('',(8.367731335562,-15.91861417599,6.639101604827
    ));
#183 = CARTESIAN_POINT('',(8.280756224862,-15.89839752179,6.582922106893
    ));
#184 = CARTESIAN_POINT('',(8.195628285063,-15.87628259296,6.522936290287
    ));
#185 = CARTESIAN_POINT('',(8.004418239903,-15.82071962495,6.376181260502
    ));
#186 = CARTESIAN_POINT('',(7.899682573533,-15.78584073124,6.286727385997
    ));
#187 = CARTESIAN_POINT('',(7.799057442511,-15.74728700145,6.191054777737
    ));
#188 = CARTESIAN_POINT('',(7.703171339008,-15.70483783398,6.08948656837)
  );
#189 = CARTESIAN_POINT('',(7.612578916416,-15.65828558338,5.982418740327
    ));
#190 = CARTESIAN_POINT('',(7.466702475579,-15.57085076749,5.7895938483)
  );
#191 = CARTESIAN_POINT('',(7.408664310133,-15.53204943816,5.706305160174
    ));
#192 = CARTESIAN_POINT('',(7.353891025393,-15.49102197053,5.620703862349
    ));
#193 = CARTESIAN_POINT('',(7.302576184899,-15.44776625506,5.533080635177
    ));
#194 = CARTESIAN_POINT('',(7.254864504249,-15.40230521373,5.443744931766
    ));
#195 = CARTESIAN_POINT('',(7.128369228992,-15.26545687641,5.182984309212
    ));
#196 = CARTESIAN_POINT('',(7.059079647598,-15.16887526214,5.008472976268
    ));
#197 = CARTESIAN_POINT('',(7.003419065178,-15.06526801986,4.831468559661
    ));
#198 = CARTESIAN_POINT('',(6.961316044535,-14.95526945069,4.654041780437
    ));
#199 = CARTESIAN_POINT('',(6.932225653859,-14.8399048022,4.478236339339)
  );
#200 = CARTESIAN_POINT('',(6.905294517937,-14.65186600072,4.206757241244
    ));
#201 = CARTESIAN_POINT('',(6.899424717603,-14.58172709221,4.108567830216
    ));
#202 = CARTESIAN_POINT('',(6.897338045614,-14.5103409738,4.011641449105)
  );
#203 = CARTESIAN_POINT('',(6.89883644836,-14.43785621806,3.916148161927)
  );
#204 = CARTESIAN_POINT('',(6.903717700587,-14.36443318437,3.822242166952
    ));
#205 = CARTESIAN_POINT('',(6.92170846503,-14.19877677461,3.616418134486)
  );
#206 = CARTESIAN_POINT('',(6.936471135856,-14.10612790802,3.505377235906
    ));
#207 = CARTESIAN_POINT('',(6.955692251762,-14.01249470515,3.397051407064
    ));
#208 = CARTESIAN_POINT('',(6.979033832783,-13.91807177839,3.2915186421)
  );
#209 = CARTESIAN_POINT('',(7.006188517298,-13.82304729832,3.188828847242
    ));
#210 = CARTESIAN_POINT('',(7.109552769197,-13.50156869903,2.852622549827
    ));
#211 = CARTESIAN_POINT('',(7.202064061013,-13.27311848049,2.632279742943
    ));
#212 = CARTESIAN_POINT('',(7.310933386139,-13.04398358315,2.427683510247
    ));
#213 = CARTESIAN_POINT('',(7.433989139936,-12.81550094175,2.23802208914)
  );
#214 = CARTESIAN_POINT('',(7.570087358453,-12.58871712764,2.062524148873
    ));
#215 = CARTESIAN_POINT('',(7.835084605659,-12.19108673713,1.774559346922
    ));
#216 = CARTESIAN_POINT('',(7.958636627051,-12.01945693019,1.657131852461
    ));
#217 = CARTESIAN_POINT('',(8.089824492606,-11.85057985931,1.547674607366
    ));
#218 = CARTESIAN_POINT('',(8.229336800667,-11.68501029067,1.44590978301)
  );
#219 = CARTESIAN_POINT('',(8.377785388968,-11.52462966874,1.352271206292
    ));
#220 = CARTESIAN_POINT('',(8.633520623598,-11.2790144478,1.215204792324)
  );
#221 = CARTESIAN_POINT('',(8.735199573523,-11.18822053715,1.166131972002
    ));
#222 = CARTESIAN_POINT('',(8.841119991206,-11.101215064,1.120515768256)
  );
#223 = CARTESIAN_POINT('',(8.95168377905,-11.01902938221,1.07865695393)
  );
#224 = CARTESIAN_POINT('',(9.067213685895,-10.94322695781,1.041018710624
    ));
#225 = CARTESIAN_POINT('',(9.310620683464,-10.8074738386,0.974954017808)
  );
#226 = CARTESIAN_POINT('',(9.440517861395,-10.74674979338,0.946174032021
    ));
#227 = CARTESIAN_POINT('',(9.575702216731,-10.69777915468,0.923551959364
    ));
#228 = CARTESIAN_POINT('',(9.714716749441,-10.66358659785,0.907975575956
    ));
#229 = CARTESIAN_POINT('',(9.856462609998,-10.64608248832,0.9));
#230 = CARTESIAN_POINT('',(10.057412775236,-10.64608248832,0.9));
#231 = CARTESIAN_POINT('',(10.114793016359,-10.6488828788,0.90127596143)
  );
#232 = CARTESIAN_POINT('',(10.171992270022,-10.65447837683,
    0.903825159038));
#233 = CARTESIAN_POINT('',(10.228854768446,-10.66280495634,
    0.907626859751));
#234 = CARTESIAN_POINT('',(10.285217220139,-10.67374030506,0.91264018379
    ));
#235 = CARTESIAN_POINT('',(10.422572989468,-10.70670086802,
    0.927837442319));
#236 = CARTESIAN_POINT('',(10.502679238786,-10.7314922606,0.939329622382
    ));
#237 = CARTESIAN_POINT('',(10.581147165185,-10.76099331064,
    0.953116348519));
#238 = CARTESIAN_POINT('',(10.657866255495,-10.79467250936,
    0.969031481241));
#239 = CARTESIAN_POINT('',(10.732695908088,-10.83195599022,
    0.986889393928));
#240 = CARTESIAN_POINT('',(10.871065355318,-10.90853867943,
    1.024120295334));
#241 = CARTESIAN_POINT('',(10.935115793335,-10.947346415,1.043204231045)
  );
#242 = CARTESIAN_POINT('',(10.997662270969,-10.98832385829,
    1.063618682487));
#243 = CARTESIAN_POINT('',(11.058755090083,-11.03118462895,1.08527655615
    ));
#244 = CARTESIAN_POINT('',(11.118449571703,-11.07568684622,
    1.108106257384));
#245 = CARTESIAN_POINT('',(11.228206776677,-11.16210287396,
    1.153142962918));
#246 = CARTESIAN_POINT('',(11.278581818679,-11.20370263092,
    1.175104958282));
#247 = CARTESIAN_POINT('',(11.327965065017,-11.24629319996,
    1.197897736447));
#248 = CARTESIAN_POINT('',(11.376394496879,-11.28976052223,
    1.221490094303));
#249 = CARTESIAN_POINT('',(11.423912234061,-11.33401519391,
    1.245860864525));
#250 = CARTESIAN_POINT('',(11.627518036565,-11.53030833636,
    1.355577062411));
#251 = CARTESIAN_POINT('',(11.775227901448,-11.69033147458,
    1.449150889248));
#252 = CARTESIAN_POINT('',(11.914061871879,-11.85545117389,
    1.550779945686));
#253 = CARTESIAN_POINT('',(12.044663888671,-12.02387164638,
    1.660074718936));
#254 = CARTESIAN_POINT('',(12.167664539948,-12.19499313434,1.7772791262)
  );
#255 = CARTESIAN_POINT('',(12.4468612638,-12.61446294286,2.081326296039)
  );
#256 = CARTESIAN_POINT('',(12.594994572533,-12.86434048941,
    2.276089861528));
#257 = CARTESIAN_POINT('',(12.727308367191,-13.11606762392,
    2.488063515202));
#258 = CARTESIAN_POINT('',(12.842138041489,-13.36832104008,
    2.718317437315));
#259 = CARTESIAN_POINT('',(12.93629579577,-13.61920423606,2.96790771452)
  );
#260 = CARTESIAN_POINT('',(13.034643671384,-13.97475031018,
    3.355162524204));
#261 = CARTESIAN_POINT('',(13.05968741855,-14.08257278431,3.477171266958
    ));
#262 = CARTESIAN_POINT('',(13.079274583272,-14.18934423933,
    3.602851248551));
#263 = CARTESIAN_POINT('',(13.092894820434,-14.2947277728,3.732039845925
    ));
#264 = CARTESIAN_POINT('',(13.1,-14.39838853204,3.864518042722));
#265 = CARTESIAN_POINT('',(13.1,-14.5,4.));
#266 = CYLINDRICAL_SURFACE('',#267,10.);
#267 = AXIS2_PLACEMENT_3D('',#268,#269,#270);
#268 = CARTESIAN_POINT('',(0.,-6.5,10.));
#269 = DIRECTION('',(1.,0.,0.));
#270 = DIRECTION('',(0.,-2.2E-16,-1.));
#271 = ADVANCED_FACE('',(#272,#290,#301),#312,.T.);
#272 = FACE_BOUND('',#273,.T.);
#273 = EDGE_LOOP('',(#274,#275,#276,#284));
#274 = ORIENTED_EDGE('',*,*,#47,.F.);
#275 = ORIENTED_EDGE('',*,*,#96,.F.);
#276 = ORIENTED_EDGE('',*,*,#277,.F.);
#277 = EDGE_CURVE('',#278,#62,#280,.T.);
#278 = VERTEX_POINT('',#279);
#279 = CARTESIAN_POINT('',(20.,5.E-15,24.));
#280 = LINE('',#281,#282);
#281 = CARTESIAN_POINT('',(20.,0.,24.));
#282 = VECTOR('',#283,1.);
#283 = DIRECTION('',(-1.,0.,0.));
#284 = ORIENTED_EDGE('',*,*,#285,.F.);
#285 = EDGE_CURVE('',#40,#278,#286,.T.);
#286 = LINE('',#287,#288);
#287 = CARTESIAN_POINT('',(20.,0.,0.));
#288 = VECTOR('',#289,1.);
#289 = DIRECTION('',(0.,0.,1.));
#290 = FACE_BOUND('',#291,.T.);
#291 = EDGE_LOOP('',(#292));
#292 = ORIENTED_EDGE('',*,*,#293,.F.);
#293 = EDGE_CURVE('',#294,#294,#296,.T.);
#294 = VERTEX_POINT('',#295);
#295 = CARTESIAN_POINT('',(11.7,4.E-15,4.));
#296 = CIRCLE('',#297,1.7);
#297 = AXIS2_PLACEMENT_3D('',#298,#299,#300);
#298 = CARTESIAN_POINT('',(10.,4.E-15,4.));
#299 = DIRECTION('',(0.,1.,-2.2E-16));
#300 = DIRECTION('',(1.,0.,0.));
#301 = FACE_BOUND('',#302,.T.);
#302 = EDGE_LOOP('',(#303));
#303 = ORIENTED_EDGE('',*,*,#304,.F.);
#304 = EDGE_CURVE('',#305,#305,#307,.T.);
#305 = VERTEX_POINT('',#306);
#306 = CARTESIAN_POINT('',(11.7,7.E-15,20.));
#307 = CIRCLE('',#308,1.7);
#308 = AXIS2_PLACEMENT_3D('',#309,#310,#311);
#309 = CARTESIAN_POINT('',(10.,7.E-15,20.));
#310 = DIRECTION('',(0.,1.,-2.2E-16));
#311 = DIRECTION('',(1.,0.,0.));
#312 = PLANE('',#313);
#313 = AXIS2_PLACEMENT_3D('',#314,#315,#316);
#314 = CARTESIAN_POINT('',(10.,2.66E-15,12.));
#315 = DIRECTION('',(0.,1.,0.));
#316 = DIRECTION('',(0.,0.,1.));
#317 = ADVANCED_FACE('',(#318,#346),#357,.F.);
#318 = FACE_BOUND('',#319,.F.);
#319 = EDGE_LOOP('',(#320,#321,#322,#330,#339,#345));
#320 = ORIENTED_EDGE('',*,*,#39,.T.);
#321 = ORIENTED_EDGE('',*,*,#130,.T.);
#322 = ORIENTED_EDGE('',*,*,#323,.T.);
#323 = EDGE_CURVE('',#123,#324,#326,.T.);
#324 = VERTEX_POINT('',#325);
#325 = CARTESIAN_POINT('',(20.,-16.5,14.));
#326 = LINE('',#327,#328);
#327 = CARTESIAN_POINT('',(20.,-16.5,4.E-15));
#328 = VECTOR('',#329,1.);
#329 = DIRECTION('',(0.,0.,1.));
#330 = ORIENTED_EDGE('',*,*,#331,.T.);
#331 = EDGE_CURVE('',#324,#332,#334,.T.);
#332 = VERTEX_POINT('',#333);
#333 = CARTESIAN_POINT('',(20.,-6.5,24.));
#334 = CIRCLE('',#335,10.);
#335 = AXIS2_PLACEMENT_3D('',#336,#337,#338);
#336 = CARTESIAN_POINT('',(20.,-6.5,14.));
#337 = DIRECTION('',(-1.,0.,0.));
#338 = DIRECTION('',(0.,0.,-1.));
#339 = ORIENTED_EDGE('',*,*,#340,.F.);
#340 = EDGE_CURVE('',#278,#332,#341,.T.);
#341 = LINE('',#342,#343);
#342 = CARTESIAN_POINT('',(20.,5.33E-15,24.));
#343 = VECTOR('',#344,1.);
#344 = DIRECTION('',(0.,-1.,2.2E-16));
#345 = ORIENTED_EDGE('',*,*,#285,.F.);
#346 = FACE_BOUND('',#347,.F.);
#347 = EDGE_LOOP('',(#348));
#348 = ORIENTED_EDGE('',*,*,#349,.F.);
#349 = EDGE_CURVE('',#350,#350,#352,.T.);
#350 = VERTEX_POINT('',#351);
#351 = CARTESIAN_POINT('',(20.,-10.55,12.));
#352 = CIRCLE('',#353,5.);
#353 = AXIS2_PLACEMENT_3D('',#354,#355,#356);
#354 = CARTESIAN_POINT('',(20.,-5.55,12.));
#355 = DIRECTION('',(-1.,0.,0.));
#356 = DIRECTION('',(0.,-1.,0.));
#357 = PLANE('',#358);
#358 = AXIS2_PLACEMENT_3D('',#359,#360,#361);
#359 = CARTESIAN_POINT('',(20.,0.,0.));
#360 = DIRECTION('',(-1.,0.,0.));
#361 = DIRECTION('',(0.,2.2E-16,1.));
#362 = ADVANCED_FACE('',(#363),#374,.F.);
#363 = FACE_BOUND('',#364,.F.);
#364 = EDGE_LOOP('',(#365,#366,#372,#373));
#365 = ORIENTED_EDGE('',*,*,#340,.T.);
#366 = ORIENTED_EDGE('',*,*,#367,.T.);
#367 = EDGE_CURVE('',#332,#64,#368,.T.);
#368 = LINE('',#369,#370);
#369 = CARTESIAN_POINT('',(20.,-6.5,24.));
#370 = VECTOR('',#371,1.);
#371 = DIRECTION('',(-1.,0.,0.));
#372 = ORIENTED_EDGE('',*,*,#61,.F.);
#373 = ORIENTED_EDGE('',*,*,#277,.F.);
#374 = PLANE('',#375);
#375 = AXIS2_PLACEMENT_3D('',#376,#377,#378);
#376 = CARTESIAN_POINT('',(20.,5.33E-15,24.));
#377 = DIRECTION('',(-0.,-2.2E-16,-1.));
#378 = DIRECTION('',(-1.,0.,0.));
#379 = ADVANCED_FACE('',(#380,#391),#510,.T.);
#380 = FACE_BOUND('',#381,.T.);
#381 = EDGE_LOOP('',(#382,#383,#384,#385));
#382 = ORIENTED_EDGE('',*,*,#331,.T.);
#383 = ORIENTED_EDGE('',*,*,#367,.T.);
#384 = ORIENTED_EDGE('',*,*,#71,.F.);
#385 = ORIENTED_EDGE('',*,*,#386,.F.);
#386 = EDGE_CURVE('',#324,#72,#387,.T.);
#387 = LINE('',#388,#389);
#388 = CARTESIAN_POINT('',(20.,-16.5,14.));
#389 = VECTOR('',#390,1.);
#390 = DIRECTION('',(-1.,0.,0.));
#391 = FACE_BOUND('',#392,.T.);
#392 = EDGE_LOOP('',(#393));
#393 = ORIENTED_EDGE('',*,*,#394,.F.);
#394 = EDGE_CURVE('',#395,#395,#397,.T.);
#395 = VERTEX_POINT('',#396);
#396 = CARTESIAN_POINT('',(13.1,-14.5,20.));
#397 = B_SPLINE_CURVE_WITH_KNOTS('',6,(#398,#399,#400,#401,#402,#403,
    #404,#405,#406,#407,#408,#409,#410,#411,#412,#413,#414,#415,#416,
    #417,#418,#419,#420,#421,#422,#423,#424,#425,#426,#427,#428,#429,
    #430,#431,#432,#433,#434,#435,#436,#437,#438,#439,#440,#441,#442,
    #443,#444,#445,#446,#447,#448,#449,#450,#451,#452,#453,#454,#455,
    #456,#457,#458,#459,#460,#461,#462,#463,#464,#465,#466,#467,#468,
    #469,#470,#471,#472,#473,#474,#475,#476,#477,#478,#479,#480,#481,
    #482,#483,#484,#485,#486,#487,#488,#489,#490,#491,#492,#493,#494,
    #495,#496,#497,#498,#499,#500,#501,#502,#503,#504,#505,#506,#507,
    #508,#509),.UNSPECIFIED.,.T.,.F.,(7,5,5,5,5,5,5,5,5,5,5,5,5,5,5,5,5,
    5,5,5,5,5,7),(0.,3.92603268658E-02,0.131619809571,0.195975674226,
    0.214112483577,0.235860538902,0.25143847466,0.276194434945,
    0.31682356232,0.356908593983,0.421531521173,0.506999285109,
    0.54187348298,0.570214036191,0.618150589886,0.657917541312,
    0.709112105023,0.777169470229,0.844039152338,0.871386248529,
    0.895410890963,0.935448939418,1.),.UNSPECIFIED.);
#398 = CARTESIAN_POINT('',(13.1,-14.5,20.));
#399 = CARTESIAN_POINT('',(13.1,-14.40001641232,20.133311450228));
#400 = CARTESIAN_POINT('',(13.093120647514,-14.29804669465,
    20.263717252533));
#401 = CARTESIAN_POINT('',(13.07992367638,-14.19440286346,
    20.390943395319));
#402 = CARTESIAN_POINT('',(13.060931995214,-14.08940508128,
    20.514778550179));
#403 = CARTESIAN_POINT('',(13.03663356608,-13.98337585139,
    20.635064453037));
#404 = CARTESIAN_POINT('',(12.938914271525,-13.62552569307,
    21.026037849794));
#405 = CARTESIAN_POINT('',(12.843463417131,-13.37033069369,
    21.280270061842));
#406 = CARTESIAN_POINT('',(12.726608477761,-13.11370184726,
    21.514474551192));
#407 = CARTESIAN_POINT('',(12.591705446411,-12.85763725304,
    21.729772666486));
#408 = CARTESIAN_POINT('',(12.440481963749,-12.60350807721,
    21.927295363475));
#409 = CARTESIAN_POINT('',(12.156927671523,-12.17988860423,
    22.233158833524));
#410 = CARTESIAN_POINT('',(12.033165560871,-12.0086881188,22.3499544828)
  );
#411 = CARTESIAN_POINT('',(11.901782355109,-11.84026825855,
    22.458814595495));
#412 = CARTESIAN_POINT('',(11.762072250902,-11.675188268,22.560010123091
    ));
#413 = CARTESIAN_POINT('',(11.613416802538,-11.51535505997,
    22.653094468401));
#414 = CARTESIAN_POINT('',(11.410883736477,-11.32192517294,
    22.760788025676));
#415 = CARTESIAN_POINT('',(11.365566753358,-11.2800634963,
    22.783769687284));
#416 = CARTESIAN_POINT('',(11.319421968992,-11.2389258379,
    22.806045388418));
#417 = CARTESIAN_POINT('',(11.27241312433,-11.19859070224,
    22.827596765595));
#418 = CARTESIAN_POINT('',(11.224507365757,-11.15915682823,
    22.848397247531));
#419 = CARTESIAN_POINT('',(11.117120091238,-11.07468095563,
    22.892412039639));
#420 = CARTESIAN_POINT('',(11.057217720605,-11.03007388961,
    22.915288909812));
#421 = CARTESIAN_POINT('',(10.995907489703,-10.98712180846,
    22.936985797509));
#422 = CARTESIAN_POINT('',(10.933133798172,-10.94606950017,
    22.957430188206));
#423 = CARTESIAN_POINT('',(10.868846088787,-10.90720672336,
    22.97653392101));
#424 = CARTESIAN_POINT('',(10.755833062744,-10.8448392561,
    23.006842362698));
#425 = CARTESIAN_POINT('',(10.707851579948,-10.82009681892,
    23.01875460215));
#426 = CARTESIAN_POINT('',(10.659076540554,-10.7967872961,
    23.029880147251));
#427 = CARTESIAN_POINT('',(10.60952650706,-10.77505663253,
    23.040171670779));
#428 = CARTESIAN_POINT('',(10.5592164432,-10.75504995021,23.049582914222
    ));
#429 = CARTESIAN_POINT('',(10.42701675337,-10.70808562529,
    23.071550478189));
#430 = CARTESIAN_POINT('',(10.34377392742,-10.68390227325,
    23.082727516825));
#431 = CARTESIAN_POINT('',(10.25899198362,-10.665175412,23.091302121253)
  );
#432 = CARTESIAN_POINT('',(10.173150404184,-10.65246594357,
    23.097091014525));
#433 = CARTESIAN_POINT('',(10.086680412602,-10.64608248832,23.1));
#434 = CARTESIAN_POINT('',(9.857741348591,-10.64608248832,23.1));
#435 = CARTESIAN_POINT('',(9.717221691584,-10.6632761225,23.092165903605
    ));
#436 = CARTESIAN_POINT('',(9.579370908063,-10.69687866636,
    23.076858228667));
#437 = CARTESIAN_POINT('',(9.445270933216,-10.74503694882,
    23.054617270553));
#438 = CARTESIAN_POINT('',(9.316348798627,-10.80481144634,
    23.026307006555));
#439 = CARTESIAN_POINT('',(9.074351163687,-10.93874874274,
    22.961192992823));
#440 = CARTESIAN_POINT('',(8.959352689383,-11.01366764541,
    22.924041190979));
#441 = CARTESIAN_POINT('',(8.849266339254,-11.09495597563,
    22.882704617605));
#442 = CARTESIAN_POINT('',(8.743776707932,-11.18106572282,
    22.837642050663));
#443 = CARTESIAN_POINT('',(8.642491960651,-11.2709674464,22.789154789132
    ));
#444 = CARTESIAN_POINT('',(8.387598884357,-11.51435461659,
    22.653658446618));
#445 = CARTESIAN_POINT('',(8.239556823589,-11.67341759725,
    22.561047945011));
#446 = CARTESIAN_POINT('',(8.10038516045,-11.83769566645,22.460396703559
    ));
#447 = CARTESIAN_POINT('',(7.969471311383,-12.00530146062,
    22.352146684876));
#448 = CARTESIAN_POINT('',(7.846115156576,-12.17567737968,
    22.236033201814));
#449 = CARTESIAN_POINT('',(7.576456269577,-12.57777156511,
    21.946092056265));
#450 = CARTESIAN_POINT('',(7.436270594657,-12.81052956762,
    21.766466006082));
#451 = CARTESIAN_POINT('',(7.309788384763,-13.04509028717,
    21.571941721363));
#452 = CARTESIAN_POINT('',(7.198231673553,-13.28034144785,
    21.361680079139));
#453 = CARTESIAN_POINT('',(7.103962783726,-13.51483295619,
    21.134795511802));
#454 = CARTESIAN_POINT('',(7.000950486943,-13.84126851977,20.79151102));
#455 = CARTESIAN_POINT('',(6.974610981048,-13.935430761,20.689206823208)
  );
#456 = CARTESIAN_POINT('',(6.952060023756,-14.02897974277,
    20.584109495818));
#457 = CARTESIAN_POINT('',(6.933600790381,-14.12172973372,
    20.476271577616));
#458 = CARTESIAN_POINT('',(6.919565800751,-14.21348910382,
    20.365773239158));
#459 = CARTESIAN_POINT('',(6.902804490699,-14.37766839527,
    20.160860160797));
#460 = CARTESIAN_POINT('',(6.898451124544,-14.4505010357,20.067297907104
    ));
#461 = CARTESIAN_POINT('',(6.897462713388,-14.52239028936,
    19.972182501586));
#462 = CARTESIAN_POINT('',(6.900037739479,-14.59317675403,
    19.875670375352));
#463 = CARTESIAN_POINT('',(6.906369728055,-14.66271320064,19.77793337781
    ));
#464 = CARTESIAN_POINT('',(6.934032262182,-14.84614094157,
    19.512089650506));
#465 = CARTESIAN_POINT('',(6.962738100146,-14.95766745051,
    19.341747436697));
#466 = CARTESIAN_POINT('',(7.003663501771,-15.06414352055,19.16992832327
    ));
#467 = CARTESIAN_POINT('',(7.057300088197,-15.16463931267,
    18.998490951333));
#468 = CARTESIAN_POINT('',(7.123721991727,-15.25856911617,
    18.829317156938));
#469 = CARTESIAN_POINT('',(7.267958508721,-15.41784506683,
    18.527252378372));
#470 = CARTESIAN_POINT('',(7.341742592367,-15.48515794271,
    18.393426491483));
#471 = CARTESIAN_POINT('',(7.423602590749,-15.54741304351,
    18.263779817296));
#472 = CARTESIAN_POINT('',(7.513009841564,-15.60460139149,
    18.139297912888));
#473 = CARTESIAN_POINT('',(7.609207806676,-15.65682133588,
    18.020862981801));
#474 = CARTESIAN_POINT('',(7.842512835121,-15.76529399518,
    17.765463620674));
#475 = CARTESIAN_POINT('',(7.9833512998,-15.81835590207,17.633041834661)
  );
#476 = CARTESIAN_POINT('',(8.13240103317,-15.86419413745,17.512578301517
    ));
#477 = CARTESIAN_POINT('',(8.288269979948,-15.90351852603,
    17.404555784066));
#478 = CARTESIAN_POINT('',(8.449507591576,-15.93696662445,
    17.309268049808));
#479 = CARTESIAN_POINT('',(8.834115683237,-16.00246789197,
    17.117134063622));
#480 = CARTESIAN_POINT('',(9.060836485594,-16.03049750205,
    17.029924091846));
#481 = CARTESIAN_POINT('',(9.292548079584,-16.05061502833,
    16.964851079785));
#482 = CARTESIAN_POINT('',(9.527395478074,-16.06371905662,
    16.921607115496));
#483 = CARTESIAN_POINT('',(9.763740634124,-16.07026645397,16.9));
#484 = CARTESIAN_POINT('',(10.232136355018,-16.07026645397,16.9));
#485 = CARTESIAN_POINT('',(10.464350253076,-16.06394557883,
    16.920859558659));
#486 = CARTESIAN_POINT('',(10.695142359343,-16.05129563147,
    16.962605080635));
#487 = CARTESIAN_POINT('',(10.922963819508,-16.03189063669,
    17.025416112022));
#488 = CARTESIAN_POINT('',(11.146066114504,-16.00489245373,
    17.109583215267));
#489 = CARTESIAN_POINT('',(11.450804366267,-15.95426498961,
    17.258674909948));
#490 = CARTESIAN_POINT('',(11.538105452902,-15.93807763418,
    17.305565182266));
#491 = CARTESIAN_POINT('',(11.624069878975,-15.92031396255,
    17.356068416268));
#492 = CARTESIAN_POINT('',(11.708509548202,-15.90088029013,
    17.410172228428));
#493 = CARTESIAN_POINT('',(11.791233550219,-15.87967319341,
    17.467854227764));
#494 = CARTESIAN_POINT('',(11.943044441286,-15.83629152451,
    17.58287111671));
#495 = CARTESIAN_POINT('',(12.0125717415,-15.81454618383,17.639400297303
    ));
#496 = CARTESIAN_POINT('',(12.080455526326,-15.79127870368,
    17.698615752868));
#497 = CARTESIAN_POINT('',(12.146530153314,-15.76642284509,
    17.760450429619));
#498 = CARTESIAN_POINT('',(12.21063880675,-15.73991202036,
    17.824825290054));
#499 = CARTESIAN_POINT('',(12.375950008388,-15.66463124869,
    18.003017652119));
#500 = CARTESIAN_POINT('',(12.473490283979,-15.61275945262,
    18.121293332316));
#501 = CARTESIAN_POINT('',(12.564242847877,-15.55588377487,
    18.245753803466));
#502 = CARTESIAN_POINT('',(12.647431548632,-15.49389360551,
    18.375521126406));
#503 = CARTESIAN_POINT('',(12.722508491603,-15.4267841351,
    18.509611178365));
#504 = CARTESIAN_POINT('',(12.896584559164,-15.23846073436,
    18.868456073216));
#505 = CARTESIAN_POINT('',(12.981365055189,-15.11005956129,
    19.09696566882));
#506 = CARTESIAN_POINT('',(13.042928817611,-14.97011191736,
    19.328443185936));
#507 = CARTESIAN_POINT('',(13.081903178247,-14.82001434209,
    19.558704899209));
#508 = CARTESIAN_POINT('',(13.1,-14.66216327695,19.783782297389));
#509 = CARTESIAN_POINT('',(13.1,-14.5,20.));
#510 = CYLINDRICAL_SURFACE('',#511,10.);
#511 = AXIS2_PLACEMENT_3D('',#512,#513,#514);
#512 = CARTESIAN_POINT('',(20.,-6.5,14.));
#513 = DIRECTION('',(-1.,0.,0.));
#514 = DIRECTION('',(-0.,-1.,-0.));
#515 = ADVANCED_FACE('',(#516),#522,.F.);
#516 = FACE_BOUND('',#517,.F.);
#517 = EDGE_LOOP('',(#518,#519,#520,#521));
#518 = ORIENTED_EDGE('',*,*,#323,.F.);
#519 = ORIENTED_EDGE('',*,*,#122,.F.);
#520 = ORIENTED_EDGE('',*,*,#80,.F.);
#521 = ORIENTED_EDGE('',*,*,#386,.F.);
#522 = PLANE('',#523);
#523 = AXIS2_PLACEMENT_3D('',#524,#525,#526);
#524 = CARTESIAN_POINT('',(10.,-16.5,12.));
#525 = DIRECTION('',(0.,1.,0.));
#526 = DIRECTION('',(0.,0.,1.));
#527 = ADVANCED_FACE('',(#528),#539,.F.);
#528 = FACE_BOUND('',#529,.F.);
#529 = EDGE_LOOP('',(#530,#531,#537,#538));
#530 = ORIENTED_EDGE('',*,*,#104,.F.);
#531 = ORIENTED_EDGE('',*,*,#532,.T.);
#532 = EDGE_CURVE('',#105,#350,#533,.T.);
#533 = LINE('',#534,#535);
#534 = CARTESIAN_POINT('',(0.,-10.55,12.));
#535 = VECTOR('',#536,1.);
#536 = DIRECTION('',(1.,0.,0.));
#537 = ORIENTED_EDGE('',*,*,#349,.T.);
#538 = ORIENTED_EDGE('',*,*,#532,.F.);
#539 = CYLINDRICAL_SURFACE('',#540,5.);
#540 = AXIS2_PLACEMENT_3D('',#541,#542,#543);
#541 = CARTESIAN_POINT('',(0.,-5.55,12.));
#542 = DIRECTION('',(-1.,0.,0.));
#543 = DIRECTION('',(0.,-1.,0.));
#544 = ADVANCED_FACE('',(#545),#564,.F.);
#545 = FACE_BOUND('',#546,.F.);
#546 = EDGE_LOOP('',(#547,#548,#556,#563));
#547 = ORIENTED_EDGE('',*,*,#140,.F.);
#548 = ORIENTED_EDGE('',*,*,#549,.T.);
#549 = EDGE_CURVE('',#141,#550,#552,.T.);
#550 = VERTEX_POINT('',#551);
#551 = CARTESIAN_POINT('',(13.1,-8.5,4.));
#552 = LINE('',#553,#554);
#553 = CARTESIAN_POINT('',(13.1,-16.5,4.));
#554 = VECTOR('',#555,1.);
#555 = DIRECTION('',(0.,1.,-2.2E-16));
#556 = ORIENTED_EDGE('',*,*,#557,.T.);
#557 = EDGE_CURVE('',#550,#550,#558,.T.);
#558 = CIRCLE('',#559,3.1);
#559 = AXIS2_PLACEMENT_3D('',#560,#561,#562);
#560 = CARTESIAN_POINT('',(10.,-8.5,4.));
#561 = DIRECTION('',(0.,-1.,0.));
#562 = DIRECTION('',(1.,0.,0.));
#563 = ORIENTED_EDGE('',*,*,#549,.F.);
#564 = CYLINDRICAL_SURFACE('',#565,3.1);
#565 = AXIS2_PLACEMENT_3D('',#566,#567,#568);
#566 = CARTESIAN_POINT('',(10.,-16.5,4.));
#567 = DIRECTION('',(0.,-1.,2.2E-16));
#568 = DIRECTION('',(1.,0.,0.));
#569 = ADVANCED_FACE('',(#570),#589,.F.);
#570 = FACE_BOUND('',#571,.T.);
#571 = EDGE_LOOP('',(#572,#573,#581,#588));
#572 = ORIENTED_EDGE('',*,*,#293,.T.);
#573 = ORIENTED_EDGE('',*,*,#574,.T.);
#574 = EDGE_CURVE('',#294,#575,#577,.T.);
#575 = VERTEX_POINT('',#576);
#576 = CARTESIAN_POINT('',(11.7,-8.5,4.));
#577 = LINE('',#578,#579);
#578 = CARTESIAN_POINT('',(11.7,4.E-15,4.));
#579 = VECTOR('',#580,1.);
#580 = DIRECTION('',(-6.E-17,-1.,2.2E-16));
#581 = ORIENTED_EDGE('',*,*,#582,.T.);
#582 = EDGE_CURVE('',#575,#575,#583,.T.);
#583 = CIRCLE('',#584,1.7);
#584 = AXIS2_PLACEMENT_3D('',#585,#586,#587);
#585 = CARTESIAN_POINT('',(10.,-8.5,4.));
#586 = DIRECTION('',(0.,-1.,2.2E-16));
#587 = DIRECTION('',(1.,0.,0.));
#588 = ORIENTED_EDGE('',*,*,#574,.F.);
#589 = CYLINDRICAL_SURFACE('',#590,1.7);
#590 = AXIS2_PLACEMENT_3D('',#591,#592,#593);
#591 = CARTESIAN_POINT('',(10.,4.E-15,4.));
#592 = DIRECTION('',(0.,-1.,2.2E-16));
#593 = DIRECTION('',(1.,0.,0.));
#594 = ADVANCED_FACE('',(#595),#614,.F.);
#595 = FACE_BOUND('',#596,.T.);
#596 = EDGE_LOOP('',(#597,#598,#606,#613));
#597 = ORIENTED_EDGE('',*,*,#304,.T.);
#598 = ORIENTED_EDGE('',*,*,#599,.T.);
#599 = EDGE_CURVE('',#305,#600,#602,.T.);
#600 = VERTEX_POINT('',#601);
#601 = CARTESIAN_POINT('',(11.7,-8.5,20.));
#602 = LINE('',#603,#604);
#603 = CARTESIAN_POINT('',(11.7,7.E-15,20.));
#604 = VECTOR('',#605,1.);
#605 = DIRECTION('',(-6.E-17,-1.,2.2E-16));
#606 = ORIENTED_EDGE('',*,*,#607,.T.);
#607 = EDGE_CURVE('',#600,#600,#608,.T.);
#608 = CIRCLE('',#609,1.7);
#609 = AXIS2_PLACEMENT_3D('',#610,#611,#612);
#610 = CARTESIAN_POINT('',(10.,-8.5,20.));
#611 = DIRECTION('',(0.,-1.,2.2E-16));
#612 = DIRECTION('',(1.,0.,0.));
#613 = ORIENTED_EDGE('',*,*,#599,.F.);
#614 = CYLINDRICAL_SURFACE('',#615,1.7);
#615 = AXIS2_PLACEMENT_3D('',#616,#617,#618);
#616 = CARTESIAN_POINT('',(10.,7.E-15,20.));
#617 = DIRECTION('',(0.,-1.,2.2E-16));
#618 = DIRECTION('',(1.,0.,0.));
#619 = ADVANCED_FACE('',(#620),#639,.F.);
#620 = FACE_BOUND('',#621,.F.);
#621 = EDGE_LOOP('',(#622,#623,#631,#638));
#622 = ORIENTED_EDGE('',*,*,#394,.F.);
#623 = ORIENTED_EDGE('',*,*,#624,.T.);
#624 = EDGE_CURVE('',#395,#625,#627,.T.);
#625 = VERTEX_POINT('',#626);
#626 = CARTESIAN_POINT('',(13.1,-8.5,20.));
#627 = LINE('',#628,#629);
#628 = CARTESIAN_POINT('',(13.1,-16.5,20.));
#629 = VECTOR('',#630,1.);
#630 = DIRECTION('',(0.,1.,-2.2E-16));
#631 = ORIENTED_EDGE('',*,*,#632,.T.);
#632 = EDGE_CURVE('',#625,#625,#633,.T.);
#633 = CIRCLE('',#634,3.1);
#634 = AXIS2_PLACEMENT_3D('',#635,#636,#637);
#635 = CARTESIAN_POINT('',(10.,-8.5,20.));
#636 = DIRECTION('',(0.,-1.,0.));
#637 = DIRECTION('',(1.,0.,0.));
#638 = ORIENTED_EDGE('',*,*,#624,.F.);
#639 = CYLINDRICAL_SURFACE('',#640,3.1);
#640 = AXIS2_PLACEMENT_3D('',#641,#642,#643);
#641 = CARTESIAN_POINT('',(10.,-16.5,20.));
#642 = DIRECTION('',(0.,-1.,2.2E-16));
#643 = DIRECTION('',(1.,0.,0.));
#644 = ADVANCED_FACE('',(#645,#648),#651,.F.);
#645 = FACE_BOUND('',#646,.F.);
#646 = EDGE_LOOP('',(#647));
#647 = ORIENTED_EDGE('',*,*,#557,.F.);
#648 = FACE_BOUND('',#649,.F.);
#649 = EDGE_LOOP('',(#650));
#650 = ORIENTED_EDGE('',*,*,#582,.T.);
#651 = PLANE('',#652);
#652 = AXIS2_PLACEMENT_3D('',#653,#654,#655);
#653 = CARTESIAN_POINT('',(10.,-8.5,12.));
#654 = DIRECTION('',(0.,1.,0.));
#655 = DIRECTION('',(0.,0.,1.));
#656 = ADVANCED_FACE('',(#657,#660),#663,.F.);
#657 = FACE_BOUND('',#658,.F.);
#658 = EDGE_LOOP('',(#659));
#659 = ORIENTED_EDGE('',*,*,#632,.F.);
#660 = FACE_BOUND('',#661,.F.);
#661 = EDGE_LOOP('',(#662));
#662 = ORIENTED_EDGE('',*,*,#607,.T.);
#663 = PLANE('',#664);
#664 = AXIS2_PLACEMENT_3D('',#665,#666,#667);
#665 = CARTESIAN_POINT('',(10.,-8.5,12.));
#666 = DIRECTION('',(0.,1.,0.));
#667 = DIRECTION('',(0.,0.,1.));
#668 = ( GEOMETRIC_REPRESENTATION_CONTEXT(3) 
GLOBAL_UNCERTAINTY_ASSIGNED_CONTEXT((#672)) GLOBAL_UNIT_ASSIGNED_CONTEXT
((#669,#670,#671)) REPRESENTATION_CONTEXT('Context #1',
  '3D Context with UNIT and UNCERTAINTY') );
#669 = ( LENGTH_UNIT() NAMED_UNIT(*) SI_UNIT(.MILLI.,.METRE.) );
#670 = ( NAMED_UNIT(*) PLANE_ANGLE_UNIT() SI_UNIT($,.RADIAN.) );
#671 = ( NAMED_UNIT(*) SI_UNIT($,.STERADIAN.) SOLID_ANGLE_UNIT() );
#672 = UNCERTAINTY_MEASURE_WITH_UNIT(LENGTH_MEASURE(1.E-07),#669,
  'distance_accuracy_value','confusion accuracy');
#673 = PRODUCT_RELATED_PRODUCT_CATEGORY('part',$,(#7));
#674 = MECHANICAL_DESIGN_GEOMETRIC_PRESENTATION_REPRESENTATION('',(#675)
  ,#668);
#675 = STYLED_ITEM('color',(#676),#15);
#676 = PRESENTATION_STYLE_ASSIGNMENT((#677,#683));
#677 = SURFACE_STYLE_USAGE(.BOTH.,#678);
#678 = SURFACE_SIDE_STYLE('',(#679));
#679 = SURFACE_STYLE_FILL_AREA(#680);
#680 = FILL_AREA_STYLE('',(#681));
#681 = FILL_AREA_STYLE_COLOUR('',#682);
#682 = COLOUR_RGB('',0.447058818107,0.474509808674,0.501960817233);
#683 = CURVE_STYLE('',#684,POSITIVE_LENGTH_MEASURE(0.1),#685);
#684 = DRAUGHTING_PRE_DEFINED_CURVE_FONT('continuous');
#685 = COLOUR_RGB('',9.803921802644E-02,9.803921802644E-02,
  9.803921802644E-02);
ENDSEC;
END-ISO-10303-21;
