ISO-10303-21;
HEADER;
FILE_DESCRIPTION(('FreeCAD Model'),'2;1');
FILE_NAME('Open CASCADE Shape Model','2026-02-24T00:50:11',(''),(''),
  'Open CASCADE STEP processor 7.9','FreeCAD','Unknown');
FILE_SCHEMA(('AUTOMOTIVE_DESIGN { 1 0 10303 214 1 1 1 1 }'));
ENDSEC;
DATA;
#1 = APPLICATION_PROTOCOL_DEFINITION('international standard',
  'automotive_design',2000,#2);
#2 = APPLICATION_CONTEXT(
  'core data for automotive mechanical design processes');
#3 = SHAPE_DEFINITION_REPRESENTATION(#4,#10);
#4 = PRODUCT_DEFINITION_SHAPE('','',#5);
#5 = PRODUCT_DEFINITION('design','',#6,#9);
#6 = PRODUCT_DEFINITION_FORMATION('','',#7);
#7 = PRODUCT('DrillMarker003','DrillMarker003','',(#8));
#8 = PRODUCT_CONTEXT('',#2,'mechanical');
#9 = PRODUCT_DEFINITION_CONTEXT('part definition',#2,'design');
#10 = ADVANCED_BREP_SHAPE_REPRESENTATION('',(#11,#15),#651);
#11 = AXIS2_PLACEMENT_3D('',#12,#13,#14);
#12 = CARTESIAN_POINT('',(0.,0.,0.));
#13 = DIRECTION('',(0.,0.,1.));
#14 = DIRECTION('',(1.,0.,-0.));
#15 = MANIFOLD_SOLID_BREP('',#16);
#16 = CLOSED_SHELL('',(#17,#57,#112,#152,#231,#253,#277,#325,#356,#378,
    #395,#412,#429,#451,#463,#523,#548,#573,#598,#623));
#17 = ADVANCED_FACE('',(#18),#52,.F.);
#18 = FACE_BOUND('',#19,.F.);
#19 = EDGE_LOOP('',(#20,#30,#38,#46));
#20 = ORIENTED_EDGE('',*,*,#21,.T.);
#21 = EDGE_CURVE('',#22,#24,#26,.T.);
#22 = VERTEX_POINT('',#23);
#23 = CARTESIAN_POINT('',(-10.,240.,-7.5));
#24 = VERTEX_POINT('',#25);
#25 = CARTESIAN_POINT('',(-10.,236.,-7.5));
#26 = LINE('',#27,#28);
#27 = CARTESIAN_POINT('',(-10.,240.,-7.5));
#28 = VECTOR('',#29,1.);
#29 = DIRECTION('',(0.,-1.,2.22044604925E-16));
#30 = ORIENTED_EDGE('',*,*,#31,.T.);
#31 = EDGE_CURVE('',#24,#32,#34,.T.);
#32 = VERTEX_POINT('',#33);
#33 = CARTESIAN_POINT('',(-4.3,236.,-7.5));
#34 = LINE('',#35,#36);
#35 = CARTESIAN_POINT('',(-10.,236.,-7.5));
#36 = VECTOR('',#37,1.);
#37 = DIRECTION('',(1.,0.,0.));
#38 = ORIENTED_EDGE('',*,*,#39,.F.);
#39 = EDGE_CURVE('',#40,#32,#42,.T.);
#40 = VERTEX_POINT('',#41);
#41 = CARTESIAN_POINT('',(-4.3,240.,-7.5));
#42 = LINE('',#43,#44);
#43 = CARTESIAN_POINT('',(-4.3,240.,-7.5));
#44 = VECTOR('',#45,1.);
#45 = DIRECTION('',(0.,-1.,2.22044604925E-16));
#46 = ORIENTED_EDGE('',*,*,#47,.F.);
#47 = EDGE_CURVE('',#22,#40,#48,.T.);
#48 = LINE('',#49,#50);
#49 = CARTESIAN_POINT('',(-10.,240.,-7.5));
#50 = VECTOR('',#51,1.);
#51 = DIRECTION('',(1.,0.,0.));
#52 = PLANE('',#53);
#53 = AXIS2_PLACEMENT_3D('',#54,#55,#56);
#54 = CARTESIAN_POINT('',(-10.,240.,-7.5));
#55 = DIRECTION('',(0.,2.22044604925E-16,1.));
#56 = DIRECTION('',(1.,0.,0.));
#57 = ADVANCED_FACE('',(#58),#107,.T.);
#58 = FACE_BOUND('',#59,.T.);
#59 = EDGE_LOOP('',(#60,#68,#76,#84,#92,#100,#106));
#60 = ORIENTED_EDGE('',*,*,#61,.F.);
#61 = EDGE_CURVE('',#62,#22,#64,.T.);
#62 = VERTEX_POINT('',#63);
#63 = CARTESIAN_POINT('',(-10.,240.,-3.1));
#64 = LINE('',#65,#66);
#65 = CARTESIAN_POINT('',(-10.,240.,7.5));
#66 = VECTOR('',#67,1.);
#67 = DIRECTION('',(0.,-2.22044604925E-16,-1.));
#68 = ORIENTED_EDGE('',*,*,#69,.F.);
#69 = EDGE_CURVE('',#70,#62,#72,.T.);
#70 = VERTEX_POINT('',#71);
#71 = CARTESIAN_POINT('',(-8.,240.,-3.1));
#72 = LINE('',#73,#74);
#73 = CARTESIAN_POINT('',(-8.,240.,-3.1));
#74 = VECTOR('',#75,1.);
#75 = DIRECTION('',(-1.,0.,0.));
#76 = ORIENTED_EDGE('',*,*,#77,.F.);
#77 = EDGE_CURVE('',#78,#70,#80,.T.);
#78 = VERTEX_POINT('',#79);
#79 = CARTESIAN_POINT('',(-8.,240.,-5.1));
#80 = LINE('',#81,#82);
#81 = CARTESIAN_POINT('',(-8.,240.,-5.5));
#82 = VECTOR('',#83,1.);
#83 = DIRECTION('',(0.,2.22044604925E-16,1.));
#84 = ORIENTED_EDGE('',*,*,#85,.T.);
#85 = EDGE_CURVE('',#78,#86,#88,.T.);
#86 = VERTEX_POINT('',#87);
#87 = CARTESIAN_POINT('',(-6.465685424949,240.,-5.1));
#88 = LINE('',#89,#90);
#89 = CARTESIAN_POINT('',(-8.,240.,-5.1));
#90 = VECTOR('',#91,1.);
#91 = DIRECTION('',(1.,0.,0.));
#92 = ORIENTED_EDGE('',*,*,#93,.T.);
#93 = EDGE_CURVE('',#86,#94,#96,.T.);
#94 = VERTEX_POINT('',#95);
#95 = CARTESIAN_POINT('',(-4.3,240.,-2.934314575051));
#96 = LINE('',#97,#98);
#97 = CARTESIAN_POINT('',(-6.465685424949,240.,-5.1));
#98 = VECTOR('',#99,1.);
#99 = DIRECTION('',(0.707106781187,1.570092458684E-16,0.707106781187));
#100 = ORIENTED_EDGE('',*,*,#101,.F.);
#101 = EDGE_CURVE('',#40,#94,#102,.T.);
#102 = LINE('',#103,#104);
#103 = CARTESIAN_POINT('',(-4.3,240.,-7.5));
#104 = VECTOR('',#105,1.);
#105 = DIRECTION('',(0.,2.22044604925E-16,1.));
#106 = ORIENTED_EDGE('',*,*,#47,.F.);
#107 = PLANE('',#108);
#108 = AXIS2_PLACEMENT_3D('',#109,#110,#111);
#109 = CARTESIAN_POINT('',(-7.15,240.,-1.716286801353E-16));
#110 = DIRECTION('',(0.,1.,0.));
#111 = DIRECTION('',(0.,0.,1.));
#112 = ADVANCED_FACE('',(#113),#147,.F.);
#113 = FACE_BOUND('',#114,.F.);
#114 = EDGE_LOOP('',(#115,#125,#133,#141));
#115 = ORIENTED_EDGE('',*,*,#116,.T.);
#116 = EDGE_CURVE('',#117,#119,#121,.T.);
#117 = VERTEX_POINT('',#118);
#118 = CARTESIAN_POINT('',(-10.,240.,3.1));
#119 = VERTEX_POINT('',#120);
#120 = CARTESIAN_POINT('',(-10.,360.,3.1));
#121 = LINE('',#122,#123);
#122 = CARTESIAN_POINT('',(-10.,240.,3.1));
#123 = VECTOR('',#124,1.);
#124 = DIRECTION('',(0.,1.,-2.22044604925E-16));
#125 = ORIENTED_EDGE('',*,*,#126,.T.);
#126 = EDGE_CURVE('',#119,#127,#129,.T.);
#127 = VERTEX_POINT('',#128);
#128 = CARTESIAN_POINT('',(-8.,360.,3.1));
#129 = LINE('',#130,#131);
#130 = CARTESIAN_POINT('',(-10.,360.,3.1));
#131 = VECTOR('',#132,1.);
#132 = DIRECTION('',(1.,0.,0.));
#133 = ORIENTED_EDGE('',*,*,#134,.F.);
#134 = EDGE_CURVE('',#135,#127,#137,.T.);
#135 = VERTEX_POINT('',#136);
#136 = CARTESIAN_POINT('',(-8.,240.,3.1));
#137 = LINE('',#138,#139);
#138 = CARTESIAN_POINT('',(-8.,240.,3.1));
#139 = VECTOR('',#140,1.);
#140 = DIRECTION('',(0.,1.,-2.22044604925E-16));
#141 = ORIENTED_EDGE('',*,*,#142,.F.);
#142 = EDGE_CURVE('',#117,#135,#143,.T.);
#143 = LINE('',#144,#145);
#144 = CARTESIAN_POINT('',(-10.,240.,3.1));
#145 = VECTOR('',#146,1.);
#146 = DIRECTION('',(1.,0.,0.));
#147 = PLANE('',#148);
#148 = AXIS2_PLACEMENT_3D('',#149,#150,#151);
#149 = CARTESIAN_POINT('',(-10.,240.,3.1));
#150 = DIRECTION('',(0.,-2.22044604925E-16,-1.));
#151 = DIRECTION('',(1.,0.,0.));
#152 = ADVANCED_FACE('',(#153),#226,.T.);
#153 = FACE_BOUND('',#154,.T.);
#154 = EDGE_LOOP('',(#155,#163,#164,#172,#180,#188,#196,#204,#212,#220)
  );
#155 = ORIENTED_EDGE('',*,*,#156,.F.);
#156 = EDGE_CURVE('',#119,#157,#159,.T.);
#157 = VERTEX_POINT('',#158);
#158 = CARTESIAN_POINT('',(-10.,360.,-3.1));
#159 = LINE('',#160,#161);
#160 = CARTESIAN_POINT('',(-10.,360.,3.1));
#161 = VECTOR('',#162,1.);
#162 = DIRECTION('',(0.,-2.22044604925E-16,-1.));
#163 = ORIENTED_EDGE('',*,*,#126,.T.);
#164 = ORIENTED_EDGE('',*,*,#165,.T.);
#165 = EDGE_CURVE('',#127,#166,#168,.T.);
#166 = VERTEX_POINT('',#167);
#167 = CARTESIAN_POINT('',(-8.,360.,5.1));
#168 = LINE('',#169,#170);
#169 = CARTESIAN_POINT('',(-8.,360.,3.1));
#170 = VECTOR('',#171,1.);
#171 = DIRECTION('',(0.,2.22044604925E-16,1.));
#172 = ORIENTED_EDGE('',*,*,#173,.T.);
#173 = EDGE_CURVE('',#166,#174,#176,.T.);
#174 = VERTEX_POINT('',#175);
#175 = CARTESIAN_POINT('',(-6.465685424949,360.,5.1));
#176 = LINE('',#177,#178);
#177 = CARTESIAN_POINT('',(-6.729535298816,360.,5.1));
#178 = VECTOR('',#179,1.);
#179 = DIRECTION('',(1.,0.,0.));
#180 = ORIENTED_EDGE('',*,*,#181,.T.);
#181 = EDGE_CURVE('',#174,#182,#184,.T.);
#182 = VERTEX_POINT('',#183);
#183 = CARTESIAN_POINT('',(-4.3,360.,2.934314575051));
#184 = LINE('',#185,#186);
#185 = CARTESIAN_POINT('',(-4.239767649408,360.,2.874082224459));
#186 = VECTOR('',#187,1.);
#187 = DIRECTION('',(0.707106781187,0.,-0.707106781187));
#188 = ORIENTED_EDGE('',*,*,#189,.T.);
#189 = EDGE_CURVE('',#182,#190,#192,.T.);
#190 = VERTEX_POINT('',#191);
#191 = CARTESIAN_POINT('',(-4.3,360.,-2.934314575051));
#192 = LINE('',#193,#194);
#193 = CARTESIAN_POINT('',(-4.3,360.,-1.467157287525));
#194 = VECTOR('',#195,1.);
#195 = DIRECTION('',(0.,0.,-1.));
#196 = ORIENTED_EDGE('',*,*,#197,.T.);
#197 = EDGE_CURVE('',#190,#198,#200,.T.);
#198 = VERTEX_POINT('',#199);
#199 = CARTESIAN_POINT('',(-6.465685424949,360.,-5.1));
#200 = LINE('',#201,#202);
#201 = CARTESIAN_POINT('',(-5.322610361882,360.,-3.956924936933));
#202 = VECTOR('',#203,1.);
#203 = DIRECTION('',(-0.707106781187,0.,-0.707106781187));
#204 = ORIENTED_EDGE('',*,*,#205,.T.);
#205 = EDGE_CURVE('',#198,#206,#208,.T.);
#206 = VERTEX_POINT('',#207);
#207 = CARTESIAN_POINT('',(-8.,360.,-5.1));
#208 = LINE('',#209,#210);
#209 = CARTESIAN_POINT('',(-7.496692586341,360.,-5.1));
#210 = VECTOR('',#211,1.);
#211 = DIRECTION('',(-1.,0.,0.));
#212 = ORIENTED_EDGE('',*,*,#213,.T.);
#213 = EDGE_CURVE('',#206,#214,#216,.T.);
#214 = VERTEX_POINT('',#215);
#215 = CARTESIAN_POINT('',(-8.,360.,-3.1));
#216 = LINE('',#217,#218);
#217 = CARTESIAN_POINT('',(-8.,360.,-5.5));
#218 = VECTOR('',#219,1.);
#219 = DIRECTION('',(0.,2.22044604925E-16,1.));
#220 = ORIENTED_EDGE('',*,*,#221,.T.);
#221 = EDGE_CURVE('',#214,#157,#222,.T.);
#222 = LINE('',#223,#224);
#223 = CARTESIAN_POINT('',(-8.,360.,-3.1));
#224 = VECTOR('',#225,1.);
#225 = DIRECTION('',(-1.,0.,0.));
#226 = PLANE('',#227);
#227 = AXIS2_PLACEMENT_3D('',#228,#229,#230);
#228 = CARTESIAN_POINT('',(-6.993385172682,360.,-2.622090437027E-14));
#229 = DIRECTION('',(0.,1.,0.));
#230 = DIRECTION('',(0.,0.,1.));
#231 = ADVANCED_FACE('',(#232),#248,.F.);
#232 = FACE_BOUND('',#233,.F.);
#233 = EDGE_LOOP('',(#234,#240,#241,#247));
#234 = ORIENTED_EDGE('',*,*,#235,.T.);
#235 = EDGE_CURVE('',#70,#214,#236,.T.);
#236 = LINE('',#237,#238);
#237 = CARTESIAN_POINT('',(-8.,240.,-3.1));
#238 = VECTOR('',#239,1.);
#239 = DIRECTION('',(0.,1.,-2.22044604925E-16));
#240 = ORIENTED_EDGE('',*,*,#221,.T.);
#241 = ORIENTED_EDGE('',*,*,#242,.F.);
#242 = EDGE_CURVE('',#62,#157,#243,.T.);
#243 = LINE('',#244,#245);
#244 = CARTESIAN_POINT('',(-10.,240.,-3.1));
#245 = VECTOR('',#246,1.);
#246 = DIRECTION('',(0.,1.,-2.22044604925E-16));
#247 = ORIENTED_EDGE('',*,*,#69,.F.);
#248 = PLANE('',#249);
#249 = AXIS2_PLACEMENT_3D('',#250,#251,#252);
#250 = CARTESIAN_POINT('',(-8.,240.,-3.1));
#251 = DIRECTION('',(0.,2.22044604925E-16,1.));
#252 = DIRECTION('',(-1.,0.,0.));
#253 = ADVANCED_FACE('',(#254),#272,.F.);
#254 = FACE_BOUND('',#255,.F.);
#255 = EDGE_LOOP('',(#256,#264,#265,#266));
#256 = ORIENTED_EDGE('',*,*,#257,.F.);
#257 = EDGE_CURVE('',#135,#258,#260,.T.);
#258 = VERTEX_POINT('',#259);
#259 = CARTESIAN_POINT('',(-8.,240.,5.1));
#260 = LINE('',#261,#262);
#261 = CARTESIAN_POINT('',(-8.,240.,3.1));
#262 = VECTOR('',#263,1.);
#263 = DIRECTION('',(0.,2.22044604925E-16,1.));
#264 = ORIENTED_EDGE('',*,*,#134,.T.);
#265 = ORIENTED_EDGE('',*,*,#165,.T.);
#266 = ORIENTED_EDGE('',*,*,#267,.F.);
#267 = EDGE_CURVE('',#258,#166,#268,.T.);
#268 = LINE('',#269,#270);
#269 = CARTESIAN_POINT('',(-8.,240.,5.1));
#270 = VECTOR('',#271,1.);
#271 = DIRECTION('',(0.,1.,-2.22044604925E-16));
#272 = PLANE('',#273);
#273 = AXIS2_PLACEMENT_3D('',#274,#275,#276);
#274 = CARTESIAN_POINT('',(-8.,240.,3.1));
#275 = DIRECTION('',(1.,0.,0.));
#276 = DIRECTION('',(0.,2.22044604925E-16,1.));
#277 = ADVANCED_FACE('',(#278),#320,.T.);
#278 = FACE_BOUND('',#279,.T.);
#279 = EDGE_LOOP('',(#280,#288,#296,#304,#312,#318,#319));
#280 = ORIENTED_EDGE('',*,*,#281,.F.);
#281 = EDGE_CURVE('',#282,#117,#284,.T.);
#282 = VERTEX_POINT('',#283);
#283 = CARTESIAN_POINT('',(-10.,240.,7.5));
#284 = LINE('',#285,#286);
#285 = CARTESIAN_POINT('',(-10.,240.,7.5));
#286 = VECTOR('',#287,1.);
#287 = DIRECTION('',(0.,-2.22044604925E-16,-1.));
#288 = ORIENTED_EDGE('',*,*,#289,.F.);
#289 = EDGE_CURVE('',#290,#282,#292,.T.);
#290 = VERTEX_POINT('',#291);
#291 = CARTESIAN_POINT('',(-4.3,240.,7.5));
#292 = LINE('',#293,#294);
#293 = CARTESIAN_POINT('',(-4.3,240.,7.5));
#294 = VECTOR('',#295,1.);
#295 = DIRECTION('',(-1.,0.,0.));
#296 = ORIENTED_EDGE('',*,*,#297,.F.);
#297 = EDGE_CURVE('',#298,#290,#300,.T.);
#298 = VERTEX_POINT('',#299);
#299 = CARTESIAN_POINT('',(-4.3,240.,2.934314575051));
#300 = LINE('',#301,#302);
#301 = CARTESIAN_POINT('',(-4.3,240.,-7.5));
#302 = VECTOR('',#303,1.);
#303 = DIRECTION('',(0.,2.22044604925E-16,1.));
#304 = ORIENTED_EDGE('',*,*,#305,.T.);
#305 = EDGE_CURVE('',#298,#306,#308,.T.);
#306 = VERTEX_POINT('',#307);
#307 = CARTESIAN_POINT('',(-6.465685424949,240.,5.1));
#308 = LINE('',#309,#310);
#309 = CARTESIAN_POINT('',(-4.3,240.,2.934314575051));
#310 = VECTOR('',#311,1.);
#311 = DIRECTION('',(-0.707106781187,1.570092458684E-16,0.707106781187)
  );
#312 = ORIENTED_EDGE('',*,*,#313,.T.);
#313 = EDGE_CURVE('',#306,#258,#314,.T.);
#314 = LINE('',#315,#316);
#315 = CARTESIAN_POINT('',(-6.465685424949,240.,5.1));
#316 = VECTOR('',#317,1.);
#317 = DIRECTION('',(-1.,0.,0.));
#318 = ORIENTED_EDGE('',*,*,#257,.F.);
#319 = ORIENTED_EDGE('',*,*,#142,.F.);
#320 = PLANE('',#321);
#321 = AXIS2_PLACEMENT_3D('',#322,#323,#324);
#322 = CARTESIAN_POINT('',(-7.15,240.,-1.716286801353E-16));
#323 = DIRECTION('',(0.,1.,0.));
#324 = DIRECTION('',(0.,0.,1.));
#325 = ADVANCED_FACE('',(#326),#351,.F.);
#326 = FACE_BOUND('',#327,.F.);
#327 = EDGE_LOOP('',(#328,#336,#344,#350));
#328 = ORIENTED_EDGE('',*,*,#329,.T.);
#329 = EDGE_CURVE('',#290,#330,#332,.T.);
#330 = VERTEX_POINT('',#331);
#331 = CARTESIAN_POINT('',(-4.3,236.,7.5));
#332 = LINE('',#333,#334);
#333 = CARTESIAN_POINT('',(-4.3,240.,7.5));
#334 = VECTOR('',#335,1.);
#335 = DIRECTION('',(0.,-1.,2.22044604925E-16));
#336 = ORIENTED_EDGE('',*,*,#337,.T.);
#337 = EDGE_CURVE('',#330,#338,#340,.T.);
#338 = VERTEX_POINT('',#339);
#339 = CARTESIAN_POINT('',(-10.,236.,7.5));
#340 = LINE('',#341,#342);
#341 = CARTESIAN_POINT('',(-4.3,236.,7.5));
#342 = VECTOR('',#343,1.);
#343 = DIRECTION('',(-1.,0.,0.));
#344 = ORIENTED_EDGE('',*,*,#345,.F.);
#345 = EDGE_CURVE('',#282,#338,#346,.T.);
#346 = LINE('',#347,#348);
#347 = CARTESIAN_POINT('',(-10.,240.,7.5));
#348 = VECTOR('',#349,1.);
#349 = DIRECTION('',(0.,-1.,2.22044604925E-16));
#350 = ORIENTED_EDGE('',*,*,#289,.F.);
#351 = PLANE('',#352);
#352 = AXIS2_PLACEMENT_3D('',#353,#354,#355);
#353 = CARTESIAN_POINT('',(-4.3,240.,7.5));
#354 = DIRECTION('',(-0.,-2.22044604925E-16,-1.));
#355 = DIRECTION('',(-1.,0.,0.));
#356 = ADVANCED_FACE('',(#357),#373,.F.);
#357 = FACE_BOUND('',#358,.T.);
#358 = EDGE_LOOP('',(#359,#365,#366,#372));
#359 = ORIENTED_EDGE('',*,*,#360,.T.);
#360 = EDGE_CURVE('',#338,#24,#361,.T.);
#361 = LINE('',#362,#363);
#362 = CARTESIAN_POINT('',(-10.,236.,7.5));
#363 = VECTOR('',#364,1.);
#364 = DIRECTION('',(0.,-2.22044604925E-16,-1.));
#365 = ORIENTED_EDGE('',*,*,#31,.T.);
#366 = ORIENTED_EDGE('',*,*,#367,.T.);
#367 = EDGE_CURVE('',#32,#330,#368,.T.);
#368 = LINE('',#369,#370);
#369 = CARTESIAN_POINT('',(-4.3,236.,-7.5));
#370 = VECTOR('',#371,1.);
#371 = DIRECTION('',(0.,2.22044604925E-16,1.));
#372 = ORIENTED_EDGE('',*,*,#337,.T.);
#373 = PLANE('',#374);
#374 = AXIS2_PLACEMENT_3D('',#375,#376,#377);
#375 = CARTESIAN_POINT('',(-7.15,236.,7.165497395648E-16));
#376 = DIRECTION('',(0.,1.,0.));
#377 = DIRECTION('',(0.,0.,1.));
#378 = ADVANCED_FACE('',(#379),#390,.F.);
#379 = FACE_BOUND('',#380,.F.);
#380 = EDGE_LOOP('',(#381,#382,#388,#389));
#381 = ORIENTED_EDGE('',*,*,#77,.F.);
#382 = ORIENTED_EDGE('',*,*,#383,.T.);
#383 = EDGE_CURVE('',#78,#206,#384,.T.);
#384 = LINE('',#385,#386);
#385 = CARTESIAN_POINT('',(-8.,240.,-5.1));
#386 = VECTOR('',#387,1.);
#387 = DIRECTION('',(0.,1.,-2.22044604925E-16));
#388 = ORIENTED_EDGE('',*,*,#213,.T.);
#389 = ORIENTED_EDGE('',*,*,#235,.F.);
#390 = PLANE('',#391);
#391 = AXIS2_PLACEMENT_3D('',#392,#393,#394);
#392 = CARTESIAN_POINT('',(-8.,240.,-5.5));
#393 = DIRECTION('',(1.,0.,0.));
#394 = DIRECTION('',(0.,2.22044604925E-16,1.));
#395 = ADVANCED_FACE('',(#396),#407,.T.);
#396 = FACE_BOUND('',#397,.T.);
#397 = EDGE_LOOP('',(#398,#399,#400,#401));
#398 = ORIENTED_EDGE('',*,*,#85,.F.);
#399 = ORIENTED_EDGE('',*,*,#383,.T.);
#400 = ORIENTED_EDGE('',*,*,#205,.F.);
#401 = ORIENTED_EDGE('',*,*,#402,.F.);
#402 = EDGE_CURVE('',#86,#198,#403,.T.);
#403 = LINE('',#404,#405);
#404 = CARTESIAN_POINT('',(-6.465685424949,240.,-5.1));
#405 = VECTOR('',#406,1.);
#406 = DIRECTION('',(0.,1.,-2.22044604925E-16));
#407 = PLANE('',#408);
#408 = AXIS2_PLACEMENT_3D('',#409,#410,#411);
#409 = CARTESIAN_POINT('',(-8.,240.,-5.1));
#410 = DIRECTION('',(0.,-2.22044604925E-16,-1.));
#411 = DIRECTION('',(1.,0.,0.));
#412 = ADVANCED_FACE('',(#413),#424,.T.);
#413 = FACE_BOUND('',#414,.T.);
#414 = EDGE_LOOP('',(#415,#416,#417,#418));
#415 = ORIENTED_EDGE('',*,*,#93,.F.);
#416 = ORIENTED_EDGE('',*,*,#402,.T.);
#417 = ORIENTED_EDGE('',*,*,#197,.F.);
#418 = ORIENTED_EDGE('',*,*,#419,.F.);
#419 = EDGE_CURVE('',#94,#190,#420,.T.);
#420 = LINE('',#421,#422);
#421 = CARTESIAN_POINT('',(-4.3,240.,-2.934314575051));
#422 = VECTOR('',#423,1.);
#423 = DIRECTION('',(0.,1.,-2.22044604925E-16));
#424 = PLANE('',#425);
#425 = AXIS2_PLACEMENT_3D('',#426,#427,#428);
#426 = CARTESIAN_POINT('',(-6.465685424949,240.,-5.1));
#427 = DIRECTION('',(0.707106781187,-1.570092458684E-16,-0.707106781187)
  );
#428 = DIRECTION('',(0.707106781187,1.570092458684E-16,0.707106781187));
#429 = ADVANCED_FACE('',(#430),#446,.T.);
#430 = FACE_BOUND('',#431,.T.);
#431 = EDGE_LOOP('',(#432,#433,#439,#440));
#432 = ORIENTED_EDGE('',*,*,#305,.F.);
#433 = ORIENTED_EDGE('',*,*,#434,.T.);
#434 = EDGE_CURVE('',#298,#182,#435,.T.);
#435 = LINE('',#436,#437);
#436 = CARTESIAN_POINT('',(-4.3,240.,2.934314575051));
#437 = VECTOR('',#438,1.);
#438 = DIRECTION('',(0.,1.,-2.22044604925E-16));
#439 = ORIENTED_EDGE('',*,*,#181,.F.);
#440 = ORIENTED_EDGE('',*,*,#441,.F.);
#441 = EDGE_CURVE('',#306,#174,#442,.T.);
#442 = LINE('',#443,#444);
#443 = CARTESIAN_POINT('',(-6.465685424949,240.,5.1));
#444 = VECTOR('',#445,1.);
#445 = DIRECTION('',(0.,1.,-2.22044604925E-16));
#446 = PLANE('',#447);
#447 = AXIS2_PLACEMENT_3D('',#448,#449,#450);
#448 = CARTESIAN_POINT('',(-4.3,240.,2.934314575051));
#449 = DIRECTION('',(0.707106781187,1.570092458684E-16,0.707106781187));
#450 = DIRECTION('',(-0.707106781187,1.570092458684E-16,0.707106781187)
  );
#451 = ADVANCED_FACE('',(#452),#458,.T.);
#452 = FACE_BOUND('',#453,.T.);
#453 = EDGE_LOOP('',(#454,#455,#456,#457));
#454 = ORIENTED_EDGE('',*,*,#313,.F.);
#455 = ORIENTED_EDGE('',*,*,#441,.T.);
#456 = ORIENTED_EDGE('',*,*,#173,.F.);
#457 = ORIENTED_EDGE('',*,*,#267,.F.);
#458 = PLANE('',#459);
#459 = AXIS2_PLACEMENT_3D('',#460,#461,#462);
#460 = CARTESIAN_POINT('',(-6.465685424949,240.,5.1));
#461 = DIRECTION('',(0.,2.22044604925E-16,1.));
#462 = DIRECTION('',(-1.,0.,0.));
#463 = ADVANCED_FACE('',(#464,#474,#485,#496,#507),#518,.T.);
#464 = FACE_BOUND('',#465,.T.);
#465 = EDGE_LOOP('',(#466,#467,#468,#469,#470,#471,#472,#473));
#466 = ORIENTED_EDGE('',*,*,#116,.T.);
#467 = ORIENTED_EDGE('',*,*,#156,.T.);
#468 = ORIENTED_EDGE('',*,*,#242,.F.);
#469 = ORIENTED_EDGE('',*,*,#61,.T.);
#470 = ORIENTED_EDGE('',*,*,#21,.T.);
#471 = ORIENTED_EDGE('',*,*,#360,.F.);
#472 = ORIENTED_EDGE('',*,*,#345,.F.);
#473 = ORIENTED_EDGE('',*,*,#281,.T.);
#474 = FACE_BOUND('',#475,.T.);
#475 = EDGE_LOOP('',(#476));
#476 = ORIENTED_EDGE('',*,*,#477,.F.);
#477 = EDGE_CURVE('',#478,#478,#480,.T.);
#478 = VERTEX_POINT('',#479);
#479 = CARTESIAN_POINT('',(-10.,352.3,2.));
#480 = CIRCLE('',#481,2.);
#481 = AXIS2_PLACEMENT_3D('',#482,#483,#484);
#482 = CARTESIAN_POINT('',(-10.,352.3,0.));
#483 = DIRECTION('',(-1.,0.,0.));
#484 = DIRECTION('',(0.,0.,1.));
#485 = FACE_BOUND('',#486,.T.);
#486 = EDGE_LOOP('',(#487));
#487 = ORIENTED_EDGE('',*,*,#488,.F.);
#488 = EDGE_CURVE('',#489,#489,#491,.T.);
#489 = VERTEX_POINT('',#490);
#490 = CARTESIAN_POINT('',(-10.,327.3,2.));
#491 = CIRCLE('',#492,2.);
#492 = AXIS2_PLACEMENT_3D('',#493,#494,#495);
#493 = CARTESIAN_POINT('',(-10.,327.3,0.));
#494 = DIRECTION('',(-1.,0.,0.));
#495 = DIRECTION('',(0.,0.,1.));
#496 = FACE_BOUND('',#497,.T.);
#497 = EDGE_LOOP('',(#498));
#498 = ORIENTED_EDGE('',*,*,#499,.F.);
#499 = EDGE_CURVE('',#500,#500,#502,.T.);
#500 = VERTEX_POINT('',#501);
#501 = CARTESIAN_POINT('',(-10.,292.3,2.));
#502 = CIRCLE('',#503,2.);
#503 = AXIS2_PLACEMENT_3D('',#504,#505,#506);
#504 = CARTESIAN_POINT('',(-10.,292.3,0.));
#505 = DIRECTION('',(-1.,0.,0.));
#506 = DIRECTION('',(0.,0.,1.));
#507 = FACE_BOUND('',#508,.T.);
#508 = EDGE_LOOP('',(#509));
#509 = ORIENTED_EDGE('',*,*,#510,.F.);
#510 = EDGE_CURVE('',#511,#511,#513,.T.);
#511 = VERTEX_POINT('',#512);
#512 = CARTESIAN_POINT('',(-10.,267.3,2.));
#513 = CIRCLE('',#514,2.);
#514 = AXIS2_PLACEMENT_3D('',#515,#516,#517);
#515 = CARTESIAN_POINT('',(-10.,267.3,0.));
#516 = DIRECTION('',(-1.,0.,0.));
#517 = DIRECTION('',(0.,0.,1.));
#518 = PLANE('',#519);
#519 = AXIS2_PLACEMENT_3D('',#520,#521,#522);
#520 = CARTESIAN_POINT('',(-10.,294.20143884892,-1.201596775717E-14));
#521 = DIRECTION('',(-1.,-0.,-0.));
#522 = DIRECTION('',(0.,0.,-1.));
#523 = ADVANCED_FACE('',(#524),#543,.F.);
#524 = FACE_BOUND('',#525,.T.);
#525 = EDGE_LOOP('',(#526,#534,#535,#536));
#526 = ORIENTED_EDGE('',*,*,#527,.F.);
#527 = EDGE_CURVE('',#478,#528,#530,.T.);
#528 = VERTEX_POINT('',#529);
#529 = CARTESIAN_POINT('',(-4.3,352.3,1.601417171922));
#530 = LINE('',#531,#532);
#531 = CARTESIAN_POINT('',(-10.,352.3,2.));
#532 = VECTOR('',#533,1.);
#533 = DIRECTION('',(0.99756405026,0.,-6.975647374413E-02));
#534 = ORIENTED_EDGE('',*,*,#477,.T.);
#535 = ORIENTED_EDGE('',*,*,#527,.T.);
#536 = ORIENTED_EDGE('',*,*,#537,.T.);
#537 = EDGE_CURVE('',#528,#528,#538,.T.);
#538 = CIRCLE('',#539,1.601417171922);
#539 = AXIS2_PLACEMENT_3D('',#540,#541,#542);
#540 = CARTESIAN_POINT('',(-4.3,352.3,0.));
#541 = DIRECTION('',(1.,0.,-0.));
#542 = DIRECTION('',(0.,0.,1.));
#543 = CONICAL_SURFACE('',#544,2.,6.981317007977E-02);
#544 = AXIS2_PLACEMENT_3D('',#545,#546,#547);
#545 = CARTESIAN_POINT('',(-10.,352.3,0.));
#546 = DIRECTION('',(-1.,-0.,-0.));
#547 = DIRECTION('',(0.,0.,1.));
#548 = ADVANCED_FACE('',(#549),#568,.F.);
#549 = FACE_BOUND('',#550,.T.);
#550 = EDGE_LOOP('',(#551,#559,#560,#561));
#551 = ORIENTED_EDGE('',*,*,#552,.F.);
#552 = EDGE_CURVE('',#489,#553,#555,.T.);
#553 = VERTEX_POINT('',#554);
#554 = CARTESIAN_POINT('',(-4.3,327.3,1.601417171922));
#555 = LINE('',#556,#557);
#556 = CARTESIAN_POINT('',(-10.,327.3,2.));
#557 = VECTOR('',#558,1.);
#558 = DIRECTION('',(0.99756405026,0.,-6.975647374413E-02));
#559 = ORIENTED_EDGE('',*,*,#488,.T.);
#560 = ORIENTED_EDGE('',*,*,#552,.T.);
#561 = ORIENTED_EDGE('',*,*,#562,.T.);
#562 = EDGE_CURVE('',#553,#553,#563,.T.);
#563 = CIRCLE('',#564,1.601417171922);
#564 = AXIS2_PLACEMENT_3D('',#565,#566,#567);
#565 = CARTESIAN_POINT('',(-4.3,327.3,0.));
#566 = DIRECTION('',(1.,0.,-0.));
#567 = DIRECTION('',(0.,0.,1.));
#568 = CONICAL_SURFACE('',#569,2.,6.981317007977E-02);
#569 = AXIS2_PLACEMENT_3D('',#570,#571,#572);
#570 = CARTESIAN_POINT('',(-10.,327.3,0.));
#571 = DIRECTION('',(-1.,-0.,-0.));
#572 = DIRECTION('',(0.,0.,1.));
#573 = ADVANCED_FACE('',(#574),#593,.F.);
#574 = FACE_BOUND('',#575,.T.);
#575 = EDGE_LOOP('',(#576,#584,#585,#586));
#576 = ORIENTED_EDGE('',*,*,#577,.F.);
#577 = EDGE_CURVE('',#500,#578,#580,.T.);
#578 = VERTEX_POINT('',#579);
#579 = CARTESIAN_POINT('',(-4.3,292.3,1.601417171922));
#580 = LINE('',#581,#582);
#581 = CARTESIAN_POINT('',(-10.,292.3,2.));
#582 = VECTOR('',#583,1.);
#583 = DIRECTION('',(0.99756405026,0.,-6.975647374413E-02));
#584 = ORIENTED_EDGE('',*,*,#499,.T.);
#585 = ORIENTED_EDGE('',*,*,#577,.T.);
#586 = ORIENTED_EDGE('',*,*,#587,.T.);
#587 = EDGE_CURVE('',#578,#578,#588,.T.);
#588 = CIRCLE('',#589,1.601417171922);
#589 = AXIS2_PLACEMENT_3D('',#590,#591,#592);
#590 = CARTESIAN_POINT('',(-4.3,292.3,0.));
#591 = DIRECTION('',(1.,0.,-0.));
#592 = DIRECTION('',(0.,0.,1.));
#593 = CONICAL_SURFACE('',#594,2.,6.981317007977E-02);
#594 = AXIS2_PLACEMENT_3D('',#595,#596,#597);
#595 = CARTESIAN_POINT('',(-10.,292.3,0.));
#596 = DIRECTION('',(-1.,-0.,-0.));
#597 = DIRECTION('',(0.,0.,1.));
#598 = ADVANCED_FACE('',(#599),#618,.F.);
#599 = FACE_BOUND('',#600,.T.);
#600 = EDGE_LOOP('',(#601,#609,#610,#611));
#601 = ORIENTED_EDGE('',*,*,#602,.F.);
#602 = EDGE_CURVE('',#511,#603,#605,.T.);
#603 = VERTEX_POINT('',#604);
#604 = CARTESIAN_POINT('',(-4.3,267.3,1.601417171922));
#605 = LINE('',#606,#607);
#606 = CARTESIAN_POINT('',(-10.,267.3,2.));
#607 = VECTOR('',#608,1.);
#608 = DIRECTION('',(0.99756405026,0.,-6.975647374413E-02));
#609 = ORIENTED_EDGE('',*,*,#510,.T.);
#610 = ORIENTED_EDGE('',*,*,#602,.T.);
#611 = ORIENTED_EDGE('',*,*,#612,.T.);
#612 = EDGE_CURVE('',#603,#603,#613,.T.);
#613 = CIRCLE('',#614,1.601417171922);
#614 = AXIS2_PLACEMENT_3D('',#615,#616,#617);
#615 = CARTESIAN_POINT('',(-4.3,267.3,0.));
#616 = DIRECTION('',(1.,0.,-0.));
#617 = DIRECTION('',(0.,0.,1.));
#618 = CONICAL_SURFACE('',#619,2.,6.981317007977E-02);
#619 = AXIS2_PLACEMENT_3D('',#620,#621,#622);
#620 = CARTESIAN_POINT('',(-10.,267.3,0.));
#621 = DIRECTION('',(-1.,-0.,-0.));
#622 = DIRECTION('',(0.,0.,1.));
#623 = ADVANCED_FACE('',(#624,#634,#637,#640,#643),#646,.T.);
#624 = FACE_BOUND('',#625,.T.);
#625 = EDGE_LOOP('',(#626,#627,#628,#629,#630,#631,#632,#633));
#626 = ORIENTED_EDGE('',*,*,#419,.T.);
#627 = ORIENTED_EDGE('',*,*,#189,.F.);
#628 = ORIENTED_EDGE('',*,*,#434,.F.);
#629 = ORIENTED_EDGE('',*,*,#297,.T.);
#630 = ORIENTED_EDGE('',*,*,#329,.T.);
#631 = ORIENTED_EDGE('',*,*,#367,.F.);
#632 = ORIENTED_EDGE('',*,*,#39,.F.);
#633 = ORIENTED_EDGE('',*,*,#101,.T.);
#634 = FACE_BOUND('',#635,.T.);
#635 = EDGE_LOOP('',(#636));
#636 = ORIENTED_EDGE('',*,*,#537,.F.);
#637 = FACE_BOUND('',#638,.T.);
#638 = EDGE_LOOP('',(#639));
#639 = ORIENTED_EDGE('',*,*,#562,.F.);
#640 = FACE_BOUND('',#641,.T.);
#641 = EDGE_LOOP('',(#642));
#642 = ORIENTED_EDGE('',*,*,#587,.F.);
#643 = FACE_BOUND('',#644,.T.);
#644 = EDGE_LOOP('',(#645));
#645 = ORIENTED_EDGE('',*,*,#612,.F.);
#646 = PLANE('',#647);
#647 = AXIS2_PLACEMENT_3D('',#648,#649,#650);
#648 = CARTESIAN_POINT('',(-4.3,294.05840107198,-1.079552115168E-14));
#649 = DIRECTION('',(1.,0.,0.));
#650 = DIRECTION('',(0.,0.,1.));
#651 = ( GEOMETRIC_REPRESENTATION_CONTEXT(3) 
GLOBAL_UNCERTAINTY_ASSIGNED_CONTEXT((#655)) GLOBAL_UNIT_ASSIGNED_CONTEXT
((#652,#653,#654)) REPRESENTATION_CONTEXT('Context #1',
  '3D Context with UNIT and UNCERTAINTY') );
#652 = ( LENGTH_UNIT() NAMED_UNIT(*) SI_UNIT(.MILLI.,.METRE.) );
#653 = ( NAMED_UNIT(*) PLANE_ANGLE_UNIT() SI_UNIT($,.RADIAN.) );
#654 = ( NAMED_UNIT(*) SI_UNIT($,.STERADIAN.) SOLID_ANGLE_UNIT() );
#655 = UNCERTAINTY_MEASURE_WITH_UNIT(LENGTH_MEASURE(5.E-05),#652,
  'distance_accuracy_value','confusion accuracy');
#656 = PRODUCT_RELATED_PRODUCT_CATEGORY('part',$,(#7));
#657 = MECHANICAL_DESIGN_GEOMETRIC_PRESENTATION_REPRESENTATION('',(#658)
  ,#651);
#658 = STYLED_ITEM('color',(#659),#15);
#659 = PRESENTATION_STYLE_ASSIGNMENT((#660,#666));
#660 = SURFACE_STYLE_USAGE(.BOTH.,#661);
#661 = SURFACE_SIDE_STYLE('',(#662));
#662 = SURFACE_STYLE_FILL_AREA(#663);
#663 = FILL_AREA_STYLE('',(#664));
#664 = FILL_AREA_STYLE_COLOUR('',#665);
#665 = COLOUR_RGB('',0.447058818107,0.474509808674,0.501960817233);
#666 = CURVE_STYLE('',#667,POSITIVE_LENGTH_MEASURE(0.1),#668);
#667 = DRAUGHTING_PRE_DEFINED_CURVE_FONT('continuous');
#668 = COLOUR_RGB('',9.803921802644E-02,9.803921802644E-02,
  9.803921802644E-02);
ENDSEC;
END-ISO-10303-21;
