ISO-10303-21;
HEADER;
FILE_DESCRIPTION(('FreeCAD Model'),'2;1');
FILE_NAME('Open CASCADE Shape Model','2026-02-26T11:39:10',(''),(''),
  'Open CASCADE STEP processor 7.9','FreeCAD','Unknown');
FILE_SCHEMA(('AUTOMOTIVE_DESIGN { 1 0 10303 214 1 1 1 1 }'));
ENDSEC;
DATA;
#1 = APPLICATION_PROTOCOL_DEFINITION('international standard',
  'automotive_design',2000,#2);
#2 = APPLICATION_CONTEXT(
  'core data for automotive mechanical design processes');
#3 = SHAPE_DEFINITION_REPRESENTATION(#4,#10);
#4 = PRODUCT_DEFINITION_SHAPE('','',#5);
#5 = PRODUCT_DEFINITION('design','',#6,#9);
#6 = PRODUCT_DEFINITION_FORMATION('','',#7);
#7 = PRODUCT('yMotorHolder','yMotorHolder','',(#8));
#8 = PRODUCT_CONTEXT('',#2,'mechanical');
#9 = PRODUCT_DEFINITION_CONTEXT('part definition',#2,'design');
#10 = ADVANCED_BREP_SHAPE_REPRESENTATION('',(#11,#15),#1743);
#11 = AXIS2_PLACEMENT_3D('',#12,#13,#14);
#12 = CARTESIAN_POINT('',(0.,0.,0.));
#13 = DIRECTION('',(0.,0.,1.));
#14 = DIRECTION('',(1.,0.,-0.));
#15 = MANIFOLD_SOLID_BREP('',#16);
#16 = CLOSED_SHELL('',(#17,#262,#294,#318,#342,#382,#407,#431,#455,#527,
    #567,#584,#615,#640,#664,#682,#713,#738,#762,#780,#811,#836,#860,
    #878,#903,#934,#959,#983,#1001,#1097,#1129,#1155,#1186,#1203,#1227,
    #1251,#1275,#1301,#1326,#1396,#1412,#1429,#1440,#1495,#1523,#1551,
    #1568,#1607,#1619,#1644,#1669,#1694,#1719,#1731));
#17 = ADVANCED_FACE('',(#18,#102,#138,#174,#210,#221),#257,.T.);
#18 = FACE_BOUND('',#19,.T.);
#19 = EDGE_LOOP('',(#20,#31,#39,#47,#55,#63,#71,#79,#87,#96));
#20 = ORIENTED_EDGE('',*,*,#21,.F.);
#21 = EDGE_CURVE('',#22,#24,#26,.T.);
#22 = VERTEX_POINT('',#23);
#23 = CARTESIAN_POINT('',(-0.4,328.,8.959591794227));
#24 = VERTEX_POINT('',#25);
#25 = CARTESIAN_POINT('',(-5.,328.,12.));
#26 = CIRCLE('',#27,5.);
#27 = AXIS2_PLACEMENT_3D('',#28,#29,#30);
#28 = CARTESIAN_POINT('',(-5.,328.,7.));
#29 = DIRECTION('',(0.,-1.,0.));
#30 = DIRECTION('',(0.,0.,-1.));
#31 = ORIENTED_EDGE('',*,*,#32,.F.);
#32 = EDGE_CURVE('',#33,#22,#35,.T.);
#33 = VERTEX_POINT('',#34);
#34 = CARTESIAN_POINT('',(2.,328.,7.));
#35 = LINE('',#36,#37);
#36 = CARTESIAN_POINT('',(10.769298266146,328.,-0.160102051443));
#37 = VECTOR('',#38,1.);
#38 = DIRECTION('',(-0.774596669241,0.,0.632455532034));
#39 = ORIENTED_EDGE('',*,*,#40,.F.);
#40 = EDGE_CURVE('',#41,#33,#43,.T.);
#41 = VERTEX_POINT('',#42);
#42 = CARTESIAN_POINT('',(1.E-15,328.,7.));
#43 = LINE('',#44,#45);
#44 = CARTESIAN_POINT('',(0.,328.,7.));
#45 = VECTOR('',#46,1.);
#46 = DIRECTION('',(1.,0.,0.));
#47 = ORIENTED_EDGE('',*,*,#48,.F.);
#48 = EDGE_CURVE('',#49,#41,#51,.T.);
#49 = VERTEX_POINT('',#50);
#50 = CARTESIAN_POINT('',(0.,328.,-31.25));
#51 = LINE('',#52,#53);
#52 = CARTESIAN_POINT('',(0.,328.,-31.25));
#53 = VECTOR('',#54,1.);
#54 = DIRECTION('',(0.,0.,1.));
#55 = ORIENTED_EDGE('',*,*,#56,.T.);
#56 = EDGE_CURVE('',#49,#57,#59,.T.);
#57 = VERTEX_POINT('',#58);
#58 = CARTESIAN_POINT('',(-42.3,328.,-31.25));
#59 = LINE('',#60,#61);
#60 = CARTESIAN_POINT('',(0.,328.,-31.25));
#61 = VECTOR('',#62,1.);
#62 = DIRECTION('',(-1.,-0.,-0.));
#63 = ORIENTED_EDGE('',*,*,#64,.T.);
#64 = EDGE_CURVE('',#57,#65,#67,.T.);
#65 = VERTEX_POINT('',#66);
#66 = CARTESIAN_POINT('',(-42.3,328.,7.));
#67 = LINE('',#68,#69);
#68 = CARTESIAN_POINT('',(-42.3,328.,-31.25));
#69 = VECTOR('',#70,1.);
#70 = DIRECTION('',(0.,0.,1.));
#71 = ORIENTED_EDGE('',*,*,#72,.T.);
#72 = EDGE_CURVE('',#65,#73,#75,.T.);
#73 = VERTEX_POINT('',#74);
#74 = CARTESIAN_POINT('',(-44.3,328.,7.));
#75 = LINE('',#76,#77);
#76 = CARTESIAN_POINT('',(0.,328.,7.));
#77 = VECTOR('',#78,1.);
#78 = DIRECTION('',(-1.,0.,0.));
#79 = ORIENTED_EDGE('',*,*,#80,.F.);
#80 = EDGE_CURVE('',#81,#73,#83,.T.);
#81 = VERTEX_POINT('',#82);
#82 = CARTESIAN_POINT('',(-41.9,328.,8.959591794227));
#83 = LINE('',#84,#85);
#84 = CARTESIAN_POINT('',(-40.37929826614,328.,10.201239560529));
#85 = VECTOR('',#86,1.);
#86 = DIRECTION('',(-0.774596669241,0.,-0.632455532034));
#87 = ORIENTED_EDGE('',*,*,#88,.F.);
#88 = EDGE_CURVE('',#89,#81,#91,.T.);
#89 = VERTEX_POINT('',#90);
#90 = CARTESIAN_POINT('',(-37.3,328.,12.));
#91 = CIRCLE('',#92,5.);
#92 = AXIS2_PLACEMENT_3D('',#93,#94,#95);
#93 = CARTESIAN_POINT('',(-37.3,328.,7.));
#94 = DIRECTION('',(0.,-1.,0.));
#95 = DIRECTION('',(0.,0.,-1.));
#96 = ORIENTED_EDGE('',*,*,#97,.F.);
#97 = EDGE_CURVE('',#24,#89,#98,.T.);
#98 = LINE('',#99,#100);
#99 = CARTESIAN_POINT('',(0.,328.,12.));
#100 = VECTOR('',#101,1.);
#101 = DIRECTION('',(-1.,-0.,-0.));
#102 = FACE_BOUND('',#103,.T.);
#103 = EDGE_LOOP('',(#104,#114,#123,#131));
#104 = ORIENTED_EDGE('',*,*,#105,.T.);
#105 = EDGE_CURVE('',#106,#108,#110,.T.);
#106 = VERTEX_POINT('',#107);
#107 = CARTESIAN_POINT('',(-34.65,328.,-26.85));
#108 = VERTEX_POINT('',#109);
#109 = CARTESIAN_POINT('',(-34.65,328.,-24.35));
#110 = LINE('',#111,#112);
#111 = CARTESIAN_POINT('',(-34.65,328.,-27.8));
#112 = VECTOR('',#113,1.);
#113 = DIRECTION('',(0.,0.,1.));
#114 = ORIENTED_EDGE('',*,*,#115,.T.);
#115 = EDGE_CURVE('',#108,#116,#118,.T.);
#116 = VERTEX_POINT('',#117);
#117 = CARTESIAN_POINT('',(-38.65,328.,-24.35));
#118 = CIRCLE('',#119,2.);
#119 = AXIS2_PLACEMENT_3D('',#120,#121,#122);
#120 = CARTESIAN_POINT('',(-36.65,328.,-24.35));
#121 = DIRECTION('',(0.,-1.,2.2E-16));
#122 = DIRECTION('',(1.,0.,0.));
#123 = ORIENTED_EDGE('',*,*,#124,.F.);
#124 = EDGE_CURVE('',#125,#116,#127,.T.);
#125 = VERTEX_POINT('',#126);
#126 = CARTESIAN_POINT('',(-38.65,328.,-26.85));
#127 = LINE('',#128,#129);
#128 = CARTESIAN_POINT('',(-38.65,328.,-27.8));
#129 = VECTOR('',#130,1.);
#130 = DIRECTION('',(0.,0.,1.));
#131 = ORIENTED_EDGE('',*,*,#132,.T.);
#132 = EDGE_CURVE('',#125,#106,#133,.T.);
#133 = CIRCLE('',#134,2.);
#134 = AXIS2_PLACEMENT_3D('',#135,#136,#137);
#135 = CARTESIAN_POINT('',(-36.65,328.,-26.85));
#136 = DIRECTION('',(0.,-1.,2.2E-16));
#137 = DIRECTION('',(1.,0.,0.));
#138 = FACE_BOUND('',#139,.T.);
#139 = EDGE_LOOP('',(#140,#150,#159,#167));
#140 = ORIENTED_EDGE('',*,*,#141,.T.);
#141 = EDGE_CURVE('',#142,#144,#146,.T.);
#142 = VERTEX_POINT('',#143);
#143 = CARTESIAN_POINT('',(-34.65,328.,4.15));
#144 = VERTEX_POINT('',#145);
#145 = CARTESIAN_POINT('',(-34.65,328.,6.649999999998));
#146 = LINE('',#147,#148);
#147 = CARTESIAN_POINT('',(-34.65,328.,-12.3));
#148 = VECTOR('',#149,1.);
#149 = DIRECTION('',(0.,0.,1.));
#150 = ORIENTED_EDGE('',*,*,#151,.T.);
#151 = EDGE_CURVE('',#144,#152,#154,.T.);
#152 = VERTEX_POINT('',#153);
#153 = CARTESIAN_POINT('',(-38.65,328.,6.649999999998));
#154 = CIRCLE('',#155,2.);
#155 = AXIS2_PLACEMENT_3D('',#156,#157,#158);
#156 = CARTESIAN_POINT('',(-36.65,328.,6.649999999998));
#157 = DIRECTION('',(0.,-1.,2.2E-16));
#158 = DIRECTION('',(1.,0.,0.));
#159 = ORIENTED_EDGE('',*,*,#160,.F.);
#160 = EDGE_CURVE('',#161,#152,#163,.T.);
#161 = VERTEX_POINT('',#162);
#162 = CARTESIAN_POINT('',(-38.65,328.,4.15));
#163 = LINE('',#164,#165);
#164 = CARTESIAN_POINT('',(-38.65,328.,-12.3));
#165 = VECTOR('',#166,1.);
#166 = DIRECTION('',(0.,0.,1.));
#167 = ORIENTED_EDGE('',*,*,#168,.T.);
#168 = EDGE_CURVE('',#161,#142,#169,.T.);
#169 = CIRCLE('',#170,2.);
#170 = AXIS2_PLACEMENT_3D('',#171,#172,#173);
#171 = CARTESIAN_POINT('',(-36.65,328.,4.15));
#172 = DIRECTION('',(0.,-1.,2.2E-16));
#173 = DIRECTION('',(1.,0.,0.));
#174 = FACE_BOUND('',#175,.T.);
#175 = EDGE_LOOP('',(#176,#186,#195,#203));
#176 = ORIENTED_EDGE('',*,*,#177,.T.);
#177 = EDGE_CURVE('',#178,#180,#182,.T.);
#178 = VERTEX_POINT('',#179);
#179 = CARTESIAN_POINT('',(-3.65,328.,-26.85));
#180 = VERTEX_POINT('',#181);
#181 = CARTESIAN_POINT('',(-3.65,328.,-24.35));
#182 = LINE('',#183,#184);
#183 = CARTESIAN_POINT('',(-3.65,328.,-27.8));
#184 = VECTOR('',#185,1.);
#185 = DIRECTION('',(0.,0.,1.));
#186 = ORIENTED_EDGE('',*,*,#187,.T.);
#187 = EDGE_CURVE('',#180,#188,#190,.T.);
#188 = VERTEX_POINT('',#189);
#189 = CARTESIAN_POINT('',(-7.65,328.,-24.35));
#190 = CIRCLE('',#191,2.);
#191 = AXIS2_PLACEMENT_3D('',#192,#193,#194);
#192 = CARTESIAN_POINT('',(-5.65,328.,-24.35));
#193 = DIRECTION('',(0.,-1.,2.2E-16));
#194 = DIRECTION('',(1.,0.,0.));
#195 = ORIENTED_EDGE('',*,*,#196,.F.);
#196 = EDGE_CURVE('',#197,#188,#199,.T.);
#197 = VERTEX_POINT('',#198);
#198 = CARTESIAN_POINT('',(-7.65,328.,-26.85));
#199 = LINE('',#200,#201);
#200 = CARTESIAN_POINT('',(-7.65,328.,-27.8));
#201 = VECTOR('',#202,1.);
#202 = DIRECTION('',(0.,0.,1.));
#203 = ORIENTED_EDGE('',*,*,#204,.T.);
#204 = EDGE_CURVE('',#197,#178,#205,.T.);
#205 = CIRCLE('',#206,2.);
#206 = AXIS2_PLACEMENT_3D('',#207,#208,#209);
#207 = CARTESIAN_POINT('',(-5.65,328.,-26.85));
#208 = DIRECTION('',(0.,-1.,2.2E-16));
#209 = DIRECTION('',(1.,0.,0.));
#210 = FACE_BOUND('',#211,.T.);
#211 = EDGE_LOOP('',(#212));
#212 = ORIENTED_EDGE('',*,*,#213,.T.);
#213 = EDGE_CURVE('',#214,#214,#216,.T.);
#214 = VERTEX_POINT('',#215);
#215 = CARTESIAN_POINT('',(-6.15,328.,-10.1));
#216 = CIRCLE('',#217,15.);
#217 = AXIS2_PLACEMENT_3D('',#218,#219,#220);
#218 = CARTESIAN_POINT('',(-21.15,328.,-10.1));
#219 = DIRECTION('',(0.,-1.,2.2E-16));
#220 = DIRECTION('',(1.,0.,0.));
#221 = FACE_BOUND('',#222,.T.);
#222 = EDGE_LOOP('',(#223,#233,#242,#250));
#223 = ORIENTED_EDGE('',*,*,#224,.T.);
#224 = EDGE_CURVE('',#225,#227,#229,.T.);
#225 = VERTEX_POINT('',#226);
#226 = CARTESIAN_POINT('',(-3.65,328.,4.15));
#227 = VERTEX_POINT('',#228);
#228 = CARTESIAN_POINT('',(-3.65,328.,6.65));
#229 = LINE('',#230,#231);
#230 = CARTESIAN_POINT('',(-3.65,328.,-12.3));
#231 = VECTOR('',#232,1.);
#232 = DIRECTION('',(0.,0.,1.));
#233 = ORIENTED_EDGE('',*,*,#234,.T.);
#234 = EDGE_CURVE('',#227,#235,#237,.T.);
#235 = VERTEX_POINT('',#236);
#236 = CARTESIAN_POINT('',(-7.65,328.,6.65));
#237 = CIRCLE('',#238,2.);
#238 = AXIS2_PLACEMENT_3D('',#239,#240,#241);
#239 = CARTESIAN_POINT('',(-5.65,328.,6.65));
#240 = DIRECTION('',(0.,-1.,2.2E-16));
#241 = DIRECTION('',(1.,0.,0.));
#242 = ORIENTED_EDGE('',*,*,#243,.F.);
#243 = EDGE_CURVE('',#244,#235,#246,.T.);
#244 = VERTEX_POINT('',#245);
#245 = CARTESIAN_POINT('',(-7.65,328.,4.15));
#246 = LINE('',#247,#248);
#247 = CARTESIAN_POINT('',(-7.65,328.,-12.3));
#248 = VECTOR('',#249,1.);
#249 = DIRECTION('',(0.,0.,1.));
#250 = ORIENTED_EDGE('',*,*,#251,.T.);
#251 = EDGE_CURVE('',#244,#225,#252,.T.);
#252 = CIRCLE('',#253,2.);
#253 = AXIS2_PLACEMENT_3D('',#254,#255,#256);
#254 = CARTESIAN_POINT('',(-5.65,328.,4.15));
#255 = DIRECTION('',(0.,-1.,2.2E-16));
#256 = DIRECTION('',(1.,0.,0.));
#257 = PLANE('',#258);
#258 = AXIS2_PLACEMENT_3D('',#259,#260,#261);
#259 = CARTESIAN_POINT('',(0.,328.,-31.25));
#260 = DIRECTION('',(0.,1.,0.));
#261 = DIRECTION('',(0.,0.,1.));
#262 = ADVANCED_FACE('',(#263),#289,.T.);
#263 = FACE_BOUND('',#264,.T.);
#264 = EDGE_LOOP('',(#265,#266,#274,#283));
#265 = ORIENTED_EDGE('',*,*,#21,.T.);
#266 = ORIENTED_EDGE('',*,*,#267,.T.);
#267 = EDGE_CURVE('',#24,#268,#270,.T.);
#268 = VERTEX_POINT('',#269);
#269 = CARTESIAN_POINT('',(-5.,324.,12.));
#270 = LINE('',#271,#272);
#271 = CARTESIAN_POINT('',(-5.,328.,12.));
#272 = VECTOR('',#273,1.);
#273 = DIRECTION('',(0.,-1.,0.));
#274 = ORIENTED_EDGE('',*,*,#275,.F.);
#275 = EDGE_CURVE('',#276,#268,#278,.T.);
#276 = VERTEX_POINT('',#277);
#277 = CARTESIAN_POINT('',(-0.4,324.,8.959591794227));
#278 = CIRCLE('',#279,5.);
#279 = AXIS2_PLACEMENT_3D('',#280,#281,#282);
#280 = CARTESIAN_POINT('',(-5.,324.,7.));
#281 = DIRECTION('',(0.,-1.,0.));
#282 = DIRECTION('',(0.,0.,-1.));
#283 = ORIENTED_EDGE('',*,*,#284,.F.);
#284 = EDGE_CURVE('',#22,#276,#285,.T.);
#285 = LINE('',#286,#287);
#286 = CARTESIAN_POINT('',(-0.4,328.,8.959591794227));
#287 = VECTOR('',#288,1.);
#288 = DIRECTION('',(0.,-1.,0.));
#289 = CYLINDRICAL_SURFACE('',#290,5.);
#290 = AXIS2_PLACEMENT_3D('',#291,#292,#293);
#291 = CARTESIAN_POINT('',(-5.,328.,7.));
#292 = DIRECTION('',(0.,-1.,0.));
#293 = DIRECTION('',(1.,0.,0.));
#294 = ADVANCED_FACE('',(#295),#313,.F.);
#295 = FACE_BOUND('',#296,.F.);
#296 = EDGE_LOOP('',(#297,#298,#306,#312));
#297 = ORIENTED_EDGE('',*,*,#32,.F.);
#298 = ORIENTED_EDGE('',*,*,#299,.T.);
#299 = EDGE_CURVE('',#33,#300,#302,.T.);
#300 = VERTEX_POINT('',#301);
#301 = CARTESIAN_POINT('',(2.,324.,7.));
#302 = LINE('',#303,#304);
#303 = CARTESIAN_POINT('',(2.,328.,7.));
#304 = VECTOR('',#305,1.);
#305 = DIRECTION('',(0.,-1.,0.));
#306 = ORIENTED_EDGE('',*,*,#307,.T.);
#307 = EDGE_CURVE('',#300,#276,#308,.T.);
#308 = LINE('',#309,#310);
#309 = CARTESIAN_POINT('',(-0.485799630549,324.,9.029646899214));
#310 = VECTOR('',#311,1.);
#311 = DIRECTION('',(-0.774596669241,0.,0.632455532034));
#312 = ORIENTED_EDGE('',*,*,#284,.F.);
#313 = PLANE('',#314);
#314 = AXIS2_PLACEMENT_3D('',#315,#316,#317);
#315 = CARTESIAN_POINT('',(2.,328.,7.));
#316 = DIRECTION('',(-0.632455532034,-0.,-0.774596669241));
#317 = DIRECTION('',(0.,-1.,0.));
#318 = ADVANCED_FACE('',(#319),#337,.T.);
#319 = FACE_BOUND('',#320,.T.);
#320 = EDGE_LOOP('',(#321,#322,#330,#336));
#321 = ORIENTED_EDGE('',*,*,#97,.T.);
#322 = ORIENTED_EDGE('',*,*,#323,.T.);
#323 = EDGE_CURVE('',#89,#324,#326,.T.);
#324 = VERTEX_POINT('',#325);
#325 = CARTESIAN_POINT('',(-37.3,324.,12.));
#326 = LINE('',#327,#328);
#327 = CARTESIAN_POINT('',(-37.3,328.,12.));
#328 = VECTOR('',#329,1.);
#329 = DIRECTION('',(0.,-1.,0.));
#330 = ORIENTED_EDGE('',*,*,#331,.F.);
#331 = EDGE_CURVE('',#268,#324,#332,.T.);
#332 = LINE('',#333,#334);
#333 = CARTESIAN_POINT('',(0.,324.,12.));
#334 = VECTOR('',#335,1.);
#335 = DIRECTION('',(-1.,-0.,-0.));
#336 = ORIENTED_EDGE('',*,*,#267,.F.);
#337 = PLANE('',#338);
#338 = AXIS2_PLACEMENT_3D('',#339,#340,#341);
#339 = CARTESIAN_POINT('',(0.,328.,12.));
#340 = DIRECTION('',(0.,0.,1.));
#341 = DIRECTION('',(0.,-1.,0.));
#342 = ADVANCED_FACE('',(#343),#377,.T.);
#343 = FACE_BOUND('',#344,.T.);
#344 = EDGE_LOOP('',(#345,#353,#361,#369,#375,#376));
#345 = ORIENTED_EDGE('',*,*,#346,.F.);
#346 = EDGE_CURVE('',#347,#300,#349,.T.);
#347 = VERTEX_POINT('',#348);
#348 = CARTESIAN_POINT('',(2.5,324.,7.));
#349 = LINE('',#350,#351);
#350 = CARTESIAN_POINT('',(1.25,324.,7.));
#351 = VECTOR('',#352,1.);
#352 = DIRECTION('',(-1.,0.,0.));
#353 = ORIENTED_EDGE('',*,*,#354,.F.);
#354 = EDGE_CURVE('',#355,#347,#357,.T.);
#355 = VERTEX_POINT('',#356);
#356 = CARTESIAN_POINT('',(2.5,348.25,7.));
#357 = LINE('',#358,#359);
#358 = CARTESIAN_POINT('',(2.5,338.125,7.));
#359 = VECTOR('',#360,1.);
#360 = DIRECTION('',(0.,-1.,0.));
#361 = ORIENTED_EDGE('',*,*,#362,.F.);
#362 = EDGE_CURVE('',#363,#355,#365,.T.);
#363 = VERTEX_POINT('',#364);
#364 = CARTESIAN_POINT('',(0.,348.25,7.));
#365 = LINE('',#366,#367);
#366 = CARTESIAN_POINT('',(0.,348.25,7.));
#367 = VECTOR('',#368,1.);
#368 = DIRECTION('',(1.,0.,0.));
#369 = ORIENTED_EDGE('',*,*,#370,.F.);
#370 = EDGE_CURVE('',#41,#363,#371,.T.);
#371 = LINE('',#372,#373);
#372 = CARTESIAN_POINT('',(0.,326.,7.));
#373 = VECTOR('',#374,1.);
#374 = DIRECTION('',(0.,1.,0.));
#375 = ORIENTED_EDGE('',*,*,#40,.T.);
#376 = ORIENTED_EDGE('',*,*,#299,.T.);
#377 = PLANE('',#378);
#378 = AXIS2_PLACEMENT_3D('',#379,#380,#381);
#379 = CARTESIAN_POINT('',(0.,328.,7.));
#380 = DIRECTION('',(0.,0.,1.));
#381 = DIRECTION('',(0.,-1.,0.));
#382 = ADVANCED_FACE('',(#383),#402,.T.);
#383 = FACE_BOUND('',#384,.T.);
#384 = EDGE_LOOP('',(#385,#386,#394,#401));
#385 = ORIENTED_EDGE('',*,*,#88,.T.);
#386 = ORIENTED_EDGE('',*,*,#387,.T.);
#387 = EDGE_CURVE('',#81,#388,#390,.T.);
#388 = VERTEX_POINT('',#389);
#389 = CARTESIAN_POINT('',(-41.9,324.,8.959591794227));
#390 = LINE('',#391,#392);
#391 = CARTESIAN_POINT('',(-41.9,328.,8.959591794227));
#392 = VECTOR('',#393,1.);
#393 = DIRECTION('',(0.,-1.,0.));
#394 = ORIENTED_EDGE('',*,*,#395,.F.);
#395 = EDGE_CURVE('',#324,#388,#396,.T.);
#396 = CIRCLE('',#397,5.);
#397 = AXIS2_PLACEMENT_3D('',#398,#399,#400);
#398 = CARTESIAN_POINT('',(-37.3,324.,7.));
#399 = DIRECTION('',(0.,-1.,0.));
#400 = DIRECTION('',(0.,0.,-1.));
#401 = ORIENTED_EDGE('',*,*,#323,.F.);
#402 = CYLINDRICAL_SURFACE('',#403,5.);
#403 = AXIS2_PLACEMENT_3D('',#404,#405,#406);
#404 = CARTESIAN_POINT('',(-37.3,328.,7.));
#405 = DIRECTION('',(0.,-1.,0.));
#406 = DIRECTION('',(0.,0.,1.));
#407 = ADVANCED_FACE('',(#408),#426,.T.);
#408 = FACE_BOUND('',#409,.T.);
#409 = EDGE_LOOP('',(#410,#418,#424,#425));
#410 = ORIENTED_EDGE('',*,*,#411,.F.);
#411 = EDGE_CURVE('',#412,#363,#414,.T.);
#412 = VERTEX_POINT('',#413);
#413 = CARTESIAN_POINT('',(0.,348.25,-31.25));
#414 = LINE('',#415,#416);
#415 = CARTESIAN_POINT('',(0.,348.25,-53.));
#416 = VECTOR('',#417,1.);
#417 = DIRECTION('',(0.,0.,1.));
#418 = ORIENTED_EDGE('',*,*,#419,.T.);
#419 = EDGE_CURVE('',#412,#49,#420,.T.);
#420 = LINE('',#421,#422);
#421 = CARTESIAN_POINT('',(0.,370.,-31.25));
#422 = VECTOR('',#423,1.);
#423 = DIRECTION('',(0.,-1.,0.));
#424 = ORIENTED_EDGE('',*,*,#48,.T.);
#425 = ORIENTED_EDGE('',*,*,#370,.T.);
#426 = PLANE('',#427);
#427 = AXIS2_PLACEMENT_3D('',#428,#429,#430);
#428 = CARTESIAN_POINT('',(0.,324.,-53.));
#429 = DIRECTION('',(-1.,0.,0.));
#430 = DIRECTION('',(0.,1.,0.));
#431 = ADVANCED_FACE('',(#432),#450,.F.);
#432 = FACE_BOUND('',#433,.F.);
#433 = EDGE_LOOP('',(#434,#435,#436,#444));
#434 = ORIENTED_EDGE('',*,*,#80,.F.);
#435 = ORIENTED_EDGE('',*,*,#387,.T.);
#436 = ORIENTED_EDGE('',*,*,#437,.T.);
#437 = EDGE_CURVE('',#388,#438,#440,.T.);
#438 = VERTEX_POINT('',#439);
#439 = CARTESIAN_POINT('',(-44.3,324.,7.));
#440 = LINE('',#441,#442);
#441 = CARTESIAN_POINT('',(-41.81420036945,324.,9.029646899214));
#442 = VECTOR('',#443,1.);
#443 = DIRECTION('',(-0.774596669241,0.,-0.632455532034));
#444 = ORIENTED_EDGE('',*,*,#445,.F.);
#445 = EDGE_CURVE('',#73,#438,#446,.T.);
#446 = LINE('',#447,#448);
#447 = CARTESIAN_POINT('',(-44.3,328.,7.));
#448 = VECTOR('',#449,1.);
#449 = DIRECTION('',(0.,-1.,0.));
#450 = PLANE('',#451);
#451 = AXIS2_PLACEMENT_3D('',#452,#453,#454);
#452 = CARTESIAN_POINT('',(-44.3,328.,7.));
#453 = DIRECTION('',(0.632455532034,0.,-0.774596669241));
#454 = DIRECTION('',(0.,-1.,0.));
#455 = ADVANCED_FACE('',(#456),#522,.T.);
#456 = FACE_BOUND('',#457,.T.);
#457 = EDGE_LOOP('',(#458,#468,#476,#484,#492,#500,#506,#507,#508,#516)
  );
#458 = ORIENTED_EDGE('',*,*,#459,.F.);
#459 = EDGE_CURVE('',#460,#462,#464,.T.);
#460 = VERTEX_POINT('',#461);
#461 = CARTESIAN_POINT('',(0.,370.,-31.25));
#462 = VERTEX_POINT('',#463);
#463 = CARTESIAN_POINT('',(-8.215650382226E-15,350.25,-31.25));
#464 = LINE('',#465,#466);
#465 = CARTESIAN_POINT('',(0.,370.,-31.25));
#466 = VECTOR('',#467,1.);
#467 = DIRECTION('',(0.,-1.,0.));
#468 = ORIENTED_EDGE('',*,*,#469,.T.);
#469 = EDGE_CURVE('',#460,#470,#472,.T.);
#470 = VERTEX_POINT('',#471);
#471 = CARTESIAN_POINT('',(-42.3,370.,-31.25));
#472 = LINE('',#473,#474);
#473 = CARTESIAN_POINT('',(0.,370.,-31.25));
#474 = VECTOR('',#475,1.);
#475 = DIRECTION('',(-1.,-0.,-0.));
#476 = ORIENTED_EDGE('',*,*,#477,.T.);
#477 = EDGE_CURVE('',#470,#478,#480,.T.);
#478 = VERTEX_POINT('',#479);
#479 = CARTESIAN_POINT('',(-42.3,350.25,-31.25));
#480 = LINE('',#481,#482);
#481 = CARTESIAN_POINT('',(-42.3,370.,-31.25));
#482 = VECTOR('',#483,1.);
#483 = DIRECTION('',(0.,-1.,0.));
#484 = ORIENTED_EDGE('',*,*,#485,.T.);
#485 = EDGE_CURVE('',#478,#486,#488,.T.);
#486 = VERTEX_POINT('',#487);
#487 = CARTESIAN_POINT('',(-44.3,348.25,-31.25));
#488 = LINE('',#489,#490);
#489 = CARTESIAN_POINT('',(-27.2875,365.2625,-31.25));
#490 = VECTOR('',#491,1.);
#491 = DIRECTION('',(-0.707106781187,-0.707106781187,0.));
#492 = ORIENTED_EDGE('',*,*,#493,.F.);
#493 = EDGE_CURVE('',#494,#486,#496,.T.);
#494 = VERTEX_POINT('',#495);
#495 = CARTESIAN_POINT('',(-42.3,348.25,-31.25));
#496 = LINE('',#497,#498);
#497 = CARTESIAN_POINT('',(-22.4,348.25,-31.25));
#498 = VECTOR('',#499,1.);
#499 = DIRECTION('',(-1.,-0.,-0.));
#500 = ORIENTED_EDGE('',*,*,#501,.T.);
#501 = EDGE_CURVE('',#494,#57,#502,.T.);
#502 = LINE('',#503,#504);
#503 = CARTESIAN_POINT('',(-42.3,370.,-31.25));
#504 = VECTOR('',#505,1.);
#505 = DIRECTION('',(0.,-1.,0.));
#506 = ORIENTED_EDGE('',*,*,#56,.F.);
#507 = ORIENTED_EDGE('',*,*,#419,.F.);
#508 = ORIENTED_EDGE('',*,*,#509,.T.);
#509 = EDGE_CURVE('',#412,#510,#512,.T.);
#510 = VERTEX_POINT('',#511);
#511 = CARTESIAN_POINT('',(2.,348.25,-31.25));
#512 = LINE('',#513,#514);
#513 = CARTESIAN_POINT('',(0.,348.25,-31.25));
#514 = VECTOR('',#515,1.);
#515 = DIRECTION('',(1.,0.,0.));
#516 = ORIENTED_EDGE('',*,*,#517,.T.);
#517 = EDGE_CURVE('',#510,#462,#518,.T.);
#518 = LINE('',#519,#520);
#519 = CARTESIAN_POINT('',(-4.4375,354.6875,-31.25));
#520 = VECTOR('',#521,1.);
#521 = DIRECTION('',(-0.707106781187,0.707106781187,0.));
#522 = PLANE('',#523);
#523 = AXIS2_PLACEMENT_3D('',#524,#525,#526);
#524 = CARTESIAN_POINT('',(0.,370.,-31.25));
#525 = DIRECTION('',(0.,0.,1.));
#526 = DIRECTION('',(0.,-1.,0.));
#527 = ADVANCED_FACE('',(#528),#562,.T.);
#528 = FACE_BOUND('',#529,.T.);
#529 = EDGE_LOOP('',(#530,#538,#539,#540,#548,#556));
#530 = ORIENTED_EDGE('',*,*,#531,.F.);
#531 = EDGE_CURVE('',#438,#532,#534,.T.);
#532 = VERTEX_POINT('',#533);
#533 = CARTESIAN_POINT('',(-44.8,324.,7.));
#534 = LINE('',#535,#536);
#535 = CARTESIAN_POINT('',(-21.15,324.,7.));
#536 = VECTOR('',#537,1.);
#537 = DIRECTION('',(-1.,0.,0.));
#538 = ORIENTED_EDGE('',*,*,#445,.F.);
#539 = ORIENTED_EDGE('',*,*,#72,.F.);
#540 = ORIENTED_EDGE('',*,*,#541,.F.);
#541 = EDGE_CURVE('',#542,#65,#544,.T.);
#542 = VERTEX_POINT('',#543);
#543 = CARTESIAN_POINT('',(-42.3,348.25,7.));
#544 = LINE('',#545,#546);
#545 = CARTESIAN_POINT('',(-42.3,338.125,7.));
#546 = VECTOR('',#547,1.);
#547 = DIRECTION('',(0.,-1.,0.));
#548 = ORIENTED_EDGE('',*,*,#549,.F.);
#549 = EDGE_CURVE('',#550,#542,#552,.T.);
#550 = VERTEX_POINT('',#551);
#551 = CARTESIAN_POINT('',(-44.8,348.25,7.));
#552 = LINE('',#553,#554);
#553 = CARTESIAN_POINT('',(-22.4,348.25,7.));
#554 = VECTOR('',#555,1.);
#555 = DIRECTION('',(1.,0.,0.));
#556 = ORIENTED_EDGE('',*,*,#557,.F.);
#557 = EDGE_CURVE('',#532,#550,#558,.T.);
#558 = LINE('',#559,#560);
#559 = CARTESIAN_POINT('',(-44.8,326.,7.));
#560 = VECTOR('',#561,1.);
#561 = DIRECTION('',(0.,1.,0.));
#562 = PLANE('',#563);
#563 = AXIS2_PLACEMENT_3D('',#564,#565,#566);
#564 = CARTESIAN_POINT('',(0.,328.,7.));
#565 = DIRECTION('',(0.,0.,1.));
#566 = DIRECTION('',(0.,-1.,0.));
#567 = ADVANCED_FACE('',(#568),#579,.T.);
#568 = FACE_BOUND('',#569,.T.);
#569 = EDGE_LOOP('',(#570,#571,#577,#578));
#570 = ORIENTED_EDGE('',*,*,#501,.F.);
#571 = ORIENTED_EDGE('',*,*,#572,.T.);
#572 = EDGE_CURVE('',#494,#542,#573,.T.);
#573 = LINE('',#574,#575);
#574 = CARTESIAN_POINT('',(-42.3,348.25,-53.));
#575 = VECTOR('',#576,1.);
#576 = DIRECTION('',(0.,0.,1.));
#577 = ORIENTED_EDGE('',*,*,#541,.T.);
#578 = ORIENTED_EDGE('',*,*,#64,.F.);
#579 = PLANE('',#580);
#580 = AXIS2_PLACEMENT_3D('',#581,#582,#583);
#581 = CARTESIAN_POINT('',(-42.3,348.25,-53.));
#582 = DIRECTION('',(1.,0.,0.));
#583 = DIRECTION('',(0.,-1.,0.));
#584 = ADVANCED_FACE('',(#585),#610,.T.);
#585 = FACE_BOUND('',#586,.T.);
#586 = EDGE_LOOP('',(#587,#597,#603,#604));
#587 = ORIENTED_EDGE('',*,*,#588,.F.);
#588 = EDGE_CURVE('',#589,#591,#593,.T.);
#589 = VERTEX_POINT('',#590);
#590 = CARTESIAN_POINT('',(-34.65,324.,-24.35));
#591 = VERTEX_POINT('',#592);
#592 = CARTESIAN_POINT('',(-34.65,324.,-26.85));
#593 = LINE('',#594,#595);
#594 = CARTESIAN_POINT('',(-34.65,324.,-24.35));
#595 = VECTOR('',#596,1.);
#596 = DIRECTION('',(0.,0.,-1.));
#597 = ORIENTED_EDGE('',*,*,#598,.T.);
#598 = EDGE_CURVE('',#589,#108,#599,.T.);
#599 = LINE('',#600,#601);
#600 = CARTESIAN_POINT('',(-34.65,324.,-24.35));
#601 = VECTOR('',#602,1.);
#602 = DIRECTION('',(0.,1.,-2.2E-16));
#603 = ORIENTED_EDGE('',*,*,#105,.F.);
#604 = ORIENTED_EDGE('',*,*,#605,.F.);
#605 = EDGE_CURVE('',#591,#106,#606,.T.);
#606 = LINE('',#607,#608);
#607 = CARTESIAN_POINT('',(-34.65,324.,-26.85));
#608 = VECTOR('',#609,1.);
#609 = DIRECTION('',(0.,1.,-2.2E-16));
#610 = PLANE('',#611);
#611 = AXIS2_PLACEMENT_3D('',#612,#613,#614);
#612 = CARTESIAN_POINT('',(-34.65,324.,-24.35));
#613 = DIRECTION('',(-1.,0.,0.));
#614 = DIRECTION('',(0.,-2.2E-16,-1.));
#615 = ADVANCED_FACE('',(#616),#635,.F.);
#616 = FACE_BOUND('',#617,.F.);
#617 = EDGE_LOOP('',(#618,#627,#633,#634));
#618 = ORIENTED_EDGE('',*,*,#619,.F.);
#619 = EDGE_CURVE('',#620,#591,#622,.T.);
#620 = VERTEX_POINT('',#621);
#621 = CARTESIAN_POINT('',(-38.65,324.,-26.85));
#622 = CIRCLE('',#623,2.);
#623 = AXIS2_PLACEMENT_3D('',#624,#625,#626);
#624 = CARTESIAN_POINT('',(-36.65,324.,-26.85));
#625 = DIRECTION('',(0.,-1.,0.));
#626 = DIRECTION('',(1.,0.,0.));
#627 = ORIENTED_EDGE('',*,*,#628,.T.);
#628 = EDGE_CURVE('',#620,#125,#629,.T.);
#629 = LINE('',#630,#631);
#630 = CARTESIAN_POINT('',(-38.65,324.,-26.85));
#631 = VECTOR('',#632,1.);
#632 = DIRECTION('',(0.,1.,-2.2E-16));
#633 = ORIENTED_EDGE('',*,*,#132,.T.);
#634 = ORIENTED_EDGE('',*,*,#605,.F.);
#635 = CYLINDRICAL_SURFACE('',#636,2.);
#636 = AXIS2_PLACEMENT_3D('',#637,#638,#639);
#637 = CARTESIAN_POINT('',(-36.65,324.,-26.85));
#638 = DIRECTION('',(0.,-1.,2.2E-16));
#639 = DIRECTION('',(1.,0.,0.));
#640 = ADVANCED_FACE('',(#641),#659,.F.);
#641 = FACE_BOUND('',#642,.F.);
#642 = EDGE_LOOP('',(#643,#651,#657,#658));
#643 = ORIENTED_EDGE('',*,*,#644,.F.);
#644 = EDGE_CURVE('',#645,#620,#647,.T.);
#645 = VERTEX_POINT('',#646);
#646 = CARTESIAN_POINT('',(-38.65,324.,-24.35));
#647 = LINE('',#648,#649);
#648 = CARTESIAN_POINT('',(-38.65,324.,-24.35));
#649 = VECTOR('',#650,1.);
#650 = DIRECTION('',(0.,0.,-1.));
#651 = ORIENTED_EDGE('',*,*,#652,.T.);
#652 = EDGE_CURVE('',#645,#116,#653,.T.);
#653 = LINE('',#654,#655);
#654 = CARTESIAN_POINT('',(-38.65,324.,-24.35));
#655 = VECTOR('',#656,1.);
#656 = DIRECTION('',(0.,1.,-2.2E-16));
#657 = ORIENTED_EDGE('',*,*,#124,.F.);
#658 = ORIENTED_EDGE('',*,*,#628,.F.);
#659 = PLANE('',#660);
#660 = AXIS2_PLACEMENT_3D('',#661,#662,#663);
#661 = CARTESIAN_POINT('',(-38.65,324.,-24.35));
#662 = DIRECTION('',(-1.,0.,0.));
#663 = DIRECTION('',(0.,-2.2E-16,-1.));
#664 = ADVANCED_FACE('',(#665),#677,.F.);
#665 = FACE_BOUND('',#666,.F.);
#666 = EDGE_LOOP('',(#667,#674,#675,#676));
#667 = ORIENTED_EDGE('',*,*,#668,.F.);
#668 = EDGE_CURVE('',#589,#645,#669,.T.);
#669 = CIRCLE('',#670,2.);
#670 = AXIS2_PLACEMENT_3D('',#671,#672,#673);
#671 = CARTESIAN_POINT('',(-36.65,324.,-24.35));
#672 = DIRECTION('',(0.,-1.,0.));
#673 = DIRECTION('',(1.,0.,0.));
#674 = ORIENTED_EDGE('',*,*,#598,.T.);
#675 = ORIENTED_EDGE('',*,*,#115,.T.);
#676 = ORIENTED_EDGE('',*,*,#652,.F.);
#677 = CYLINDRICAL_SURFACE('',#678,2.);
#678 = AXIS2_PLACEMENT_3D('',#679,#680,#681);
#679 = CARTESIAN_POINT('',(-36.65,324.,-24.35));
#680 = DIRECTION('',(0.,-1.,2.2E-16));
#681 = DIRECTION('',(1.,0.,0.));
#682 = ADVANCED_FACE('',(#683),#708,.T.);
#683 = FACE_BOUND('',#684,.T.);
#684 = EDGE_LOOP('',(#685,#695,#701,#702));
#685 = ORIENTED_EDGE('',*,*,#686,.F.);
#686 = EDGE_CURVE('',#687,#689,#691,.T.);
#687 = VERTEX_POINT('',#688);
#688 = CARTESIAN_POINT('',(-34.65,324.,6.649999999998));
#689 = VERTEX_POINT('',#690);
#690 = CARTESIAN_POINT('',(-34.65,324.,4.15));
#691 = LINE('',#692,#693);
#692 = CARTESIAN_POINT('',(-34.65,324.,6.649999999998));
#693 = VECTOR('',#694,1.);
#694 = DIRECTION('',(0.,0.,-1.));
#695 = ORIENTED_EDGE('',*,*,#696,.T.);
#696 = EDGE_CURVE('',#687,#144,#697,.T.);
#697 = LINE('',#698,#699);
#698 = CARTESIAN_POINT('',(-34.65,324.,6.649999999998));
#699 = VECTOR('',#700,1.);
#700 = DIRECTION('',(0.,1.,-2.2E-16));
#701 = ORIENTED_EDGE('',*,*,#141,.F.);
#702 = ORIENTED_EDGE('',*,*,#703,.F.);
#703 = EDGE_CURVE('',#689,#142,#704,.T.);
#704 = LINE('',#705,#706);
#705 = CARTESIAN_POINT('',(-34.65,324.,4.15));
#706 = VECTOR('',#707,1.);
#707 = DIRECTION('',(0.,1.,-2.2E-16));
#708 = PLANE('',#709);
#709 = AXIS2_PLACEMENT_3D('',#710,#711,#712);
#710 = CARTESIAN_POINT('',(-34.65,324.,6.649999999998));
#711 = DIRECTION('',(-1.,0.,0.));
#712 = DIRECTION('',(0.,-2.2E-16,-1.));
#713 = ADVANCED_FACE('',(#714),#733,.F.);
#714 = FACE_BOUND('',#715,.F.);
#715 = EDGE_LOOP('',(#716,#725,#731,#732));
#716 = ORIENTED_EDGE('',*,*,#717,.F.);
#717 = EDGE_CURVE('',#718,#689,#720,.T.);
#718 = VERTEX_POINT('',#719);
#719 = CARTESIAN_POINT('',(-38.65,324.,4.15));
#720 = CIRCLE('',#721,2.);
#721 = AXIS2_PLACEMENT_3D('',#722,#723,#724);
#722 = CARTESIAN_POINT('',(-36.65,324.,4.15));
#723 = DIRECTION('',(0.,-1.,0.));
#724 = DIRECTION('',(1.,0.,0.));
#725 = ORIENTED_EDGE('',*,*,#726,.T.);
#726 = EDGE_CURVE('',#718,#161,#727,.T.);
#727 = LINE('',#728,#729);
#728 = CARTESIAN_POINT('',(-38.65,324.,4.15));
#729 = VECTOR('',#730,1.);
#730 = DIRECTION('',(0.,1.,-2.2E-16));
#731 = ORIENTED_EDGE('',*,*,#168,.T.);
#732 = ORIENTED_EDGE('',*,*,#703,.F.);
#733 = CYLINDRICAL_SURFACE('',#734,2.);
#734 = AXIS2_PLACEMENT_3D('',#735,#736,#737);
#735 = CARTESIAN_POINT('',(-36.65,324.,4.15));
#736 = DIRECTION('',(0.,-1.,2.2E-16));
#737 = DIRECTION('',(1.,0.,0.));
#738 = ADVANCED_FACE('',(#739),#757,.F.);
#739 = FACE_BOUND('',#740,.F.);
#740 = EDGE_LOOP('',(#741,#749,#755,#756));
#741 = ORIENTED_EDGE('',*,*,#742,.F.);
#742 = EDGE_CURVE('',#743,#718,#745,.T.);
#743 = VERTEX_POINT('',#744);
#744 = CARTESIAN_POINT('',(-38.65,324.,6.649999999998));
#745 = LINE('',#746,#747);
#746 = CARTESIAN_POINT('',(-38.65,324.,6.649999999998));
#747 = VECTOR('',#748,1.);
#748 = DIRECTION('',(0.,0.,-1.));
#749 = ORIENTED_EDGE('',*,*,#750,.T.);
#750 = EDGE_CURVE('',#743,#152,#751,.T.);
#751 = LINE('',#752,#753);
#752 = CARTESIAN_POINT('',(-38.65,324.,6.649999999998));
#753 = VECTOR('',#754,1.);
#754 = DIRECTION('',(0.,1.,-2.2E-16));
#755 = ORIENTED_EDGE('',*,*,#160,.F.);
#756 = ORIENTED_EDGE('',*,*,#726,.F.);
#757 = PLANE('',#758);
#758 = AXIS2_PLACEMENT_3D('',#759,#760,#761);
#759 = CARTESIAN_POINT('',(-38.65,324.,6.649999999998));
#760 = DIRECTION('',(-1.,0.,0.));
#761 = DIRECTION('',(0.,-2.2E-16,-1.));
#762 = ADVANCED_FACE('',(#763),#775,.F.);
#763 = FACE_BOUND('',#764,.F.);
#764 = EDGE_LOOP('',(#765,#772,#773,#774));
#765 = ORIENTED_EDGE('',*,*,#766,.F.);
#766 = EDGE_CURVE('',#687,#743,#767,.T.);
#767 = CIRCLE('',#768,2.);
#768 = AXIS2_PLACEMENT_3D('',#769,#770,#771);
#769 = CARTESIAN_POINT('',(-36.65,324.,6.649999999998));
#770 = DIRECTION('',(0.,-1.,0.));
#771 = DIRECTION('',(1.,0.,0.));
#772 = ORIENTED_EDGE('',*,*,#696,.T.);
#773 = ORIENTED_EDGE('',*,*,#151,.T.);
#774 = ORIENTED_EDGE('',*,*,#750,.F.);
#775 = CYLINDRICAL_SURFACE('',#776,2.);
#776 = AXIS2_PLACEMENT_3D('',#777,#778,#779);
#777 = CARTESIAN_POINT('',(-36.65,324.,6.649999999998));
#778 = DIRECTION('',(0.,-1.,2.2E-16));
#779 = DIRECTION('',(1.,0.,0.));
#780 = ADVANCED_FACE('',(#781),#806,.T.);
#781 = FACE_BOUND('',#782,.T.);
#782 = EDGE_LOOP('',(#783,#793,#799,#800));
#783 = ORIENTED_EDGE('',*,*,#784,.F.);
#784 = EDGE_CURVE('',#785,#787,#789,.T.);
#785 = VERTEX_POINT('',#786);
#786 = CARTESIAN_POINT('',(-3.65,324.,-24.35));
#787 = VERTEX_POINT('',#788);
#788 = CARTESIAN_POINT('',(-3.65,324.,-26.85));
#789 = LINE('',#790,#791);
#790 = CARTESIAN_POINT('',(-3.65,324.,-24.35));
#791 = VECTOR('',#792,1.);
#792 = DIRECTION('',(0.,0.,-1.));
#793 = ORIENTED_EDGE('',*,*,#794,.T.);
#794 = EDGE_CURVE('',#785,#180,#795,.T.);
#795 = LINE('',#796,#797);
#796 = CARTESIAN_POINT('',(-3.65,324.,-24.35));
#797 = VECTOR('',#798,1.);
#798 = DIRECTION('',(0.,1.,-2.2E-16));
#799 = ORIENTED_EDGE('',*,*,#177,.F.);
#800 = ORIENTED_EDGE('',*,*,#801,.F.);
#801 = EDGE_CURVE('',#787,#178,#802,.T.);
#802 = LINE('',#803,#804);
#803 = CARTESIAN_POINT('',(-3.65,324.,-26.85));
#804 = VECTOR('',#805,1.);
#805 = DIRECTION('',(0.,1.,-2.2E-16));
#806 = PLANE('',#807);
#807 = AXIS2_PLACEMENT_3D('',#808,#809,#810);
#808 = CARTESIAN_POINT('',(-3.65,324.,-24.35));
#809 = DIRECTION('',(-1.,0.,0.));
#810 = DIRECTION('',(0.,-2.2E-16,-1.));
#811 = ADVANCED_FACE('',(#812),#831,.F.);
#812 = FACE_BOUND('',#813,.F.);
#813 = EDGE_LOOP('',(#814,#823,#829,#830));
#814 = ORIENTED_EDGE('',*,*,#815,.F.);
#815 = EDGE_CURVE('',#816,#787,#818,.T.);
#816 = VERTEX_POINT('',#817);
#817 = CARTESIAN_POINT('',(-7.65,324.,-26.85));
#818 = CIRCLE('',#819,2.);
#819 = AXIS2_PLACEMENT_3D('',#820,#821,#822);
#820 = CARTESIAN_POINT('',(-5.65,324.,-26.85));
#821 = DIRECTION('',(0.,-1.,0.));
#822 = DIRECTION('',(1.,0.,0.));
#823 = ORIENTED_EDGE('',*,*,#824,.T.);
#824 = EDGE_CURVE('',#816,#197,#825,.T.);
#825 = LINE('',#826,#827);
#826 = CARTESIAN_POINT('',(-7.65,324.,-26.85));
#827 = VECTOR('',#828,1.);
#828 = DIRECTION('',(0.,1.,-2.2E-16));
#829 = ORIENTED_EDGE('',*,*,#204,.T.);
#830 = ORIENTED_EDGE('',*,*,#801,.F.);
#831 = CYLINDRICAL_SURFACE('',#832,2.);
#832 = AXIS2_PLACEMENT_3D('',#833,#834,#835);
#833 = CARTESIAN_POINT('',(-5.65,324.,-26.85));
#834 = DIRECTION('',(0.,-1.,2.2E-16));
#835 = DIRECTION('',(1.,0.,0.));
#836 = ADVANCED_FACE('',(#837),#855,.F.);
#837 = FACE_BOUND('',#838,.F.);
#838 = EDGE_LOOP('',(#839,#847,#853,#854));
#839 = ORIENTED_EDGE('',*,*,#840,.F.);
#840 = EDGE_CURVE('',#841,#816,#843,.T.);
#841 = VERTEX_POINT('',#842);
#842 = CARTESIAN_POINT('',(-7.65,324.,-24.35));
#843 = LINE('',#844,#845);
#844 = CARTESIAN_POINT('',(-7.65,324.,-24.35));
#845 = VECTOR('',#846,1.);
#846 = DIRECTION('',(0.,0.,-1.));
#847 = ORIENTED_EDGE('',*,*,#848,.T.);
#848 = EDGE_CURVE('',#841,#188,#849,.T.);
#849 = LINE('',#850,#851);
#850 = CARTESIAN_POINT('',(-7.65,324.,-24.35));
#851 = VECTOR('',#852,1.);
#852 = DIRECTION('',(0.,1.,-2.2E-16));
#853 = ORIENTED_EDGE('',*,*,#196,.F.);
#854 = ORIENTED_EDGE('',*,*,#824,.F.);
#855 = PLANE('',#856);
#856 = AXIS2_PLACEMENT_3D('',#857,#858,#859);
#857 = CARTESIAN_POINT('',(-7.65,324.,-24.35));
#858 = DIRECTION('',(-1.,0.,0.));
#859 = DIRECTION('',(0.,-2.2E-16,-1.));
#860 = ADVANCED_FACE('',(#861),#873,.F.);
#861 = FACE_BOUND('',#862,.F.);
#862 = EDGE_LOOP('',(#863,#870,#871,#872));
#863 = ORIENTED_EDGE('',*,*,#864,.F.);
#864 = EDGE_CURVE('',#785,#841,#865,.T.);
#865 = CIRCLE('',#866,2.);
#866 = AXIS2_PLACEMENT_3D('',#867,#868,#869);
#867 = CARTESIAN_POINT('',(-5.65,324.,-24.35));
#868 = DIRECTION('',(0.,-1.,0.));
#869 = DIRECTION('',(1.,0.,0.));
#870 = ORIENTED_EDGE('',*,*,#794,.T.);
#871 = ORIENTED_EDGE('',*,*,#187,.T.);
#872 = ORIENTED_EDGE('',*,*,#848,.F.);
#873 = CYLINDRICAL_SURFACE('',#874,2.);
#874 = AXIS2_PLACEMENT_3D('',#875,#876,#877);
#875 = CARTESIAN_POINT('',(-5.65,324.,-24.35));
#876 = DIRECTION('',(0.,-1.,2.2E-16));
#877 = DIRECTION('',(1.,0.,0.));
#878 = ADVANCED_FACE('',(#879),#898,.F.);
#879 = FACE_BOUND('',#880,.F.);
#880 = EDGE_LOOP('',(#881,#890,#896,#897));
#881 = ORIENTED_EDGE('',*,*,#882,.F.);
#882 = EDGE_CURVE('',#883,#883,#885,.T.);
#883 = VERTEX_POINT('',#884);
#884 = CARTESIAN_POINT('',(-6.15,324.,-10.1));
#885 = CIRCLE('',#886,15.);
#886 = AXIS2_PLACEMENT_3D('',#887,#888,#889);
#887 = CARTESIAN_POINT('',(-21.15,324.,-10.1));
#888 = DIRECTION('',(0.,-1.,0.));
#889 = DIRECTION('',(1.,0.,0.));
#890 = ORIENTED_EDGE('',*,*,#891,.T.);
#891 = EDGE_CURVE('',#883,#214,#892,.T.);
#892 = LINE('',#893,#894);
#893 = CARTESIAN_POINT('',(-6.15,324.,-10.1));
#894 = VECTOR('',#895,1.);
#895 = DIRECTION('',(0.,1.,-2.2E-16));
#896 = ORIENTED_EDGE('',*,*,#213,.T.);
#897 = ORIENTED_EDGE('',*,*,#891,.F.);
#898 = CYLINDRICAL_SURFACE('',#899,15.);
#899 = AXIS2_PLACEMENT_3D('',#900,#901,#902);
#900 = CARTESIAN_POINT('',(-21.15,324.,-10.1));
#901 = DIRECTION('',(0.,-1.,2.2E-16));
#902 = DIRECTION('',(1.,0.,0.));
#903 = ADVANCED_FACE('',(#904),#929,.T.);
#904 = FACE_BOUND('',#905,.T.);
#905 = EDGE_LOOP('',(#906,#916,#922,#923));
#906 = ORIENTED_EDGE('',*,*,#907,.F.);
#907 = EDGE_CURVE('',#908,#910,#912,.T.);
#908 = VERTEX_POINT('',#909);
#909 = CARTESIAN_POINT('',(-3.65,324.,6.65));
#910 = VERTEX_POINT('',#911);
#911 = CARTESIAN_POINT('',(-3.65,324.,4.15));
#912 = LINE('',#913,#914);
#913 = CARTESIAN_POINT('',(-3.65,324.,6.65));
#914 = VECTOR('',#915,1.);
#915 = DIRECTION('',(0.,0.,-1.));
#916 = ORIENTED_EDGE('',*,*,#917,.T.);
#917 = EDGE_CURVE('',#908,#227,#918,.T.);
#918 = LINE('',#919,#920);
#919 = CARTESIAN_POINT('',(-3.65,324.,6.65));
#920 = VECTOR('',#921,1.);
#921 = DIRECTION('',(0.,1.,-2.2E-16));
#922 = ORIENTED_EDGE('',*,*,#224,.F.);
#923 = ORIENTED_EDGE('',*,*,#924,.F.);
#924 = EDGE_CURVE('',#910,#225,#925,.T.);
#925 = LINE('',#926,#927);
#926 = CARTESIAN_POINT('',(-3.65,324.,4.15));
#927 = VECTOR('',#928,1.);
#928 = DIRECTION('',(0.,1.,-2.2E-16));
#929 = PLANE('',#930);
#930 = AXIS2_PLACEMENT_3D('',#931,#932,#933);
#931 = CARTESIAN_POINT('',(-3.65,324.,6.65));
#932 = DIRECTION('',(-1.,0.,0.));
#933 = DIRECTION('',(0.,-2.2E-16,-1.));
#934 = ADVANCED_FACE('',(#935),#954,.F.);
#935 = FACE_BOUND('',#936,.F.);
#936 = EDGE_LOOP('',(#937,#946,#952,#953));
#937 = ORIENTED_EDGE('',*,*,#938,.F.);
#938 = EDGE_CURVE('',#939,#910,#941,.T.);
#939 = VERTEX_POINT('',#940);
#940 = CARTESIAN_POINT('',(-7.65,324.,4.15));
#941 = CIRCLE('',#942,2.);
#942 = AXIS2_PLACEMENT_3D('',#943,#944,#945);
#943 = CARTESIAN_POINT('',(-5.65,324.,4.15));
#944 = DIRECTION('',(0.,-1.,0.));
#945 = DIRECTION('',(1.,0.,0.));
#946 = ORIENTED_EDGE('',*,*,#947,.T.);
#947 = EDGE_CURVE('',#939,#244,#948,.T.);
#948 = LINE('',#949,#950);
#949 = CARTESIAN_POINT('',(-7.65,324.,4.15));
#950 = VECTOR('',#951,1.);
#951 = DIRECTION('',(0.,1.,-2.2E-16));
#952 = ORIENTED_EDGE('',*,*,#251,.T.);
#953 = ORIENTED_EDGE('',*,*,#924,.F.);
#954 = CYLINDRICAL_SURFACE('',#955,2.);
#955 = AXIS2_PLACEMENT_3D('',#956,#957,#958);
#956 = CARTESIAN_POINT('',(-5.65,324.,4.15));
#957 = DIRECTION('',(0.,-1.,2.2E-16));
#958 = DIRECTION('',(1.,0.,0.));
#959 = ADVANCED_FACE('',(#960),#978,.F.);
#960 = FACE_BOUND('',#961,.F.);
#961 = EDGE_LOOP('',(#962,#970,#976,#977));
#962 = ORIENTED_EDGE('',*,*,#963,.F.);
#963 = EDGE_CURVE('',#964,#939,#966,.T.);
#964 = VERTEX_POINT('',#965);
#965 = CARTESIAN_POINT('',(-7.65,324.,6.65));
#966 = LINE('',#967,#968);
#967 = CARTESIAN_POINT('',(-7.65,324.,6.65));
#968 = VECTOR('',#969,1.);
#969 = DIRECTION('',(0.,0.,-1.));
#970 = ORIENTED_EDGE('',*,*,#971,.T.);
#971 = EDGE_CURVE('',#964,#235,#972,.T.);
#972 = LINE('',#973,#974);
#973 = CARTESIAN_POINT('',(-7.65,324.,6.65));
#974 = VECTOR('',#975,1.);
#975 = DIRECTION('',(0.,1.,-2.2E-16));
#976 = ORIENTED_EDGE('',*,*,#243,.F.);
#977 = ORIENTED_EDGE('',*,*,#947,.F.);
#978 = PLANE('',#979);
#979 = AXIS2_PLACEMENT_3D('',#980,#981,#982);
#980 = CARTESIAN_POINT('',(-7.65,324.,6.65));
#981 = DIRECTION('',(-1.,0.,0.));
#982 = DIRECTION('',(0.,-2.2E-16,-1.));
#983 = ADVANCED_FACE('',(#984),#996,.F.);
#984 = FACE_BOUND('',#985,.F.);
#985 = EDGE_LOOP('',(#986,#993,#994,#995));
#986 = ORIENTED_EDGE('',*,*,#987,.F.);
#987 = EDGE_CURVE('',#908,#964,#988,.T.);
#988 = CIRCLE('',#989,2.);
#989 = AXIS2_PLACEMENT_3D('',#990,#991,#992);
#990 = CARTESIAN_POINT('',(-5.65,324.,6.65));
#991 = DIRECTION('',(0.,-1.,0.));
#992 = DIRECTION('',(1.,0.,0.));
#993 = ORIENTED_EDGE('',*,*,#917,.T.);
#994 = ORIENTED_EDGE('',*,*,#234,.T.);
#995 = ORIENTED_EDGE('',*,*,#971,.F.);
#996 = CYLINDRICAL_SURFACE('',#997,2.);
#997 = AXIS2_PLACEMENT_3D('',#998,#999,#1000);
#998 = CARTESIAN_POINT('',(-5.65,324.,6.65));
#999 = DIRECTION('',(0.,-1.,2.2E-16));
#1000 = DIRECTION('',(1.,0.,0.));
#1001 = ADVANCED_FACE('',(#1002,#1065,#1068,#1074,#1080,#1086),#1092,.T.
  );
#1002 = FACE_BOUND('',#1003,.T.);
#1003 = EDGE_LOOP('',(#1004,#1005,#1006,#1007,#1008,#1009,#1017,#1025,
    #1033,#1041,#1049,#1057,#1063,#1064));
#1004 = ORIENTED_EDGE('',*,*,#275,.T.);
#1005 = ORIENTED_EDGE('',*,*,#331,.T.);
#1006 = ORIENTED_EDGE('',*,*,#395,.T.);
#1007 = ORIENTED_EDGE('',*,*,#437,.T.);
#1008 = ORIENTED_EDGE('',*,*,#531,.T.);
#1009 = ORIENTED_EDGE('',*,*,#1010,.F.);
#1010 = EDGE_CURVE('',#1011,#532,#1013,.T.);
#1011 = VERTEX_POINT('',#1012);
#1012 = CARTESIAN_POINT('',(-44.8,324.,-33.));
#1013 = LINE('',#1014,#1015);
#1014 = CARTESIAN_POINT('',(-44.8,324.,-53.));
#1015 = VECTOR('',#1016,1.);
#1016 = DIRECTION('',(0.,0.,1.));
#1017 = ORIENTED_EDGE('',*,*,#1018,.T.);
#1018 = EDGE_CURVE('',#1011,#1019,#1021,.T.);
#1019 = VERTEX_POINT('',#1020);
#1020 = CARTESIAN_POINT('',(-42.3,324.,-33.));
#1021 = LINE('',#1022,#1023);
#1022 = CARTESIAN_POINT('',(-31.72499999998,324.,-33.));
#1023 = VECTOR('',#1024,1.);
#1024 = DIRECTION('',(1.,0.,0.));
#1025 = ORIENTED_EDGE('',*,*,#1026,.T.);
#1026 = EDGE_CURVE('',#1019,#1027,#1029,.T.);
#1027 = VERTEX_POINT('',#1028);
#1028 = CARTESIAN_POINT('',(-42.3,324.,-30.5));
#1029 = LINE('',#1030,#1031);
#1030 = CARTESIAN_POINT('',(-42.3,324.,-53.));
#1031 = VECTOR('',#1032,1.);
#1032 = DIRECTION('',(0.,0.,1.));
#1033 = ORIENTED_EDGE('',*,*,#1034,.F.);
#1034 = EDGE_CURVE('',#1035,#1027,#1037,.T.);
#1035 = VERTEX_POINT('',#1036);
#1036 = CARTESIAN_POINT('',(0.,324.,-30.5));
#1037 = LINE('',#1038,#1039);
#1038 = CARTESIAN_POINT('',(0.,324.,-30.5));
#1039 = VECTOR('',#1040,1.);
#1040 = DIRECTION('',(-1.,-0.,-0.));
#1041 = ORIENTED_EDGE('',*,*,#1042,.F.);
#1042 = EDGE_CURVE('',#1043,#1035,#1045,.T.);
#1043 = VERTEX_POINT('',#1044);
#1044 = CARTESIAN_POINT('',(0.,324.,-33.));
#1045 = LINE('',#1046,#1047);
#1046 = CARTESIAN_POINT('',(0.,324.,-53.));
#1047 = VECTOR('',#1048,1.);
#1048 = DIRECTION('',(0.,0.,1.));
#1049 = ORIENTED_EDGE('',*,*,#1050,.T.);
#1050 = EDGE_CURVE('',#1043,#1051,#1053,.T.);
#1051 = VERTEX_POINT('',#1052);
#1052 = CARTESIAN_POINT('',(2.5,324.,-33.));
#1053 = LINE('',#1054,#1055);
#1054 = CARTESIAN_POINT('',(-9.324999999985,324.,-33.));
#1055 = VECTOR('',#1056,1.);
#1056 = DIRECTION('',(1.,0.,0.));
#1057 = ORIENTED_EDGE('',*,*,#1058,.T.);
#1058 = EDGE_CURVE('',#1051,#347,#1059,.T.);
#1059 = LINE('',#1060,#1061);
#1060 = CARTESIAN_POINT('',(2.5,324.,-53.));
#1061 = VECTOR('',#1062,1.);
#1062 = DIRECTION('',(0.,0.,1.));
#1063 = ORIENTED_EDGE('',*,*,#346,.T.);
#1064 = ORIENTED_EDGE('',*,*,#307,.T.);
#1065 = FACE_BOUND('',#1066,.T.);
#1066 = EDGE_LOOP('',(#1067));
#1067 = ORIENTED_EDGE('',*,*,#882,.F.);
#1068 = FACE_BOUND('',#1069,.T.);
#1069 = EDGE_LOOP('',(#1070,#1071,#1072,#1073));
#1070 = ORIENTED_EDGE('',*,*,#987,.F.);
#1071 = ORIENTED_EDGE('',*,*,#907,.T.);
#1072 = ORIENTED_EDGE('',*,*,#938,.F.);
#1073 = ORIENTED_EDGE('',*,*,#963,.F.);
#1074 = FACE_BOUND('',#1075,.T.);
#1075 = EDGE_LOOP('',(#1076,#1077,#1078,#1079));
#1076 = ORIENTED_EDGE('',*,*,#766,.F.);
#1077 = ORIENTED_EDGE('',*,*,#686,.T.);
#1078 = ORIENTED_EDGE('',*,*,#717,.F.);
#1079 = ORIENTED_EDGE('',*,*,#742,.F.);
#1080 = FACE_BOUND('',#1081,.T.);
#1081 = EDGE_LOOP('',(#1082,#1083,#1084,#1085));
#1082 = ORIENTED_EDGE('',*,*,#668,.F.);
#1083 = ORIENTED_EDGE('',*,*,#588,.T.);
#1084 = ORIENTED_EDGE('',*,*,#619,.F.);
#1085 = ORIENTED_EDGE('',*,*,#644,.F.);
#1086 = FACE_BOUND('',#1087,.T.);
#1087 = EDGE_LOOP('',(#1088,#1089,#1090,#1091));
#1088 = ORIENTED_EDGE('',*,*,#864,.F.);
#1089 = ORIENTED_EDGE('',*,*,#784,.T.);
#1090 = ORIENTED_EDGE('',*,*,#815,.F.);
#1091 = ORIENTED_EDGE('',*,*,#840,.F.);
#1092 = PLANE('',#1093);
#1093 = AXIS2_PLACEMENT_3D('',#1094,#1095,#1096);
#1094 = CARTESIAN_POINT('',(-21.15,324.,-11.20460927664));
#1095 = DIRECTION('',(-0.,-1.,-0.));
#1096 = DIRECTION('',(0.,0.,-1.));
#1097 = ADVANCED_FACE('',(#1098),#1124,.T.);
#1098 = FACE_BOUND('',#1099,.T.);
#1099 = EDGE_LOOP('',(#1100,#1110,#1116,#1117,#1118));
#1100 = ORIENTED_EDGE('',*,*,#1101,.F.);
#1101 = EDGE_CURVE('',#1102,#1104,#1106,.T.);
#1102 = VERTEX_POINT('',#1103);
#1103 = CARTESIAN_POINT('',(2.5,348.25,-53.));
#1104 = VERTEX_POINT('',#1105);
#1105 = CARTESIAN_POINT('',(2.5,324.,-53.));
#1106 = LINE('',#1107,#1108);
#1107 = CARTESIAN_POINT('',(2.5,348.25,-53.));
#1108 = VECTOR('',#1109,1.);
#1109 = DIRECTION('',(0.,-1.,0.));
#1110 = ORIENTED_EDGE('',*,*,#1111,.T.);
#1111 = EDGE_CURVE('',#1102,#355,#1112,.T.);
#1112 = LINE('',#1113,#1114);
#1113 = CARTESIAN_POINT('',(2.5,348.25,-53.));
#1114 = VECTOR('',#1115,1.);
#1115 = DIRECTION('',(0.,0.,1.));
#1116 = ORIENTED_EDGE('',*,*,#354,.T.);
#1117 = ORIENTED_EDGE('',*,*,#1058,.F.);
#1118 = ORIENTED_EDGE('',*,*,#1119,.F.);
#1119 = EDGE_CURVE('',#1104,#1051,#1120,.T.);
#1120 = LINE('',#1121,#1122);
#1121 = CARTESIAN_POINT('',(2.5,324.,-53.));
#1122 = VECTOR('',#1123,1.);
#1123 = DIRECTION('',(0.,0.,1.));
#1124 = PLANE('',#1125);
#1125 = AXIS2_PLACEMENT_3D('',#1126,#1127,#1128);
#1126 = CARTESIAN_POINT('',(2.5,348.25,-53.));
#1127 = DIRECTION('',(1.,0.,0.));
#1128 = DIRECTION('',(0.,-1.,0.));
#1129 = ADVANCED_FACE('',(#1130),#1150,.T.);
#1130 = FACE_BOUND('',#1131,.T.);
#1131 = EDGE_LOOP('',(#1132,#1140,#1146,#1147,#1148,#1149));
#1132 = ORIENTED_EDGE('',*,*,#1133,.F.);
#1133 = EDGE_CURVE('',#1134,#1102,#1136,.T.);
#1134 = VERTEX_POINT('',#1135);
#1135 = CARTESIAN_POINT('',(2.,348.25,-53.));
#1136 = LINE('',#1137,#1138);
#1137 = CARTESIAN_POINT('',(0.,348.25,-53.));
#1138 = VECTOR('',#1139,1.);
#1139 = DIRECTION('',(1.,0.,0.));
#1140 = ORIENTED_EDGE('',*,*,#1141,.T.);
#1141 = EDGE_CURVE('',#1134,#510,#1142,.T.);
#1142 = LINE('',#1143,#1144);
#1143 = CARTESIAN_POINT('',(2.,348.25,-53.));
#1144 = VECTOR('',#1145,1.);
#1145 = DIRECTION('',(0.,0.,1.));
#1146 = ORIENTED_EDGE('',*,*,#509,.F.);
#1147 = ORIENTED_EDGE('',*,*,#411,.T.);
#1148 = ORIENTED_EDGE('',*,*,#362,.T.);
#1149 = ORIENTED_EDGE('',*,*,#1111,.F.);
#1150 = PLANE('',#1151);
#1151 = AXIS2_PLACEMENT_3D('',#1152,#1153,#1154);
#1152 = CARTESIAN_POINT('',(0.,348.25,-53.));
#1153 = DIRECTION('',(0.,1.,0.));
#1154 = DIRECTION('',(1.,0.,0.));
#1155 = ADVANCED_FACE('',(#1156),#1181,.T.);
#1156 = FACE_BOUND('',#1157,.T.);
#1157 = EDGE_LOOP('',(#1158,#1159,#1167,#1175));
#1158 = ORIENTED_EDGE('',*,*,#459,.T.);
#1159 = ORIENTED_EDGE('',*,*,#1160,.F.);
#1160 = EDGE_CURVE('',#1161,#462,#1163,.T.);
#1161 = VERTEX_POINT('',#1162);
#1162 = CARTESIAN_POINT('',(-8.215650382226E-15,350.25,-53.));
#1163 = LINE('',#1164,#1165);
#1164 = CARTESIAN_POINT('',(0.,350.25,-53.));
#1165 = VECTOR('',#1166,1.);
#1166 = DIRECTION('',(0.,0.,1.));
#1167 = ORIENTED_EDGE('',*,*,#1168,.T.);
#1168 = EDGE_CURVE('',#1161,#1169,#1171,.T.);
#1169 = VERTEX_POINT('',#1170);
#1170 = CARTESIAN_POINT('',(0.,370.,-53.));
#1171 = LINE('',#1172,#1173);
#1172 = CARTESIAN_POINT('',(0.,310.,-53.));
#1173 = VECTOR('',#1174,1.);
#1174 = DIRECTION('',(0.,1.,0.));
#1175 = ORIENTED_EDGE('',*,*,#1176,.T.);
#1176 = EDGE_CURVE('',#1169,#460,#1177,.T.);
#1177 = LINE('',#1178,#1179);
#1178 = CARTESIAN_POINT('',(0.,370.,-53.));
#1179 = VECTOR('',#1180,1.);
#1180 = DIRECTION('',(0.,0.,1.));
#1181 = PLANE('',#1182);
#1182 = AXIS2_PLACEMENT_3D('',#1183,#1184,#1185);
#1183 = CARTESIAN_POINT('',(0.,335.254,-30.286));
#1184 = DIRECTION('',(1.,0.,0.));
#1185 = DIRECTION('',(0.,0.,1.));
#1186 = ADVANCED_FACE('',(#1187),#1198,.F.);
#1187 = FACE_BOUND('',#1188,.F.);
#1188 = EDGE_LOOP('',(#1189,#1195,#1196,#1197));
#1189 = ORIENTED_EDGE('',*,*,#1190,.F.);
#1190 = EDGE_CURVE('',#1134,#1161,#1191,.T.);
#1191 = LINE('',#1192,#1193);
#1192 = CARTESIAN_POINT('',(-0.967786671624,351.21778667162,-53.));
#1193 = VECTOR('',#1194,1.);
#1194 = DIRECTION('',(-0.707106781187,0.707106781187,0.));
#1195 = ORIENTED_EDGE('',*,*,#1141,.T.);
#1196 = ORIENTED_EDGE('',*,*,#517,.T.);
#1197 = ORIENTED_EDGE('',*,*,#1160,.F.);
#1198 = PLANE('',#1199);
#1199 = AXIS2_PLACEMENT_3D('',#1200,#1201,#1202);
#1200 = CARTESIAN_POINT('',(1.,349.25,-53.));
#1201 = DIRECTION('',(-0.707106781187,-0.707106781187,0.));
#1202 = DIRECTION('',(0.,0.,1.));
#1203 = ADVANCED_FACE('',(#1204),#1222,.T.);
#1204 = FACE_BOUND('',#1205,.T.);
#1205 = EDGE_LOOP('',(#1206,#1214,#1220,#1221));
#1206 = ORIENTED_EDGE('',*,*,#1207,.T.);
#1207 = EDGE_CURVE('',#1169,#1208,#1210,.T.);
#1208 = VERTEX_POINT('',#1209);
#1209 = CARTESIAN_POINT('',(-42.3,370.,-53.));
#1210 = LINE('',#1211,#1212);
#1211 = CARTESIAN_POINT('',(0.,370.,-53.));
#1212 = VECTOR('',#1213,1.);
#1213 = DIRECTION('',(-1.,-0.,-0.));
#1214 = ORIENTED_EDGE('',*,*,#1215,.T.);
#1215 = EDGE_CURVE('',#1208,#470,#1216,.T.);
#1216 = LINE('',#1217,#1218);
#1217 = CARTESIAN_POINT('',(-42.3,370.,-53.));
#1218 = VECTOR('',#1219,1.);
#1219 = DIRECTION('',(0.,0.,1.));
#1220 = ORIENTED_EDGE('',*,*,#469,.F.);
#1221 = ORIENTED_EDGE('',*,*,#1176,.F.);
#1222 = PLANE('',#1223);
#1223 = AXIS2_PLACEMENT_3D('',#1224,#1225,#1226);
#1224 = CARTESIAN_POINT('',(0.,370.,-53.));
#1225 = DIRECTION('',(0.,1.,0.));
#1226 = DIRECTION('',(0.,0.,1.));
#1227 = ADVANCED_FACE('',(#1228),#1246,.F.);
#1228 = FACE_BOUND('',#1229,.F.);
#1229 = EDGE_LOOP('',(#1230,#1231,#1239,#1245));
#1230 = ORIENTED_EDGE('',*,*,#477,.T.);
#1231 = ORIENTED_EDGE('',*,*,#1232,.F.);
#1232 = EDGE_CURVE('',#1233,#478,#1235,.T.);
#1233 = VERTEX_POINT('',#1234);
#1234 = CARTESIAN_POINT('',(-42.3,350.25,-53.));
#1235 = LINE('',#1236,#1237);
#1236 = CARTESIAN_POINT('',(-42.3,350.25,-53.));
#1237 = VECTOR('',#1238,1.);
#1238 = DIRECTION('',(0.,0.,1.));
#1239 = ORIENTED_EDGE('',*,*,#1240,.T.);
#1240 = EDGE_CURVE('',#1233,#1208,#1241,.T.);
#1241 = LINE('',#1242,#1243);
#1242 = CARTESIAN_POINT('',(-42.3,310.,-53.));
#1243 = VECTOR('',#1244,1.);
#1244 = DIRECTION('',(0.,1.,0.));
#1245 = ORIENTED_EDGE('',*,*,#1215,.T.);
#1246 = PLANE('',#1247);
#1247 = AXIS2_PLACEMENT_3D('',#1248,#1249,#1250);
#1248 = CARTESIAN_POINT('',(-42.3,335.254,-30.286));
#1249 = DIRECTION('',(1.,0.,0.));
#1250 = DIRECTION('',(0.,0.,1.));
#1251 = ADVANCED_FACE('',(#1252),#1270,.T.);
#1252 = FACE_BOUND('',#1253,.F.);
#1253 = EDGE_LOOP('',(#1254,#1262,#1263,#1264));
#1254 = ORIENTED_EDGE('',*,*,#1255,.F.);
#1255 = EDGE_CURVE('',#1233,#1256,#1258,.T.);
#1256 = VERTEX_POINT('',#1257);
#1257 = CARTESIAN_POINT('',(-44.3,348.25,-53.));
#1258 = LINE('',#1259,#1260);
#1259 = CARTESIAN_POINT('',(-41.33221332836,351.21778667163,-53.));
#1260 = VECTOR('',#1261,1.);
#1261 = DIRECTION('',(-0.707106781187,-0.707106781187,0.));
#1262 = ORIENTED_EDGE('',*,*,#1232,.T.);
#1263 = ORIENTED_EDGE('',*,*,#485,.T.);
#1264 = ORIENTED_EDGE('',*,*,#1265,.F.);
#1265 = EDGE_CURVE('',#1256,#486,#1266,.T.);
#1266 = LINE('',#1267,#1268);
#1267 = CARTESIAN_POINT('',(-44.3,348.25,-53.));
#1268 = VECTOR('',#1269,1.);
#1269 = DIRECTION('',(0.,0.,1.));
#1270 = PLANE('',#1271);
#1271 = AXIS2_PLACEMENT_3D('',#1272,#1273,#1274);
#1272 = CARTESIAN_POINT('',(-43.3,349.25,-53.));
#1273 = DIRECTION('',(-0.707106781187,0.707106781187,0.));
#1274 = DIRECTION('',(-0.,-0.,-1.));
#1275 = ADVANCED_FACE('',(#1276),#1296,.T.);
#1276 = FACE_BOUND('',#1277,.T.);
#1277 = EDGE_LOOP('',(#1278,#1286,#1292,#1293,#1294,#1295));
#1278 = ORIENTED_EDGE('',*,*,#1279,.F.);
#1279 = EDGE_CURVE('',#1280,#1256,#1282,.T.);
#1280 = VERTEX_POINT('',#1281);
#1281 = CARTESIAN_POINT('',(-44.8,348.25,-53.));
#1282 = LINE('',#1283,#1284);
#1283 = CARTESIAN_POINT('',(-44.8,348.25,-53.));
#1284 = VECTOR('',#1285,1.);
#1285 = DIRECTION('',(1.,0.,0.));
#1286 = ORIENTED_EDGE('',*,*,#1287,.T.);
#1287 = EDGE_CURVE('',#1280,#550,#1288,.T.);
#1288 = LINE('',#1289,#1290);
#1289 = CARTESIAN_POINT('',(-44.8,348.25,-53.));
#1290 = VECTOR('',#1291,1.);
#1291 = DIRECTION('',(0.,0.,1.));
#1292 = ORIENTED_EDGE('',*,*,#549,.T.);
#1293 = ORIENTED_EDGE('',*,*,#572,.F.);
#1294 = ORIENTED_EDGE('',*,*,#493,.T.);
#1295 = ORIENTED_EDGE('',*,*,#1265,.F.);
#1296 = PLANE('',#1297);
#1297 = AXIS2_PLACEMENT_3D('',#1298,#1299,#1300);
#1298 = CARTESIAN_POINT('',(-44.8,348.25,-53.));
#1299 = DIRECTION('',(0.,1.,0.));
#1300 = DIRECTION('',(1.,0.,0.));
#1301 = ADVANCED_FACE('',(#1302),#1321,.T.);
#1302 = FACE_BOUND('',#1303,.T.);
#1303 = EDGE_LOOP('',(#1304,#1312,#1318,#1319,#1320));
#1304 = ORIENTED_EDGE('',*,*,#1305,.F.);
#1305 = EDGE_CURVE('',#1306,#1280,#1308,.T.);
#1306 = VERTEX_POINT('',#1307);
#1307 = CARTESIAN_POINT('',(-44.8,324.,-53.));
#1308 = LINE('',#1309,#1310);
#1309 = CARTESIAN_POINT('',(-44.8,324.,-53.));
#1310 = VECTOR('',#1311,1.);
#1311 = DIRECTION('',(0.,1.,0.));
#1312 = ORIENTED_EDGE('',*,*,#1313,.T.);
#1313 = EDGE_CURVE('',#1306,#1011,#1314,.T.);
#1314 = LINE('',#1315,#1316);
#1315 = CARTESIAN_POINT('',(-44.8,324.,-53.));
#1316 = VECTOR('',#1317,1.);
#1317 = DIRECTION('',(0.,0.,1.));
#1318 = ORIENTED_EDGE('',*,*,#1010,.T.);
#1319 = ORIENTED_EDGE('',*,*,#557,.T.);
#1320 = ORIENTED_EDGE('',*,*,#1287,.F.);
#1321 = PLANE('',#1322);
#1322 = AXIS2_PLACEMENT_3D('',#1323,#1324,#1325);
#1323 = CARTESIAN_POINT('',(-44.8,324.,-53.));
#1324 = DIRECTION('',(-1.,0.,0.));
#1325 = DIRECTION('',(0.,1.,0.));
#1326 = ADVANCED_FACE('',(#1327),#1391,.T.);
#1327 = FACE_BOUND('',#1328,.T.);
#1328 = EDGE_LOOP('',(#1329,#1330,#1338,#1346,#1352,#1353,#1361,#1369,
    #1377,#1385));
#1329 = ORIENTED_EDGE('',*,*,#1050,.F.);
#1330 = ORIENTED_EDGE('',*,*,#1331,.T.);
#1331 = EDGE_CURVE('',#1043,#1332,#1334,.T.);
#1332 = VERTEX_POINT('',#1333);
#1333 = CARTESIAN_POINT('',(0.,321.5,-33.));
#1334 = LINE('',#1335,#1336);
#1335 = CARTESIAN_POINT('',(0.,326.127,-33.));
#1336 = VECTOR('',#1337,1.);
#1337 = DIRECTION('',(-0.,-1.,-0.));
#1338 = ORIENTED_EDGE('',*,*,#1339,.T.);
#1339 = EDGE_CURVE('',#1332,#1340,#1342,.T.);
#1340 = VERTEX_POINT('',#1341);
#1341 = CARTESIAN_POINT('',(-42.3,321.5,-33.));
#1342 = LINE('',#1343,#1344);
#1343 = CARTESIAN_POINT('',(0.,321.5,-33.));
#1344 = VECTOR('',#1345,1.);
#1345 = DIRECTION('',(-1.,-0.,-0.));
#1346 = ORIENTED_EDGE('',*,*,#1347,.F.);
#1347 = EDGE_CURVE('',#1019,#1340,#1348,.T.);
#1348 = LINE('',#1349,#1350);
#1349 = CARTESIAN_POINT('',(-42.3,326.127,-33.));
#1350 = VECTOR('',#1351,1.);
#1351 = DIRECTION('',(-0.,-1.,-0.));
#1352 = ORIENTED_EDGE('',*,*,#1018,.F.);
#1353 = ORIENTED_EDGE('',*,*,#1354,.F.);
#1354 = EDGE_CURVE('',#1355,#1011,#1357,.T.);
#1355 = VERTEX_POINT('',#1356);
#1356 = CARTESIAN_POINT('',(-58.3,324.,-33.));
#1357 = LINE('',#1358,#1359);
#1358 = CARTESIAN_POINT('',(-29.15,324.,-33.));
#1359 = VECTOR('',#1360,1.);
#1360 = DIRECTION('',(1.,0.,0.));
#1361 = ORIENTED_EDGE('',*,*,#1362,.F.);
#1362 = EDGE_CURVE('',#1363,#1355,#1365,.T.);
#1363 = VERTEX_POINT('',#1364);
#1364 = CARTESIAN_POINT('',(-58.3,310.,-33.));
#1365 = LINE('',#1366,#1367);
#1366 = CARTESIAN_POINT('',(-58.3,317.,-33.));
#1367 = VECTOR('',#1368,1.);
#1368 = DIRECTION('',(0.,1.,0.));
#1369 = ORIENTED_EDGE('',*,*,#1370,.F.);
#1370 = EDGE_CURVE('',#1371,#1363,#1373,.T.);
#1371 = VERTEX_POINT('',#1372);
#1372 = CARTESIAN_POINT('',(16.00000000006,310.,-33.));
#1373 = LINE('',#1374,#1375);
#1374 = CARTESIAN_POINT('',(8.00000000003,310.,-33.));
#1375 = VECTOR('',#1376,1.);
#1376 = DIRECTION('',(-1.,0.,0.));
#1377 = ORIENTED_EDGE('',*,*,#1378,.F.);
#1378 = EDGE_CURVE('',#1379,#1371,#1381,.T.);
#1379 = VERTEX_POINT('',#1380);
#1380 = CARTESIAN_POINT('',(16.00000000006,324.,-33.));
#1381 = LINE('',#1382,#1383);
#1382 = CARTESIAN_POINT('',(16.00000000006,324.,-33.));
#1383 = VECTOR('',#1384,1.);
#1384 = DIRECTION('',(0.,-1.,0.));
#1385 = ORIENTED_EDGE('',*,*,#1386,.F.);
#1386 = EDGE_CURVE('',#1051,#1379,#1387,.T.);
#1387 = LINE('',#1388,#1389);
#1388 = CARTESIAN_POINT('',(-29.15,324.,-33.));
#1389 = VECTOR('',#1390,1.);
#1390 = DIRECTION('',(1.,0.,0.));
#1391 = PLANE('',#1392);
#1392 = AXIS2_PLACEMENT_3D('',#1393,#1394,#1395);
#1393 = CARTESIAN_POINT('',(-21.14999999997,317.,-33.));
#1394 = DIRECTION('',(0.,0.,1.));
#1395 = DIRECTION('',(1.,0.,0.));
#1396 = ADVANCED_FACE('',(#1397),#1407,.T.);
#1397 = FACE_BOUND('',#1398,.T.);
#1398 = EDGE_LOOP('',(#1399,#1400,#1406));
#1399 = ORIENTED_EDGE('',*,*,#1042,.T.);
#1400 = ORIENTED_EDGE('',*,*,#1401,.F.);
#1401 = EDGE_CURVE('',#1332,#1035,#1402,.T.);
#1402 = LINE('',#1403,#1404);
#1403 = CARTESIAN_POINT('',(0.,326.242,-28.258));
#1404 = VECTOR('',#1405,1.);
#1405 = DIRECTION('',(0.,0.707106781187,0.707106781187));
#1406 = ORIENTED_EDGE('',*,*,#1331,.F.);
#1407 = PLANE('',#1408);
#1408 = AXIS2_PLACEMENT_3D('',#1409,#1410,#1411);
#1409 = CARTESIAN_POINT('',(0.,335.254,-30.286));
#1410 = DIRECTION('',(1.,0.,0.));
#1411 = DIRECTION('',(0.,0.,1.));
#1412 = ADVANCED_FACE('',(#1413),#1424,.F.);
#1413 = FACE_BOUND('',#1414,.F.);
#1414 = EDGE_LOOP('',(#1415,#1416,#1417,#1423));
#1415 = ORIENTED_EDGE('',*,*,#1401,.F.);
#1416 = ORIENTED_EDGE('',*,*,#1339,.T.);
#1417 = ORIENTED_EDGE('',*,*,#1418,.T.);
#1418 = EDGE_CURVE('',#1340,#1027,#1419,.T.);
#1419 = LINE('',#1420,#1421);
#1420 = CARTESIAN_POINT('',(-42.3,326.242,-28.258));
#1421 = VECTOR('',#1422,1.);
#1422 = DIRECTION('',(0.,0.707106781187,0.707106781187));
#1423 = ORIENTED_EDGE('',*,*,#1034,.F.);
#1424 = PLANE('',#1425);
#1425 = AXIS2_PLACEMENT_3D('',#1426,#1427,#1428);
#1426 = CARTESIAN_POINT('',(0.,322.75,-31.75));
#1427 = DIRECTION('',(0.,0.707106781187,-0.707106781187));
#1428 = DIRECTION('',(-1.,0.,0.));
#1429 = ADVANCED_FACE('',(#1430),#1435,.F.);
#1430 = FACE_BOUND('',#1431,.F.);
#1431 = EDGE_LOOP('',(#1432,#1433,#1434));
#1432 = ORIENTED_EDGE('',*,*,#1026,.T.);
#1433 = ORIENTED_EDGE('',*,*,#1418,.F.);
#1434 = ORIENTED_EDGE('',*,*,#1347,.F.);
#1435 = PLANE('',#1436);
#1436 = AXIS2_PLACEMENT_3D('',#1437,#1438,#1439);
#1437 = CARTESIAN_POINT('',(-42.3,335.254,-30.286));
#1438 = DIRECTION('',(1.,0.,0.));
#1439 = DIRECTION('',(0.,0.,1.));
#1440 = ADVANCED_FACE('',(#1441),#1490,.T.);
#1441 = FACE_BOUND('',#1442,.T.);
#1442 = EDGE_LOOP('',(#1443,#1444,#1445,#1453,#1461,#1469,#1477,#1483,
    #1484,#1485,#1486,#1487,#1488,#1489));
#1443 = ORIENTED_EDGE('',*,*,#1133,.T.);
#1444 = ORIENTED_EDGE('',*,*,#1101,.T.);
#1445 = ORIENTED_EDGE('',*,*,#1446,.T.);
#1446 = EDGE_CURVE('',#1104,#1447,#1449,.T.);
#1447 = VERTEX_POINT('',#1448);
#1448 = CARTESIAN_POINT('',(16.00000000006,324.,-53.));
#1449 = LINE('',#1450,#1451);
#1450 = CARTESIAN_POINT('',(-58.3,324.,-53.));
#1451 = VECTOR('',#1452,1.);
#1452 = DIRECTION('',(1.,0.,0.));
#1453 = ORIENTED_EDGE('',*,*,#1454,.T.);
#1454 = EDGE_CURVE('',#1447,#1455,#1457,.T.);
#1455 = VERTEX_POINT('',#1456);
#1456 = CARTESIAN_POINT('',(16.00000000006,310.,-53.));
#1457 = LINE('',#1458,#1459);
#1458 = CARTESIAN_POINT('',(16.00000000006,324.,-53.));
#1459 = VECTOR('',#1460,1.);
#1460 = DIRECTION('',(0.,-1.,0.));
#1461 = ORIENTED_EDGE('',*,*,#1462,.T.);
#1462 = EDGE_CURVE('',#1455,#1463,#1465,.T.);
#1463 = VERTEX_POINT('',#1464);
#1464 = CARTESIAN_POINT('',(-58.3,310.,-53.));
#1465 = LINE('',#1466,#1467);
#1466 = CARTESIAN_POINT('',(16.00000000006,310.,-53.));
#1467 = VECTOR('',#1468,1.);
#1468 = DIRECTION('',(-1.,0.,0.));
#1469 = ORIENTED_EDGE('',*,*,#1470,.T.);
#1470 = EDGE_CURVE('',#1463,#1471,#1473,.T.);
#1471 = VERTEX_POINT('',#1472);
#1472 = CARTESIAN_POINT('',(-58.3,324.,-53.));
#1473 = LINE('',#1474,#1475);
#1474 = CARTESIAN_POINT('',(-58.3,310.,-53.));
#1475 = VECTOR('',#1476,1.);
#1476 = DIRECTION('',(0.,1.,0.));
#1477 = ORIENTED_EDGE('',*,*,#1478,.T.);
#1478 = EDGE_CURVE('',#1471,#1306,#1479,.T.);
#1479 = LINE('',#1480,#1481);
#1480 = CARTESIAN_POINT('',(-58.3,324.,-53.));
#1481 = VECTOR('',#1482,1.);
#1482 = DIRECTION('',(1.,0.,0.));
#1483 = ORIENTED_EDGE('',*,*,#1305,.T.);
#1484 = ORIENTED_EDGE('',*,*,#1279,.T.);
#1485 = ORIENTED_EDGE('',*,*,#1255,.F.);
#1486 = ORIENTED_EDGE('',*,*,#1240,.T.);
#1487 = ORIENTED_EDGE('',*,*,#1207,.F.);
#1488 = ORIENTED_EDGE('',*,*,#1168,.F.);
#1489 = ORIENTED_EDGE('',*,*,#1190,.F.);
#1490 = PLANE('',#1491);
#1491 = AXIS2_PLACEMENT_3D('',#1492,#1493,#1494);
#1492 = CARTESIAN_POINT('',(-21.14999999998,334.97114668651,-53.));
#1493 = DIRECTION('',(-0.,-0.,-1.));
#1494 = DIRECTION('',(-1.,0.,0.));
#1495 = ADVANCED_FACE('',(#1496,#1507),#1518,.T.);
#1496 = FACE_BOUND('',#1497,.T.);
#1497 = EDGE_LOOP('',(#1498,#1499,#1500,#1501));
#1498 = ORIENTED_EDGE('',*,*,#1446,.F.);
#1499 = ORIENTED_EDGE('',*,*,#1119,.T.);
#1500 = ORIENTED_EDGE('',*,*,#1386,.T.);
#1501 = ORIENTED_EDGE('',*,*,#1502,.F.);
#1502 = EDGE_CURVE('',#1447,#1379,#1503,.T.);
#1503 = LINE('',#1504,#1505);
#1504 = CARTESIAN_POINT('',(16.00000000006,324.,-53.));
#1505 = VECTOR('',#1506,1.);
#1506 = DIRECTION('',(0.,0.,1.));
#1507 = FACE_BOUND('',#1508,.T.);
#1508 = EDGE_LOOP('',(#1509));
#1509 = ORIENTED_EDGE('',*,*,#1510,.F.);
#1510 = EDGE_CURVE('',#1511,#1511,#1513,.T.);
#1511 = VERTEX_POINT('',#1512);
#1512 = CARTESIAN_POINT('',(13.00000000003,324.,-43.));
#1513 = CIRCLE('',#1514,5.);
#1514 = AXIS2_PLACEMENT_3D('',#1515,#1516,#1517);
#1515 = CARTESIAN_POINT('',(8.00000000003,324.,-43.));
#1516 = DIRECTION('',(0.,1.,-2.2E-16));
#1517 = DIRECTION('',(1.,0.,0.));
#1518 = PLANE('',#1519);
#1519 = AXIS2_PLACEMENT_3D('',#1520,#1521,#1522);
#1520 = CARTESIAN_POINT('',(-58.3,324.,-53.));
#1521 = DIRECTION('',(0.,1.,0.));
#1522 = DIRECTION('',(1.,0.,0.));
#1523 = ADVANCED_FACE('',(#1524,#1535),#1546,.T.);
#1524 = FACE_BOUND('',#1525,.T.);
#1525 = EDGE_LOOP('',(#1526,#1527,#1533,#1534));
#1526 = ORIENTED_EDGE('',*,*,#1478,.F.);
#1527 = ORIENTED_EDGE('',*,*,#1528,.T.);
#1528 = EDGE_CURVE('',#1471,#1355,#1529,.T.);
#1529 = LINE('',#1530,#1531);
#1530 = CARTESIAN_POINT('',(-58.3,324.,-53.));
#1531 = VECTOR('',#1532,1.);
#1532 = DIRECTION('',(0.,0.,1.));
#1533 = ORIENTED_EDGE('',*,*,#1354,.T.);
#1534 = ORIENTED_EDGE('',*,*,#1313,.F.);
#1535 = FACE_BOUND('',#1536,.T.);
#1536 = EDGE_LOOP('',(#1537));
#1537 = ORIENTED_EDGE('',*,*,#1538,.F.);
#1538 = EDGE_CURVE('',#1539,#1539,#1541,.T.);
#1539 = VERTEX_POINT('',#1540);
#1540 = CARTESIAN_POINT('',(-45.3,324.,-43.));
#1541 = CIRCLE('',#1542,5.);
#1542 = AXIS2_PLACEMENT_3D('',#1543,#1544,#1545);
#1543 = CARTESIAN_POINT('',(-50.3,324.,-43.));
#1544 = DIRECTION('',(0.,1.,-2.2E-16));
#1545 = DIRECTION('',(1.,0.,0.));
#1546 = PLANE('',#1547);
#1547 = AXIS2_PLACEMENT_3D('',#1548,#1549,#1550);
#1548 = CARTESIAN_POINT('',(-58.3,324.,-53.));
#1549 = DIRECTION('',(0.,1.,0.));
#1550 = DIRECTION('',(1.,0.,0.));
#1551 = ADVANCED_FACE('',(#1552),#1563,.T.);
#1552 = FACE_BOUND('',#1553,.T.);
#1553 = EDGE_LOOP('',(#1554,#1555,#1556,#1557));
#1554 = ORIENTED_EDGE('',*,*,#1454,.F.);
#1555 = ORIENTED_EDGE('',*,*,#1502,.T.);
#1556 = ORIENTED_EDGE('',*,*,#1378,.T.);
#1557 = ORIENTED_EDGE('',*,*,#1558,.F.);
#1558 = EDGE_CURVE('',#1455,#1371,#1559,.T.);
#1559 = LINE('',#1560,#1561);
#1560 = CARTESIAN_POINT('',(16.00000000006,310.,-53.));
#1561 = VECTOR('',#1562,1.);
#1562 = DIRECTION('',(0.,0.,1.));
#1563 = PLANE('',#1564);
#1564 = AXIS2_PLACEMENT_3D('',#1565,#1566,#1567);
#1565 = CARTESIAN_POINT('',(16.00000000006,324.,-53.));
#1566 = DIRECTION('',(1.,0.,0.));
#1567 = DIRECTION('',(0.,-1.,0.));
#1568 = ADVANCED_FACE('',(#1569,#1580,#1591),#1602,.T.);
#1569 = FACE_BOUND('',#1570,.T.);
#1570 = EDGE_LOOP('',(#1571,#1572,#1578,#1579));
#1571 = ORIENTED_EDGE('',*,*,#1370,.T.);
#1572 = ORIENTED_EDGE('',*,*,#1573,.F.);
#1573 = EDGE_CURVE('',#1463,#1363,#1574,.T.);
#1574 = LINE('',#1575,#1576);
#1575 = CARTESIAN_POINT('',(-58.3,310.,-53.));
#1576 = VECTOR('',#1577,1.);
#1577 = DIRECTION('',(0.,0.,1.));
#1578 = ORIENTED_EDGE('',*,*,#1462,.F.);
#1579 = ORIENTED_EDGE('',*,*,#1558,.T.);
#1580 = FACE_BOUND('',#1581,.T.);
#1581 = EDGE_LOOP('',(#1582));
#1582 = ORIENTED_EDGE('',*,*,#1583,.F.);
#1583 = EDGE_CURVE('',#1584,#1584,#1586,.T.);
#1584 = VERTEX_POINT('',#1585);
#1585 = CARTESIAN_POINT('',(-47.55,310.,-43.));
#1586 = CIRCLE('',#1587,2.75);
#1587 = AXIS2_PLACEMENT_3D('',#1588,#1589,#1590);
#1588 = CARTESIAN_POINT('',(-50.3,310.,-43.));
#1589 = DIRECTION('',(0.,-1.,2.2E-16));
#1590 = DIRECTION('',(1.,0.,0.));
#1591 = FACE_BOUND('',#1592,.T.);
#1592 = EDGE_LOOP('',(#1593));
#1593 = ORIENTED_EDGE('',*,*,#1594,.F.);
#1594 = EDGE_CURVE('',#1595,#1595,#1597,.T.);
#1595 = VERTEX_POINT('',#1596);
#1596 = CARTESIAN_POINT('',(10.75000000003,310.,-43.));
#1597 = CIRCLE('',#1598,2.75);
#1598 = AXIS2_PLACEMENT_3D('',#1599,#1600,#1601);
#1599 = CARTESIAN_POINT('',(8.00000000003,310.,-43.));
#1600 = DIRECTION('',(0.,-1.,2.2E-16));
#1601 = DIRECTION('',(1.,0.,0.));
#1602 = PLANE('',#1603);
#1603 = AXIS2_PLACEMENT_3D('',#1604,#1605,#1606);
#1604 = CARTESIAN_POINT('',(-21.14999999997,310.,-43.));
#1605 = DIRECTION('',(-0.,-1.,-0.));
#1606 = DIRECTION('',(0.,0.,-1.));
#1607 = ADVANCED_FACE('',(#1608),#1614,.T.);
#1608 = FACE_BOUND('',#1609,.T.);
#1609 = EDGE_LOOP('',(#1610,#1611,#1612,#1613));
#1610 = ORIENTED_EDGE('',*,*,#1470,.F.);
#1611 = ORIENTED_EDGE('',*,*,#1573,.T.);
#1612 = ORIENTED_EDGE('',*,*,#1362,.T.);
#1613 = ORIENTED_EDGE('',*,*,#1528,.F.);
#1614 = PLANE('',#1615);
#1615 = AXIS2_PLACEMENT_3D('',#1616,#1617,#1618);
#1616 = CARTESIAN_POINT('',(-58.3,310.,-53.));
#1617 = DIRECTION('',(-1.,0.,0.));
#1618 = DIRECTION('',(0.,1.,0.));
#1619 = ADVANCED_FACE('',(#1620),#1639,.F.);
#1620 = FACE_BOUND('',#1621,.T.);
#1621 = EDGE_LOOP('',(#1622,#1630,#1631,#1632));
#1622 = ORIENTED_EDGE('',*,*,#1623,.F.);
#1623 = EDGE_CURVE('',#1511,#1624,#1626,.T.);
#1624 = VERTEX_POINT('',#1625);
#1625 = CARTESIAN_POINT('',(13.00000000003,318.6,-43.));
#1626 = LINE('',#1627,#1628);
#1627 = CARTESIAN_POINT('',(13.00000000003,324.,-43.));
#1628 = VECTOR('',#1629,1.);
#1629 = DIRECTION('',(0.,-1.,2.2E-16));
#1630 = ORIENTED_EDGE('',*,*,#1510,.T.);
#1631 = ORIENTED_EDGE('',*,*,#1623,.T.);
#1632 = ORIENTED_EDGE('',*,*,#1633,.F.);
#1633 = EDGE_CURVE('',#1624,#1624,#1634,.T.);
#1634 = CIRCLE('',#1635,5.);
#1635 = AXIS2_PLACEMENT_3D('',#1636,#1637,#1638);
#1636 = CARTESIAN_POINT('',(8.00000000003,318.6,-43.));
#1637 = DIRECTION('',(0.,1.,-2.2E-16));
#1638 = DIRECTION('',(1.,0.,0.));
#1639 = CYLINDRICAL_SURFACE('',#1640,5.);
#1640 = AXIS2_PLACEMENT_3D('',#1641,#1642,#1643);
#1641 = CARTESIAN_POINT('',(8.00000000003,324.,-43.));
#1642 = DIRECTION('',(0.,-1.,2.2E-16));
#1643 = DIRECTION('',(1.,0.,0.));
#1644 = ADVANCED_FACE('',(#1645),#1664,.F.);
#1645 = FACE_BOUND('',#1646,.T.);
#1646 = EDGE_LOOP('',(#1647,#1655,#1656,#1657));
#1647 = ORIENTED_EDGE('',*,*,#1648,.F.);
#1648 = EDGE_CURVE('',#1539,#1649,#1651,.T.);
#1649 = VERTEX_POINT('',#1650);
#1650 = CARTESIAN_POINT('',(-45.3,318.6,-43.));
#1651 = LINE('',#1652,#1653);
#1652 = CARTESIAN_POINT('',(-45.3,324.,-43.));
#1653 = VECTOR('',#1654,1.);
#1654 = DIRECTION('',(0.,-1.,2.2E-16));
#1655 = ORIENTED_EDGE('',*,*,#1538,.T.);
#1656 = ORIENTED_EDGE('',*,*,#1648,.T.);
#1657 = ORIENTED_EDGE('',*,*,#1658,.F.);
#1658 = EDGE_CURVE('',#1649,#1649,#1659,.T.);
#1659 = CIRCLE('',#1660,5.);
#1660 = AXIS2_PLACEMENT_3D('',#1661,#1662,#1663);
#1661 = CARTESIAN_POINT('',(-50.3,318.6,-43.));
#1662 = DIRECTION('',(0.,1.,-2.2E-16));
#1663 = DIRECTION('',(1.,0.,0.));
#1664 = CYLINDRICAL_SURFACE('',#1665,5.);
#1665 = AXIS2_PLACEMENT_3D('',#1666,#1667,#1668);
#1666 = CARTESIAN_POINT('',(-50.3,324.,-43.));
#1667 = DIRECTION('',(0.,-1.,2.2E-16));
#1668 = DIRECTION('',(1.,0.,0.));
#1669 = ADVANCED_FACE('',(#1670),#1689,.F.);
#1670 = FACE_BOUND('',#1671,.T.);
#1671 = EDGE_LOOP('',(#1672,#1680,#1687,#1688));
#1672 = ORIENTED_EDGE('',*,*,#1673,.F.);
#1673 = EDGE_CURVE('',#1674,#1584,#1676,.T.);
#1674 = VERTEX_POINT('',#1675);
#1675 = CARTESIAN_POINT('',(-47.55,318.6,-43.));
#1676 = LINE('',#1677,#1678);
#1677 = CARTESIAN_POINT('',(-47.55,318.6,-43.));
#1678 = VECTOR('',#1679,1.);
#1679 = DIRECTION('',(-4.E-17,-1.,2.2E-16));
#1680 = ORIENTED_EDGE('',*,*,#1681,.T.);
#1681 = EDGE_CURVE('',#1674,#1674,#1682,.T.);
#1682 = CIRCLE('',#1683,2.75);
#1683 = AXIS2_PLACEMENT_3D('',#1684,#1685,#1686);
#1684 = CARTESIAN_POINT('',(-50.3,318.6,-43.));
#1685 = DIRECTION('',(0.,1.,-2.2E-16));
#1686 = DIRECTION('',(1.,0.,0.));
#1687 = ORIENTED_EDGE('',*,*,#1673,.T.);
#1688 = ORIENTED_EDGE('',*,*,#1583,.T.);
#1689 = CYLINDRICAL_SURFACE('',#1690,2.75);
#1690 = AXIS2_PLACEMENT_3D('',#1691,#1692,#1693);
#1691 = CARTESIAN_POINT('',(-50.3,318.6,-43.));
#1692 = DIRECTION('',(0.,-1.,2.2E-16));
#1693 = DIRECTION('',(1.,0.,0.));
#1694 = ADVANCED_FACE('',(#1695),#1714,.F.);
#1695 = FACE_BOUND('',#1696,.T.);
#1696 = EDGE_LOOP('',(#1697,#1705,#1712,#1713));
#1697 = ORIENTED_EDGE('',*,*,#1698,.F.);
#1698 = EDGE_CURVE('',#1699,#1595,#1701,.T.);
#1699 = VERTEX_POINT('',#1700);
#1700 = CARTESIAN_POINT('',(10.75000000003,318.6,-43.));
#1701 = LINE('',#1702,#1703);
#1702 = CARTESIAN_POINT('',(10.75000000003,318.6,-43.));
#1703 = VECTOR('',#1704,1.);
#1704 = DIRECTION('',(-4.E-17,-1.,2.2E-16));
#1705 = ORIENTED_EDGE('',*,*,#1706,.T.);
#1706 = EDGE_CURVE('',#1699,#1699,#1707,.T.);
#1707 = CIRCLE('',#1708,2.75);
#1708 = AXIS2_PLACEMENT_3D('',#1709,#1710,#1711);
#1709 = CARTESIAN_POINT('',(8.00000000003,318.6,-43.));
#1710 = DIRECTION('',(0.,1.,-2.2E-16));
#1711 = DIRECTION('',(1.,0.,0.));
#1712 = ORIENTED_EDGE('',*,*,#1698,.T.);
#1713 = ORIENTED_EDGE('',*,*,#1594,.T.);
#1714 = CYLINDRICAL_SURFACE('',#1715,2.75);
#1715 = AXIS2_PLACEMENT_3D('',#1716,#1717,#1718);
#1716 = CARTESIAN_POINT('',(8.00000000003,318.6,-43.));
#1717 = DIRECTION('',(0.,-1.,2.2E-16));
#1718 = DIRECTION('',(1.,0.,0.));
#1719 = ADVANCED_FACE('',(#1720,#1723),#1726,.T.);
#1720 = FACE_BOUND('',#1721,.T.);
#1721 = EDGE_LOOP('',(#1722));
#1722 = ORIENTED_EDGE('',*,*,#1633,.T.);
#1723 = FACE_BOUND('',#1724,.T.);
#1724 = EDGE_LOOP('',(#1725));
#1725 = ORIENTED_EDGE('',*,*,#1706,.F.);
#1726 = PLANE('',#1727);
#1727 = AXIS2_PLACEMENT_3D('',#1728,#1729,#1730);
#1728 = CARTESIAN_POINT('',(8.00000000003,318.6,-43.));
#1729 = DIRECTION('',(0.,1.,-2.2E-16));
#1730 = DIRECTION('',(1.,0.,0.));
#1731 = ADVANCED_FACE('',(#1732,#1735),#1738,.T.);
#1732 = FACE_BOUND('',#1733,.T.);
#1733 = EDGE_LOOP('',(#1734));
#1734 = ORIENTED_EDGE('',*,*,#1658,.T.);
#1735 = FACE_BOUND('',#1736,.T.);
#1736 = EDGE_LOOP('',(#1737));
#1737 = ORIENTED_EDGE('',*,*,#1681,.F.);
#1738 = PLANE('',#1739);
#1739 = AXIS2_PLACEMENT_3D('',#1740,#1741,#1742);
#1740 = CARTESIAN_POINT('',(-50.3,318.6,-43.));
#1741 = DIRECTION('',(0.,1.,-2.2E-16));
#1742 = DIRECTION('',(1.,0.,0.));
#1743 = ( GEOMETRIC_REPRESENTATION_CONTEXT(3) 
GLOBAL_UNCERTAINTY_ASSIGNED_CONTEXT((#1747)) 
GLOBAL_UNIT_ASSIGNED_CONTEXT((#1744,#1745,#1746)) REPRESENTATION_CONTEXT
('Context #1','3D Context with UNIT and UNCERTAINTY') );
#1744 = ( LENGTH_UNIT() NAMED_UNIT(*) SI_UNIT(.MILLI.,.METRE.) );
#1745 = ( NAMED_UNIT(*) PLANE_ANGLE_UNIT() SI_UNIT($,.RADIAN.) );
#1746 = ( NAMED_UNIT(*) SI_UNIT($,.STERADIAN.) SOLID_ANGLE_UNIT() );
#1747 = UNCERTAINTY_MEASURE_WITH_UNIT(LENGTH_MEASURE(2.E-05),#1744,
  'distance_accuracy_value','confusion accuracy');
#1748 = PRODUCT_RELATED_PRODUCT_CATEGORY('part',$,(#7));
#1749 = MECHANICAL_DESIGN_GEOMETRIC_PRESENTATION_REPRESENTATION('',(
    #1750),#1743);
#1750 = STYLED_ITEM('color',(#1751),#15);
#1751 = PRESENTATION_STYLE_ASSIGNMENT((#1752,#1758));
#1752 = SURFACE_STYLE_USAGE(.BOTH.,#1753);
#1753 = SURFACE_SIDE_STYLE('',(#1754));
#1754 = SURFACE_STYLE_FILL_AREA(#1755);
#1755 = FILL_AREA_STYLE('',(#1756));
#1756 = FILL_AREA_STYLE_COLOUR('',#1757);
#1757 = COLOUR_RGB('',0.447058818107,0.474509808674,0.501960817233);
#1758 = CURVE_STYLE('',#1759,POSITIVE_LENGTH_MEASURE(0.1),#1760);
#1759 = DRAUGHTING_PRE_DEFINED_CURVE_FONT('continuous');
#1760 = COLOUR_RGB('',9.803921802644E-02,9.803921802644E-02,
  9.803921802644E-02);
ENDSEC;
END-ISO-10303-21;
