ISO-10303-21;
HEADER;
FILE_DESCRIPTION(('FreeCAD Model'),'2;1');
FILE_NAME('Open CASCADE Shape Model','2026-02-27T15:18:13',(''),(''),
  'Open CASCADE STEP processor 7.9','FreeCAD','Unknown');
FILE_SCHEMA(('AUTOMOTIVE_DESIGN { 1 0 10303 214 1 1 1 1 }'));
ENDSEC;
DATA;
#1 = APPLICATION_PROTOCOL_DEFINITION('international standard',
  'automotive_design',2000,#2);
#2 = APPLICATION_CONTEXT(
  'core data for automotive mechanical design processes');
#3 = SHAPE_DEFINITION_REPRESENTATION(#4,#10);
#4 = PRODUCT_DEFINITION_SHAPE('','',#5);
#5 = PRODUCT_DEFINITION('design','',#6,#9);
#6 = PRODUCT_DEFINITION_FORMATION('','',#7);
#7 = PRODUCT('Servo to pot','Servo to pot','',(#8));
#8 = PRODUCT_CONTEXT('',#2,'mechanical');
#9 = PRODUCT_DEFINITION_CONTEXT('part definition',#2,'design');
#10 = ADVANCED_BREP_SHAPE_REPRESENTATION('',(#11,#15),#695);
#11 = AXIS2_PLACEMENT_3D('',#12,#13,#14);
#12 = CARTESIAN_POINT('',(0.,0.,0.));
#13 = DIRECTION('',(0.,0.,1.));
#14 = DIRECTION('',(1.,0.,-0.));
#15 = MANIFOLD_SOLID_BREP('',#16);
#16 = CLOSED_SHELL('',(#17,#82,#113,#137,#161,#185,#259,#276,#348,#384,
    #415,#471,#488,#611,#628,#645,#657,#677));
#17 = ADVANCED_FACE('',(#18),#77,.F.);
#18 = FACE_BOUND('',#19,.F.);
#19 = EDGE_LOOP('',(#20,#30,#38,#46,#55,#63,#71));
#20 = ORIENTED_EDGE('',*,*,#21,.T.);
#21 = EDGE_CURVE('',#22,#24,#26,.T.);
#22 = VERTEX_POINT('',#23);
#23 = CARTESIAN_POINT('',(-9.950000000002,2.000000000001,4.));
#24 = VERTEX_POINT('',#25);
#25 = CARTESIAN_POINT('',(-3.45,2.000000000001,4.));
#26 = LINE('',#27,#28);
#27 = CARTESIAN_POINT('',(-9.950000000002,2.000000000001,4.));
#28 = VECTOR('',#29,1.);
#29 = DIRECTION('',(1.,0.,0.));
#30 = ORIENTED_EDGE('',*,*,#31,.T.);
#31 = EDGE_CURVE('',#24,#32,#34,.T.);
#32 = VERTEX_POINT('',#33);
#33 = CARTESIAN_POINT('',(-3.45,10.908712114636,4.));
#34 = LINE('',#35,#36);
#35 = CARTESIAN_POINT('',(-3.45,2.000000000001,4.));
#36 = VECTOR('',#37,1.);
#37 = DIRECTION('',(0.,1.,0.));
#38 = ORIENTED_EDGE('',*,*,#39,.F.);
#39 = EDGE_CURVE('',#40,#32,#42,.T.);
#40 = VERTEX_POINT('',#41);
#41 = CARTESIAN_POINT('',(-5.,10.908712114636,4.));
#42 = LINE('',#43,#44);
#43 = CARTESIAN_POINT('',(-2.5,10.908712114636,4.));
#44 = VECTOR('',#45,1.);
#45 = DIRECTION('',(1.,0.,0.));
#46 = ORIENTED_EDGE('',*,*,#47,.T.);
#47 = EDGE_CURVE('',#40,#48,#50,.T.);
#48 = VERTEX_POINT('',#49);
#49 = CARTESIAN_POINT('',(-3.449999999997,-11.49336765269,4.));
#50 = CIRCLE('',#51,12.);
#51 = AXIS2_PLACEMENT_3D('',#52,#53,#54);
#52 = CARTESIAN_POINT('',(0.,0.,4.));
#53 = DIRECTION('',(0.,0.,1.));
#54 = DIRECTION('',(1.,0.,0.));
#55 = ORIENTED_EDGE('',*,*,#56,.T.);
#56 = EDGE_CURVE('',#48,#57,#59,.T.);
#57 = VERTEX_POINT('',#58);
#58 = CARTESIAN_POINT('',(-3.449999999997,-1.999999999998,4.));
#59 = LINE('',#60,#61);
#60 = CARTESIAN_POINT('',(-3.449999999997,-18.24999999999,4.));
#61 = VECTOR('',#62,1.);
#62 = DIRECTION('',(0.,1.,0.));
#63 = ORIENTED_EDGE('',*,*,#64,.T.);
#64 = EDGE_CURVE('',#57,#65,#67,.T.);
#65 = VERTEX_POINT('',#66);
#66 = CARTESIAN_POINT('',(-9.950000000002,-1.999999999998,4.));
#67 = LINE('',#68,#69);
#68 = CARTESIAN_POINT('',(-3.449999999997,-1.999999999998,4.));
#69 = VECTOR('',#70,1.);
#70 = DIRECTION('',(-1.,0.,0.));
#71 = ORIENTED_EDGE('',*,*,#72,.T.);
#72 = EDGE_CURVE('',#65,#22,#73,.T.);
#73 = LINE('',#74,#75);
#74 = CARTESIAN_POINT('',(-9.950000000002,-1.999999999998,4.));
#75 = VECTOR('',#76,1.);
#76 = DIRECTION('',(0.,1.,0.));
#77 = PLANE('',#78);
#78 = AXIS2_PLACEMENT_3D('',#79,#80,#81);
#79 = CARTESIAN_POINT('',(-6.837200662697E-16,-3.40453421458E-17,4.));
#80 = DIRECTION('',(0.,0.,1.));
#81 = DIRECTION('',(1.,0.,0.));
#82 = ADVANCED_FACE('',(#83),#108,.F.);
#83 = FACE_BOUND('',#84,.F.);
#84 = EDGE_LOOP('',(#85,#86,#94,#102));
#85 = ORIENTED_EDGE('',*,*,#21,.F.);
#86 = ORIENTED_EDGE('',*,*,#87,.T.);
#87 = EDGE_CURVE('',#22,#88,#90,.T.);
#88 = VERTEX_POINT('',#89);
#89 = CARTESIAN_POINT('',(-9.950000000002,2.000000000001,8.));
#90 = LINE('',#91,#92);
#91 = CARTESIAN_POINT('',(-9.950000000002,2.000000000001,0.));
#92 = VECTOR('',#93,1.);
#93 = DIRECTION('',(0.,0.,1.));
#94 = ORIENTED_EDGE('',*,*,#95,.T.);
#95 = EDGE_CURVE('',#88,#96,#98,.T.);
#96 = VERTEX_POINT('',#97);
#97 = CARTESIAN_POINT('',(-3.45,2.000000000001,8.));
#98 = LINE('',#99,#100);
#99 = CARTESIAN_POINT('',(-9.950000000002,2.000000000001,8.));
#100 = VECTOR('',#101,1.);
#101 = DIRECTION('',(1.,0.,0.));
#102 = ORIENTED_EDGE('',*,*,#103,.F.);
#103 = EDGE_CURVE('',#24,#96,#104,.T.);
#104 = LINE('',#105,#106);
#105 = CARTESIAN_POINT('',(-3.45,2.000000000001,0.));
#106 = VECTOR('',#107,1.);
#107 = DIRECTION('',(0.,0.,1.));
#108 = PLANE('',#109);
#109 = AXIS2_PLACEMENT_3D('',#110,#111,#112);
#110 = CARTESIAN_POINT('',(-9.950000000002,2.000000000001,0.));
#111 = DIRECTION('',(0.,1.,0.));
#112 = DIRECTION('',(1.,0.,0.));
#113 = ADVANCED_FACE('',(#114),#132,.F.);
#114 = FACE_BOUND('',#115,.F.);
#115 = EDGE_LOOP('',(#116,#117,#125,#131));
#116 = ORIENTED_EDGE('',*,*,#72,.F.);
#117 = ORIENTED_EDGE('',*,*,#118,.T.);
#118 = EDGE_CURVE('',#65,#119,#121,.T.);
#119 = VERTEX_POINT('',#120);
#120 = CARTESIAN_POINT('',(-9.950000000002,-1.999999999998,8.));
#121 = LINE('',#122,#123);
#122 = CARTESIAN_POINT('',(-9.950000000002,-1.999999999998,0.));
#123 = VECTOR('',#124,1.);
#124 = DIRECTION('',(0.,0.,1.));
#125 = ORIENTED_EDGE('',*,*,#126,.T.);
#126 = EDGE_CURVE('',#119,#88,#127,.T.);
#127 = LINE('',#128,#129);
#128 = CARTESIAN_POINT('',(-9.950000000002,-1.999999999998,8.));
#129 = VECTOR('',#130,1.);
#130 = DIRECTION('',(0.,1.,0.));
#131 = ORIENTED_EDGE('',*,*,#87,.F.);
#132 = PLANE('',#133);
#133 = AXIS2_PLACEMENT_3D('',#134,#135,#136);
#134 = CARTESIAN_POINT('',(-9.950000000002,-1.999999999998,0.));
#135 = DIRECTION('',(-1.,0.,0.));
#136 = DIRECTION('',(0.,1.,0.));
#137 = ADVANCED_FACE('',(#138),#156,.F.);
#138 = FACE_BOUND('',#139,.F.);
#139 = EDGE_LOOP('',(#140,#141,#149,#155));
#140 = ORIENTED_EDGE('',*,*,#64,.F.);
#141 = ORIENTED_EDGE('',*,*,#142,.T.);
#142 = EDGE_CURVE('',#57,#143,#145,.T.);
#143 = VERTEX_POINT('',#144);
#144 = CARTESIAN_POINT('',(-3.449999999997,-1.999999999998,8.));
#145 = LINE('',#146,#147);
#146 = CARTESIAN_POINT('',(-3.449999999997,-1.999999999998,0.));
#147 = VECTOR('',#148,1.);
#148 = DIRECTION('',(0.,0.,1.));
#149 = ORIENTED_EDGE('',*,*,#150,.T.);
#150 = EDGE_CURVE('',#143,#119,#151,.T.);
#151 = LINE('',#152,#153);
#152 = CARTESIAN_POINT('',(-3.449999999997,-1.999999999998,8.));
#153 = VECTOR('',#154,1.);
#154 = DIRECTION('',(-1.,0.,0.));
#155 = ORIENTED_EDGE('',*,*,#118,.F.);
#156 = PLANE('',#157);
#157 = AXIS2_PLACEMENT_3D('',#158,#159,#160);
#158 = CARTESIAN_POINT('',(-3.449999999997,-1.999999999998,0.));
#159 = DIRECTION('',(0.,-1.,0.));
#160 = DIRECTION('',(-1.,0.,0.));
#161 = ADVANCED_FACE('',(#162),#180,.F.);
#162 = FACE_BOUND('',#163,.F.);
#163 = EDGE_LOOP('',(#164,#165,#173,#179));
#164 = ORIENTED_EDGE('',*,*,#56,.F.);
#165 = ORIENTED_EDGE('',*,*,#166,.F.);
#166 = EDGE_CURVE('',#167,#48,#169,.T.);
#167 = VERTEX_POINT('',#168);
#168 = CARTESIAN_POINT('',(-3.449999999997,-11.49336765269,8.));
#169 = LINE('',#170,#171);
#170 = CARTESIAN_POINT('',(-3.449999999997,-11.49336765269,4.));
#171 = VECTOR('',#172,1.);
#172 = DIRECTION('',(-0.,-0.,-1.));
#173 = ORIENTED_EDGE('',*,*,#174,.T.);
#174 = EDGE_CURVE('',#167,#143,#175,.T.);
#175 = LINE('',#176,#177);
#176 = CARTESIAN_POINT('',(-3.449999999997,-18.24999999999,8.));
#177 = VECTOR('',#178,1.);
#178 = DIRECTION('',(0.,1.,0.));
#179 = ORIENTED_EDGE('',*,*,#142,.F.);
#180 = PLANE('',#181);
#181 = AXIS2_PLACEMENT_3D('',#182,#183,#184);
#182 = CARTESIAN_POINT('',(-3.449999999997,-18.24999999999,0.));
#183 = DIRECTION('',(-1.,0.,0.));
#184 = DIRECTION('',(0.,1.,0.));
#185 = ADVANCED_FACE('',(#186,#243),#254,.F.);
#186 = FACE_BOUND('',#187,.F.);
#187 = EDGE_LOOP('',(#188,#198,#204,#205,#213,#221,#229,#237));
#188 = ORIENTED_EDGE('',*,*,#189,.F.);
#189 = EDGE_CURVE('',#190,#192,#194,.T.);
#190 = VERTEX_POINT('',#191);
#191 = CARTESIAN_POINT('',(-5.,10.908712114636,16.));
#192 = VERTEX_POINT('',#193);
#193 = CARTESIAN_POINT('',(5.,10.908712114636,16.));
#194 = LINE('',#195,#196);
#195 = CARTESIAN_POINT('',(-5.,10.908712114636,16.));
#196 = VECTOR('',#197,1.);
#197 = DIRECTION('',(1.,0.,0.));
#198 = ORIENTED_EDGE('',*,*,#199,.T.);
#199 = EDGE_CURVE('',#190,#40,#200,.T.);
#200 = LINE('',#201,#202);
#201 = CARTESIAN_POINT('',(-5.,10.908712114636,16.));
#202 = VECTOR('',#203,1.);
#203 = DIRECTION('',(-0.,-0.,-1.));
#204 = ORIENTED_EDGE('',*,*,#39,.T.);
#205 = ORIENTED_EDGE('',*,*,#206,.T.);
#206 = EDGE_CURVE('',#32,#207,#209,.T.);
#207 = VERTEX_POINT('',#208);
#208 = CARTESIAN_POINT('',(-3.45,10.908712114636,8.));
#209 = LINE('',#210,#211);
#210 = CARTESIAN_POINT('',(-3.45,10.908712114636,8.));
#211 = VECTOR('',#212,1.);
#212 = DIRECTION('',(0.,0.,1.));
#213 = ORIENTED_EDGE('',*,*,#214,.T.);
#214 = EDGE_CURVE('',#207,#215,#217,.T.);
#215 = VERTEX_POINT('',#216);
#216 = CARTESIAN_POINT('',(3.45,10.908712114636,8.));
#217 = LINE('',#218,#219);
#218 = CARTESIAN_POINT('',(-2.5,10.908712114636,8.));
#219 = VECTOR('',#220,1.);
#220 = DIRECTION('',(1.,0.,0.));
#221 = ORIENTED_EDGE('',*,*,#222,.T.);
#222 = EDGE_CURVE('',#215,#223,#225,.T.);
#223 = VERTEX_POINT('',#224);
#224 = CARTESIAN_POINT('',(3.45,10.908712114636,4.));
#225 = LINE('',#226,#227);
#226 = CARTESIAN_POINT('',(3.45,10.908712114636,8.));
#227 = VECTOR('',#228,1.);
#228 = DIRECTION('',(0.,0.,-1.));
#229 = ORIENTED_EDGE('',*,*,#230,.T.);
#230 = EDGE_CURVE('',#223,#231,#233,.T.);
#231 = VERTEX_POINT('',#232);
#232 = CARTESIAN_POINT('',(5.,10.908712114636,4.));
#233 = LINE('',#234,#235);
#234 = CARTESIAN_POINT('',(-2.5,10.908712114636,4.));
#235 = VECTOR('',#236,1.);
#236 = DIRECTION('',(1.,0.,0.));
#237 = ORIENTED_EDGE('',*,*,#238,.F.);
#238 = EDGE_CURVE('',#192,#231,#239,.T.);
#239 = LINE('',#240,#241);
#240 = CARTESIAN_POINT('',(5.,10.908712114636,16.));
#241 = VECTOR('',#242,1.);
#242 = DIRECTION('',(-0.,-0.,-1.));
#243 = FACE_BOUND('',#244,.F.);
#244 = EDGE_LOOP('',(#245));
#245 = ORIENTED_EDGE('',*,*,#246,.F.);
#246 = EDGE_CURVE('',#247,#247,#249,.T.);
#247 = VERTEX_POINT('',#248);
#248 = CARTESIAN_POINT('',(2.35,10.908712114636,12.));
#249 = CIRCLE('',#250,2.35);
#250 = AXIS2_PLACEMENT_3D('',#251,#252,#253);
#251 = CARTESIAN_POINT('',(1.110223024625E-16,10.908712114636,12.));
#252 = DIRECTION('',(0.,-1.,2.22044604925E-16));
#253 = DIRECTION('',(1.,0.,0.));
#254 = PLANE('',#255);
#255 = AXIS2_PLACEMENT_3D('',#256,#257,#258);
#256 = CARTESIAN_POINT('',(-5.,10.908712114636,16.));
#257 = DIRECTION('',(0.,-1.,0.));
#258 = DIRECTION('',(1.,0.,0.));
#259 = ADVANCED_FACE('',(#260),#271,.F.);
#260 = FACE_BOUND('',#261,.F.);
#261 = EDGE_LOOP('',(#262,#263,#264,#270));
#262 = ORIENTED_EDGE('',*,*,#31,.F.);
#263 = ORIENTED_EDGE('',*,*,#103,.T.);
#264 = ORIENTED_EDGE('',*,*,#265,.T.);
#265 = EDGE_CURVE('',#96,#207,#266,.T.);
#266 = LINE('',#267,#268);
#267 = CARTESIAN_POINT('',(-3.45,2.000000000001,8.));
#268 = VECTOR('',#269,1.);
#269 = DIRECTION('',(0.,1.,0.));
#270 = ORIENTED_EDGE('',*,*,#206,.F.);
#271 = PLANE('',#272);
#272 = AXIS2_PLACEMENT_3D('',#273,#274,#275);
#273 = CARTESIAN_POINT('',(-3.45,2.000000000001,0.));
#274 = DIRECTION('',(-1.,0.,0.));
#275 = DIRECTION('',(0.,1.,0.));
#276 = ADVANCED_FACE('',(#277,#332),#343,.F.);
#277 = FACE_BOUND('',#278,.F.);
#278 = EDGE_LOOP('',(#279,#280,#281,#282,#283,#284,#293,#301,#309,#317,
    #325,#331));
#279 = ORIENTED_EDGE('',*,*,#265,.F.);
#280 = ORIENTED_EDGE('',*,*,#95,.F.);
#281 = ORIENTED_EDGE('',*,*,#126,.F.);
#282 = ORIENTED_EDGE('',*,*,#150,.F.);
#283 = ORIENTED_EDGE('',*,*,#174,.F.);
#284 = ORIENTED_EDGE('',*,*,#285,.F.);
#285 = EDGE_CURVE('',#286,#167,#288,.T.);
#286 = VERTEX_POINT('',#287);
#287 = CARTESIAN_POINT('',(3.45,-11.49336765269,8.));
#288 = CIRCLE('',#289,12.);
#289 = AXIS2_PLACEMENT_3D('',#290,#291,#292);
#290 = CARTESIAN_POINT('',(0.,0.,8.));
#291 = DIRECTION('',(0.,0.,-1.));
#292 = DIRECTION('',(1.,0.,0.));
#293 = ORIENTED_EDGE('',*,*,#294,.F.);
#294 = EDGE_CURVE('',#295,#286,#297,.T.);
#295 = VERTEX_POINT('',#296);
#296 = CARTESIAN_POINT('',(3.45,-2.000000000002,8.));
#297 = LINE('',#298,#299);
#298 = CARTESIAN_POINT('',(3.45,-2.000000000002,8.));
#299 = VECTOR('',#300,1.);
#300 = DIRECTION('',(0.,-1.,0.));
#301 = ORIENTED_EDGE('',*,*,#302,.F.);
#302 = EDGE_CURVE('',#303,#295,#305,.T.);
#303 = VERTEX_POINT('',#304);
#304 = CARTESIAN_POINT('',(9.95,-2.000000000002,8.));
#305 = LINE('',#306,#307);
#306 = CARTESIAN_POINT('',(9.95,-2.000000000002,8.));
#307 = VECTOR('',#308,1.);
#308 = DIRECTION('',(-1.,0.,0.));
#309 = ORIENTED_EDGE('',*,*,#310,.F.);
#310 = EDGE_CURVE('',#311,#303,#313,.T.);
#311 = VERTEX_POINT('',#312);
#312 = CARTESIAN_POINT('',(9.95,1.999999999998,8.));
#313 = LINE('',#314,#315);
#314 = CARTESIAN_POINT('',(9.95,1.999999999998,8.));
#315 = VECTOR('',#316,1.);
#316 = DIRECTION('',(0.,-1.,0.));
#317 = ORIENTED_EDGE('',*,*,#318,.F.);
#318 = EDGE_CURVE('',#319,#311,#321,.T.);
#319 = VERTEX_POINT('',#320);
#320 = CARTESIAN_POINT('',(3.45,1.999999999998,8.));
#321 = LINE('',#322,#323);
#322 = CARTESIAN_POINT('',(3.45,1.999999999998,8.));
#323 = VECTOR('',#324,1.);
#324 = DIRECTION('',(1.,0.,0.));
#325 = ORIENTED_EDGE('',*,*,#326,.F.);
#326 = EDGE_CURVE('',#215,#319,#327,.T.);
#327 = LINE('',#328,#329);
#328 = CARTESIAN_POINT('',(3.45,18.249999999998,8.));
#329 = VECTOR('',#330,1.);
#330 = DIRECTION('',(0.,-1.,0.));
#331 = ORIENTED_EDGE('',*,*,#214,.F.);
#332 = FACE_BOUND('',#333,.F.);
#333 = EDGE_LOOP('',(#334));
#334 = ORIENTED_EDGE('',*,*,#335,.F.);
#335 = EDGE_CURVE('',#336,#336,#338,.T.);
#336 = VERTEX_POINT('',#337);
#337 = CARTESIAN_POINT('',(3.1,0.,8.));
#338 = CIRCLE('',#339,3.1);
#339 = AXIS2_PLACEMENT_3D('',#340,#341,#342);
#340 = CARTESIAN_POINT('',(0.,0.,8.));
#341 = DIRECTION('',(0.,0.,1.));
#342 = DIRECTION('',(1.,0.,0.));
#343 = PLANE('',#344);
#344 = AXIS2_PLACEMENT_3D('',#345,#346,#347);
#345 = CARTESIAN_POINT('',(4.437742529637E-14,2.784659815581E-12,8.));
#346 = DIRECTION('',(0.,0.,1.));
#347 = DIRECTION('',(1.,0.,0.));
#348 = ADVANCED_FACE('',(#349,#368),#379,.T.);
#349 = FACE_BOUND('',#350,.T.);
#350 = EDGE_LOOP('',(#351,#360,#367));
#351 = ORIENTED_EDGE('',*,*,#352,.T.);
#352 = EDGE_CURVE('',#190,#353,#355,.T.);
#353 = VERTEX_POINT('',#354);
#354 = CARTESIAN_POINT('',(12.,0.,16.));
#355 = CIRCLE('',#356,12.);
#356 = AXIS2_PLACEMENT_3D('',#357,#358,#359);
#357 = CARTESIAN_POINT('',(0.,0.,16.));
#358 = DIRECTION('',(0.,0.,1.));
#359 = DIRECTION('',(1.,0.,0.));
#360 = ORIENTED_EDGE('',*,*,#361,.T.);
#361 = EDGE_CURVE('',#353,#192,#362,.T.);
#362 = CIRCLE('',#363,12.);
#363 = AXIS2_PLACEMENT_3D('',#364,#365,#366);
#364 = CARTESIAN_POINT('',(0.,0.,16.));
#365 = DIRECTION('',(0.,0.,1.));
#366 = DIRECTION('',(1.,0.,0.));
#367 = ORIENTED_EDGE('',*,*,#189,.F.);
#368 = FACE_BOUND('',#369,.T.);
#369 = EDGE_LOOP('',(#370));
#370 = ORIENTED_EDGE('',*,*,#371,.F.);
#371 = EDGE_CURVE('',#372,#372,#374,.T.);
#372 = VERTEX_POINT('',#373);
#373 = CARTESIAN_POINT('',(3.1,0.,16.));
#374 = CIRCLE('',#375,3.1);
#375 = AXIS2_PLACEMENT_3D('',#376,#377,#378);
#376 = CARTESIAN_POINT('',(0.,0.,16.));
#377 = DIRECTION('',(0.,0.,1.));
#378 = DIRECTION('',(1.,0.,0.));
#379 = PLANE('',#380);
#380 = AXIS2_PLACEMENT_3D('',#381,#382,#383);
#381 = CARTESIAN_POINT('',(-6.837200662697E-16,-3.40453421458E-17,16.));
#382 = DIRECTION('',(0.,0.,1.));
#383 = DIRECTION('',(1.,0.,0.));
#384 = ADVANCED_FACE('',(#385),#410,.F.);
#385 = FACE_BOUND('',#386,.F.);
#386 = EDGE_LOOP('',(#387,#397,#403,#404));
#387 = ORIENTED_EDGE('',*,*,#388,.F.);
#388 = EDGE_CURVE('',#389,#391,#393,.T.);
#389 = VERTEX_POINT('',#390);
#390 = CARTESIAN_POINT('',(3.45,-2.000000000002,4.));
#391 = VERTEX_POINT('',#392);
#392 = CARTESIAN_POINT('',(3.45,-11.49336765269,4.));
#393 = LINE('',#394,#395);
#394 = CARTESIAN_POINT('',(3.45,-2.000000000002,4.));
#395 = VECTOR('',#396,1.);
#396 = DIRECTION('',(0.,-1.,0.));
#397 = ORIENTED_EDGE('',*,*,#398,.T.);
#398 = EDGE_CURVE('',#389,#295,#399,.T.);
#399 = LINE('',#400,#401);
#400 = CARTESIAN_POINT('',(3.45,-2.000000000002,0.));
#401 = VECTOR('',#402,1.);
#402 = DIRECTION('',(0.,0.,1.));
#403 = ORIENTED_EDGE('',*,*,#294,.T.);
#404 = ORIENTED_EDGE('',*,*,#405,.T.);
#405 = EDGE_CURVE('',#286,#391,#406,.T.);
#406 = LINE('',#407,#408);
#407 = CARTESIAN_POINT('',(3.45,-11.49336765269,4.));
#408 = VECTOR('',#409,1.);
#409 = DIRECTION('',(-0.,-0.,-1.));
#410 = PLANE('',#411);
#411 = AXIS2_PLACEMENT_3D('',#412,#413,#414);
#412 = CARTESIAN_POINT('',(3.45,-2.000000000002,0.));
#413 = DIRECTION('',(1.,0.,0.));
#414 = DIRECTION('',(0.,-1.,0.));
#415 = ADVANCED_FACE('',(#416),#466,.F.);
#416 = FACE_BOUND('',#417,.F.);
#417 = EDGE_LOOP('',(#418,#419,#428,#435,#436,#444,#452,#460));
#418 = ORIENTED_EDGE('',*,*,#388,.T.);
#419 = ORIENTED_EDGE('',*,*,#420,.T.);
#420 = EDGE_CURVE('',#391,#421,#423,.T.);
#421 = VERTEX_POINT('',#422);
#422 = CARTESIAN_POINT('',(12.,0.,4.));
#423 = CIRCLE('',#424,12.);
#424 = AXIS2_PLACEMENT_3D('',#425,#426,#427);
#425 = CARTESIAN_POINT('',(0.,0.,4.));
#426 = DIRECTION('',(0.,0.,1.));
#427 = DIRECTION('',(1.,0.,0.));
#428 = ORIENTED_EDGE('',*,*,#429,.T.);
#429 = EDGE_CURVE('',#421,#231,#430,.T.);
#430 = CIRCLE('',#431,12.);
#431 = AXIS2_PLACEMENT_3D('',#432,#433,#434);
#432 = CARTESIAN_POINT('',(0.,0.,4.));
#433 = DIRECTION('',(0.,0.,1.));
#434 = DIRECTION('',(1.,0.,0.));
#435 = ORIENTED_EDGE('',*,*,#230,.F.);
#436 = ORIENTED_EDGE('',*,*,#437,.T.);
#437 = EDGE_CURVE('',#223,#438,#440,.T.);
#438 = VERTEX_POINT('',#439);
#439 = CARTESIAN_POINT('',(3.45,1.999999999998,4.));
#440 = LINE('',#441,#442);
#441 = CARTESIAN_POINT('',(3.45,18.249999999998,4.));
#442 = VECTOR('',#443,1.);
#443 = DIRECTION('',(0.,-1.,0.));
#444 = ORIENTED_EDGE('',*,*,#445,.T.);
#445 = EDGE_CURVE('',#438,#446,#448,.T.);
#446 = VERTEX_POINT('',#447);
#447 = CARTESIAN_POINT('',(9.95,1.999999999998,4.));
#448 = LINE('',#449,#450);
#449 = CARTESIAN_POINT('',(3.45,1.999999999998,4.));
#450 = VECTOR('',#451,1.);
#451 = DIRECTION('',(1.,0.,0.));
#452 = ORIENTED_EDGE('',*,*,#453,.T.);
#453 = EDGE_CURVE('',#446,#454,#456,.T.);
#454 = VERTEX_POINT('',#455);
#455 = CARTESIAN_POINT('',(9.95,-2.000000000002,4.));
#456 = LINE('',#457,#458);
#457 = CARTESIAN_POINT('',(9.95,1.999999999998,4.));
#458 = VECTOR('',#459,1.);
#459 = DIRECTION('',(0.,-1.,0.));
#460 = ORIENTED_EDGE('',*,*,#461,.T.);
#461 = EDGE_CURVE('',#454,#389,#462,.T.);
#462 = LINE('',#463,#464);
#463 = CARTESIAN_POINT('',(9.95,-2.000000000002,4.));
#464 = VECTOR('',#465,1.);
#465 = DIRECTION('',(-1.,0.,0.));
#466 = PLANE('',#467);
#467 = AXIS2_PLACEMENT_3D('',#468,#469,#470);
#468 = CARTESIAN_POINT('',(-6.837200662697E-16,-3.40453421458E-17,4.));
#469 = DIRECTION('',(0.,0.,1.));
#470 = DIRECTION('',(1.,0.,0.));
#471 = ADVANCED_FACE('',(#472),#483,.F.);
#472 = FACE_BOUND('',#473,.F.);
#473 = EDGE_LOOP('',(#474,#475,#476,#477));
#474 = ORIENTED_EDGE('',*,*,#437,.F.);
#475 = ORIENTED_EDGE('',*,*,#222,.F.);
#476 = ORIENTED_EDGE('',*,*,#326,.T.);
#477 = ORIENTED_EDGE('',*,*,#478,.F.);
#478 = EDGE_CURVE('',#438,#319,#479,.T.);
#479 = LINE('',#480,#481);
#480 = CARTESIAN_POINT('',(3.45,1.999999999998,0.));
#481 = VECTOR('',#482,1.);
#482 = DIRECTION('',(0.,0.,1.));
#483 = PLANE('',#484);
#484 = AXIS2_PLACEMENT_3D('',#485,#486,#487);
#485 = CARTESIAN_POINT('',(3.45,18.249999999998,0.));
#486 = DIRECTION('',(1.,0.,0.));
#487 = DIRECTION('',(0.,-1.,0.));
#488 = ADVANCED_FACE('',(#489),#606,.F.);
#489 = FACE_BOUND('',#490,.F.);
#490 = EDGE_LOOP('',(#491,#499,#604,#605));
#491 = ORIENTED_EDGE('',*,*,#492,.F.);
#492 = EDGE_CURVE('',#493,#247,#495,.T.);
#493 = VERTEX_POINT('',#494);
#494 = CARTESIAN_POINT('',(2.35,2.021756661916,12.));
#495 = LINE('',#496,#497);
#496 = CARTESIAN_POINT('',(2.35,2.6645352591E-15,12.));
#497 = VECTOR('',#498,1.);
#498 = DIRECTION('',(0.,1.,-2.22044604925E-16));
#499 = ORIENTED_EDGE('',*,*,#500,.F.);
#500 = EDGE_CURVE('',#493,#493,#501,.T.);
#501 = B_SPLINE_CURVE_WITH_KNOTS('',6,(#502,#503,#504,#505,#506,#507,
    #508,#509,#510,#511,#512,#513,#514,#515,#516,#517,#518,#519,#520,
    #521,#522,#523,#524,#525,#526,#527,#528,#529,#530,#531,#532,#533,
    #534,#535,#536,#537,#538,#539,#540,#541,#542,#543,#544,#545,#546,
    #547,#548,#549,#550,#551,#552,#553,#554,#555,#556,#557,#558,#559,
    #560,#561,#562,#563,#564,#565,#566,#567,#568,#569,#570,#571,#572,
    #573,#574,#575,#576,#577,#578,#579,#580,#581,#582,#583,#584,#585,
    #586,#587,#588,#589,#590,#591,#592,#593,#594,#595,#596,#597,#598,
    #599,#600,#601,#602,#603),.UNSPECIFIED.,.T.,.F.,(7,5,5,5,5,5,5,5,5,5
    ,5,5,5,5,5,5,5,5,5,5,7),(0.,4.668868724549E-02,0.107239638481,
    0.169326642146,0.217447244325,0.273542621452,0.306144069627,
    0.331440233085,0.394161036821,0.452980896987,0.501060679645,
    0.547551699255,0.607846293671,0.669670437272,0.717587309462,
    0.773445193498,0.805908615705,0.831097681853,0.893552942182,
    0.952123774511,1.),.UNSPECIFIED.);
#502 = CARTESIAN_POINT('',(2.35,2.021756661916,12.));
#503 = CARTESIAN_POINT('',(2.35,2.021756661916,12.108169352263));
#504 = CARTESIAN_POINT('',(2.344025291061,2.02870132755,12.215987964196)
  );
#505 = CARTESIAN_POINT('',(2.332148051789,2.04250722432,12.323030463142)
  );
#506 = CARTESIAN_POINT('',(2.314484796981,2.062726131277,12.42882614624)
  );
#507 = CARTESIAN_POINT('',(2.291226499208,2.088541452634,12.532772221167
    ));
#508 = CARTESIAN_POINT('',(2.22603585461,2.158162307829,12.765425093269)
  );
#509 = CARTESIAN_POINT('',(2.180492639922,2.205158254573,12.8927366622)
  );
#510 = CARTESIAN_POINT('',(2.126622679064,2.258078526108,13.016040850909
    ));
#511 = CARTESIAN_POINT('',(2.064589469563,2.315268713189,13.135258029529
    ));
#512 = CARTESIAN_POINT('',(1.994449941905,2.375314285225,13.250203680508
    ));
#513 = CARTESIAN_POINT('',(1.835642641311,2.500175147252,13.473837913567
    ));
#514 = CARTESIAN_POINT('',(1.746511068746,2.565103656978,13.582348356227
    ));
#515 = CARTESIAN_POINT('',(1.648292185808,2.630528983837,13.686088803935
    ));
#516 = CARTESIAN_POINT('',(1.540412510142,2.695323749331,13.784645028451
    ));
#517 = CARTESIAN_POINT('',(1.422193936135,2.758181174763,13.877177068584
    ));
#518 = CARTESIAN_POINT('',(1.192910904299,2.863406570925,14.028259852661
    ));
#519 = CARTESIAN_POINT('',(1.085921335801,2.907339548485,14.089968647613
    ));
#520 = CARTESIAN_POINT('',(0.972046126226,2.948313193144,14.146490199376
    ));
#521 = CARTESIAN_POINT('',(0.85135773168,2.985325798488,14.196836793465)
  );
#522 = CARTESIAN_POINT('',(0.724038999853,3.017332569046,14.239939015064
    ));
#523 = CARTESIAN_POINT('',(0.434639307671,3.073478005411,14.315056927474
    ));
#524 = CARTESIAN_POINT('',(0.269899690982,3.095510709274,14.344154047022
    ));
#525 = CARTESIAN_POINT('',(9.978868847872E-02,3.106955469049,
    14.359122931196));
#526 = CARTESIAN_POINT('',(-7.182358129588E-02,3.10667272494,
    14.358791096332));
#527 = CARTESIAN_POINT('',(-0.241010717999,3.094987798439,
    14.343458926643));
#528 = CARTESIAN_POINT('',(-0.498778716255,3.061103002144,
    14.298471209195));
#529 = CARTESIAN_POINT('',(-0.591304400183,3.045374808806,
    14.277527984667));
#530 = CARTESIAN_POINT('',(-0.681294064299,3.026662771385,
    14.252499821484));
#531 = CARTESIAN_POINT('',(-0.768458282294,3.005302635678,
    14.223747000547));
#532 = CARTESIAN_POINT('',(-0.852536263717,2.981669735842,
    14.191671896697));
#533 = CARTESIAN_POINT('',(-0.995961953195,2.936388601278,
    14.129606058569));
#534 = CARTESIAN_POINT('',(-1.056706422864,2.915457931384,
    14.100725559176));
#535 = CARTESIAN_POINT('',(-1.115537777656,2.893527020684,
    14.070230080337));
#536 = CARTESIAN_POINT('',(-1.17246921281,2.870734335697,14.038255185919
    ));
#537 = CARTESIAN_POINT('',(-1.227520293141,2.847210253137,
    14.004923795495));
#538 = CARTESIAN_POINT('',(-1.412615897763,2.763239793336,13.88461241029
    ));
#539 = CARTESIAN_POINT('',(-1.533208588979,2.699614671769,
    13.791155511695));
#540 = CARTESIAN_POINT('',(-1.643128167108,2.633930565087,
    13.691458297424));
#541 = CARTESIAN_POINT('',(-1.743086132984,2.567558531179,
    13.586413457256));
#542 = CARTESIAN_POINT('',(-1.833687202883,2.501672528232,
    13.476459400256));
#543 = CARTESIAN_POINT('',(-1.99184578026,2.377399009706,13.253993702357
    ));
#544 = CARTESIAN_POINT('',(-2.06050833258,2.318782226075,13.142035240545
    ));
#545 = CARTESIAN_POINT('',(-2.121455468509,2.262846418266,
    13.026013230084));
#546 = CARTESIAN_POINT('',(-2.174645937469,2.210892902927,
    12.906090505701));
#547 = CARTESIAN_POINT('',(-2.219934116836,2.164441966667,12.78233654182
    ));
#548 = CARTESIAN_POINT('',(-2.287217304379,2.092984873923,
    12.550395533253));
#549 = CARTESIAN_POINT('',(-2.312048836729,2.065512664532,
    12.443170498748));
#550 = CARTESIAN_POINT('',(-2.330916384334,2.043938925686,
    12.333928239515));
#551 = CARTESIAN_POINT('',(-2.343609974811,2.029184054593,
    12.223325311997));
#552 = CARTESIAN_POINT('',(-2.35,2.021756661916,12.111865882717));
#553 = CARTESIAN_POINT('',(-2.35,2.021756661916,11.891830647737));
#554 = CARTESIAN_POINT('',(-2.344025291061,2.02870132755,11.784012035804
    ));
#555 = CARTESIAN_POINT('',(-2.332148051789,2.04250722432,11.676969536858
    ));
#556 = CARTESIAN_POINT('',(-2.314484796981,2.062726131277,11.57117385376
    ));
#557 = CARTESIAN_POINT('',(-2.291226499208,2.088541452634,
    11.467227778833));
#558 = CARTESIAN_POINT('',(-2.226035854611,2.158162307828,
    11.234574906734));
#559 = CARTESIAN_POINT('',(-2.180492639922,2.205158254573,
    11.107263337799));
#560 = CARTESIAN_POINT('',(-2.126622679063,2.258078526109,
    10.983959149088));
#561 = CARTESIAN_POINT('',(-2.064589469562,2.31526871319,10.86474197047)
  );
#562 = CARTESIAN_POINT('',(-1.994449941907,2.375314285223,
    10.749796319495));
#563 = CARTESIAN_POINT('',(-1.835642641311,2.500175147252,
    10.526162086432));
#564 = CARTESIAN_POINT('',(-1.746511068746,2.565103656978,
    10.417651643773));
#565 = CARTESIAN_POINT('',(-1.648292185808,2.630528983837,
    10.313911196065));
#566 = CARTESIAN_POINT('',(-1.540412510143,2.695323749331,10.21535497155
    ));
#567 = CARTESIAN_POINT('',(-1.422193936135,2.758181174764,
    10.122822931415));
#568 = CARTESIAN_POINT('',(-1.192910904299,2.863406570925,9.971740147339
    ));
#569 = CARTESIAN_POINT('',(-1.085921335801,2.907339548485,9.910031352387
    ));
#570 = CARTESIAN_POINT('',(-0.972046126226,2.948313193144,9.853509800624
    ));
#571 = CARTESIAN_POINT('',(-0.85135773168,2.985325798488,9.803163206535)
  );
#572 = CARTESIAN_POINT('',(-0.724038999853,3.017332569046,9.760060984936
    ));
#573 = CARTESIAN_POINT('',(-0.434639307671,3.073478005411,9.684943072526
    ));
#574 = CARTESIAN_POINT('',(-0.269899690982,3.095510709274,9.655845952978
    ));
#575 = CARTESIAN_POINT('',(-9.978868847857E-02,3.106955469049,
    9.640877068804));
#576 = CARTESIAN_POINT('',(7.182358129582E-02,3.10667272494,
    9.641208903668));
#577 = CARTESIAN_POINT('',(0.241010717999,3.094987798439,9.656541073357)
  );
#578 = CARTESIAN_POINT('',(0.498778716255,3.061103002144,9.701528790805)
  );
#579 = CARTESIAN_POINT('',(0.591304400183,3.045374808806,9.722472015333)
  );
#580 = CARTESIAN_POINT('',(0.681294064299,3.026662771385,9.747500178516)
  );
#581 = CARTESIAN_POINT('',(0.768458282294,3.005302635678,9.776252999453)
  );
#582 = CARTESIAN_POINT('',(0.852536263717,2.981669735842,9.808328103303)
  );
#583 = CARTESIAN_POINT('',(0.995961953195,2.936388601278,9.870393941431)
  );
#584 = CARTESIAN_POINT('',(1.056706422864,2.915457931384,9.899274440824)
  );
#585 = CARTESIAN_POINT('',(1.115537777656,2.893527020684,9.929769919663)
  );
#586 = CARTESIAN_POINT('',(1.17246921281,2.870734335697,9.961744814081)
  );
#587 = CARTESIAN_POINT('',(1.227520293141,2.847210253137,9.995076204505)
  );
#588 = CARTESIAN_POINT('',(1.412615897763,2.763239793336,10.11538758971)
  );
#589 = CARTESIAN_POINT('',(1.533208588979,2.699614671769,10.208844488305
    ));
#590 = CARTESIAN_POINT('',(1.643128167108,2.633930565087,10.308541702576
    ));
#591 = CARTESIAN_POINT('',(1.743086132984,2.567558531179,10.413586542744
    ));
#592 = CARTESIAN_POINT('',(1.833687202883,2.501672528232,10.523540599744
    ));
#593 = CARTESIAN_POINT('',(1.99184578026,2.377399009706,10.746006297643)
  );
#594 = CARTESIAN_POINT('',(2.06050833258,2.318782226075,10.857964759455)
  );
#595 = CARTESIAN_POINT('',(2.121455468509,2.262846418266,10.973986769916
    ));
#596 = CARTESIAN_POINT('',(2.174645937469,2.210892902927,11.093909494299
    ));
#597 = CARTESIAN_POINT('',(2.219934116836,2.164441966667,11.21766345818)
  );
#598 = CARTESIAN_POINT('',(2.287217304379,2.092984873923,11.449604466747
    ));
#599 = CARTESIAN_POINT('',(2.312048836729,2.065512664532,11.556829501252
    ));
#600 = CARTESIAN_POINT('',(2.330916384334,2.043938925686,11.666071760485
    ));
#601 = CARTESIAN_POINT('',(2.343609974811,2.029184054593,11.776674688003
    ));
#602 = CARTESIAN_POINT('',(2.35,2.021756661916,11.888134117283));
#603 = CARTESIAN_POINT('',(2.35,2.021756661916,12.));
#604 = ORIENTED_EDGE('',*,*,#492,.T.);
#605 = ORIENTED_EDGE('',*,*,#246,.T.);
#606 = CYLINDRICAL_SURFACE('',#607,2.35);
#607 = AXIS2_PLACEMENT_3D('',#608,#609,#610);
#608 = CARTESIAN_POINT('',(1.110223024625E-16,2.6645352591E-15,12.));
#609 = DIRECTION('',(0.,-1.,2.22044604925E-16));
#610 = DIRECTION('',(1.,0.,0.));
#611 = ADVANCED_FACE('',(#612),#623,.F.);
#612 = FACE_BOUND('',#613,.F.);
#613 = EDGE_LOOP('',(#614,#615,#616,#617));
#614 = ORIENTED_EDGE('',*,*,#445,.F.);
#615 = ORIENTED_EDGE('',*,*,#478,.T.);
#616 = ORIENTED_EDGE('',*,*,#318,.T.);
#617 = ORIENTED_EDGE('',*,*,#618,.F.);
#618 = EDGE_CURVE('',#446,#311,#619,.T.);
#619 = LINE('',#620,#621);
#620 = CARTESIAN_POINT('',(9.95,1.999999999998,0.));
#621 = VECTOR('',#622,1.);
#622 = DIRECTION('',(0.,0.,1.));
#623 = PLANE('',#624);
#624 = AXIS2_PLACEMENT_3D('',#625,#626,#627);
#625 = CARTESIAN_POINT('',(3.45,1.999999999998,0.));
#626 = DIRECTION('',(0.,1.,0.));
#627 = DIRECTION('',(1.,0.,0.));
#628 = ADVANCED_FACE('',(#629),#640,.F.);
#629 = FACE_BOUND('',#630,.F.);
#630 = EDGE_LOOP('',(#631,#632,#633,#634));
#631 = ORIENTED_EDGE('',*,*,#453,.F.);
#632 = ORIENTED_EDGE('',*,*,#618,.T.);
#633 = ORIENTED_EDGE('',*,*,#310,.T.);
#634 = ORIENTED_EDGE('',*,*,#635,.F.);
#635 = EDGE_CURVE('',#454,#303,#636,.T.);
#636 = LINE('',#637,#638);
#637 = CARTESIAN_POINT('',(9.95,-2.000000000002,0.));
#638 = VECTOR('',#639,1.);
#639 = DIRECTION('',(0.,0.,1.));
#640 = PLANE('',#641);
#641 = AXIS2_PLACEMENT_3D('',#642,#643,#644);
#642 = CARTESIAN_POINT('',(9.95,1.999999999998,0.));
#643 = DIRECTION('',(1.,0.,0.));
#644 = DIRECTION('',(0.,-1.,0.));
#645 = ADVANCED_FACE('',(#646),#652,.F.);
#646 = FACE_BOUND('',#647,.F.);
#647 = EDGE_LOOP('',(#648,#649,#650,#651));
#648 = ORIENTED_EDGE('',*,*,#461,.F.);
#649 = ORIENTED_EDGE('',*,*,#635,.T.);
#650 = ORIENTED_EDGE('',*,*,#302,.T.);
#651 = ORIENTED_EDGE('',*,*,#398,.F.);
#652 = PLANE('',#653);
#653 = AXIS2_PLACEMENT_3D('',#654,#655,#656);
#654 = CARTESIAN_POINT('',(9.95,-2.000000000002,0.));
#655 = DIRECTION('',(0.,-1.,0.));
#656 = DIRECTION('',(-1.,0.,0.));
#657 = ADVANCED_FACE('',(#658,#669),#672,.F.);
#658 = FACE_BOUND('',#659,.F.);
#659 = EDGE_LOOP('',(#660,#666,#667,#668));
#660 = ORIENTED_EDGE('',*,*,#661,.F.);
#661 = EDGE_CURVE('',#372,#336,#662,.T.);
#662 = LINE('',#663,#664);
#663 = CARTESIAN_POINT('',(3.1,0.,16.));
#664 = VECTOR('',#665,1.);
#665 = DIRECTION('',(-0.,-0.,-1.));
#666 = ORIENTED_EDGE('',*,*,#371,.F.);
#667 = ORIENTED_EDGE('',*,*,#661,.T.);
#668 = ORIENTED_EDGE('',*,*,#335,.T.);
#669 = FACE_BOUND('',#670,.F.);
#670 = EDGE_LOOP('',(#671));
#671 = ORIENTED_EDGE('',*,*,#500,.T.);
#672 = CYLINDRICAL_SURFACE('',#673,3.1);
#673 = AXIS2_PLACEMENT_3D('',#674,#675,#676);
#674 = CARTESIAN_POINT('',(0.,0.,16.));
#675 = DIRECTION('',(0.,0.,1.));
#676 = DIRECTION('',(1.,0.,0.));
#677 = ADVANCED_FACE('',(#678),#690,.T.);
#678 = FACE_BOUND('',#679,.F.);
#679 = EDGE_LOOP('',(#680,#681,#682,#683,#684,#685,#686,#687,#688,#689)
  );
#680 = ORIENTED_EDGE('',*,*,#238,.T.);
#681 = ORIENTED_EDGE('',*,*,#429,.F.);
#682 = ORIENTED_EDGE('',*,*,#420,.F.);
#683 = ORIENTED_EDGE('',*,*,#405,.F.);
#684 = ORIENTED_EDGE('',*,*,#285,.T.);
#685 = ORIENTED_EDGE('',*,*,#166,.T.);
#686 = ORIENTED_EDGE('',*,*,#47,.F.);
#687 = ORIENTED_EDGE('',*,*,#199,.F.);
#688 = ORIENTED_EDGE('',*,*,#352,.T.);
#689 = ORIENTED_EDGE('',*,*,#361,.T.);
#690 = CYLINDRICAL_SURFACE('',#691,12.);
#691 = AXIS2_PLACEMENT_3D('',#692,#693,#694);
#692 = CARTESIAN_POINT('',(0.,0.,4.));
#693 = DIRECTION('',(-0.,-0.,-1.));
#694 = DIRECTION('',(1.,0.,0.));
#695 = ( GEOMETRIC_REPRESENTATION_CONTEXT(3) 
GLOBAL_UNCERTAINTY_ASSIGNED_CONTEXT((#699)) GLOBAL_UNIT_ASSIGNED_CONTEXT
((#696,#697,#698)) REPRESENTATION_CONTEXT('Context #1',
  '3D Context with UNIT and UNCERTAINTY') );
#696 = ( LENGTH_UNIT() NAMED_UNIT(*) SI_UNIT(.MILLI.,.METRE.) );
#697 = ( NAMED_UNIT(*) PLANE_ANGLE_UNIT() SI_UNIT($,.RADIAN.) );
#698 = ( NAMED_UNIT(*) SI_UNIT($,.STERADIAN.) SOLID_ANGLE_UNIT() );
#699 = UNCERTAINTY_MEASURE_WITH_UNIT(LENGTH_MEASURE(5.E-06),#696,
  'distance_accuracy_value','confusion accuracy');
#700 = PRODUCT_RELATED_PRODUCT_CATEGORY('part',$,(#7));
#701 = MECHANICAL_DESIGN_GEOMETRIC_PRESENTATION_REPRESENTATION('',(#702)
  ,#695);
#702 = STYLED_ITEM('color',(#703),#15);
#703 = PRESENTATION_STYLE_ASSIGNMENT((#704,#710));
#704 = SURFACE_STYLE_USAGE(.BOTH.,#705);
#705 = SURFACE_SIDE_STYLE('',(#706));
#706 = SURFACE_STYLE_FILL_AREA(#707);
#707 = FILL_AREA_STYLE('',(#708));
#708 = FILL_AREA_STYLE_COLOUR('',#709);
#709 = COLOUR_RGB('',0.447059003357,0.474510015008,0.501960993452);
#710 = CURVE_STYLE('',#711,POSITIVE_LENGTH_MEASURE(0.1),#712);
#711 = DRAUGHTING_PRE_DEFINED_CURVE_FONT('continuous');
#712 = COLOUR_RGB('',9.803921802644E-02,9.803921802644E-02,
  9.803921802644E-02);
ENDSEC;
END-ISO-10303-21;
