ISO-10303-21;
HEADER;
FILE_DESCRIPTION(('FreeCAD Model'),'2;1');
FILE_NAME('Open CASCADE Shape Model','2026-02-23T16:13:38',(''),(''),
  'Open CASCADE STEP processor 7.9','FreeCAD','Unknown');
FILE_SCHEMA(('AUTOMOTIVE_DESIGN { 1 0 10303 214 1 1 1 1 }'));
ENDSEC;
DATA;
#1 = APPLICATION_PROTOCOL_DEFINITION('international standard',
  'automotive_design',2000,#2);
#2 = APPLICATION_CONTEXT(
  'core data for automotive mechanical design processes');
#3 = SHAPE_DEFINITION_REPRESENTATION(#4,#10);
#4 = PRODUCT_DEFINITION_SHAPE('','',#5);
#5 = PRODUCT_DEFINITION('design','',#6,#9);
#6 = PRODUCT_DEFINITION_FORMATION('','',#7);
#7 = PRODUCT('Body134','Body134','',(#8));
#8 = PRODUCT_CONTEXT('',#2,'mechanical');
#9 = PRODUCT_DEFINITION_CONTEXT('part definition',#2,'design');
#10 = ADVANCED_BREP_SHAPE_REPRESENTATION('',(#11,#15),#363);
#11 = AXIS2_PLACEMENT_3D('',#12,#13,#14);
#12 = CARTESIAN_POINT('',(0.,0.,0.));
#13 = DIRECTION('',(0.,0.,1.));
#14 = DIRECTION('',(1.,0.,-0.));
#15 = MANIFOLD_SOLID_BREP('',#16);
#16 = CLOSED_SHELL('',(#17,#57,#88,#119,#184,#249,#266,#283,#300,#317,
    #334,#351));
#17 = ADVANCED_FACE('',(#18),#52,.T.);
#18 = FACE_BOUND('',#19,.T.);
#19 = EDGE_LOOP('',(#20,#30,#38,#46));
#20 = ORIENTED_EDGE('',*,*,#21,.T.);
#21 = EDGE_CURVE('',#22,#24,#26,.T.);
#22 = VERTEX_POINT('',#23);
#23 = CARTESIAN_POINT('',(-10.,240.,3.1));
#24 = VERTEX_POINT('',#25);
#25 = CARTESIAN_POINT('',(-10.,250.,3.1));
#26 = LINE('',#27,#28);
#27 = CARTESIAN_POINT('',(-10.,240.,3.1));
#28 = VECTOR('',#29,1.);
#29 = DIRECTION('',(0.,1.,-2.22044604925E-16));
#30 = ORIENTED_EDGE('',*,*,#31,.T.);
#31 = EDGE_CURVE('',#24,#32,#34,.T.);
#32 = VERTEX_POINT('',#33);
#33 = CARTESIAN_POINT('',(-10.,250.,-3.1));
#34 = LINE('',#35,#36);
#35 = CARTESIAN_POINT('',(-10.,250.,3.1));
#36 = VECTOR('',#37,1.);
#37 = DIRECTION('',(0.,-2.22044604925E-16,-1.));
#38 = ORIENTED_EDGE('',*,*,#39,.F.);
#39 = EDGE_CURVE('',#40,#32,#42,.T.);
#40 = VERTEX_POINT('',#41);
#41 = CARTESIAN_POINT('',(-10.,240.,-3.1));
#42 = LINE('',#43,#44);
#43 = CARTESIAN_POINT('',(-10.,240.,-3.1));
#44 = VECTOR('',#45,1.);
#45 = DIRECTION('',(0.,1.,-2.22044604925E-16));
#46 = ORIENTED_EDGE('',*,*,#47,.F.);
#47 = EDGE_CURVE('',#22,#40,#48,.T.);
#48 = LINE('',#49,#50);
#49 = CARTESIAN_POINT('',(-10.,240.,3.1));
#50 = VECTOR('',#51,1.);
#51 = DIRECTION('',(0.,-2.22044604925E-16,-1.));
#52 = PLANE('',#53);
#53 = AXIS2_PLACEMENT_3D('',#54,#55,#56);
#54 = CARTESIAN_POINT('',(-10.,240.,3.1));
#55 = DIRECTION('',(-1.,0.,0.));
#56 = DIRECTION('',(0.,-2.22044604925E-16,-1.));
#57 = ADVANCED_FACE('',(#58),#83,.F.);
#58 = FACE_BOUND('',#59,.F.);
#59 = EDGE_LOOP('',(#60,#61,#69,#77));
#60 = ORIENTED_EDGE('',*,*,#21,.T.);
#61 = ORIENTED_EDGE('',*,*,#62,.T.);
#62 = EDGE_CURVE('',#24,#63,#65,.T.);
#63 = VERTEX_POINT('',#64);
#64 = CARTESIAN_POINT('',(-8.,250.,3.1));
#65 = LINE('',#66,#67);
#66 = CARTESIAN_POINT('',(-10.,250.,3.1));
#67 = VECTOR('',#68,1.);
#68 = DIRECTION('',(1.,0.,0.));
#69 = ORIENTED_EDGE('',*,*,#70,.F.);
#70 = EDGE_CURVE('',#71,#63,#73,.T.);
#71 = VERTEX_POINT('',#72);
#72 = CARTESIAN_POINT('',(-8.,240.,3.1));
#73 = LINE('',#74,#75);
#74 = CARTESIAN_POINT('',(-8.,240.,3.1));
#75 = VECTOR('',#76,1.);
#76 = DIRECTION('',(0.,1.,-2.22044604925E-16));
#77 = ORIENTED_EDGE('',*,*,#78,.F.);
#78 = EDGE_CURVE('',#22,#71,#79,.T.);
#79 = LINE('',#80,#81);
#80 = CARTESIAN_POINT('',(-10.,240.,3.1));
#81 = VECTOR('',#82,1.);
#82 = DIRECTION('',(1.,0.,0.));
#83 = PLANE('',#84);
#84 = AXIS2_PLACEMENT_3D('',#85,#86,#87);
#85 = CARTESIAN_POINT('',(-10.,240.,3.1));
#86 = DIRECTION('',(0.,-2.22044604925E-16,-1.));
#87 = DIRECTION('',(1.,0.,0.));
#88 = ADVANCED_FACE('',(#89),#114,.F.);
#89 = FACE_BOUND('',#90,.F.);
#90 = EDGE_LOOP('',(#91,#101,#107,#108));
#91 = ORIENTED_EDGE('',*,*,#92,.T.);
#92 = EDGE_CURVE('',#93,#95,#97,.T.);
#93 = VERTEX_POINT('',#94);
#94 = CARTESIAN_POINT('',(-8.,240.,-3.1));
#95 = VERTEX_POINT('',#96);
#96 = CARTESIAN_POINT('',(-8.,250.,-3.1));
#97 = LINE('',#98,#99);
#98 = CARTESIAN_POINT('',(-8.,240.,-3.1));
#99 = VECTOR('',#100,1.);
#100 = DIRECTION('',(0.,1.,-2.22044604925E-16));
#101 = ORIENTED_EDGE('',*,*,#102,.T.);
#102 = EDGE_CURVE('',#95,#32,#103,.T.);
#103 = LINE('',#104,#105);
#104 = CARTESIAN_POINT('',(-8.,250.,-3.1));
#105 = VECTOR('',#106,1.);
#106 = DIRECTION('',(-1.,0.,0.));
#107 = ORIENTED_EDGE('',*,*,#39,.F.);
#108 = ORIENTED_EDGE('',*,*,#109,.F.);
#109 = EDGE_CURVE('',#93,#40,#110,.T.);
#110 = LINE('',#111,#112);
#111 = CARTESIAN_POINT('',(-8.,240.,-3.1));
#112 = VECTOR('',#113,1.);
#113 = DIRECTION('',(-1.,0.,0.));
#114 = PLANE('',#115);
#115 = AXIS2_PLACEMENT_3D('',#116,#117,#118);
#116 = CARTESIAN_POINT('',(-8.,240.,-3.1));
#117 = DIRECTION('',(0.,2.22044604925E-16,1.));
#118 = DIRECTION('',(-1.,0.,0.));
#119 = ADVANCED_FACE('',(#120),#179,.F.);
#120 = FACE_BOUND('',#121,.F.);
#121 = EDGE_LOOP('',(#122,#123,#124,#132,#140,#148,#156,#164,#172,#178)
  );
#122 = ORIENTED_EDGE('',*,*,#47,.F.);
#123 = ORIENTED_EDGE('',*,*,#78,.T.);
#124 = ORIENTED_EDGE('',*,*,#125,.T.);
#125 = EDGE_CURVE('',#71,#126,#128,.T.);
#126 = VERTEX_POINT('',#127);
#127 = CARTESIAN_POINT('',(-8.,240.,5.1));
#128 = LINE('',#129,#130);
#129 = CARTESIAN_POINT('',(-8.,240.,3.1));
#130 = VECTOR('',#131,1.);
#131 = DIRECTION('',(0.,2.22044604925E-16,1.));
#132 = ORIENTED_EDGE('',*,*,#133,.F.);
#133 = EDGE_CURVE('',#134,#126,#136,.T.);
#134 = VERTEX_POINT('',#135);
#135 = CARTESIAN_POINT('',(-6.465685424949,240.,5.1));
#136 = LINE('',#137,#138);
#137 = CARTESIAN_POINT('',(-6.465685424949,240.,5.1));
#138 = VECTOR('',#139,1.);
#139 = DIRECTION('',(-1.,0.,0.));
#140 = ORIENTED_EDGE('',*,*,#141,.F.);
#141 = EDGE_CURVE('',#142,#134,#144,.T.);
#142 = VERTEX_POINT('',#143);
#143 = CARTESIAN_POINT('',(-4.3,240.,2.934314575051));
#144 = LINE('',#145,#146);
#145 = CARTESIAN_POINT('',(-4.3,240.,2.934314575051));
#146 = VECTOR('',#147,1.);
#147 = DIRECTION('',(-0.707106781187,1.570092458684E-16,0.707106781187)
  );
#148 = ORIENTED_EDGE('',*,*,#149,.F.);
#149 = EDGE_CURVE('',#150,#142,#152,.T.);
#150 = VERTEX_POINT('',#151);
#151 = CARTESIAN_POINT('',(-4.3,240.,-2.934314575051));
#152 = LINE('',#153,#154);
#153 = CARTESIAN_POINT('',(-4.3,240.,-2.934314575051));
#154 = VECTOR('',#155,1.);
#155 = DIRECTION('',(0.,2.22044604925E-16,1.));
#156 = ORIENTED_EDGE('',*,*,#157,.F.);
#157 = EDGE_CURVE('',#158,#150,#160,.T.);
#158 = VERTEX_POINT('',#159);
#159 = CARTESIAN_POINT('',(-6.465685424949,240.,-5.1));
#160 = LINE('',#161,#162);
#161 = CARTESIAN_POINT('',(-6.465685424949,240.,-5.1));
#162 = VECTOR('',#163,1.);
#163 = DIRECTION('',(0.707106781187,1.570092458684E-16,0.707106781187));
#164 = ORIENTED_EDGE('',*,*,#165,.F.);
#165 = EDGE_CURVE('',#166,#158,#168,.T.);
#166 = VERTEX_POINT('',#167);
#167 = CARTESIAN_POINT('',(-8.,240.,-5.1));
#168 = LINE('',#169,#170);
#169 = CARTESIAN_POINT('',(-8.,240.,-5.1));
#170 = VECTOR('',#171,1.);
#171 = DIRECTION('',(1.,0.,0.));
#172 = ORIENTED_EDGE('',*,*,#173,.T.);
#173 = EDGE_CURVE('',#166,#93,#174,.T.);
#174 = LINE('',#175,#176);
#175 = CARTESIAN_POINT('',(-8.,240.,-5.5));
#176 = VECTOR('',#177,1.);
#177 = DIRECTION('',(0.,2.22044604925E-16,1.));
#178 = ORIENTED_EDGE('',*,*,#109,.T.);
#179 = PLANE('',#180);
#180 = AXIS2_PLACEMENT_3D('',#181,#182,#183);
#181 = CARTESIAN_POINT('',(-6.993385172682,240.,4.244482207361E-16));
#182 = DIRECTION('',(0.,1.,0.));
#183 = DIRECTION('',(0.,0.,1.));
#184 = ADVANCED_FACE('',(#185),#244,.T.);
#185 = FACE_BOUND('',#186,.T.);
#186 = EDGE_LOOP('',(#187,#188,#189,#197,#205,#213,#221,#229,#237,#243)
  );
#187 = ORIENTED_EDGE('',*,*,#31,.F.);
#188 = ORIENTED_EDGE('',*,*,#62,.T.);
#189 = ORIENTED_EDGE('',*,*,#190,.T.);
#190 = EDGE_CURVE('',#63,#191,#193,.T.);
#191 = VERTEX_POINT('',#192);
#192 = CARTESIAN_POINT('',(-8.,250.,5.1));
#193 = LINE('',#194,#195);
#194 = CARTESIAN_POINT('',(-8.,250.,3.1));
#195 = VECTOR('',#196,1.);
#196 = DIRECTION('',(0.,2.22044604925E-16,1.));
#197 = ORIENTED_EDGE('',*,*,#198,.T.);
#198 = EDGE_CURVE('',#191,#199,#201,.T.);
#199 = VERTEX_POINT('',#200);
#200 = CARTESIAN_POINT('',(-6.465685424949,250.,5.1));
#201 = LINE('',#202,#203);
#202 = CARTESIAN_POINT('',(-6.729535298816,250.,5.1));
#203 = VECTOR('',#204,1.);
#204 = DIRECTION('',(1.,0.,0.));
#205 = ORIENTED_EDGE('',*,*,#206,.T.);
#206 = EDGE_CURVE('',#199,#207,#209,.T.);
#207 = VERTEX_POINT('',#208);
#208 = CARTESIAN_POINT('',(-4.3,250.,2.934314575051));
#209 = LINE('',#210,#211);
#210 = CARTESIAN_POINT('',(-4.239767649408,250.,2.874082224459));
#211 = VECTOR('',#212,1.);
#212 = DIRECTION('',(0.707106781187,0.,-0.707106781187));
#213 = ORIENTED_EDGE('',*,*,#214,.T.);
#214 = EDGE_CURVE('',#207,#215,#217,.T.);
#215 = VERTEX_POINT('',#216);
#216 = CARTESIAN_POINT('',(-4.3,250.,-2.934314575051));
#217 = LINE('',#218,#219);
#218 = CARTESIAN_POINT('',(-4.3,250.,-1.467157287525));
#219 = VECTOR('',#220,1.);
#220 = DIRECTION('',(0.,0.,-1.));
#221 = ORIENTED_EDGE('',*,*,#222,.T.);
#222 = EDGE_CURVE('',#215,#223,#225,.T.);
#223 = VERTEX_POINT('',#224);
#224 = CARTESIAN_POINT('',(-6.465685424949,250.,-5.1));
#225 = LINE('',#226,#227);
#226 = CARTESIAN_POINT('',(-5.322610361882,250.,-3.956924936933));
#227 = VECTOR('',#228,1.);
#228 = DIRECTION('',(-0.707106781187,0.,-0.707106781187));
#229 = ORIENTED_EDGE('',*,*,#230,.T.);
#230 = EDGE_CURVE('',#223,#231,#233,.T.);
#231 = VERTEX_POINT('',#232);
#232 = CARTESIAN_POINT('',(-8.,250.,-5.1));
#233 = LINE('',#234,#235);
#234 = CARTESIAN_POINT('',(-7.496692586341,250.,-5.1));
#235 = VECTOR('',#236,1.);
#236 = DIRECTION('',(-1.,0.,0.));
#237 = ORIENTED_EDGE('',*,*,#238,.T.);
#238 = EDGE_CURVE('',#231,#95,#239,.T.);
#239 = LINE('',#240,#241);
#240 = CARTESIAN_POINT('',(-8.,250.,-5.5));
#241 = VECTOR('',#242,1.);
#242 = DIRECTION('',(0.,2.22044604925E-16,1.));
#243 = ORIENTED_EDGE('',*,*,#102,.T.);
#244 = PLANE('',#245);
#245 = AXIS2_PLACEMENT_3D('',#246,#247,#248);
#246 = CARTESIAN_POINT('',(-6.993385172682,250.,-1.795997828514E-15));
#247 = DIRECTION('',(0.,1.,0.));
#248 = DIRECTION('',(0.,0.,1.));
#249 = ADVANCED_FACE('',(#250),#261,.F.);
#250 = FACE_BOUND('',#251,.F.);
#251 = EDGE_LOOP('',(#252,#253,#254,#255));
#252 = ORIENTED_EDGE('',*,*,#125,.F.);
#253 = ORIENTED_EDGE('',*,*,#70,.T.);
#254 = ORIENTED_EDGE('',*,*,#190,.T.);
#255 = ORIENTED_EDGE('',*,*,#256,.F.);
#256 = EDGE_CURVE('',#126,#191,#257,.T.);
#257 = LINE('',#258,#259);
#258 = CARTESIAN_POINT('',(-8.,240.,5.1));
#259 = VECTOR('',#260,1.);
#260 = DIRECTION('',(0.,1.,-2.22044604925E-16));
#261 = PLANE('',#262);
#262 = AXIS2_PLACEMENT_3D('',#263,#264,#265);
#263 = CARTESIAN_POINT('',(-8.,240.,3.1));
#264 = DIRECTION('',(1.,0.,0.));
#265 = DIRECTION('',(0.,2.22044604925E-16,1.));
#266 = ADVANCED_FACE('',(#267),#278,.F.);
#267 = FACE_BOUND('',#268,.F.);
#268 = EDGE_LOOP('',(#269,#270,#276,#277));
#269 = ORIENTED_EDGE('',*,*,#173,.F.);
#270 = ORIENTED_EDGE('',*,*,#271,.T.);
#271 = EDGE_CURVE('',#166,#231,#272,.T.);
#272 = LINE('',#273,#274);
#273 = CARTESIAN_POINT('',(-8.,240.,-5.1));
#274 = VECTOR('',#275,1.);
#275 = DIRECTION('',(0.,1.,-2.22044604925E-16));
#276 = ORIENTED_EDGE('',*,*,#238,.T.);
#277 = ORIENTED_EDGE('',*,*,#92,.F.);
#278 = PLANE('',#279);
#279 = AXIS2_PLACEMENT_3D('',#280,#281,#282);
#280 = CARTESIAN_POINT('',(-8.,240.,-5.5));
#281 = DIRECTION('',(1.,0.,0.));
#282 = DIRECTION('',(0.,2.22044604925E-16,1.));
#283 = ADVANCED_FACE('',(#284),#295,.T.);
#284 = FACE_BOUND('',#285,.T.);
#285 = EDGE_LOOP('',(#286,#287,#288,#289));
#286 = ORIENTED_EDGE('',*,*,#165,.F.);
#287 = ORIENTED_EDGE('',*,*,#271,.T.);
#288 = ORIENTED_EDGE('',*,*,#230,.F.);
#289 = ORIENTED_EDGE('',*,*,#290,.F.);
#290 = EDGE_CURVE('',#158,#223,#291,.T.);
#291 = LINE('',#292,#293);
#292 = CARTESIAN_POINT('',(-6.465685424949,240.,-5.1));
#293 = VECTOR('',#294,1.);
#294 = DIRECTION('',(0.,1.,-2.22044604925E-16));
#295 = PLANE('',#296);
#296 = AXIS2_PLACEMENT_3D('',#297,#298,#299);
#297 = CARTESIAN_POINT('',(-8.,240.,-5.1));
#298 = DIRECTION('',(0.,-2.22044604925E-16,-1.));
#299 = DIRECTION('',(1.,0.,0.));
#300 = ADVANCED_FACE('',(#301),#312,.T.);
#301 = FACE_BOUND('',#302,.T.);
#302 = EDGE_LOOP('',(#303,#304,#305,#306));
#303 = ORIENTED_EDGE('',*,*,#157,.F.);
#304 = ORIENTED_EDGE('',*,*,#290,.T.);
#305 = ORIENTED_EDGE('',*,*,#222,.F.);
#306 = ORIENTED_EDGE('',*,*,#307,.F.);
#307 = EDGE_CURVE('',#150,#215,#308,.T.);
#308 = LINE('',#309,#310);
#309 = CARTESIAN_POINT('',(-4.3,240.,-2.934314575051));
#310 = VECTOR('',#311,1.);
#311 = DIRECTION('',(0.,1.,-2.22044604925E-16));
#312 = PLANE('',#313);
#313 = AXIS2_PLACEMENT_3D('',#314,#315,#316);
#314 = CARTESIAN_POINT('',(-6.465685424949,240.,-5.1));
#315 = DIRECTION('',(0.707106781187,-1.570092458684E-16,-0.707106781187)
  );
#316 = DIRECTION('',(0.707106781187,1.570092458684E-16,0.707106781187));
#317 = ADVANCED_FACE('',(#318),#329,.T.);
#318 = FACE_BOUND('',#319,.T.);
#319 = EDGE_LOOP('',(#320,#321,#322,#323));
#320 = ORIENTED_EDGE('',*,*,#149,.F.);
#321 = ORIENTED_EDGE('',*,*,#307,.T.);
#322 = ORIENTED_EDGE('',*,*,#214,.F.);
#323 = ORIENTED_EDGE('',*,*,#324,.F.);
#324 = EDGE_CURVE('',#142,#207,#325,.T.);
#325 = LINE('',#326,#327);
#326 = CARTESIAN_POINT('',(-4.3,240.,2.934314575051));
#327 = VECTOR('',#328,1.);
#328 = DIRECTION('',(0.,1.,-2.22044604925E-16));
#329 = PLANE('',#330);
#330 = AXIS2_PLACEMENT_3D('',#331,#332,#333);
#331 = CARTESIAN_POINT('',(-4.3,240.,-2.934314575051));
#332 = DIRECTION('',(1.,0.,0.));
#333 = DIRECTION('',(0.,2.22044604925E-16,1.));
#334 = ADVANCED_FACE('',(#335),#346,.T.);
#335 = FACE_BOUND('',#336,.T.);
#336 = EDGE_LOOP('',(#337,#338,#339,#340));
#337 = ORIENTED_EDGE('',*,*,#141,.F.);
#338 = ORIENTED_EDGE('',*,*,#324,.T.);
#339 = ORIENTED_EDGE('',*,*,#206,.F.);
#340 = ORIENTED_EDGE('',*,*,#341,.F.);
#341 = EDGE_CURVE('',#134,#199,#342,.T.);
#342 = LINE('',#343,#344);
#343 = CARTESIAN_POINT('',(-6.465685424949,240.,5.1));
#344 = VECTOR('',#345,1.);
#345 = DIRECTION('',(0.,1.,-2.22044604925E-16));
#346 = PLANE('',#347);
#347 = AXIS2_PLACEMENT_3D('',#348,#349,#350);
#348 = CARTESIAN_POINT('',(-4.3,240.,2.934314575051));
#349 = DIRECTION('',(0.707106781187,1.570092458684E-16,0.707106781187));
#350 = DIRECTION('',(-0.707106781187,1.570092458684E-16,0.707106781187)
  );
#351 = ADVANCED_FACE('',(#352),#358,.T.);
#352 = FACE_BOUND('',#353,.T.);
#353 = EDGE_LOOP('',(#354,#355,#356,#357));
#354 = ORIENTED_EDGE('',*,*,#133,.F.);
#355 = ORIENTED_EDGE('',*,*,#341,.T.);
#356 = ORIENTED_EDGE('',*,*,#198,.F.);
#357 = ORIENTED_EDGE('',*,*,#256,.F.);
#358 = PLANE('',#359);
#359 = AXIS2_PLACEMENT_3D('',#360,#361,#362);
#360 = CARTESIAN_POINT('',(-6.465685424949,240.,5.1));
#361 = DIRECTION('',(0.,2.22044604925E-16,1.));
#362 = DIRECTION('',(-1.,0.,0.));
#363 = ( GEOMETRIC_REPRESENTATION_CONTEXT(3) 
GLOBAL_UNCERTAINTY_ASSIGNED_CONTEXT((#367)) GLOBAL_UNIT_ASSIGNED_CONTEXT
((#364,#365,#366)) REPRESENTATION_CONTEXT('Context #1',
  '3D Context with UNIT and UNCERTAINTY') );
#364 = ( LENGTH_UNIT() NAMED_UNIT(*) SI_UNIT(.MILLI.,.METRE.) );
#365 = ( NAMED_UNIT(*) PLANE_ANGLE_UNIT() SI_UNIT($,.RADIAN.) );
#366 = ( NAMED_UNIT(*) SI_UNIT($,.STERADIAN.) SOLID_ANGLE_UNIT() );
#367 = UNCERTAINTY_MEASURE_WITH_UNIT(LENGTH_MEASURE(5.E-06),#364,
  'distance_accuracy_value','confusion accuracy');
#368 = PRODUCT_RELATED_PRODUCT_CATEGORY('part',$,(#7));
#369 = MECHANICAL_DESIGN_GEOMETRIC_PRESENTATION_REPRESENTATION('',(#370)
  ,#363);
#370 = STYLED_ITEM('color',(#371),#15);
#371 = PRESENTATION_STYLE_ASSIGNMENT((#372,#378));
#372 = SURFACE_STYLE_USAGE(.BOTH.,#373);
#373 = SURFACE_SIDE_STYLE('',(#374));
#374 = SURFACE_STYLE_FILL_AREA(#375);
#375 = FILL_AREA_STYLE('',(#376));
#376 = FILL_AREA_STYLE_COLOUR('',#377);
#377 = COLOUR_RGB('',0.447059003357,0.474510015008,0.501960993452);
#378 = CURVE_STYLE('',#379,POSITIVE_LENGTH_MEASURE(0.1),#380);
#379 = DRAUGHTING_PRE_DEFINED_CURVE_FONT('continuous');
#380 = COLOUR_RGB('',9.803921802644E-02,9.803921802644E-02,
  9.803921802644E-02);
ENDSEC;
END-ISO-10303-21;
