ISO-10303-21;
HEADER;
FILE_DESCRIPTION(('FreeCAD Model'),'2;1');
FILE_NAME('Open CASCADE Shape Model','2026-02-28T11:22:53',(''),(''),
  'Open CASCADE STEP processor 7.9','FreeCAD','Unknown');
FILE_SCHEMA(('AUTOMOTIVE_DESIGN { 1 0 10303 214 1 1 1 1 }'));
ENDSEC;
DATA;
#1 = APPLICATION_PROTOCOL_DEFINITION('international standard',
  'automotive_design',2000,#2);
#2 = APPLICATION_CONTEXT(
  'core data for automotive mechanical design processes');
#3 = SHAPE_DEFINITION_REPRESENTATION(#4,#10);
#4 = PRODUCT_DEFINITION_SHAPE('','',#5);
#5 = PRODUCT_DEFINITION('design','',#6,#9);
#6 = PRODUCT_DEFINITION_FORMATION('','',#7);
#7 = PRODUCT('2020to1515','2020to1515','',(#8));
#8 = PRODUCT_CONTEXT('',#2,'mechanical');
#9 = PRODUCT_DEFINITION_CONTEXT('part definition',#2,'design');
#10 = ADVANCED_BREP_SHAPE_REPRESENTATION('',(#11,#15),#565);
#11 = AXIS2_PLACEMENT_3D('',#12,#13,#14);
#12 = CARTESIAN_POINT('',(0.,0.,0.));
#13 = DIRECTION('',(0.,0.,1.));
#14 = DIRECTION('',(1.,0.,-0.));
#15 = MANIFOLD_SOLID_BREP('',#16);
#16 = CLOSED_SHELL('',(#17,#57,#88,#119,#200,#281,#298,#349,#366,#383,
    #400,#417,#434,#485,#497,#519,#536,#553));
#17 = ADVANCED_FACE('',(#18),#52,.T.);
#18 = FACE_BOUND('',#19,.T.);
#19 = EDGE_LOOP('',(#20,#30,#38,#46));
#20 = ORIENTED_EDGE('',*,*,#21,.T.);
#21 = EDGE_CURVE('',#22,#24,#26,.T.);
#22 = VERTEX_POINT('',#23);
#23 = CARTESIAN_POINT('',(85.,4.449999999999,6.15));
#24 = VERTEX_POINT('',#25);
#25 = CARTESIAN_POINT('',(100.,4.449999999999,6.15));
#26 = LINE('',#27,#28);
#27 = CARTESIAN_POINT('',(85.,4.449999999999,6.15));
#28 = VECTOR('',#29,1.);
#29 = DIRECTION('',(1.,0.,0.));
#30 = ORIENTED_EDGE('',*,*,#31,.T.);
#31 = EDGE_CURVE('',#24,#32,#34,.T.);
#32 = VERTEX_POINT('',#33);
#33 = CARTESIAN_POINT('',(100.,2.449999999999,6.15));
#34 = LINE('',#35,#36);
#35 = CARTESIAN_POINT('',(100.,4.449999999999,6.15));
#36 = VECTOR('',#37,1.);
#37 = DIRECTION('',(0.,-1.,0.));
#38 = ORIENTED_EDGE('',*,*,#39,.F.);
#39 = EDGE_CURVE('',#40,#32,#42,.T.);
#40 = VERTEX_POINT('',#41);
#41 = CARTESIAN_POINT('',(85.,2.449999999999,6.15));
#42 = LINE('',#43,#44);
#43 = CARTESIAN_POINT('',(85.,2.449999999999,6.15));
#44 = VECTOR('',#45,1.);
#45 = DIRECTION('',(1.,0.,0.));
#46 = ORIENTED_EDGE('',*,*,#47,.F.);
#47 = EDGE_CURVE('',#22,#40,#48,.T.);
#48 = LINE('',#49,#50);
#49 = CARTESIAN_POINT('',(85.,4.449999999999,6.15));
#50 = VECTOR('',#51,1.);
#51 = DIRECTION('',(0.,-1.,0.));
#52 = PLANE('',#53);
#53 = AXIS2_PLACEMENT_3D('',#54,#55,#56);
#54 = CARTESIAN_POINT('',(85.,4.449999999999,6.15));
#55 = DIRECTION('',(0.,0.,-1.));
#56 = DIRECTION('',(0.,-1.,0.));
#57 = ADVANCED_FACE('',(#58),#83,.T.);
#58 = FACE_BOUND('',#59,.T.);
#59 = EDGE_LOOP('',(#60,#70,#76,#77));
#60 = ORIENTED_EDGE('',*,*,#61,.T.);
#61 = EDGE_CURVE('',#62,#64,#66,.T.);
#62 = VERTEX_POINT('',#63);
#63 = CARTESIAN_POINT('',(85.,4.449999999999,7.15));
#64 = VERTEX_POINT('',#65);
#65 = CARTESIAN_POINT('',(100.,4.449999999999,7.15));
#66 = LINE('',#67,#68);
#67 = CARTESIAN_POINT('',(85.,4.449999999999,7.15));
#68 = VECTOR('',#69,1.);
#69 = DIRECTION('',(1.,0.,0.));
#70 = ORIENTED_EDGE('',*,*,#71,.T.);
#71 = EDGE_CURVE('',#64,#24,#72,.T.);
#72 = LINE('',#73,#74);
#73 = CARTESIAN_POINT('',(100.,4.449999999999,7.15));
#74 = VECTOR('',#75,1.);
#75 = DIRECTION('',(0.,0.,-1.));
#76 = ORIENTED_EDGE('',*,*,#21,.F.);
#77 = ORIENTED_EDGE('',*,*,#78,.F.);
#78 = EDGE_CURVE('',#62,#22,#79,.T.);
#79 = LINE('',#80,#81);
#80 = CARTESIAN_POINT('',(85.,4.449999999999,7.15));
#81 = VECTOR('',#82,1.);
#82 = DIRECTION('',(0.,0.,-1.));
#83 = PLANE('',#84);
#84 = AXIS2_PLACEMENT_3D('',#85,#86,#87);
#85 = CARTESIAN_POINT('',(85.,4.449999999999,7.15));
#86 = DIRECTION('',(0.,1.,0.));
#87 = DIRECTION('',(0.,0.,-1.));
#88 = ADVANCED_FACE('',(#89),#114,.T.);
#89 = FACE_BOUND('',#90,.T.);
#90 = EDGE_LOOP('',(#91,#92,#100,#108));
#91 = ORIENTED_EDGE('',*,*,#39,.T.);
#92 = ORIENTED_EDGE('',*,*,#93,.T.);
#93 = EDGE_CURVE('',#32,#94,#96,.T.);
#94 = VERTEX_POINT('',#95);
#95 = CARTESIAN_POINT('',(100.,2.449999999999,2.9));
#96 = LINE('',#97,#98);
#97 = CARTESIAN_POINT('',(100.,2.449999999999,6.15));
#98 = VECTOR('',#99,1.);
#99 = DIRECTION('',(0.,0.,-1.));
#100 = ORIENTED_EDGE('',*,*,#101,.F.);
#101 = EDGE_CURVE('',#102,#94,#104,.T.);
#102 = VERTEX_POINT('',#103);
#103 = CARTESIAN_POINT('',(85.,2.449999999999,2.9));
#104 = LINE('',#105,#106);
#105 = CARTESIAN_POINT('',(85.,2.449999999999,2.9));
#106 = VECTOR('',#107,1.);
#107 = DIRECTION('',(1.,0.,0.));
#108 = ORIENTED_EDGE('',*,*,#109,.F.);
#109 = EDGE_CURVE('',#40,#102,#110,.T.);
#110 = LINE('',#111,#112);
#111 = CARTESIAN_POINT('',(85.,2.449999999999,6.15));
#112 = VECTOR('',#113,1.);
#113 = DIRECTION('',(0.,0.,-1.));
#114 = PLANE('',#115);
#115 = AXIS2_PLACEMENT_3D('',#116,#117,#118);
#116 = CARTESIAN_POINT('',(85.,2.449999999999,6.15));
#117 = DIRECTION('',(0.,1.,0.));
#118 = DIRECTION('',(0.,0.,-1.));
#119 = ADVANCED_FACE('',(#120),#195,.F.);
#120 = FACE_BOUND('',#121,.T.);
#121 = EDGE_LOOP('',(#122,#123,#124,#132,#140,#148,#156,#164,#172,#180,
    #188,#194));
#122 = ORIENTED_EDGE('',*,*,#47,.T.);
#123 = ORIENTED_EDGE('',*,*,#109,.T.);
#124 = ORIENTED_EDGE('',*,*,#125,.T.);
#125 = EDGE_CURVE('',#102,#126,#128,.T.);
#126 = VERTEX_POINT('',#127);
#127 = CARTESIAN_POINT('',(85.,12.049999999999,2.9));
#128 = LINE('',#129,#130);
#129 = CARTESIAN_POINT('',(85.,2.449999999999,2.9));
#130 = VECTOR('',#131,1.);
#131 = DIRECTION('',(0.,1.,0.));
#132 = ORIENTED_EDGE('',*,*,#133,.T.);
#133 = EDGE_CURVE('',#126,#134,#136,.T.);
#134 = VERTEX_POINT('',#135);
#135 = CARTESIAN_POINT('',(85.,12.049999999999,6.149999999997));
#136 = LINE('',#137,#138);
#137 = CARTESIAN_POINT('',(85.,12.049999999999,2.9));
#138 = VECTOR('',#139,1.);
#139 = DIRECTION('',(0.,0.,1.));
#140 = ORIENTED_EDGE('',*,*,#141,.T.);
#141 = EDGE_CURVE('',#134,#142,#144,.T.);
#142 = VERTEX_POINT('',#143);
#143 = CARTESIAN_POINT('',(85.,10.049999999999,6.149999999997));
#144 = LINE('',#145,#146);
#145 = CARTESIAN_POINT('',(85.,12.049999999999,6.149999999997));
#146 = VECTOR('',#147,1.);
#147 = DIRECTION('',(0.,-1.,0.));
#148 = ORIENTED_EDGE('',*,*,#149,.T.);
#149 = EDGE_CURVE('',#142,#150,#152,.T.);
#150 = VERTEX_POINT('',#151);
#151 = CARTESIAN_POINT('',(85.,10.049999999999,7.15));
#152 = LINE('',#153,#154);
#153 = CARTESIAN_POINT('',(85.,10.049999999999,6.149999999997));
#154 = VECTOR('',#155,1.);
#155 = DIRECTION('',(0.,0.,1.));
#156 = ORIENTED_EDGE('',*,*,#157,.T.);
#157 = EDGE_CURVE('',#150,#158,#160,.T.);
#158 = VERTEX_POINT('',#159);
#159 = CARTESIAN_POINT('',(85.,14.5,7.15));
#160 = LINE('',#161,#162);
#161 = CARTESIAN_POINT('',(85.,10.049999999999,7.15));
#162 = VECTOR('',#163,1.);
#163 = DIRECTION('',(0.,1.,0.));
#164 = ORIENTED_EDGE('',*,*,#165,.T.);
#165 = EDGE_CURVE('',#158,#166,#168,.T.);
#166 = VERTEX_POINT('',#167);
#167 = CARTESIAN_POINT('',(85.,14.5,2.8E-14));
#168 = LINE('',#169,#170);
#169 = CARTESIAN_POINT('',(85.,14.5,7.15));
#170 = VECTOR('',#171,1.);
#171 = DIRECTION('',(0.,0.,-1.));
#172 = ORIENTED_EDGE('',*,*,#173,.T.);
#173 = EDGE_CURVE('',#166,#174,#176,.T.);
#174 = VERTEX_POINT('',#175);
#175 = CARTESIAN_POINT('',(85.,-5.7E-14,2.8E-14));
#176 = LINE('',#177,#178);
#177 = CARTESIAN_POINT('',(85.,14.5,2.8E-14));
#178 = VECTOR('',#179,1.);
#179 = DIRECTION('',(0.,-1.,0.));
#180 = ORIENTED_EDGE('',*,*,#181,.T.);
#181 = EDGE_CURVE('',#174,#182,#184,.T.);
#182 = VERTEX_POINT('',#183);
#183 = CARTESIAN_POINT('',(85.,-5.7E-14,7.15));
#184 = LINE('',#185,#186);
#185 = CARTESIAN_POINT('',(85.,-5.7E-14,2.8E-14));
#186 = VECTOR('',#187,1.);
#187 = DIRECTION('',(0.,0.,1.));
#188 = ORIENTED_EDGE('',*,*,#189,.T.);
#189 = EDGE_CURVE('',#182,#62,#190,.T.);
#190 = LINE('',#191,#192);
#191 = CARTESIAN_POINT('',(85.,-5.7E-14,7.15));
#192 = VECTOR('',#193,1.);
#193 = DIRECTION('',(0.,1.,0.));
#194 = ORIENTED_EDGE('',*,*,#78,.T.);
#195 = PLANE('',#196);
#196 = AXIS2_PLACEMENT_3D('',#197,#198,#199);
#197 = CARTESIAN_POINT('',(85.,7.25,3.510200668896));
#198 = DIRECTION('',(1.,0.,0.));
#199 = DIRECTION('',(0.,0.,1.));
#200 = ADVANCED_FACE('',(#201),#276,.T.);
#201 = FACE_BOUND('',#202,.F.);
#202 = EDGE_LOOP('',(#203,#204,#205,#213,#221,#229,#237,#245,#253,#261,
    #269,#275));
#203 = ORIENTED_EDGE('',*,*,#31,.T.);
#204 = ORIENTED_EDGE('',*,*,#93,.T.);
#205 = ORIENTED_EDGE('',*,*,#206,.T.);
#206 = EDGE_CURVE('',#94,#207,#209,.T.);
#207 = VERTEX_POINT('',#208);
#208 = CARTESIAN_POINT('',(100.,12.049999999999,2.9));
#209 = LINE('',#210,#211);
#210 = CARTESIAN_POINT('',(100.,2.449999999999,2.9));
#211 = VECTOR('',#212,1.);
#212 = DIRECTION('',(0.,1.,0.));
#213 = ORIENTED_EDGE('',*,*,#214,.T.);
#214 = EDGE_CURVE('',#207,#215,#217,.T.);
#215 = VERTEX_POINT('',#216);
#216 = CARTESIAN_POINT('',(100.,12.049999999999,6.149999999997));
#217 = LINE('',#218,#219);
#218 = CARTESIAN_POINT('',(100.,12.049999999999,2.9));
#219 = VECTOR('',#220,1.);
#220 = DIRECTION('',(0.,0.,1.));
#221 = ORIENTED_EDGE('',*,*,#222,.T.);
#222 = EDGE_CURVE('',#215,#223,#225,.T.);
#223 = VERTEX_POINT('',#224);
#224 = CARTESIAN_POINT('',(100.,10.049999999999,6.149999999997));
#225 = LINE('',#226,#227);
#226 = CARTESIAN_POINT('',(100.,12.049999999999,6.149999999997));
#227 = VECTOR('',#228,1.);
#228 = DIRECTION('',(0.,-1.,0.));
#229 = ORIENTED_EDGE('',*,*,#230,.T.);
#230 = EDGE_CURVE('',#223,#231,#233,.T.);
#231 = VERTEX_POINT('',#232);
#232 = CARTESIAN_POINT('',(100.,10.049999999999,7.15));
#233 = LINE('',#234,#235);
#234 = CARTESIAN_POINT('',(100.,10.049999999999,6.149999999997));
#235 = VECTOR('',#236,1.);
#236 = DIRECTION('',(0.,0.,1.));
#237 = ORIENTED_EDGE('',*,*,#238,.T.);
#238 = EDGE_CURVE('',#231,#239,#241,.T.);
#239 = VERTEX_POINT('',#240);
#240 = CARTESIAN_POINT('',(100.,14.5,7.15));
#241 = LINE('',#242,#243);
#242 = CARTESIAN_POINT('',(100.,10.049999999999,7.15));
#243 = VECTOR('',#244,1.);
#244 = DIRECTION('',(0.,1.,0.));
#245 = ORIENTED_EDGE('',*,*,#246,.T.);
#246 = EDGE_CURVE('',#239,#247,#249,.T.);
#247 = VERTEX_POINT('',#248);
#248 = CARTESIAN_POINT('',(100.,14.5,2.8E-14));
#249 = LINE('',#250,#251);
#250 = CARTESIAN_POINT('',(100.,14.5,7.15));
#251 = VECTOR('',#252,1.);
#252 = DIRECTION('',(0.,0.,-1.));
#253 = ORIENTED_EDGE('',*,*,#254,.T.);
#254 = EDGE_CURVE('',#247,#255,#257,.T.);
#255 = VERTEX_POINT('',#256);
#256 = CARTESIAN_POINT('',(100.,-5.7E-14,2.8E-14));
#257 = LINE('',#258,#259);
#258 = CARTESIAN_POINT('',(100.,14.5,2.8E-14));
#259 = VECTOR('',#260,1.);
#260 = DIRECTION('',(0.,-1.,0.));
#261 = ORIENTED_EDGE('',*,*,#262,.T.);
#262 = EDGE_CURVE('',#255,#263,#265,.T.);
#263 = VERTEX_POINT('',#264);
#264 = CARTESIAN_POINT('',(100.,-5.7E-14,7.15));
#265 = LINE('',#266,#267);
#266 = CARTESIAN_POINT('',(100.,-5.7E-14,2.8E-14));
#267 = VECTOR('',#268,1.);
#268 = DIRECTION('',(0.,0.,1.));
#269 = ORIENTED_EDGE('',*,*,#270,.T.);
#270 = EDGE_CURVE('',#263,#64,#271,.T.);
#271 = LINE('',#272,#273);
#272 = CARTESIAN_POINT('',(100.,-5.7E-14,7.15));
#273 = VECTOR('',#274,1.);
#274 = DIRECTION('',(0.,1.,0.));
#275 = ORIENTED_EDGE('',*,*,#71,.T.);
#276 = PLANE('',#277);
#277 = AXIS2_PLACEMENT_3D('',#278,#279,#280);
#278 = CARTESIAN_POINT('',(100.,7.25,3.510200668896));
#279 = DIRECTION('',(1.,0.,0.));
#280 = DIRECTION('',(0.,0.,1.));
#281 = ADVANCED_FACE('',(#282),#293,.T.);
#282 = FACE_BOUND('',#283,.T.);
#283 = EDGE_LOOP('',(#284,#290,#291,#292));
#284 = ORIENTED_EDGE('',*,*,#285,.T.);
#285 = EDGE_CURVE('',#182,#263,#286,.T.);
#286 = LINE('',#287,#288);
#287 = CARTESIAN_POINT('',(85.,-5.7E-14,7.15));
#288 = VECTOR('',#289,1.);
#289 = DIRECTION('',(1.,0.,0.));
#290 = ORIENTED_EDGE('',*,*,#270,.T.);
#291 = ORIENTED_EDGE('',*,*,#61,.F.);
#292 = ORIENTED_EDGE('',*,*,#189,.F.);
#293 = PLANE('',#294);
#294 = AXIS2_PLACEMENT_3D('',#295,#296,#297);
#295 = CARTESIAN_POINT('',(85.,-5.7E-14,7.15));
#296 = DIRECTION('',(0.,0.,1.));
#297 = DIRECTION('',(0.,1.,0.));
#298 = ADVANCED_FACE('',(#299,#310),#344,.T.);
#299 = FACE_BOUND('',#300,.T.);
#300 = EDGE_LOOP('',(#301,#302,#303,#309));
#301 = ORIENTED_EDGE('',*,*,#101,.T.);
#302 = ORIENTED_EDGE('',*,*,#206,.T.);
#303 = ORIENTED_EDGE('',*,*,#304,.F.);
#304 = EDGE_CURVE('',#126,#207,#305,.T.);
#305 = LINE('',#306,#307);
#306 = CARTESIAN_POINT('',(85.,12.049999999999,2.9));
#307 = VECTOR('',#308,1.);
#308 = DIRECTION('',(1.,0.,0.));
#309 = ORIENTED_EDGE('',*,*,#125,.F.);
#310 = FACE_BOUND('',#311,.T.);
#311 = EDGE_LOOP('',(#312,#322,#330,#338));
#312 = ORIENTED_EDGE('',*,*,#313,.F.);
#313 = EDGE_CURVE('',#314,#316,#318,.T.);
#314 = VERTEX_POINT('',#315);
#315 = CARTESIAN_POINT('',(88.5,10.049999999999,2.9));
#316 = VERTEX_POINT('',#317);
#317 = CARTESIAN_POINT('',(88.5,4.449999999999,2.9));
#318 = LINE('',#319,#320);
#319 = CARTESIAN_POINT('',(88.5,10.049999999999,2.9));
#320 = VECTOR('',#321,1.);
#321 = DIRECTION('',(0.,-1.,0.));
#322 = ORIENTED_EDGE('',*,*,#323,.F.);
#323 = EDGE_CURVE('',#324,#314,#326,.T.);
#324 = VERTEX_POINT('',#325);
#325 = CARTESIAN_POINT('',(96.5,10.049999999999,2.9));
#326 = LINE('',#327,#328);
#327 = CARTESIAN_POINT('',(96.5,10.049999999999,2.9));
#328 = VECTOR('',#329,1.);
#329 = DIRECTION('',(-1.,0.,0.));
#330 = ORIENTED_EDGE('',*,*,#331,.F.);
#331 = EDGE_CURVE('',#332,#324,#334,.T.);
#332 = VERTEX_POINT('',#333);
#333 = CARTESIAN_POINT('',(96.5,4.449999999999,2.9));
#334 = LINE('',#335,#336);
#335 = CARTESIAN_POINT('',(96.5,4.449999999999,2.9));
#336 = VECTOR('',#337,1.);
#337 = DIRECTION('',(0.,1.,0.));
#338 = ORIENTED_EDGE('',*,*,#339,.F.);
#339 = EDGE_CURVE('',#316,#332,#340,.T.);
#340 = LINE('',#341,#342);
#341 = CARTESIAN_POINT('',(88.5,4.449999999999,2.9));
#342 = VECTOR('',#343,1.);
#343 = DIRECTION('',(1.,0.,0.));
#344 = PLANE('',#345);
#345 = AXIS2_PLACEMENT_3D('',#346,#347,#348);
#346 = CARTESIAN_POINT('',(85.,2.449999999999,2.9));
#347 = DIRECTION('',(0.,0.,1.));
#348 = DIRECTION('',(0.,1.,0.));
#349 = ADVANCED_FACE('',(#350),#361,.T.);
#350 = FACE_BOUND('',#351,.T.);
#351 = EDGE_LOOP('',(#352,#353,#354,#360));
#352 = ORIENTED_EDGE('',*,*,#304,.T.);
#353 = ORIENTED_EDGE('',*,*,#214,.T.);
#354 = ORIENTED_EDGE('',*,*,#355,.F.);
#355 = EDGE_CURVE('',#134,#215,#356,.T.);
#356 = LINE('',#357,#358);
#357 = CARTESIAN_POINT('',(85.,12.049999999999,6.149999999997));
#358 = VECTOR('',#359,1.);
#359 = DIRECTION('',(1.,0.,0.));
#360 = ORIENTED_EDGE('',*,*,#133,.F.);
#361 = PLANE('',#362);
#362 = AXIS2_PLACEMENT_3D('',#363,#364,#365);
#363 = CARTESIAN_POINT('',(85.,12.049999999999,2.9));
#364 = DIRECTION('',(0.,-1.,0.));
#365 = DIRECTION('',(0.,0.,1.));
#366 = ADVANCED_FACE('',(#367),#378,.T.);
#367 = FACE_BOUND('',#368,.T.);
#368 = EDGE_LOOP('',(#369,#370,#371,#377));
#369 = ORIENTED_EDGE('',*,*,#355,.T.);
#370 = ORIENTED_EDGE('',*,*,#222,.T.);
#371 = ORIENTED_EDGE('',*,*,#372,.F.);
#372 = EDGE_CURVE('',#142,#223,#373,.T.);
#373 = LINE('',#374,#375);
#374 = CARTESIAN_POINT('',(85.,10.049999999999,6.149999999997));
#375 = VECTOR('',#376,1.);
#376 = DIRECTION('',(1.,0.,0.));
#377 = ORIENTED_EDGE('',*,*,#141,.F.);
#378 = PLANE('',#379);
#379 = AXIS2_PLACEMENT_3D('',#380,#381,#382);
#380 = CARTESIAN_POINT('',(85.,12.049999999999,6.149999999997));
#381 = DIRECTION('',(0.,0.,-1.));
#382 = DIRECTION('',(0.,-1.,0.));
#383 = ADVANCED_FACE('',(#384),#395,.T.);
#384 = FACE_BOUND('',#385,.T.);
#385 = EDGE_LOOP('',(#386,#387,#388,#394));
#386 = ORIENTED_EDGE('',*,*,#372,.T.);
#387 = ORIENTED_EDGE('',*,*,#230,.T.);
#388 = ORIENTED_EDGE('',*,*,#389,.F.);
#389 = EDGE_CURVE('',#150,#231,#390,.T.);
#390 = LINE('',#391,#392);
#391 = CARTESIAN_POINT('',(85.,10.049999999999,7.15));
#392 = VECTOR('',#393,1.);
#393 = DIRECTION('',(1.,0.,0.));
#394 = ORIENTED_EDGE('',*,*,#149,.F.);
#395 = PLANE('',#396);
#396 = AXIS2_PLACEMENT_3D('',#397,#398,#399);
#397 = CARTESIAN_POINT('',(85.,10.049999999999,6.149999999997));
#398 = DIRECTION('',(0.,-1.,0.));
#399 = DIRECTION('',(0.,0.,1.));
#400 = ADVANCED_FACE('',(#401),#412,.T.);
#401 = FACE_BOUND('',#402,.T.);
#402 = EDGE_LOOP('',(#403,#404,#405,#411));
#403 = ORIENTED_EDGE('',*,*,#389,.T.);
#404 = ORIENTED_EDGE('',*,*,#238,.T.);
#405 = ORIENTED_EDGE('',*,*,#406,.F.);
#406 = EDGE_CURVE('',#158,#239,#407,.T.);
#407 = LINE('',#408,#409);
#408 = CARTESIAN_POINT('',(85.,14.5,7.15));
#409 = VECTOR('',#410,1.);
#410 = DIRECTION('',(1.,0.,0.));
#411 = ORIENTED_EDGE('',*,*,#157,.F.);
#412 = PLANE('',#413);
#413 = AXIS2_PLACEMENT_3D('',#414,#415,#416);
#414 = CARTESIAN_POINT('',(85.,10.049999999999,7.15));
#415 = DIRECTION('',(0.,0.,1.));
#416 = DIRECTION('',(0.,1.,0.));
#417 = ADVANCED_FACE('',(#418),#429,.T.);
#418 = FACE_BOUND('',#419,.T.);
#419 = EDGE_LOOP('',(#420,#421,#422,#428));
#420 = ORIENTED_EDGE('',*,*,#406,.T.);
#421 = ORIENTED_EDGE('',*,*,#246,.T.);
#422 = ORIENTED_EDGE('',*,*,#423,.F.);
#423 = EDGE_CURVE('',#166,#247,#424,.T.);
#424 = LINE('',#425,#426);
#425 = CARTESIAN_POINT('',(85.,14.5,2.8E-14));
#426 = VECTOR('',#427,1.);
#427 = DIRECTION('',(1.,0.,0.));
#428 = ORIENTED_EDGE('',*,*,#165,.F.);
#429 = PLANE('',#430);
#430 = AXIS2_PLACEMENT_3D('',#431,#432,#433);
#431 = CARTESIAN_POINT('',(85.,14.5,7.15));
#432 = DIRECTION('',(0.,1.,0.));
#433 = DIRECTION('',(0.,0.,-1.));
#434 = ADVANCED_FACE('',(#435,#446),#480,.T.);
#435 = FACE_BOUND('',#436,.T.);
#436 = EDGE_LOOP('',(#437,#438,#439,#445));
#437 = ORIENTED_EDGE('',*,*,#423,.T.);
#438 = ORIENTED_EDGE('',*,*,#254,.T.);
#439 = ORIENTED_EDGE('',*,*,#440,.F.);
#440 = EDGE_CURVE('',#174,#255,#441,.T.);
#441 = LINE('',#442,#443);
#442 = CARTESIAN_POINT('',(85.,-5.7E-14,2.8E-14));
#443 = VECTOR('',#444,1.);
#444 = DIRECTION('',(1.,0.,0.));
#445 = ORIENTED_EDGE('',*,*,#173,.F.);
#446 = FACE_BOUND('',#447,.T.);
#447 = EDGE_LOOP('',(#448,#458,#466,#474));
#448 = ORIENTED_EDGE('',*,*,#449,.F.);
#449 = EDGE_CURVE('',#450,#452,#454,.T.);
#450 = VERTEX_POINT('',#451);
#451 = CARTESIAN_POINT('',(88.5,4.449999999999,2.785591079015E-14));
#452 = VERTEX_POINT('',#453);
#453 = CARTESIAN_POINT('',(88.5,10.049999999999,2.785591079015E-14));
#454 = LINE('',#455,#456);
#455 = CARTESIAN_POINT('',(88.5,12.275,2.792795539507E-14));
#456 = VECTOR('',#457,1.);
#457 = DIRECTION('',(0.,1.,0.));
#458 = ORIENTED_EDGE('',*,*,#459,.F.);
#459 = EDGE_CURVE('',#460,#450,#462,.T.);
#460 = VERTEX_POINT('',#461);
#461 = CARTESIAN_POINT('',(96.5,4.449999999999,2.785591079015E-14));
#462 = LINE('',#463,#464);
#463 = CARTESIAN_POINT('',(86.75,4.449999999999,2.792795539507E-14));
#464 = VECTOR('',#465,1.);
#465 = DIRECTION('',(-1.,-0.,-0.));
#466 = ORIENTED_EDGE('',*,*,#467,.F.);
#467 = EDGE_CURVE('',#468,#460,#470,.T.);
#468 = VERTEX_POINT('',#469);
#469 = CARTESIAN_POINT('',(96.5,10.049999999999,2.785591079015E-14));
#470 = LINE('',#471,#472);
#471 = CARTESIAN_POINT('',(96.5,9.475,2.792795539507E-14));
#472 = VECTOR('',#473,1.);
#473 = DIRECTION('',(0.,-1.,0.));
#474 = ORIENTED_EDGE('',*,*,#475,.F.);
#475 = EDGE_CURVE('',#452,#468,#476,.T.);
#476 = LINE('',#477,#478);
#477 = CARTESIAN_POINT('',(90.75,10.049999999999,2.792795539507E-14));
#478 = VECTOR('',#479,1.);
#479 = DIRECTION('',(1.,0.,0.));
#480 = PLANE('',#481);
#481 = AXIS2_PLACEMENT_3D('',#482,#483,#484);
#482 = CARTESIAN_POINT('',(85.,14.5,2.8E-14));
#483 = DIRECTION('',(0.,0.,-1.));
#484 = DIRECTION('',(0.,-1.,0.));
#485 = ADVANCED_FACE('',(#486),#492,.T.);
#486 = FACE_BOUND('',#487,.T.);
#487 = EDGE_LOOP('',(#488,#489,#490,#491));
#488 = ORIENTED_EDGE('',*,*,#440,.T.);
#489 = ORIENTED_EDGE('',*,*,#262,.T.);
#490 = ORIENTED_EDGE('',*,*,#285,.F.);
#491 = ORIENTED_EDGE('',*,*,#181,.F.);
#492 = PLANE('',#493);
#493 = AXIS2_PLACEMENT_3D('',#494,#495,#496);
#494 = CARTESIAN_POINT('',(85.,-5.7E-14,2.8E-14));
#495 = DIRECTION('',(0.,-1.,0.));
#496 = DIRECTION('',(0.,0.,1.));
#497 = ADVANCED_FACE('',(#498),#514,.F.);
#498 = FACE_BOUND('',#499,.F.);
#499 = EDGE_LOOP('',(#500,#501,#507,#508));
#500 = ORIENTED_EDGE('',*,*,#313,.F.);
#501 = ORIENTED_EDGE('',*,*,#502,.T.);
#502 = EDGE_CURVE('',#314,#452,#503,.T.);
#503 = LINE('',#504,#505);
#504 = CARTESIAN_POINT('',(88.5,10.049999999999,2.9));
#505 = VECTOR('',#506,1.);
#506 = DIRECTION('',(-0.,-0.,-1.));
#507 = ORIENTED_EDGE('',*,*,#449,.F.);
#508 = ORIENTED_EDGE('',*,*,#509,.F.);
#509 = EDGE_CURVE('',#316,#450,#510,.T.);
#510 = LINE('',#511,#512);
#511 = CARTESIAN_POINT('',(88.5,4.449999999999,2.9));
#512 = VECTOR('',#513,1.);
#513 = DIRECTION('',(-0.,-0.,-1.));
#514 = PLANE('',#515);
#515 = AXIS2_PLACEMENT_3D('',#516,#517,#518);
#516 = CARTESIAN_POINT('',(88.5,10.049999999999,2.9));
#517 = DIRECTION('',(-1.,0.,0.));
#518 = DIRECTION('',(0.,-1.,0.));
#519 = ADVANCED_FACE('',(#520),#531,.F.);
#520 = FACE_BOUND('',#521,.F.);
#521 = EDGE_LOOP('',(#522,#523,#524,#525));
#522 = ORIENTED_EDGE('',*,*,#339,.F.);
#523 = ORIENTED_EDGE('',*,*,#509,.T.);
#524 = ORIENTED_EDGE('',*,*,#459,.F.);
#525 = ORIENTED_EDGE('',*,*,#526,.F.);
#526 = EDGE_CURVE('',#332,#460,#527,.T.);
#527 = LINE('',#528,#529);
#528 = CARTESIAN_POINT('',(96.5,4.449999999999,2.9));
#529 = VECTOR('',#530,1.);
#530 = DIRECTION('',(-0.,-0.,-1.));
#531 = PLANE('',#532);
#532 = AXIS2_PLACEMENT_3D('',#533,#534,#535);
#533 = CARTESIAN_POINT('',(88.5,4.449999999999,2.9));
#534 = DIRECTION('',(0.,-1.,0.));
#535 = DIRECTION('',(1.,0.,0.));
#536 = ADVANCED_FACE('',(#537),#548,.F.);
#537 = FACE_BOUND('',#538,.F.);
#538 = EDGE_LOOP('',(#539,#540,#541,#542));
#539 = ORIENTED_EDGE('',*,*,#331,.F.);
#540 = ORIENTED_EDGE('',*,*,#526,.T.);
#541 = ORIENTED_EDGE('',*,*,#467,.F.);
#542 = ORIENTED_EDGE('',*,*,#543,.F.);
#543 = EDGE_CURVE('',#324,#468,#544,.T.);
#544 = LINE('',#545,#546);
#545 = CARTESIAN_POINT('',(96.5,10.049999999999,2.9));
#546 = VECTOR('',#547,1.);
#547 = DIRECTION('',(-0.,-0.,-1.));
#548 = PLANE('',#549);
#549 = AXIS2_PLACEMENT_3D('',#550,#551,#552);
#550 = CARTESIAN_POINT('',(96.5,4.449999999999,2.9));
#551 = DIRECTION('',(1.,0.,0.));
#552 = DIRECTION('',(0.,1.,0.));
#553 = ADVANCED_FACE('',(#554),#560,.F.);
#554 = FACE_BOUND('',#555,.F.);
#555 = EDGE_LOOP('',(#556,#557,#558,#559));
#556 = ORIENTED_EDGE('',*,*,#323,.F.);
#557 = ORIENTED_EDGE('',*,*,#543,.T.);
#558 = ORIENTED_EDGE('',*,*,#475,.F.);
#559 = ORIENTED_EDGE('',*,*,#502,.F.);
#560 = PLANE('',#561);
#561 = AXIS2_PLACEMENT_3D('',#562,#563,#564);
#562 = CARTESIAN_POINT('',(96.5,10.049999999999,2.9));
#563 = DIRECTION('',(0.,1.,0.));
#564 = DIRECTION('',(-1.,0.,0.));
#565 = ( GEOMETRIC_REPRESENTATION_CONTEXT(3) 
GLOBAL_UNCERTAINTY_ASSIGNED_CONTEXT((#569)) GLOBAL_UNIT_ASSIGNED_CONTEXT
((#566,#567,#568)) REPRESENTATION_CONTEXT('Context #1',
  '3D Context with UNIT and UNCERTAINTY') );
#566 = ( LENGTH_UNIT() NAMED_UNIT(*) SI_UNIT(.MILLI.,.METRE.) );
#567 = ( NAMED_UNIT(*) PLANE_ANGLE_UNIT() SI_UNIT($,.RADIAN.) );
#568 = ( NAMED_UNIT(*) SI_UNIT($,.STERADIAN.) SOLID_ANGLE_UNIT() );
#569 = UNCERTAINTY_MEASURE_WITH_UNIT(LENGTH_MEASURE(1.E-06),#566,
  'distance_accuracy_value','confusion accuracy');
#570 = PRODUCT_RELATED_PRODUCT_CATEGORY('part',$,(#7));
#571 = MECHANICAL_DESIGN_GEOMETRIC_PRESENTATION_REPRESENTATION('',(#572)
  ,#565);
#572 = STYLED_ITEM('color',(#573),#15);
#573 = PRESENTATION_STYLE_ASSIGNMENT((#574,#580));
#574 = SURFACE_STYLE_USAGE(.BOTH.,#575);
#575 = SURFACE_SIDE_STYLE('',(#576));
#576 = SURFACE_STYLE_FILL_AREA(#577);
#577 = FILL_AREA_STYLE('',(#578));
#578 = FILL_AREA_STYLE_COLOUR('',#579);
#579 = COLOUR_RGB('',0.447058818107,0.474509808674,0.501960817233);
#580 = CURVE_STYLE('',#581,POSITIVE_LENGTH_MEASURE(0.1),#582);
#581 = DRAUGHTING_PRE_DEFINED_CURVE_FONT('continuous');
#582 = COLOUR_RGB('',9.803921802644E-02,9.803921802644E-02,
  9.803921802644E-02);
ENDSEC;
END-ISO-10303-21;
