ISO-10303-21;
HEADER;
FILE_DESCRIPTION(('FreeCAD Model'),'2;1');
FILE_NAME('Open CASCADE Shape Model','2026-02-23T20:12:36',(''),(''),
  'Open CASCADE STEP processor 7.9','FreeCAD','Unknown');
FILE_SCHEMA(('AUTOMOTIVE_DESIGN { 1 0 10303 214 1 1 1 1 }'));
ENDSEC;
DATA;
#1 = APPLICATION_PROTOCOL_DEFINITION('international standard',
  'automotive_design',2000,#2);
#2 = APPLICATION_CONTEXT(
  'core data for automotive mechanical design processes');
#3 = SHAPE_DEFINITION_REPRESENTATION(#4,#10);
#4 = PRODUCT_DEFINITION_SHAPE('','',#5);
#5 = PRODUCT_DEFINITION('design','',#6,#9);
#6 = PRODUCT_DEFINITION_FORMATION('','',#7);
#7 = PRODUCT('T8 Nut Holder','T8 Nut Holder','',(#8));
#8 = PRODUCT_CONTEXT('',#2,'mechanical');
#9 = PRODUCT_DEFINITION_CONTEXT('part definition',#2,'design');
#10 = ADVANCED_BREP_SHAPE_REPRESENTATION('',(#11,#15),#964);
#11 = AXIS2_PLACEMENT_3D('',#12,#13,#14);
#12 = CARTESIAN_POINT('',(0.,0.,0.));
#13 = DIRECTION('',(0.,0.,1.));
#14 = DIRECTION('',(1.,0.,-0.));
#15 = MANIFOLD_SOLID_BREP('',#16);
#16 = CLOSED_SHELL('',(#17,#57,#132,#185,#274,#363,#380,#405,#430,#455,
    #480,#497,#522,#547,#581,#606,#631,#648,#673,#698,#723,#748,#773,
    #798,#818,#830,#850,#862,#879,#896,#913,#930,#947));
#17 = ADVANCED_FACE('',(#18),#52,.T.);
#18 = FACE_BOUND('',#19,.T.);
#19 = EDGE_LOOP('',(#20,#30,#38,#46));
#20 = ORIENTED_EDGE('',*,*,#21,.T.);
#21 = EDGE_CURVE('',#22,#24,#26,.T.);
#22 = VERTEX_POINT('',#23);
#23 = CARTESIAN_POINT('',(-13.,-28.,10.));
#24 = VERTEX_POINT('',#25);
#25 = CARTESIAN_POINT('',(-13.,-28.,-50.));
#26 = LINE('',#27,#28);
#27 = CARTESIAN_POINT('',(-13.,-28.,10.));
#28 = VECTOR('',#29,1.);
#29 = DIRECTION('',(0.,0.,-1.));
#30 = ORIENTED_EDGE('',*,*,#31,.T.);
#31 = EDGE_CURVE('',#24,#32,#34,.T.);
#32 = VERTEX_POINT('',#33);
#33 = CARTESIAN_POINT('',(-7.E-15,-28.,-50.));
#34 = LINE('',#35,#36);
#35 = CARTESIAN_POINT('',(-13.,-28.,-50.));
#36 = VECTOR('',#37,1.);
#37 = DIRECTION('',(1.,0.,0.));
#38 = ORIENTED_EDGE('',*,*,#39,.F.);
#39 = EDGE_CURVE('',#40,#32,#42,.T.);
#40 = VERTEX_POINT('',#41);
#41 = CARTESIAN_POINT('',(-7.E-15,-28.,10.));
#42 = LINE('',#43,#44);
#43 = CARTESIAN_POINT('',(-6.7E-15,-28.,10.));
#44 = VECTOR('',#45,1.);
#45 = DIRECTION('',(0.,0.,-1.));
#46 = ORIENTED_EDGE('',*,*,#47,.F.);
#47 = EDGE_CURVE('',#22,#40,#48,.T.);
#48 = LINE('',#49,#50);
#49 = CARTESIAN_POINT('',(-13.,-28.,10.));
#50 = VECTOR('',#51,1.);
#51 = DIRECTION('',(1.,0.,0.));
#52 = PLANE('',#53);
#53 = AXIS2_PLACEMENT_3D('',#54,#55,#56);
#54 = CARTESIAN_POINT('',(-13.,-28.,10.));
#55 = DIRECTION('',(0.,-1.,0.));
#56 = DIRECTION('',(1.,0.,0.));
#57 = ADVANCED_FACE('',(#58,#83,#94,#105,#116),#127,.T.);
#58 = FACE_BOUND('',#59,.T.);
#59 = EDGE_LOOP('',(#60,#70,#76,#77));
#60 = ORIENTED_EDGE('',*,*,#61,.T.);
#61 = EDGE_CURVE('',#62,#64,#66,.T.);
#62 = VERTEX_POINT('',#63);
#63 = CARTESIAN_POINT('',(-13.,28.,10.));
#64 = VERTEX_POINT('',#65);
#65 = CARTESIAN_POINT('',(-13.,28.,-50.));
#66 = LINE('',#67,#68);
#67 = CARTESIAN_POINT('',(-13.,28.,10.));
#68 = VECTOR('',#69,1.);
#69 = DIRECTION('',(0.,0.,-1.));
#70 = ORIENTED_EDGE('',*,*,#71,.T.);
#71 = EDGE_CURVE('',#64,#24,#72,.T.);
#72 = LINE('',#73,#74);
#73 = CARTESIAN_POINT('',(-13.,28.,-50.));
#74 = VECTOR('',#75,1.);
#75 = DIRECTION('',(0.,-1.,0.));
#76 = ORIENTED_EDGE('',*,*,#21,.F.);
#77 = ORIENTED_EDGE('',*,*,#78,.F.);
#78 = EDGE_CURVE('',#62,#22,#79,.T.);
#79 = LINE('',#80,#81);
#80 = CARTESIAN_POINT('',(-13.,28.,10.));
#81 = VECTOR('',#82,1.);
#82 = DIRECTION('',(0.,-1.,0.));
#83 = FACE_BOUND('',#84,.T.);
#84 = EDGE_LOOP('',(#85));
#85 = ORIENTED_EDGE('',*,*,#86,.F.);
#86 = EDGE_CURVE('',#87,#87,#89,.T.);
#87 = VERTEX_POINT('',#88);
#88 = CARTESIAN_POINT('',(-13.,22.,-44.75));
#89 = CIRCLE('',#90,2.25);
#90 = AXIS2_PLACEMENT_3D('',#91,#92,#93);
#91 = CARTESIAN_POINT('',(-13.,22.,-42.5));
#92 = DIRECTION('',(-1.,-0.,-0.));
#93 = DIRECTION('',(0.,0.,-1.));
#94 = FACE_BOUND('',#95,.T.);
#95 = EDGE_LOOP('',(#96));
#96 = ORIENTED_EDGE('',*,*,#97,.F.);
#97 = EDGE_CURVE('',#98,#98,#100,.T.);
#98 = VERTEX_POINT('',#99);
#99 = CARTESIAN_POINT('',(-13.,-22.,-44.75));
#100 = CIRCLE('',#101,2.25);
#101 = AXIS2_PLACEMENT_3D('',#102,#103,#104);
#102 = CARTESIAN_POINT('',(-13.,-22.,-42.5));
#103 = DIRECTION('',(-1.,-0.,-0.));
#104 = DIRECTION('',(0.,0.,-1.));
#105 = FACE_BOUND('',#106,.T.);
#106 = EDGE_LOOP('',(#107));
#107 = ORIENTED_EDGE('',*,*,#108,.F.);
#108 = EDGE_CURVE('',#109,#109,#111,.T.);
#109 = VERTEX_POINT('',#110);
#110 = CARTESIAN_POINT('',(-13.,22.,0.25));
#111 = CIRCLE('',#112,2.25);
#112 = AXIS2_PLACEMENT_3D('',#113,#114,#115);
#113 = CARTESIAN_POINT('',(-13.,22.,2.5));
#114 = DIRECTION('',(-1.,-0.,-0.));
#115 = DIRECTION('',(0.,0.,-1.));
#116 = FACE_BOUND('',#117,.T.);
#117 = EDGE_LOOP('',(#118));
#118 = ORIENTED_EDGE('',*,*,#119,.F.);
#119 = EDGE_CURVE('',#120,#120,#122,.T.);
#120 = VERTEX_POINT('',#121);
#121 = CARTESIAN_POINT('',(-13.,-22.,0.25));
#122 = CIRCLE('',#123,2.25);
#123 = AXIS2_PLACEMENT_3D('',#124,#125,#126);
#124 = CARTESIAN_POINT('',(-13.,-22.,2.5));
#125 = DIRECTION('',(-1.,-0.,-0.));
#126 = DIRECTION('',(0.,0.,-1.));
#127 = PLANE('',#128);
#128 = AXIS2_PLACEMENT_3D('',#129,#130,#131);
#129 = CARTESIAN_POINT('',(-13.,28.,10.));
#130 = DIRECTION('',(-1.,-0.,-0.));
#131 = DIRECTION('',(0.,-1.,0.));
#132 = ADVANCED_FACE('',(#133,#158,#169),#180,.T.);
#133 = FACE_BOUND('',#134,.T.);
#134 = EDGE_LOOP('',(#135,#136,#144,#152));
#135 = ORIENTED_EDGE('',*,*,#39,.T.);
#136 = ORIENTED_EDGE('',*,*,#137,.T.);
#137 = EDGE_CURVE('',#32,#138,#140,.T.);
#138 = VERTEX_POINT('',#139);
#139 = CARTESIAN_POINT('',(-2.E-15,-16.,-50.));
#140 = LINE('',#141,#142);
#141 = CARTESIAN_POINT('',(-7.E-15,-28.,-50.));
#142 = VECTOR('',#143,1.);
#143 = DIRECTION('',(4.1E-16,1.,0.));
#144 = ORIENTED_EDGE('',*,*,#145,.F.);
#145 = EDGE_CURVE('',#146,#138,#148,.T.);
#146 = VERTEX_POINT('',#147);
#147 = CARTESIAN_POINT('',(-2.E-15,-16.,10.));
#148 = LINE('',#149,#150);
#149 = CARTESIAN_POINT('',(-1.76E-15,-16.,10.));
#150 = VECTOR('',#151,1.);
#151 = DIRECTION('',(0.,0.,-1.));
#152 = ORIENTED_EDGE('',*,*,#153,.F.);
#153 = EDGE_CURVE('',#40,#146,#154,.T.);
#154 = LINE('',#155,#156);
#155 = CARTESIAN_POINT('',(-7.E-15,-28.,10.));
#156 = VECTOR('',#157,1.);
#157 = DIRECTION('',(4.1E-16,1.,0.));
#158 = FACE_BOUND('',#159,.T.);
#159 = EDGE_LOOP('',(#160));
#160 = ORIENTED_EDGE('',*,*,#161,.F.);
#161 = EDGE_CURVE('',#162,#162,#164,.T.);
#162 = VERTEX_POINT('',#163);
#163 = CARTESIAN_POINT('',(5.E-15,-22.,-46.5));
#164 = CIRCLE('',#165,4.);
#165 = AXIS2_PLACEMENT_3D('',#166,#167,#168);
#166 = CARTESIAN_POINT('',(5.E-15,-22.,-42.5));
#167 = DIRECTION('',(1.,-0.,0.));
#168 = DIRECTION('',(0.,0.,-1.));
#169 = FACE_BOUND('',#170,.T.);
#170 = EDGE_LOOP('',(#171));
#171 = ORIENTED_EDGE('',*,*,#172,.F.);
#172 = EDGE_CURVE('',#173,#173,#175,.T.);
#173 = VERTEX_POINT('',#174);
#174 = CARTESIAN_POINT('',(5.E-15,-22.,-1.5));
#175 = CIRCLE('',#176,4.);
#176 = AXIS2_PLACEMENT_3D('',#177,#178,#179);
#177 = CARTESIAN_POINT('',(5.E-15,-22.,2.5));
#178 = DIRECTION('',(1.,-0.,0.));
#179 = DIRECTION('',(0.,0.,-1.));
#180 = PLANE('',#181);
#181 = AXIS2_PLACEMENT_3D('',#182,#183,#184);
#182 = CARTESIAN_POINT('',(-6.7E-15,-28.,10.));
#183 = DIRECTION('',(1.,-4.1E-16,0.));
#184 = DIRECTION('',(4.1E-16,1.,0.));
#185 = ADVANCED_FACE('',(#186,#214,#225,#236,#247,#258),#269,.T.);
#186 = FACE_BOUND('',#187,.T.);
#187 = EDGE_LOOP('',(#188,#189,#190,#199,#207,#213));
#188 = ORIENTED_EDGE('',*,*,#47,.T.);
#189 = ORIENTED_EDGE('',*,*,#153,.T.);
#190 = ORIENTED_EDGE('',*,*,#191,.F.);
#191 = EDGE_CURVE('',#192,#146,#194,.T.);
#192 = VERTEX_POINT('',#193);
#193 = CARTESIAN_POINT('',(-1.E-14,16.,10.));
#194 = CIRCLE('',#195,16.);
#195 = AXIS2_PLACEMENT_3D('',#196,#197,#198);
#196 = CARTESIAN_POINT('',(-6.96E-15,-1.01E-15,10.));
#197 = DIRECTION('',(0.,0.,-1.));
#198 = DIRECTION('',(1.,0.,0.));
#199 = ORIENTED_EDGE('',*,*,#200,.T.);
#200 = EDGE_CURVE('',#192,#201,#203,.T.);
#201 = VERTEX_POINT('',#202);
#202 = CARTESIAN_POINT('',(-9.E-15,28.,10.));
#203 = LINE('',#204,#205);
#204 = CARTESIAN_POINT('',(-9.9E-15,16.,10.));
#205 = VECTOR('',#206,1.);
#206 = DIRECTION('',(6.E-17,1.,0.));
#207 = ORIENTED_EDGE('',*,*,#208,.T.);
#208 = EDGE_CURVE('',#201,#62,#209,.T.);
#209 = LINE('',#210,#211);
#210 = CARTESIAN_POINT('',(-9.23E-15,28.,10.));
#211 = VECTOR('',#212,1.);
#212 = DIRECTION('',(-1.,0.,0.));
#213 = ORIENTED_EDGE('',*,*,#78,.T.);
#214 = FACE_BOUND('',#215,.T.);
#215 = EDGE_LOOP('',(#216));
#216 = ORIENTED_EDGE('',*,*,#217,.F.);
#217 = EDGE_CURVE('',#218,#218,#220,.T.);
#218 = VERTEX_POINT('',#219);
#219 = CARTESIAN_POINT('',(-5.65,0.,10.));
#220 = CIRCLE('',#221,2.35);
#221 = AXIS2_PLACEMENT_3D('',#222,#223,#224);
#222 = CARTESIAN_POINT('',(-8.,0.,10.));
#223 = DIRECTION('',(0.,0.,1.));
#224 = DIRECTION('',(1.,0.,0.));
#225 = FACE_BOUND('',#226,.T.);
#226 = EDGE_LOOP('',(#227));
#227 = ORIENTED_EDGE('',*,*,#228,.F.);
#228 = EDGE_CURVE('',#229,#229,#231,.T.);
#229 = VERTEX_POINT('',#230);
#230 = CARTESIAN_POINT('',(2.35,-8.,10.));
#231 = CIRCLE('',#232,2.35);
#232 = AXIS2_PLACEMENT_3D('',#233,#234,#235);
#233 = CARTESIAN_POINT('',(-8.E-15,-8.,10.));
#234 = DIRECTION('',(0.,0.,1.));
#235 = DIRECTION('',(1.,0.,0.));
#236 = FACE_BOUND('',#237,.T.);
#237 = EDGE_LOOP('',(#238));
#238 = ORIENTED_EDGE('',*,*,#239,.T.);
#239 = EDGE_CURVE('',#240,#240,#242,.T.);
#240 = VERTEX_POINT('',#241);
#241 = CARTESIAN_POINT('',(5.25,-1.E-15,10.));
#242 = CIRCLE('',#243,5.25);
#243 = AXIS2_PLACEMENT_3D('',#244,#245,#246);
#244 = CARTESIAN_POINT('',(-6.96E-15,-1.01E-15,10.));
#245 = DIRECTION('',(0.,0.,-1.));
#246 = DIRECTION('',(1.,0.,0.));
#247 = FACE_BOUND('',#248,.T.);
#248 = EDGE_LOOP('',(#249));
#249 = ORIENTED_EDGE('',*,*,#250,.F.);
#250 = EDGE_CURVE('',#251,#251,#253,.T.);
#251 = VERTEX_POINT('',#252);
#252 = CARTESIAN_POINT('',(2.35,8.,10.));
#253 = CIRCLE('',#254,2.35);
#254 = AXIS2_PLACEMENT_3D('',#255,#256,#257);
#255 = CARTESIAN_POINT('',(-1.2E-14,8.,10.));
#256 = DIRECTION('',(0.,0.,1.));
#257 = DIRECTION('',(1.,0.,0.));
#258 = FACE_BOUND('',#259,.T.);
#259 = EDGE_LOOP('',(#260));
#260 = ORIENTED_EDGE('',*,*,#261,.F.);
#261 = EDGE_CURVE('',#262,#262,#264,.T.);
#262 = VERTEX_POINT('',#263);
#263 = CARTESIAN_POINT('',(10.35,6.E-15,10.));
#264 = CIRCLE('',#265,2.35);
#265 = AXIS2_PLACEMENT_3D('',#266,#267,#268);
#266 = CARTESIAN_POINT('',(8.,6.E-15,10.));
#267 = DIRECTION('',(0.,0.,1.));
#268 = DIRECTION('',(1.,0.,0.));
#269 = PLANE('',#270);
#270 = AXIS2_PLACEMENT_3D('',#271,#272,#273);
#271 = CARTESIAN_POINT('',(-2.084029487611,6.1E-16,10.));
#272 = DIRECTION('',(0.,0.,1.));
#273 = DIRECTION('',(1.,0.,0.));
#274 = ADVANCED_FACE('',(#275,#303,#314,#325,#336,#347),#358,.F.);
#275 = FACE_BOUND('',#276,.F.);
#276 = EDGE_LOOP('',(#277,#278,#279,#288,#296,#302));
#277 = ORIENTED_EDGE('',*,*,#31,.T.);
#278 = ORIENTED_EDGE('',*,*,#137,.T.);
#279 = ORIENTED_EDGE('',*,*,#280,.F.);
#280 = EDGE_CURVE('',#281,#138,#283,.T.);
#281 = VERTEX_POINT('',#282);
#282 = CARTESIAN_POINT('',(-1.E-14,16.,-50.));
#283 = CIRCLE('',#284,16.);
#284 = AXIS2_PLACEMENT_3D('',#285,#286,#287);
#285 = CARTESIAN_POINT('',(-6.96E-15,-1.01E-15,-50.));
#286 = DIRECTION('',(0.,0.,-1.));
#287 = DIRECTION('',(1.,0.,0.));
#288 = ORIENTED_EDGE('',*,*,#289,.T.);
#289 = EDGE_CURVE('',#281,#290,#292,.T.);
#290 = VERTEX_POINT('',#291);
#291 = CARTESIAN_POINT('',(-9.E-15,28.,-50.));
#292 = LINE('',#293,#294);
#293 = CARTESIAN_POINT('',(-9.9E-15,16.,-50.));
#294 = VECTOR('',#295,1.);
#295 = DIRECTION('',(6.E-17,1.,0.));
#296 = ORIENTED_EDGE('',*,*,#297,.T.);
#297 = EDGE_CURVE('',#290,#64,#298,.T.);
#298 = LINE('',#299,#300);
#299 = CARTESIAN_POINT('',(-9.23E-15,28.,-50.));
#300 = VECTOR('',#301,1.);
#301 = DIRECTION('',(-1.,0.,0.));
#302 = ORIENTED_EDGE('',*,*,#71,.T.);
#303 = FACE_BOUND('',#304,.F.);
#304 = EDGE_LOOP('',(#305));
#305 = ORIENTED_EDGE('',*,*,#306,.T.);
#306 = EDGE_CURVE('',#307,#307,#309,.T.);
#307 = VERTEX_POINT('',#308);
#308 = CARTESIAN_POINT('',(5.25,-1.E-15,-50.));
#309 = CIRCLE('',#310,5.25);
#310 = AXIS2_PLACEMENT_3D('',#311,#312,#313);
#311 = CARTESIAN_POINT('',(-6.96E-15,-1.01E-15,-50.));
#312 = DIRECTION('',(0.,0.,-1.));
#313 = DIRECTION('',(1.,0.,0.));
#314 = FACE_BOUND('',#315,.F.);
#315 = EDGE_LOOP('',(#316));
#316 = ORIENTED_EDGE('',*,*,#317,.T.);
#317 = EDGE_CURVE('',#318,#318,#320,.T.);
#318 = VERTEX_POINT('',#319);
#319 = CARTESIAN_POINT('',(-6.25,0.,-50.));
#320 = CIRCLE('',#321,1.75);
#321 = AXIS2_PLACEMENT_3D('',#322,#323,#324);
#322 = CARTESIAN_POINT('',(-8.,2.1E-16,-50.));
#323 = DIRECTION('',(0.,0.,-1.));
#324 = DIRECTION('',(1.,0.,0.));
#325 = FACE_BOUND('',#326,.F.);
#326 = EDGE_LOOP('',(#327));
#327 = ORIENTED_EDGE('',*,*,#328,.T.);
#328 = EDGE_CURVE('',#329,#329,#331,.T.);
#329 = VERTEX_POINT('',#330);
#330 = CARTESIAN_POINT('',(1.75,8.,-50.));
#331 = CIRCLE('',#332,1.75);
#332 = AXIS2_PLACEMENT_3D('',#333,#334,#335);
#333 = CARTESIAN_POINT('',(-1.209E-14,8.,-50.));
#334 = DIRECTION('',(0.,0.,-1.));
#335 = DIRECTION('',(1.,0.,0.));
#336 = FACE_BOUND('',#337,.F.);
#337 = EDGE_LOOP('',(#338));
#338 = ORIENTED_EDGE('',*,*,#339,.T.);
#339 = EDGE_CURVE('',#340,#340,#342,.T.);
#340 = VERTEX_POINT('',#341);
#341 = CARTESIAN_POINT('',(1.75,-8.,-50.));
#342 = CIRCLE('',#343,1.75);
#343 = AXIS2_PLACEMENT_3D('',#344,#345,#346);
#344 = CARTESIAN_POINT('',(-7.96E-15,-8.,-50.));
#345 = DIRECTION('',(0.,0.,-1.));
#346 = DIRECTION('',(1.,0.,0.));
#347 = FACE_BOUND('',#348,.F.);
#348 = EDGE_LOOP('',(#349));
#349 = ORIENTED_EDGE('',*,*,#350,.T.);
#350 = EDGE_CURVE('',#351,#351,#353,.T.);
#351 = VERTEX_POINT('',#352);
#352 = CARTESIAN_POINT('',(9.75,6.E-15,-50.));
#353 = CIRCLE('',#354,1.75);
#354 = AXIS2_PLACEMENT_3D('',#355,#356,#357);
#355 = CARTESIAN_POINT('',(8.,6.43E-15,-50.));
#356 = DIRECTION('',(0.,0.,-1.));
#357 = DIRECTION('',(1.,0.,0.));
#358 = PLANE('',#359);
#359 = AXIS2_PLACEMENT_3D('',#360,#361,#362);
#360 = CARTESIAN_POINT('',(-2.084029487611,6.1E-16,-50.));
#361 = DIRECTION('',(0.,0.,1.));
#362 = DIRECTION('',(1.,0.,0.));
#363 = ADVANCED_FACE('',(#364),#375,.T.);
#364 = FACE_BOUND('',#365,.T.);
#365 = EDGE_LOOP('',(#366,#372,#373,#374));
#366 = ORIENTED_EDGE('',*,*,#367,.T.);
#367 = EDGE_CURVE('',#201,#290,#368,.T.);
#368 = LINE('',#369,#370);
#369 = CARTESIAN_POINT('',(-8.93E-15,28.,10.));
#370 = VECTOR('',#371,1.);
#371 = DIRECTION('',(0.,0.,-1.));
#372 = ORIENTED_EDGE('',*,*,#297,.T.);
#373 = ORIENTED_EDGE('',*,*,#61,.F.);
#374 = ORIENTED_EDGE('',*,*,#208,.F.);
#375 = PLANE('',#376);
#376 = AXIS2_PLACEMENT_3D('',#377,#378,#379);
#377 = CARTESIAN_POINT('',(-8.93E-15,28.,10.));
#378 = DIRECTION('',(0.,1.,0.));
#379 = DIRECTION('',(-1.,0.,0.));
#380 = ADVANCED_FACE('',(#381),#400,.F.);
#381 = FACE_BOUND('',#382,.T.);
#382 = EDGE_LOOP('',(#383,#391,#398,#399));
#383 = ORIENTED_EDGE('',*,*,#384,.F.);
#384 = EDGE_CURVE('',#385,#87,#387,.T.);
#385 = VERTEX_POINT('',#386);
#386 = CARTESIAN_POINT('',(-4.4,22.,-44.75));
#387 = LINE('',#388,#389);
#388 = CARTESIAN_POINT('',(-4.4,22.,-44.75));
#389 = VECTOR('',#390,1.);
#390 = DIRECTION('',(-1.,0.,6.E-17));
#391 = ORIENTED_EDGE('',*,*,#392,.T.);
#392 = EDGE_CURVE('',#385,#385,#393,.T.);
#393 = CIRCLE('',#394,2.25);
#394 = AXIS2_PLACEMENT_3D('',#395,#396,#397);
#395 = CARTESIAN_POINT('',(-4.4,22.,-42.5));
#396 = DIRECTION('',(1.,-0.,0.));
#397 = DIRECTION('',(0.,0.,-1.));
#398 = ORIENTED_EDGE('',*,*,#384,.T.);
#399 = ORIENTED_EDGE('',*,*,#86,.T.);
#400 = CYLINDRICAL_SURFACE('',#401,2.25);
#401 = AXIS2_PLACEMENT_3D('',#402,#403,#404);
#402 = CARTESIAN_POINT('',(-4.4,22.,-42.5));
#403 = DIRECTION('',(-1.,-0.,-0.));
#404 = DIRECTION('',(0.,0.,-1.));
#405 = ADVANCED_FACE('',(#406),#425,.F.);
#406 = FACE_BOUND('',#407,.T.);
#407 = EDGE_LOOP('',(#408,#416,#423,#424));
#408 = ORIENTED_EDGE('',*,*,#409,.F.);
#409 = EDGE_CURVE('',#410,#98,#412,.T.);
#410 = VERTEX_POINT('',#411);
#411 = CARTESIAN_POINT('',(-4.4,-22.,-44.75));
#412 = LINE('',#413,#414);
#413 = CARTESIAN_POINT('',(-4.4,-22.,-44.75));
#414 = VECTOR('',#415,1.);
#415 = DIRECTION('',(-1.,0.,6.E-17));
#416 = ORIENTED_EDGE('',*,*,#417,.T.);
#417 = EDGE_CURVE('',#410,#410,#418,.T.);
#418 = CIRCLE('',#419,2.25);
#419 = AXIS2_PLACEMENT_3D('',#420,#421,#422);
#420 = CARTESIAN_POINT('',(-4.4,-22.,-42.5));
#421 = DIRECTION('',(1.,-0.,0.));
#422 = DIRECTION('',(0.,0.,-1.));
#423 = ORIENTED_EDGE('',*,*,#409,.T.);
#424 = ORIENTED_EDGE('',*,*,#97,.T.);
#425 = CYLINDRICAL_SURFACE('',#426,2.25);
#426 = AXIS2_PLACEMENT_3D('',#427,#428,#429);
#427 = CARTESIAN_POINT('',(-4.4,-22.,-42.5));
#428 = DIRECTION('',(-1.,-0.,-0.));
#429 = DIRECTION('',(0.,0.,-1.));
#430 = ADVANCED_FACE('',(#431),#450,.F.);
#431 = FACE_BOUND('',#432,.T.);
#432 = EDGE_LOOP('',(#433,#441,#448,#449));
#433 = ORIENTED_EDGE('',*,*,#434,.F.);
#434 = EDGE_CURVE('',#435,#109,#437,.T.);
#435 = VERTEX_POINT('',#436);
#436 = CARTESIAN_POINT('',(-4.4,22.,0.25));
#437 = LINE('',#438,#439);
#438 = CARTESIAN_POINT('',(-4.4,22.,0.25));
#439 = VECTOR('',#440,1.);
#440 = DIRECTION('',(-1.,0.,6.E-17));
#441 = ORIENTED_EDGE('',*,*,#442,.T.);
#442 = EDGE_CURVE('',#435,#435,#443,.T.);
#443 = CIRCLE('',#444,2.25);
#444 = AXIS2_PLACEMENT_3D('',#445,#446,#447);
#445 = CARTESIAN_POINT('',(-4.4,22.,2.5));
#446 = DIRECTION('',(1.,-0.,0.));
#447 = DIRECTION('',(0.,0.,-1.));
#448 = ORIENTED_EDGE('',*,*,#434,.T.);
#449 = ORIENTED_EDGE('',*,*,#108,.T.);
#450 = CYLINDRICAL_SURFACE('',#451,2.25);
#451 = AXIS2_PLACEMENT_3D('',#452,#453,#454);
#452 = CARTESIAN_POINT('',(-4.4,22.,2.5));
#453 = DIRECTION('',(-1.,-0.,-0.));
#454 = DIRECTION('',(0.,0.,-1.));
#455 = ADVANCED_FACE('',(#456),#475,.F.);
#456 = FACE_BOUND('',#457,.T.);
#457 = EDGE_LOOP('',(#458,#466,#473,#474));
#458 = ORIENTED_EDGE('',*,*,#459,.F.);
#459 = EDGE_CURVE('',#460,#120,#462,.T.);
#460 = VERTEX_POINT('',#461);
#461 = CARTESIAN_POINT('',(-4.4,-22.,0.25));
#462 = LINE('',#463,#464);
#463 = CARTESIAN_POINT('',(-4.4,-22.,0.25));
#464 = VECTOR('',#465,1.);
#465 = DIRECTION('',(-1.,0.,6.E-17));
#466 = ORIENTED_EDGE('',*,*,#467,.T.);
#467 = EDGE_CURVE('',#460,#460,#468,.T.);
#468 = CIRCLE('',#469,2.25);
#469 = AXIS2_PLACEMENT_3D('',#470,#471,#472);
#470 = CARTESIAN_POINT('',(-4.4,-22.,2.5));
#471 = DIRECTION('',(1.,-0.,0.));
#472 = DIRECTION('',(0.,0.,-1.));
#473 = ORIENTED_EDGE('',*,*,#459,.T.);
#474 = ORIENTED_EDGE('',*,*,#119,.T.);
#475 = CYLINDRICAL_SURFACE('',#476,2.25);
#476 = AXIS2_PLACEMENT_3D('',#477,#478,#479);
#477 = CARTESIAN_POINT('',(-4.4,-22.,2.5));
#478 = DIRECTION('',(-1.,-0.,-0.));
#479 = DIRECTION('',(0.,0.,-1.));
#480 = ADVANCED_FACE('',(#481),#492,.T.);
#481 = FACE_BOUND('',#482,.F.);
#482 = EDGE_LOOP('',(#483,#489,#490,#491));
#483 = ORIENTED_EDGE('',*,*,#484,.T.);
#484 = EDGE_CURVE('',#192,#281,#485,.T.);
#485 = LINE('',#486,#487);
#486 = CARTESIAN_POINT('',(-9.6E-15,16.,10.));
#487 = VECTOR('',#488,1.);
#488 = DIRECTION('',(0.,0.,-1.));
#489 = ORIENTED_EDGE('',*,*,#280,.T.);
#490 = ORIENTED_EDGE('',*,*,#145,.F.);
#491 = ORIENTED_EDGE('',*,*,#191,.F.);
#492 = CYLINDRICAL_SURFACE('',#493,16.);
#493 = AXIS2_PLACEMENT_3D('',#494,#495,#496);
#494 = CARTESIAN_POINT('',(-6.66E-15,-1.11E-15,10.));
#495 = DIRECTION('',(0.,0.,1.));
#496 = DIRECTION('',(1.,0.,0.));
#497 = ADVANCED_FACE('',(#498),#517,.F.);
#498 = FACE_BOUND('',#499,.T.);
#499 = EDGE_LOOP('',(#500,#508,#509,#510));
#500 = ORIENTED_EDGE('',*,*,#501,.F.);
#501 = EDGE_CURVE('',#162,#502,#504,.T.);
#502 = VERTEX_POINT('',#503);
#503 = CARTESIAN_POINT('',(-4.4,-22.,-46.5));
#504 = LINE('',#505,#506);
#505 = CARTESIAN_POINT('',(5.E-15,-22.,-46.5));
#506 = VECTOR('',#507,1.);
#507 = DIRECTION('',(-1.,0.,0.));
#508 = ORIENTED_EDGE('',*,*,#161,.T.);
#509 = ORIENTED_EDGE('',*,*,#501,.T.);
#510 = ORIENTED_EDGE('',*,*,#511,.F.);
#511 = EDGE_CURVE('',#502,#502,#512,.T.);
#512 = CIRCLE('',#513,4.);
#513 = AXIS2_PLACEMENT_3D('',#514,#515,#516);
#514 = CARTESIAN_POINT('',(-4.4,-22.,-42.5));
#515 = DIRECTION('',(1.,-0.,0.));
#516 = DIRECTION('',(0.,0.,-1.));
#517 = CYLINDRICAL_SURFACE('',#518,4.);
#518 = AXIS2_PLACEMENT_3D('',#519,#520,#521);
#519 = CARTESIAN_POINT('',(5.E-15,-22.,-42.5));
#520 = DIRECTION('',(-1.,-0.,-0.));
#521 = DIRECTION('',(0.,0.,-1.));
#522 = ADVANCED_FACE('',(#523),#542,.F.);
#523 = FACE_BOUND('',#524,.T.);
#524 = EDGE_LOOP('',(#525,#533,#534,#535));
#525 = ORIENTED_EDGE('',*,*,#526,.F.);
#526 = EDGE_CURVE('',#173,#527,#529,.T.);
#527 = VERTEX_POINT('',#528);
#528 = CARTESIAN_POINT('',(-4.4,-22.,-1.5));
#529 = LINE('',#530,#531);
#530 = CARTESIAN_POINT('',(5.E-15,-22.,-1.5));
#531 = VECTOR('',#532,1.);
#532 = DIRECTION('',(-1.,0.,0.));
#533 = ORIENTED_EDGE('',*,*,#172,.T.);
#534 = ORIENTED_EDGE('',*,*,#526,.T.);
#535 = ORIENTED_EDGE('',*,*,#536,.F.);
#536 = EDGE_CURVE('',#527,#527,#537,.T.);
#537 = CIRCLE('',#538,4.);
#538 = AXIS2_PLACEMENT_3D('',#539,#540,#541);
#539 = CARTESIAN_POINT('',(-4.4,-22.,2.5));
#540 = DIRECTION('',(1.,-0.,0.));
#541 = DIRECTION('',(0.,0.,-1.));
#542 = CYLINDRICAL_SURFACE('',#543,4.);
#543 = AXIS2_PLACEMENT_3D('',#544,#545,#546);
#544 = CARTESIAN_POINT('',(5.E-15,-22.,2.5));
#545 = DIRECTION('',(-1.,-0.,-0.));
#546 = DIRECTION('',(0.,0.,-1.));
#547 = ADVANCED_FACE('',(#548,#554,#565),#576,.T.);
#548 = FACE_BOUND('',#549,.T.);
#549 = EDGE_LOOP('',(#550,#551,#552,#553));
#550 = ORIENTED_EDGE('',*,*,#484,.T.);
#551 = ORIENTED_EDGE('',*,*,#289,.T.);
#552 = ORIENTED_EDGE('',*,*,#367,.F.);
#553 = ORIENTED_EDGE('',*,*,#200,.F.);
#554 = FACE_BOUND('',#555,.T.);
#555 = EDGE_LOOP('',(#556));
#556 = ORIENTED_EDGE('',*,*,#557,.F.);
#557 = EDGE_CURVE('',#558,#558,#560,.T.);
#558 = VERTEX_POINT('',#559);
#559 = CARTESIAN_POINT('',(5.E-15,22.,-46.5));
#560 = CIRCLE('',#561,4.);
#561 = AXIS2_PLACEMENT_3D('',#562,#563,#564);
#562 = CARTESIAN_POINT('',(5.E-15,22.,-42.5));
#563 = DIRECTION('',(1.,-0.,0.));
#564 = DIRECTION('',(0.,0.,-1.));
#565 = FACE_BOUND('',#566,.T.);
#566 = EDGE_LOOP('',(#567));
#567 = ORIENTED_EDGE('',*,*,#568,.F.);
#568 = EDGE_CURVE('',#569,#569,#571,.T.);
#569 = VERTEX_POINT('',#570);
#570 = CARTESIAN_POINT('',(5.E-15,22.,-1.5));
#571 = CIRCLE('',#572,4.);
#572 = AXIS2_PLACEMENT_3D('',#573,#574,#575);
#573 = CARTESIAN_POINT('',(5.E-15,22.,2.5));
#574 = DIRECTION('',(1.,-0.,0.));
#575 = DIRECTION('',(0.,0.,-1.));
#576 = PLANE('',#577);
#577 = AXIS2_PLACEMENT_3D('',#578,#579,#580);
#578 = CARTESIAN_POINT('',(-9.6E-15,16.,10.));
#579 = DIRECTION('',(1.,-6.E-17,0.));
#580 = DIRECTION('',(6.E-17,1.,0.));
#581 = ADVANCED_FACE('',(#582),#601,.F.);
#582 = FACE_BOUND('',#583,.T.);
#583 = EDGE_LOOP('',(#584,#592,#593,#594));
#584 = ORIENTED_EDGE('',*,*,#585,.F.);
#585 = EDGE_CURVE('',#218,#586,#588,.T.);
#586 = VERTEX_POINT('',#587);
#587 = CARTESIAN_POINT('',(-5.65,0.,-15.));
#588 = LINE('',#589,#590);
#589 = CARTESIAN_POINT('',(-5.65,0.,10.));
#590 = VECTOR('',#591,1.);
#591 = DIRECTION('',(-5.E-17,0.,-1.));
#592 = ORIENTED_EDGE('',*,*,#217,.T.);
#593 = ORIENTED_EDGE('',*,*,#585,.T.);
#594 = ORIENTED_EDGE('',*,*,#595,.F.);
#595 = EDGE_CURVE('',#586,#586,#596,.T.);
#596 = CIRCLE('',#597,2.35);
#597 = AXIS2_PLACEMENT_3D('',#598,#599,#600);
#598 = CARTESIAN_POINT('',(-8.,0.,-15.));
#599 = DIRECTION('',(0.,0.,1.));
#600 = DIRECTION('',(1.,0.,0.));
#601 = CYLINDRICAL_SURFACE('',#602,2.35);
#602 = AXIS2_PLACEMENT_3D('',#603,#604,#605);
#603 = CARTESIAN_POINT('',(-8.,0.,10.));
#604 = DIRECTION('',(-0.,-0.,-1.));
#605 = DIRECTION('',(1.,0.,0.));
#606 = ADVANCED_FACE('',(#607),#626,.F.);
#607 = FACE_BOUND('',#608,.T.);
#608 = EDGE_LOOP('',(#609,#617,#618,#619));
#609 = ORIENTED_EDGE('',*,*,#610,.F.);
#610 = EDGE_CURVE('',#229,#611,#613,.T.);
#611 = VERTEX_POINT('',#612);
#612 = CARTESIAN_POINT('',(2.35,-8.,-15.));
#613 = LINE('',#614,#615);
#614 = CARTESIAN_POINT('',(2.35,-8.,10.));
#615 = VECTOR('',#616,1.);
#616 = DIRECTION('',(-5.E-17,0.,-1.));
#617 = ORIENTED_EDGE('',*,*,#228,.T.);
#618 = ORIENTED_EDGE('',*,*,#610,.T.);
#619 = ORIENTED_EDGE('',*,*,#620,.F.);
#620 = EDGE_CURVE('',#611,#611,#621,.T.);
#621 = CIRCLE('',#622,2.35);
#622 = AXIS2_PLACEMENT_3D('',#623,#624,#625);
#623 = CARTESIAN_POINT('',(-8.E-15,-8.,-15.));
#624 = DIRECTION('',(0.,0.,1.));
#625 = DIRECTION('',(1.,0.,0.));
#626 = CYLINDRICAL_SURFACE('',#627,2.35);
#627 = AXIS2_PLACEMENT_3D('',#628,#629,#630);
#628 = CARTESIAN_POINT('',(-8.E-15,-8.,10.));
#629 = DIRECTION('',(-0.,-0.,-1.));
#630 = DIRECTION('',(1.,0.,0.));
#631 = ADVANCED_FACE('',(#632),#643,.F.);
#632 = FACE_BOUND('',#633,.T.);
#633 = EDGE_LOOP('',(#634,#640,#641,#642));
#634 = ORIENTED_EDGE('',*,*,#635,.T.);
#635 = EDGE_CURVE('',#240,#307,#636,.T.);
#636 = LINE('',#637,#638);
#637 = CARTESIAN_POINT('',(5.25,-1.11E-15,10.));
#638 = VECTOR('',#639,1.);
#639 = DIRECTION('',(0.,0.,-1.));
#640 = ORIENTED_EDGE('',*,*,#306,.T.);
#641 = ORIENTED_EDGE('',*,*,#635,.F.);
#642 = ORIENTED_EDGE('',*,*,#239,.F.);
#643 = CYLINDRICAL_SURFACE('',#644,5.25);
#644 = AXIS2_PLACEMENT_3D('',#645,#646,#647);
#645 = CARTESIAN_POINT('',(-6.66E-15,-1.11E-15,10.));
#646 = DIRECTION('',(0.,0.,1.));
#647 = DIRECTION('',(1.,0.,0.));
#648 = ADVANCED_FACE('',(#649),#668,.F.);
#649 = FACE_BOUND('',#650,.T.);
#650 = EDGE_LOOP('',(#651,#659,#660,#661));
#651 = ORIENTED_EDGE('',*,*,#652,.F.);
#652 = EDGE_CURVE('',#251,#653,#655,.T.);
#653 = VERTEX_POINT('',#654);
#654 = CARTESIAN_POINT('',(2.35,8.,-15.));
#655 = LINE('',#656,#657);
#656 = CARTESIAN_POINT('',(2.35,8.,10.));
#657 = VECTOR('',#658,1.);
#658 = DIRECTION('',(-5.E-17,0.,-1.));
#659 = ORIENTED_EDGE('',*,*,#250,.T.);
#660 = ORIENTED_EDGE('',*,*,#652,.T.);
#661 = ORIENTED_EDGE('',*,*,#662,.F.);
#662 = EDGE_CURVE('',#653,#653,#663,.T.);
#663 = CIRCLE('',#664,2.35);
#664 = AXIS2_PLACEMENT_3D('',#665,#666,#667);
#665 = CARTESIAN_POINT('',(-1.2E-14,8.,-15.));
#666 = DIRECTION('',(0.,0.,1.));
#667 = DIRECTION('',(1.,0.,0.));
#668 = CYLINDRICAL_SURFACE('',#669,2.35);
#669 = AXIS2_PLACEMENT_3D('',#670,#671,#672);
#670 = CARTESIAN_POINT('',(-1.2E-14,8.,10.));
#671 = DIRECTION('',(-0.,-0.,-1.));
#672 = DIRECTION('',(1.,0.,0.));
#673 = ADVANCED_FACE('',(#674),#693,.F.);
#674 = FACE_BOUND('',#675,.T.);
#675 = EDGE_LOOP('',(#676,#684,#685,#686));
#676 = ORIENTED_EDGE('',*,*,#677,.F.);
#677 = EDGE_CURVE('',#262,#678,#680,.T.);
#678 = VERTEX_POINT('',#679);
#679 = CARTESIAN_POINT('',(10.35,6.E-15,-15.));
#680 = LINE('',#681,#682);
#681 = CARTESIAN_POINT('',(10.35,6.E-15,10.));
#682 = VECTOR('',#683,1.);
#683 = DIRECTION('',(-5.E-17,0.,-1.));
#684 = ORIENTED_EDGE('',*,*,#261,.T.);
#685 = ORIENTED_EDGE('',*,*,#677,.T.);
#686 = ORIENTED_EDGE('',*,*,#687,.F.);
#687 = EDGE_CURVE('',#678,#678,#688,.T.);
#688 = CIRCLE('',#689,2.35);
#689 = AXIS2_PLACEMENT_3D('',#690,#691,#692);
#690 = CARTESIAN_POINT('',(8.,6.E-15,-15.));
#691 = DIRECTION('',(0.,0.,1.));
#692 = DIRECTION('',(1.,0.,0.));
#693 = CYLINDRICAL_SURFACE('',#694,2.35);
#694 = AXIS2_PLACEMENT_3D('',#695,#696,#697);
#695 = CARTESIAN_POINT('',(8.,6.E-15,10.));
#696 = DIRECTION('',(-0.,-0.,-1.));
#697 = DIRECTION('',(1.,0.,0.));
#698 = ADVANCED_FACE('',(#699),#718,.F.);
#699 = FACE_BOUND('',#700,.T.);
#700 = EDGE_LOOP('',(#701,#710,#716,#717));
#701 = ORIENTED_EDGE('',*,*,#702,.T.);
#702 = EDGE_CURVE('',#703,#703,#705,.T.);
#703 = VERTEX_POINT('',#704);
#704 = CARTESIAN_POINT('',(-6.25,0.,-15.36051637141));
#705 = CIRCLE('',#706,1.75);
#706 = AXIS2_PLACEMENT_3D('',#707,#708,#709);
#707 = CARTESIAN_POINT('',(-8.,2.1E-16,-15.36051637141));
#708 = DIRECTION('',(-0.,0.,1.));
#709 = DIRECTION('',(0.,-1.,0.));
#710 = ORIENTED_EDGE('',*,*,#711,.T.);
#711 = EDGE_CURVE('',#703,#318,#712,.T.);
#712 = LINE('',#713,#714);
#713 = CARTESIAN_POINT('',(-6.25,1.1E-16,10.));
#714 = VECTOR('',#715,1.);
#715 = DIRECTION('',(0.,0.,-1.));
#716 = ORIENTED_EDGE('',*,*,#317,.T.);
#717 = ORIENTED_EDGE('',*,*,#711,.F.);
#718 = CYLINDRICAL_SURFACE('',#719,1.75);
#719 = AXIS2_PLACEMENT_3D('',#720,#721,#722);
#720 = CARTESIAN_POINT('',(-8.,1.1E-16,10.));
#721 = DIRECTION('',(0.,0.,1.));
#722 = DIRECTION('',(1.,0.,0.));
#723 = ADVANCED_FACE('',(#724),#743,.F.);
#724 = FACE_BOUND('',#725,.T.);
#725 = EDGE_LOOP('',(#726,#735,#741,#742));
#726 = ORIENTED_EDGE('',*,*,#727,.T.);
#727 = EDGE_CURVE('',#728,#728,#730,.T.);
#728 = VERTEX_POINT('',#729);
#729 = CARTESIAN_POINT('',(1.75,8.,-15.36051637141));
#730 = CIRCLE('',#731,1.75);
#731 = AXIS2_PLACEMENT_3D('',#732,#733,#734);
#732 = CARTESIAN_POINT('',(-1.209E-14,8.,-15.36051637141));
#733 = DIRECTION('',(-0.,0.,1.));
#734 = DIRECTION('',(0.,-1.,0.));
#735 = ORIENTED_EDGE('',*,*,#736,.T.);
#736 = EDGE_CURVE('',#728,#329,#737,.T.);
#737 = LINE('',#738,#739);
#738 = CARTESIAN_POINT('',(1.75,8.,10.));
#739 = VECTOR('',#740,1.);
#740 = DIRECTION('',(0.,0.,-1.));
#741 = ORIENTED_EDGE('',*,*,#328,.T.);
#742 = ORIENTED_EDGE('',*,*,#736,.F.);
#743 = CYLINDRICAL_SURFACE('',#744,1.75);
#744 = AXIS2_PLACEMENT_3D('',#745,#746,#747);
#745 = CARTESIAN_POINT('',(-1.179E-14,8.,10.));
#746 = DIRECTION('',(0.,0.,1.));
#747 = DIRECTION('',(1.,0.,0.));
#748 = ADVANCED_FACE('',(#749),#768,.F.);
#749 = FACE_BOUND('',#750,.T.);
#750 = EDGE_LOOP('',(#751,#760,#766,#767));
#751 = ORIENTED_EDGE('',*,*,#752,.T.);
#752 = EDGE_CURVE('',#753,#753,#755,.T.);
#753 = VERTEX_POINT('',#754);
#754 = CARTESIAN_POINT('',(1.75,-8.,-15.36051637141));
#755 = CIRCLE('',#756,1.75);
#756 = AXIS2_PLACEMENT_3D('',#757,#758,#759);
#757 = CARTESIAN_POINT('',(-7.96E-15,-8.,-15.36051637141));
#758 = DIRECTION('',(-0.,0.,1.));
#759 = DIRECTION('',(0.,-1.,0.));
#760 = ORIENTED_EDGE('',*,*,#761,.T.);
#761 = EDGE_CURVE('',#753,#340,#762,.T.);
#762 = LINE('',#763,#764);
#763 = CARTESIAN_POINT('',(1.75,-8.,10.));
#764 = VECTOR('',#765,1.);
#765 = DIRECTION('',(0.,0.,-1.));
#766 = ORIENTED_EDGE('',*,*,#339,.T.);
#767 = ORIENTED_EDGE('',*,*,#761,.F.);
#768 = CYLINDRICAL_SURFACE('',#769,1.75);
#769 = AXIS2_PLACEMENT_3D('',#770,#771,#772);
#770 = CARTESIAN_POINT('',(-7.66E-15,-8.,10.));
#771 = DIRECTION('',(0.,0.,1.));
#772 = DIRECTION('',(1.,0.,0.));
#773 = ADVANCED_FACE('',(#774),#793,.F.);
#774 = FACE_BOUND('',#775,.T.);
#775 = EDGE_LOOP('',(#776,#785,#791,#792));
#776 = ORIENTED_EDGE('',*,*,#777,.T.);
#777 = EDGE_CURVE('',#778,#778,#780,.T.);
#778 = VERTEX_POINT('',#779);
#779 = CARTESIAN_POINT('',(9.75,6.E-15,-15.36051637141));
#780 = CIRCLE('',#781,1.75);
#781 = AXIS2_PLACEMENT_3D('',#782,#783,#784);
#782 = CARTESIAN_POINT('',(8.,6.43E-15,-15.36051637141));
#783 = DIRECTION('',(-0.,0.,1.));
#784 = DIRECTION('',(0.,-1.,0.));
#785 = ORIENTED_EDGE('',*,*,#786,.T.);
#786 = EDGE_CURVE('',#778,#351,#787,.T.);
#787 = LINE('',#788,#789);
#788 = CARTESIAN_POINT('',(9.75,6.33E-15,10.));
#789 = VECTOR('',#790,1.);
#790 = DIRECTION('',(0.,0.,-1.));
#791 = ORIENTED_EDGE('',*,*,#350,.T.);
#792 = ORIENTED_EDGE('',*,*,#786,.F.);
#793 = CYLINDRICAL_SURFACE('',#794,1.75);
#794 = AXIS2_PLACEMENT_3D('',#795,#796,#797);
#795 = CARTESIAN_POINT('',(8.,6.33E-15,10.));
#796 = DIRECTION('',(0.,0.,1.));
#797 = DIRECTION('',(1.,0.,0.));
#798 = ADVANCED_FACE('',(#799,#810),#813,.T.);
#799 = FACE_BOUND('',#800,.T.);
#800 = EDGE_LOOP('',(#801));
#801 = ORIENTED_EDGE('',*,*,#802,.T.);
#802 = EDGE_CURVE('',#803,#803,#805,.T.);
#803 = VERTEX_POINT('',#804);
#804 = CARTESIAN_POINT('',(-4.4,22.,-46.5));
#805 = CIRCLE('',#806,4.);
#806 = AXIS2_PLACEMENT_3D('',#807,#808,#809);
#807 = CARTESIAN_POINT('',(-4.4,22.,-42.5));
#808 = DIRECTION('',(1.,-0.,0.));
#809 = DIRECTION('',(0.,0.,-1.));
#810 = FACE_BOUND('',#811,.T.);
#811 = EDGE_LOOP('',(#812));
#812 = ORIENTED_EDGE('',*,*,#392,.F.);
#813 = PLANE('',#814);
#814 = AXIS2_PLACEMENT_3D('',#815,#816,#817);
#815 = CARTESIAN_POINT('',(-4.4,22.,-42.5));
#816 = DIRECTION('',(1.,0.,0.));
#817 = DIRECTION('',(0.,0.,-1.));
#818 = ADVANCED_FACE('',(#819,#822),#825,.T.);
#819 = FACE_BOUND('',#820,.T.);
#820 = EDGE_LOOP('',(#821));
#821 = ORIENTED_EDGE('',*,*,#511,.T.);
#822 = FACE_BOUND('',#823,.T.);
#823 = EDGE_LOOP('',(#824));
#824 = ORIENTED_EDGE('',*,*,#417,.F.);
#825 = PLANE('',#826);
#826 = AXIS2_PLACEMENT_3D('',#827,#828,#829);
#827 = CARTESIAN_POINT('',(-4.4,-22.,-42.5));
#828 = DIRECTION('',(1.,0.,0.));
#829 = DIRECTION('',(0.,0.,-1.));
#830 = ADVANCED_FACE('',(#831,#842),#845,.T.);
#831 = FACE_BOUND('',#832,.T.);
#832 = EDGE_LOOP('',(#833));
#833 = ORIENTED_EDGE('',*,*,#834,.T.);
#834 = EDGE_CURVE('',#835,#835,#837,.T.);
#835 = VERTEX_POINT('',#836);
#836 = CARTESIAN_POINT('',(-4.4,22.,-1.5));
#837 = CIRCLE('',#838,4.);
#838 = AXIS2_PLACEMENT_3D('',#839,#840,#841);
#839 = CARTESIAN_POINT('',(-4.4,22.,2.5));
#840 = DIRECTION('',(1.,-0.,0.));
#841 = DIRECTION('',(0.,0.,-1.));
#842 = FACE_BOUND('',#843,.T.);
#843 = EDGE_LOOP('',(#844));
#844 = ORIENTED_EDGE('',*,*,#442,.F.);
#845 = PLANE('',#846);
#846 = AXIS2_PLACEMENT_3D('',#847,#848,#849);
#847 = CARTESIAN_POINT('',(-4.4,22.,2.5));
#848 = DIRECTION('',(1.,0.,0.));
#849 = DIRECTION('',(0.,0.,-1.));
#850 = ADVANCED_FACE('',(#851,#854),#857,.T.);
#851 = FACE_BOUND('',#852,.T.);
#852 = EDGE_LOOP('',(#853));
#853 = ORIENTED_EDGE('',*,*,#536,.T.);
#854 = FACE_BOUND('',#855,.T.);
#855 = EDGE_LOOP('',(#856));
#856 = ORIENTED_EDGE('',*,*,#467,.F.);
#857 = PLANE('',#858);
#858 = AXIS2_PLACEMENT_3D('',#859,#860,#861);
#859 = CARTESIAN_POINT('',(-4.4,-22.,2.5));
#860 = DIRECTION('',(1.,0.,0.));
#861 = DIRECTION('',(0.,0.,-1.));
#862 = ADVANCED_FACE('',(#863),#874,.F.);
#863 = FACE_BOUND('',#864,.T.);
#864 = EDGE_LOOP('',(#865,#871,#872,#873));
#865 = ORIENTED_EDGE('',*,*,#866,.F.);
#866 = EDGE_CURVE('',#558,#803,#867,.T.);
#867 = LINE('',#868,#869);
#868 = CARTESIAN_POINT('',(5.E-15,22.,-46.5));
#869 = VECTOR('',#870,1.);
#870 = DIRECTION('',(-1.,0.,0.));
#871 = ORIENTED_EDGE('',*,*,#557,.T.);
#872 = ORIENTED_EDGE('',*,*,#866,.T.);
#873 = ORIENTED_EDGE('',*,*,#802,.F.);
#874 = CYLINDRICAL_SURFACE('',#875,4.);
#875 = AXIS2_PLACEMENT_3D('',#876,#877,#878);
#876 = CARTESIAN_POINT('',(5.E-15,22.,-42.5));
#877 = DIRECTION('',(-1.,-0.,-0.));
#878 = DIRECTION('',(0.,0.,-1.));
#879 = ADVANCED_FACE('',(#880),#891,.F.);
#880 = FACE_BOUND('',#881,.T.);
#881 = EDGE_LOOP('',(#882,#888,#889,#890));
#882 = ORIENTED_EDGE('',*,*,#883,.F.);
#883 = EDGE_CURVE('',#569,#835,#884,.T.);
#884 = LINE('',#885,#886);
#885 = CARTESIAN_POINT('',(5.E-15,22.,-1.5));
#886 = VECTOR('',#887,1.);
#887 = DIRECTION('',(-1.,0.,0.));
#888 = ORIENTED_EDGE('',*,*,#568,.T.);
#889 = ORIENTED_EDGE('',*,*,#883,.T.);
#890 = ORIENTED_EDGE('',*,*,#834,.F.);
#891 = CYLINDRICAL_SURFACE('',#892,4.);
#892 = AXIS2_PLACEMENT_3D('',#893,#894,#895);
#893 = CARTESIAN_POINT('',(5.E-15,22.,2.5));
#894 = DIRECTION('',(-1.,-0.,-0.));
#895 = DIRECTION('',(0.,0.,-1.));
#896 = ADVANCED_FACE('',(#897),#908,.F.);
#897 = FACE_BOUND('',#898,.T.);
#898 = EDGE_LOOP('',(#899,#905,#906,#907));
#899 = ORIENTED_EDGE('',*,*,#900,.F.);
#900 = EDGE_CURVE('',#586,#703,#901,.T.);
#901 = LINE('',#902,#903);
#902 = CARTESIAN_POINT('',(-5.65,0.,-15.));
#903 = VECTOR('',#904,1.);
#904 = DIRECTION('',(-0.857167300702,-0.,-0.51503807491));
#905 = ORIENTED_EDGE('',*,*,#595,.T.);
#906 = ORIENTED_EDGE('',*,*,#900,.T.);
#907 = ORIENTED_EDGE('',*,*,#702,.F.);
#908 = CONICAL_SURFACE('',#909,2.35,1.029744258677);
#909 = AXIS2_PLACEMENT_3D('',#910,#911,#912);
#910 = CARTESIAN_POINT('',(-8.,0.,-15.));
#911 = DIRECTION('',(0.,0.,1.));
#912 = DIRECTION('',(1.,0.,0.));
#913 = ADVANCED_FACE('',(#914),#925,.F.);
#914 = FACE_BOUND('',#915,.T.);
#915 = EDGE_LOOP('',(#916,#922,#923,#924));
#916 = ORIENTED_EDGE('',*,*,#917,.F.);
#917 = EDGE_CURVE('',#611,#753,#918,.T.);
#918 = LINE('',#919,#920);
#919 = CARTESIAN_POINT('',(2.35,-8.,-15.));
#920 = VECTOR('',#921,1.);
#921 = DIRECTION('',(-0.857167300702,-0.,-0.51503807491));
#922 = ORIENTED_EDGE('',*,*,#620,.T.);
#923 = ORIENTED_EDGE('',*,*,#917,.T.);
#924 = ORIENTED_EDGE('',*,*,#752,.F.);
#925 = CONICAL_SURFACE('',#926,2.35,1.029744258677);
#926 = AXIS2_PLACEMENT_3D('',#927,#928,#929);
#927 = CARTESIAN_POINT('',(-8.E-15,-8.,-15.));
#928 = DIRECTION('',(0.,0.,1.));
#929 = DIRECTION('',(1.,0.,0.));
#930 = ADVANCED_FACE('',(#931),#942,.F.);
#931 = FACE_BOUND('',#932,.T.);
#932 = EDGE_LOOP('',(#933,#939,#940,#941));
#933 = ORIENTED_EDGE('',*,*,#934,.F.);
#934 = EDGE_CURVE('',#653,#728,#935,.T.);
#935 = LINE('',#936,#937);
#936 = CARTESIAN_POINT('',(2.35,8.,-15.));
#937 = VECTOR('',#938,1.);
#938 = DIRECTION('',(-0.857167300702,-0.,-0.51503807491));
#939 = ORIENTED_EDGE('',*,*,#662,.T.);
#940 = ORIENTED_EDGE('',*,*,#934,.T.);
#941 = ORIENTED_EDGE('',*,*,#727,.F.);
#942 = CONICAL_SURFACE('',#943,2.35,1.029744258677);
#943 = AXIS2_PLACEMENT_3D('',#944,#945,#946);
#944 = CARTESIAN_POINT('',(-1.2E-14,8.,-15.));
#945 = DIRECTION('',(0.,0.,1.));
#946 = DIRECTION('',(1.,0.,0.));
#947 = ADVANCED_FACE('',(#948),#959,.F.);
#948 = FACE_BOUND('',#949,.T.);
#949 = EDGE_LOOP('',(#950,#956,#957,#958));
#950 = ORIENTED_EDGE('',*,*,#951,.F.);
#951 = EDGE_CURVE('',#678,#778,#952,.T.);
#952 = LINE('',#953,#954);
#953 = CARTESIAN_POINT('',(10.35,6.E-15,-15.));
#954 = VECTOR('',#955,1.);
#955 = DIRECTION('',(-0.857167300702,-0.,-0.51503807491));
#956 = ORIENTED_EDGE('',*,*,#687,.T.);
#957 = ORIENTED_EDGE('',*,*,#951,.T.);
#958 = ORIENTED_EDGE('',*,*,#777,.F.);
#959 = CONICAL_SURFACE('',#960,2.35,1.029744258677);
#960 = AXIS2_PLACEMENT_3D('',#961,#962,#963);
#961 = CARTESIAN_POINT('',(8.,6.E-15,-15.));
#962 = DIRECTION('',(0.,0.,1.));
#963 = DIRECTION('',(1.,0.,0.));
#964 = ( GEOMETRIC_REPRESENTATION_CONTEXT(3) 
GLOBAL_UNCERTAINTY_ASSIGNED_CONTEXT((#968)) GLOBAL_UNIT_ASSIGNED_CONTEXT
((#965,#966,#967)) REPRESENTATION_CONTEXT('Context #1',
  '3D Context with UNIT and UNCERTAINTY') );
#965 = ( LENGTH_UNIT() NAMED_UNIT(*) SI_UNIT(.MILLI.,.METRE.) );
#966 = ( NAMED_UNIT(*) PLANE_ANGLE_UNIT() SI_UNIT($,.RADIAN.) );
#967 = ( NAMED_UNIT(*) SI_UNIT($,.STERADIAN.) SOLID_ANGLE_UNIT() );
#968 = UNCERTAINTY_MEASURE_WITH_UNIT(LENGTH_MEASURE(1.E-07),#965,
  'distance_accuracy_value','confusion accuracy');
#969 = PRODUCT_RELATED_PRODUCT_CATEGORY('part',$,(#7));
#970 = MECHANICAL_DESIGN_GEOMETRIC_PRESENTATION_REPRESENTATION('',(#971)
  ,#964);
#971 = STYLED_ITEM('color',(#972),#15);
#972 = PRESENTATION_STYLE_ASSIGNMENT((#973,#979));
#973 = SURFACE_STYLE_USAGE(.BOTH.,#974);
#974 = SURFACE_SIDE_STYLE('',(#975));
#975 = SURFACE_STYLE_FILL_AREA(#976);
#976 = FILL_AREA_STYLE('',(#977));
#977 = FILL_AREA_STYLE_COLOUR('',#978);
#978 = COLOUR_RGB('',0.447058818107,0.474509808674,0.501960817233);
#979 = CURVE_STYLE('',#980,POSITIVE_LENGTH_MEASURE(0.1),#981);
#980 = DRAUGHTING_PRE_DEFINED_CURVE_FONT('continuous');
#981 = COLOUR_RGB('',9.803921802644E-02,9.803921802644E-02,
  9.803921802644E-02);
ENDSEC;
END-ISO-10303-21;
