ISO-10303-21;
HEADER;
FILE_DESCRIPTION(('FreeCAD Model'),'2;1');
FILE_NAME('Open CASCADE Shape Model','2026-02-23T16:23:57',(''),(''),
  'Open CASCADE STEP processor 7.9','FreeCAD','Unknown');
FILE_SCHEMA(('AUTOMOTIVE_DESIGN { 1 0 10303 214 1 1 1 1 }'));
ENDSEC;
DATA;
#1 = APPLICATION_PROTOCOL_DEFINITION('international standard',
  'automotive_design',2000,#2);
#2 = APPLICATION_CONTEXT(
  'core data for automotive mechanical design processes');
#3 = SHAPE_DEFINITION_REPRESENTATION(#4,#10);
#4 = PRODUCT_DEFINITION_SHAPE('','',#5);
#5 = PRODUCT_DEFINITION('design','',#6,#9);
#6 = PRODUCT_DEFINITION_FORMATION('','',#7);
#7 = PRODUCT('DrillMarker1','DrillMarker1','',(#8));
#8 = PRODUCT_CONTEXT('',#2,'mechanical');
#9 = PRODUCT_DEFINITION_CONTEXT('part definition',#2,'design');
#10 = ADVANCED_BREP_SHAPE_REPRESENTATION('',(#11,#15),#647);
#11 = AXIS2_PLACEMENT_3D('',#12,#13,#14);
#12 = CARTESIAN_POINT('',(0.,0.,0.));
#13 = DIRECTION('',(0.,0.,1.));
#14 = DIRECTION('',(1.,0.,-0.));
#15 = MANIFOLD_SOLID_BREP('',#16);
#16 = CLOSED_SHELL('',(#17,#57,#112,#152,#231,#253,#308,#339,#361,#378,
    #395,#412,#429,#451,#463,#523,#547,#571,#595,#619));
#17 = ADVANCED_FACE('',(#18),#52,.F.);
#18 = FACE_BOUND('',#19,.F.);
#19 = EDGE_LOOP('',(#20,#30,#38,#46));
#20 = ORIENTED_EDGE('',*,*,#21,.T.);
#21 = EDGE_CURVE('',#22,#24,#26,.T.);
#22 = VERTEX_POINT('',#23);
#23 = CARTESIAN_POINT('',(-10.,235.,-7.5));
#24 = VERTEX_POINT('',#25);
#25 = CARTESIAN_POINT('',(-10.,230.,-7.5));
#26 = LINE('',#27,#28);
#27 = CARTESIAN_POINT('',(-10.,235.,-7.5));
#28 = VECTOR('',#29,1.);
#29 = DIRECTION('',(0.,-1.,2.22044604925E-16));
#30 = ORIENTED_EDGE('',*,*,#31,.T.);
#31 = EDGE_CURVE('',#24,#32,#34,.T.);
#32 = VERTEX_POINT('',#33);
#33 = CARTESIAN_POINT('',(-4.3,230.,-7.5));
#34 = LINE('',#35,#36);
#35 = CARTESIAN_POINT('',(-10.,230.,-7.5));
#36 = VECTOR('',#37,1.);
#37 = DIRECTION('',(1.,0.,0.));
#38 = ORIENTED_EDGE('',*,*,#39,.F.);
#39 = EDGE_CURVE('',#40,#32,#42,.T.);
#40 = VERTEX_POINT('',#41);
#41 = CARTESIAN_POINT('',(-4.3,235.,-7.5));
#42 = LINE('',#43,#44);
#43 = CARTESIAN_POINT('',(-4.3,235.,-7.5));
#44 = VECTOR('',#45,1.);
#45 = DIRECTION('',(0.,-1.,2.22044604925E-16));
#46 = ORIENTED_EDGE('',*,*,#47,.F.);
#47 = EDGE_CURVE('',#22,#40,#48,.T.);
#48 = LINE('',#49,#50);
#49 = CARTESIAN_POINT('',(-10.,235.,-7.5));
#50 = VECTOR('',#51,1.);
#51 = DIRECTION('',(1.,0.,0.));
#52 = PLANE('',#53);
#53 = AXIS2_PLACEMENT_3D('',#54,#55,#56);
#54 = CARTESIAN_POINT('',(-10.,235.,-7.5));
#55 = DIRECTION('',(0.,2.22044604925E-16,1.));
#56 = DIRECTION('',(1.,0.,0.));
#57 = ADVANCED_FACE('',(#58),#107,.T.);
#58 = FACE_BOUND('',#59,.T.);
#59 = EDGE_LOOP('',(#60,#68,#76,#84,#92,#100,#106));
#60 = ORIENTED_EDGE('',*,*,#61,.F.);
#61 = EDGE_CURVE('',#62,#22,#64,.T.);
#62 = VERTEX_POINT('',#63);
#63 = CARTESIAN_POINT('',(-10.,235.,-3.1));
#64 = LINE('',#65,#66);
#65 = CARTESIAN_POINT('',(-10.,235.,7.5));
#66 = VECTOR('',#67,1.);
#67 = DIRECTION('',(0.,-2.22044604925E-16,-1.));
#68 = ORIENTED_EDGE('',*,*,#69,.F.);
#69 = EDGE_CURVE('',#70,#62,#72,.T.);
#70 = VERTEX_POINT('',#71);
#71 = CARTESIAN_POINT('',(-8.,235.,-3.1));
#72 = LINE('',#73,#74);
#73 = CARTESIAN_POINT('',(-8.,235.,-3.1));
#74 = VECTOR('',#75,1.);
#75 = DIRECTION('',(-1.,0.,0.));
#76 = ORIENTED_EDGE('',*,*,#77,.F.);
#77 = EDGE_CURVE('',#78,#70,#80,.T.);
#78 = VERTEX_POINT('',#79);
#79 = CARTESIAN_POINT('',(-8.,235.,-5.1));
#80 = LINE('',#81,#82);
#81 = CARTESIAN_POINT('',(-8.,235.,-5.5));
#82 = VECTOR('',#83,1.);
#83 = DIRECTION('',(0.,2.22044604925E-16,1.));
#84 = ORIENTED_EDGE('',*,*,#85,.T.);
#85 = EDGE_CURVE('',#78,#86,#88,.T.);
#86 = VERTEX_POINT('',#87);
#87 = CARTESIAN_POINT('',(-6.465685424949,235.,-5.1));
#88 = LINE('',#89,#90);
#89 = CARTESIAN_POINT('',(-8.,235.,-5.1));
#90 = VECTOR('',#91,1.);
#91 = DIRECTION('',(1.,0.,0.));
#92 = ORIENTED_EDGE('',*,*,#93,.T.);
#93 = EDGE_CURVE('',#86,#94,#96,.T.);
#94 = VERTEX_POINT('',#95);
#95 = CARTESIAN_POINT('',(-4.3,235.,-2.934314575051));
#96 = LINE('',#97,#98);
#97 = CARTESIAN_POINT('',(-6.465685424949,235.,-5.1));
#98 = VECTOR('',#99,1.);
#99 = DIRECTION('',(0.707106781187,1.570092458684E-16,0.707106781187));
#100 = ORIENTED_EDGE('',*,*,#101,.F.);
#101 = EDGE_CURVE('',#40,#94,#102,.T.);
#102 = LINE('',#103,#104);
#103 = CARTESIAN_POINT('',(-4.3,235.,-7.5));
#104 = VECTOR('',#105,1.);
#105 = DIRECTION('',(0.,2.22044604925E-16,1.));
#106 = ORIENTED_EDGE('',*,*,#47,.F.);
#107 = PLANE('',#108);
#108 = AXIS2_PLACEMENT_3D('',#109,#110,#111);
#109 = CARTESIAN_POINT('',(-7.15,235.,-1.716286801353E-16));
#110 = DIRECTION('',(0.,1.,0.));
#111 = DIRECTION('',(0.,0.,1.));
#112 = ADVANCED_FACE('',(#113),#147,.T.);
#113 = FACE_BOUND('',#114,.T.);
#114 = EDGE_LOOP('',(#115,#125,#133,#141));
#115 = ORIENTED_EDGE('',*,*,#116,.T.);
#116 = EDGE_CURVE('',#117,#119,#121,.T.);
#117 = VERTEX_POINT('',#118);
#118 = CARTESIAN_POINT('',(-10.,315.,3.1));
#119 = VERTEX_POINT('',#120);
#120 = CARTESIAN_POINT('',(-10.,235.,3.1));
#121 = LINE('',#122,#123);
#122 = CARTESIAN_POINT('',(-10.,240.,3.1));
#123 = VECTOR('',#124,1.);
#124 = DIRECTION('',(-0.,-1.,-0.));
#125 = ORIENTED_EDGE('',*,*,#126,.T.);
#126 = EDGE_CURVE('',#119,#127,#129,.T.);
#127 = VERTEX_POINT('',#128);
#128 = CARTESIAN_POINT('',(-8.,235.,3.1));
#129 = LINE('',#130,#131);
#130 = CARTESIAN_POINT('',(-10.,235.,3.1));
#131 = VECTOR('',#132,1.);
#132 = DIRECTION('',(1.,0.,0.));
#133 = ORIENTED_EDGE('',*,*,#134,.F.);
#134 = EDGE_CURVE('',#135,#127,#137,.T.);
#135 = VERTEX_POINT('',#136);
#136 = CARTESIAN_POINT('',(-8.,315.,3.1));
#137 = LINE('',#138,#139);
#138 = CARTESIAN_POINT('',(-8.,300.,3.1));
#139 = VECTOR('',#140,1.);
#140 = DIRECTION('',(-0.,-1.,-0.));
#141 = ORIENTED_EDGE('',*,*,#142,.F.);
#142 = EDGE_CURVE('',#117,#135,#143,.T.);
#143 = LINE('',#144,#145);
#144 = CARTESIAN_POINT('',(-10.,315.,3.1));
#145 = VECTOR('',#146,1.);
#146 = DIRECTION('',(1.,0.,0.));
#147 = PLANE('',#148);
#148 = AXIS2_PLACEMENT_3D('',#149,#150,#151);
#149 = CARTESIAN_POINT('',(-9.,275.,3.1));
#150 = DIRECTION('',(0.,0.,1.));
#151 = DIRECTION('',(1.,0.,0.));
#152 = ADVANCED_FACE('',(#153),#226,.T.);
#153 = FACE_BOUND('',#154,.T.);
#154 = EDGE_LOOP('',(#155,#163,#164,#172,#180,#188,#196,#204,#212,#220)
  );
#155 = ORIENTED_EDGE('',*,*,#156,.F.);
#156 = EDGE_CURVE('',#117,#157,#159,.T.);
#157 = VERTEX_POINT('',#158);
#158 = CARTESIAN_POINT('',(-10.,315.,-3.1));
#159 = LINE('',#160,#161);
#160 = CARTESIAN_POINT('',(-10.,315.,3.1));
#161 = VECTOR('',#162,1.);
#162 = DIRECTION('',(0.,-2.22044604925E-16,-1.));
#163 = ORIENTED_EDGE('',*,*,#142,.T.);
#164 = ORIENTED_EDGE('',*,*,#165,.T.);
#165 = EDGE_CURVE('',#135,#166,#168,.T.);
#166 = VERTEX_POINT('',#167);
#167 = CARTESIAN_POINT('',(-8.,315.,5.1));
#168 = LINE('',#169,#170);
#169 = CARTESIAN_POINT('',(-8.,315.,3.1));
#170 = VECTOR('',#171,1.);
#171 = DIRECTION('',(0.,2.22044604925E-16,1.));
#172 = ORIENTED_EDGE('',*,*,#173,.T.);
#173 = EDGE_CURVE('',#166,#174,#176,.T.);
#174 = VERTEX_POINT('',#175);
#175 = CARTESIAN_POINT('',(-6.465685424949,315.,5.1));
#176 = LINE('',#177,#178);
#177 = CARTESIAN_POINT('',(-6.729535298816,315.,5.1));
#178 = VECTOR('',#179,1.);
#179 = DIRECTION('',(1.,0.,0.));
#180 = ORIENTED_EDGE('',*,*,#181,.T.);
#181 = EDGE_CURVE('',#174,#182,#184,.T.);
#182 = VERTEX_POINT('',#183);
#183 = CARTESIAN_POINT('',(-4.3,315.,2.934314575051));
#184 = LINE('',#185,#186);
#185 = CARTESIAN_POINT('',(-4.239767649408,315.,2.874082224459));
#186 = VECTOR('',#187,1.);
#187 = DIRECTION('',(0.707106781187,0.,-0.707106781187));
#188 = ORIENTED_EDGE('',*,*,#189,.T.);
#189 = EDGE_CURVE('',#182,#190,#192,.T.);
#190 = VERTEX_POINT('',#191);
#191 = CARTESIAN_POINT('',(-4.3,315.,-2.934314575051));
#192 = LINE('',#193,#194);
#193 = CARTESIAN_POINT('',(-4.3,315.,-1.467157287525));
#194 = VECTOR('',#195,1.);
#195 = DIRECTION('',(0.,0.,-1.));
#196 = ORIENTED_EDGE('',*,*,#197,.T.);
#197 = EDGE_CURVE('',#190,#198,#200,.T.);
#198 = VERTEX_POINT('',#199);
#199 = CARTESIAN_POINT('',(-6.465685424949,315.,-5.1));
#200 = LINE('',#201,#202);
#201 = CARTESIAN_POINT('',(-5.322610361882,315.,-3.956924936933));
#202 = VECTOR('',#203,1.);
#203 = DIRECTION('',(-0.707106781187,0.,-0.707106781187));
#204 = ORIENTED_EDGE('',*,*,#205,.T.);
#205 = EDGE_CURVE('',#198,#206,#208,.T.);
#206 = VERTEX_POINT('',#207);
#207 = CARTESIAN_POINT('',(-8.,315.,-5.1));
#208 = LINE('',#209,#210);
#209 = CARTESIAN_POINT('',(-7.496692586341,315.,-5.1));
#210 = VECTOR('',#211,1.);
#211 = DIRECTION('',(-1.,0.,0.));
#212 = ORIENTED_EDGE('',*,*,#213,.T.);
#213 = EDGE_CURVE('',#206,#214,#216,.T.);
#214 = VERTEX_POINT('',#215);
#215 = CARTESIAN_POINT('',(-8.,315.,-3.1));
#216 = LINE('',#217,#218);
#217 = CARTESIAN_POINT('',(-8.,315.,-5.5));
#218 = VECTOR('',#219,1.);
#219 = DIRECTION('',(0.,2.22044604925E-16,1.));
#220 = ORIENTED_EDGE('',*,*,#221,.T.);
#221 = EDGE_CURVE('',#214,#157,#222,.T.);
#222 = LINE('',#223,#224);
#223 = CARTESIAN_POINT('',(-8.,315.,-3.1));
#224 = VECTOR('',#225,1.);
#225 = DIRECTION('',(-1.,0.,0.));
#226 = PLANE('',#227);
#227 = AXIS2_PLACEMENT_3D('',#228,#229,#230);
#228 = CARTESIAN_POINT('',(-6.993385172682,315.,-8.457335976265E-15));
#229 = DIRECTION('',(0.,1.,0.));
#230 = DIRECTION('',(0.,0.,1.));
#231 = ADVANCED_FACE('',(#232),#248,.T.);
#232 = FACE_BOUND('',#233,.T.);
#233 = EDGE_LOOP('',(#234,#235,#241,#242));
#234 = ORIENTED_EDGE('',*,*,#69,.T.);
#235 = ORIENTED_EDGE('',*,*,#236,.T.);
#236 = EDGE_CURVE('',#62,#157,#237,.T.);
#237 = LINE('',#238,#239);
#238 = CARTESIAN_POINT('',(-10.,310.,-3.1));
#239 = VECTOR('',#240,1.);
#240 = DIRECTION('',(0.,1.,0.));
#241 = ORIENTED_EDGE('',*,*,#221,.F.);
#242 = ORIENTED_EDGE('',*,*,#243,.F.);
#243 = EDGE_CURVE('',#70,#214,#244,.T.);
#244 = LINE('',#245,#246);
#245 = CARTESIAN_POINT('',(-8.,310.,-3.1));
#246 = VECTOR('',#247,1.);
#247 = DIRECTION('',(0.,1.,0.));
#248 = PLANE('',#249);
#249 = AXIS2_PLACEMENT_3D('',#250,#251,#252);
#250 = CARTESIAN_POINT('',(-9.,275.,-3.1));
#251 = DIRECTION('',(-0.,-0.,-1.));
#252 = DIRECTION('',(-1.,0.,0.));
#253 = ADVANCED_FACE('',(#254),#303,.T.);
#254 = FACE_BOUND('',#255,.T.);
#255 = EDGE_LOOP('',(#256,#264,#272,#280,#288,#296,#302));
#256 = ORIENTED_EDGE('',*,*,#257,.F.);
#257 = EDGE_CURVE('',#258,#119,#260,.T.);
#258 = VERTEX_POINT('',#259);
#259 = CARTESIAN_POINT('',(-10.,235.,7.5));
#260 = LINE('',#261,#262);
#261 = CARTESIAN_POINT('',(-10.,235.,7.5));
#262 = VECTOR('',#263,1.);
#263 = DIRECTION('',(0.,-2.22044604925E-16,-1.));
#264 = ORIENTED_EDGE('',*,*,#265,.F.);
#265 = EDGE_CURVE('',#266,#258,#268,.T.);
#266 = VERTEX_POINT('',#267);
#267 = CARTESIAN_POINT('',(-4.3,235.,7.5));
#268 = LINE('',#269,#270);
#269 = CARTESIAN_POINT('',(-4.3,235.,7.5));
#270 = VECTOR('',#271,1.);
#271 = DIRECTION('',(-1.,0.,0.));
#272 = ORIENTED_EDGE('',*,*,#273,.F.);
#273 = EDGE_CURVE('',#274,#266,#276,.T.);
#274 = VERTEX_POINT('',#275);
#275 = CARTESIAN_POINT('',(-4.3,235.,2.934314575051));
#276 = LINE('',#277,#278);
#277 = CARTESIAN_POINT('',(-4.3,235.,-7.5));
#278 = VECTOR('',#279,1.);
#279 = DIRECTION('',(0.,2.22044604925E-16,1.));
#280 = ORIENTED_EDGE('',*,*,#281,.T.);
#281 = EDGE_CURVE('',#274,#282,#284,.T.);
#282 = VERTEX_POINT('',#283);
#283 = CARTESIAN_POINT('',(-6.465685424949,235.,5.1));
#284 = LINE('',#285,#286);
#285 = CARTESIAN_POINT('',(-4.3,235.,2.934314575051));
#286 = VECTOR('',#287,1.);
#287 = DIRECTION('',(-0.707106781187,1.570092458684E-16,0.707106781187)
  );
#288 = ORIENTED_EDGE('',*,*,#289,.T.);
#289 = EDGE_CURVE('',#282,#290,#292,.T.);
#290 = VERTEX_POINT('',#291);
#291 = CARTESIAN_POINT('',(-8.,235.,5.1));
#292 = LINE('',#293,#294);
#293 = CARTESIAN_POINT('',(-6.465685424949,235.,5.1));
#294 = VECTOR('',#295,1.);
#295 = DIRECTION('',(-1.,0.,0.));
#296 = ORIENTED_EDGE('',*,*,#297,.F.);
#297 = EDGE_CURVE('',#127,#290,#298,.T.);
#298 = LINE('',#299,#300);
#299 = CARTESIAN_POINT('',(-8.,235.,3.1));
#300 = VECTOR('',#301,1.);
#301 = DIRECTION('',(0.,2.22044604925E-16,1.));
#302 = ORIENTED_EDGE('',*,*,#126,.F.);
#303 = PLANE('',#304);
#304 = AXIS2_PLACEMENT_3D('',#305,#306,#307);
#305 = CARTESIAN_POINT('',(-7.15,235.,-1.716286801353E-16));
#306 = DIRECTION('',(0.,1.,0.));
#307 = DIRECTION('',(0.,0.,1.));
#308 = ADVANCED_FACE('',(#309),#334,.F.);
#309 = FACE_BOUND('',#310,.F.);
#310 = EDGE_LOOP('',(#311,#319,#327,#333));
#311 = ORIENTED_EDGE('',*,*,#312,.T.);
#312 = EDGE_CURVE('',#266,#313,#315,.T.);
#313 = VERTEX_POINT('',#314);
#314 = CARTESIAN_POINT('',(-4.3,230.,7.5));
#315 = LINE('',#316,#317);
#316 = CARTESIAN_POINT('',(-4.3,235.,7.5));
#317 = VECTOR('',#318,1.);
#318 = DIRECTION('',(0.,-1.,2.22044604925E-16));
#319 = ORIENTED_EDGE('',*,*,#320,.T.);
#320 = EDGE_CURVE('',#313,#321,#323,.T.);
#321 = VERTEX_POINT('',#322);
#322 = CARTESIAN_POINT('',(-10.,230.,7.5));
#323 = LINE('',#324,#325);
#324 = CARTESIAN_POINT('',(-4.3,230.,7.5));
#325 = VECTOR('',#326,1.);
#326 = DIRECTION('',(-1.,0.,0.));
#327 = ORIENTED_EDGE('',*,*,#328,.F.);
#328 = EDGE_CURVE('',#258,#321,#329,.T.);
#329 = LINE('',#330,#331);
#330 = CARTESIAN_POINT('',(-10.,235.,7.5));
#331 = VECTOR('',#332,1.);
#332 = DIRECTION('',(0.,-1.,2.22044604925E-16));
#333 = ORIENTED_EDGE('',*,*,#265,.F.);
#334 = PLANE('',#335);
#335 = AXIS2_PLACEMENT_3D('',#336,#337,#338);
#336 = CARTESIAN_POINT('',(-4.3,235.,7.5));
#337 = DIRECTION('',(-0.,-2.22044604925E-16,-1.));
#338 = DIRECTION('',(-1.,0.,0.));
#339 = ADVANCED_FACE('',(#340),#356,.F.);
#340 = FACE_BOUND('',#341,.T.);
#341 = EDGE_LOOP('',(#342,#348,#349,#355));
#342 = ORIENTED_EDGE('',*,*,#343,.T.);
#343 = EDGE_CURVE('',#321,#24,#344,.T.);
#344 = LINE('',#345,#346);
#345 = CARTESIAN_POINT('',(-10.,230.,7.5));
#346 = VECTOR('',#347,1.);
#347 = DIRECTION('',(0.,-2.22044604925E-16,-1.));
#348 = ORIENTED_EDGE('',*,*,#31,.T.);
#349 = ORIENTED_EDGE('',*,*,#350,.T.);
#350 = EDGE_CURVE('',#32,#313,#351,.T.);
#351 = LINE('',#352,#353);
#352 = CARTESIAN_POINT('',(-4.3,230.,-7.5));
#353 = VECTOR('',#354,1.);
#354 = DIRECTION('',(0.,2.22044604925E-16,1.));
#355 = ORIENTED_EDGE('',*,*,#320,.T.);
#356 = PLANE('',#357);
#357 = AXIS2_PLACEMENT_3D('',#358,#359,#360);
#358 = CARTESIAN_POINT('',(-7.15,230.,9.385943444899E-16));
#359 = DIRECTION('',(0.,1.,0.));
#360 = DIRECTION('',(0.,0.,1.));
#361 = ADVANCED_FACE('',(#362),#373,.T.);
#362 = FACE_BOUND('',#363,.T.);
#363 = EDGE_LOOP('',(#364,#365,#371,#372));
#364 = ORIENTED_EDGE('',*,*,#297,.T.);
#365 = ORIENTED_EDGE('',*,*,#366,.F.);
#366 = EDGE_CURVE('',#166,#290,#367,.T.);
#367 = LINE('',#368,#369);
#368 = CARTESIAN_POINT('',(-8.,240.,5.1));
#369 = VECTOR('',#370,1.);
#370 = DIRECTION('',(-0.,-1.,-0.));
#371 = ORIENTED_EDGE('',*,*,#165,.F.);
#372 = ORIENTED_EDGE('',*,*,#134,.T.);
#373 = PLANE('',#374);
#374 = AXIS2_PLACEMENT_3D('',#375,#376,#377);
#375 = CARTESIAN_POINT('',(-8.,275.,4.1));
#376 = DIRECTION('',(-1.,-0.,-0.));
#377 = DIRECTION('',(0.,0.,-1.));
#378 = ADVANCED_FACE('',(#379),#390,.T.);
#379 = FACE_BOUND('',#380,.T.);
#380 = EDGE_LOOP('',(#381,#382,#383,#389));
#381 = ORIENTED_EDGE('',*,*,#243,.T.);
#382 = ORIENTED_EDGE('',*,*,#213,.F.);
#383 = ORIENTED_EDGE('',*,*,#384,.F.);
#384 = EDGE_CURVE('',#78,#206,#385,.T.);
#385 = LINE('',#386,#387);
#386 = CARTESIAN_POINT('',(-8.,310.,-5.1));
#387 = VECTOR('',#388,1.);
#388 = DIRECTION('',(0.,1.,0.));
#389 = ORIENTED_EDGE('',*,*,#77,.T.);
#390 = PLANE('',#391);
#391 = AXIS2_PLACEMENT_3D('',#392,#393,#394);
#392 = CARTESIAN_POINT('',(-8.,275.,-4.1));
#393 = DIRECTION('',(-1.,-0.,-4.332577657074E-16));
#394 = DIRECTION('',(4.332577657074E-16,0.,-1.));
#395 = ADVANCED_FACE('',(#396),#407,.T.);
#396 = FACE_BOUND('',#397,.T.);
#397 = EDGE_LOOP('',(#398,#399,#400,#401));
#398 = ORIENTED_EDGE('',*,*,#85,.F.);
#399 = ORIENTED_EDGE('',*,*,#384,.T.);
#400 = ORIENTED_EDGE('',*,*,#205,.F.);
#401 = ORIENTED_EDGE('',*,*,#402,.F.);
#402 = EDGE_CURVE('',#86,#198,#403,.T.);
#403 = LINE('',#404,#405);
#404 = CARTESIAN_POINT('',(-6.465685424949,310.,-5.1));
#405 = VECTOR('',#406,1.);
#406 = DIRECTION('',(0.,1.,0.));
#407 = PLANE('',#408);
#408 = AXIS2_PLACEMENT_3D('',#409,#410,#411);
#409 = CARTESIAN_POINT('',(-7.232842712475,275.,-5.1));
#410 = DIRECTION('',(5.679830409542E-16,0.,-1.));
#411 = DIRECTION('',(-1.,0.,-5.679830409542E-16));
#412 = ADVANCED_FACE('',(#413),#424,.T.);
#413 = FACE_BOUND('',#414,.T.);
#414 = EDGE_LOOP('',(#415,#416,#417,#418));
#415 = ORIENTED_EDGE('',*,*,#93,.F.);
#416 = ORIENTED_EDGE('',*,*,#402,.T.);
#417 = ORIENTED_EDGE('',*,*,#197,.F.);
#418 = ORIENTED_EDGE('',*,*,#419,.F.);
#419 = EDGE_CURVE('',#94,#190,#420,.T.);
#420 = LINE('',#421,#422);
#421 = CARTESIAN_POINT('',(-4.3,310.,-2.934314575051));
#422 = VECTOR('',#423,1.);
#423 = DIRECTION('',(0.,1.,0.));
#424 = PLANE('',#425);
#425 = AXIS2_PLACEMENT_3D('',#426,#427,#428);
#426 = CARTESIAN_POINT('',(-5.382842712475,275.,-4.017157287525));
#427 = DIRECTION('',(0.707106781187,-1.405652840258E-16,-0.707106781187)
  );
#428 = DIRECTION('',(-0.707106781187,0.,-0.707106781187));
#429 = ADVANCED_FACE('',(#430),#446,.T.);
#430 = FACE_BOUND('',#431,.T.);
#431 = EDGE_LOOP('',(#432,#433,#439,#440));
#432 = ORIENTED_EDGE('',*,*,#281,.F.);
#433 = ORIENTED_EDGE('',*,*,#434,.T.);
#434 = EDGE_CURVE('',#274,#182,#435,.T.);
#435 = LINE('',#436,#437);
#436 = CARTESIAN_POINT('',(-4.3,310.,2.934314575051));
#437 = VECTOR('',#438,1.);
#438 = DIRECTION('',(0.,1.,0.));
#439 = ORIENTED_EDGE('',*,*,#181,.F.);
#440 = ORIENTED_EDGE('',*,*,#441,.F.);
#441 = EDGE_CURVE('',#282,#174,#442,.T.);
#442 = LINE('',#443,#444);
#443 = CARTESIAN_POINT('',(-6.465685424949,310.,5.1));
#444 = VECTOR('',#445,1.);
#445 = DIRECTION('',(0.,1.,0.));
#446 = PLANE('',#447);
#447 = AXIS2_PLACEMENT_3D('',#448,#449,#450);
#448 = CARTESIAN_POINT('',(-5.382842712475,275.,4.017157287525));
#449 = DIRECTION('',(0.707106781187,0.,0.707106781187));
#450 = DIRECTION('',(0.707106781187,0.,-0.707106781187));
#451 = ADVANCED_FACE('',(#452),#458,.T.);
#452 = FACE_BOUND('',#453,.T.);
#453 = EDGE_LOOP('',(#454,#455,#456,#457));
#454 = ORIENTED_EDGE('',*,*,#366,.T.);
#455 = ORIENTED_EDGE('',*,*,#289,.F.);
#456 = ORIENTED_EDGE('',*,*,#441,.T.);
#457 = ORIENTED_EDGE('',*,*,#173,.F.);
#458 = PLANE('',#459);
#459 = AXIS2_PLACEMENT_3D('',#460,#461,#462);
#460 = CARTESIAN_POINT('',(-7.232842712475,275.,5.1));
#461 = DIRECTION('',(1.135966081908E-15,0.,1.));
#462 = DIRECTION('',(1.,0.,-1.135966081908E-15));
#463 = ADVANCED_FACE('',(#464,#474,#485,#496,#507),#518,.T.);
#464 = FACE_BOUND('',#465,.T.);
#465 = EDGE_LOOP('',(#466,#467,#468,#469,#470,#471,#472,#473));
#466 = ORIENTED_EDGE('',*,*,#116,.F.);
#467 = ORIENTED_EDGE('',*,*,#156,.T.);
#468 = ORIENTED_EDGE('',*,*,#236,.F.);
#469 = ORIENTED_EDGE('',*,*,#61,.T.);
#470 = ORIENTED_EDGE('',*,*,#21,.T.);
#471 = ORIENTED_EDGE('',*,*,#343,.F.);
#472 = ORIENTED_EDGE('',*,*,#328,.F.);
#473 = ORIENTED_EDGE('',*,*,#257,.T.);
#474 = FACE_BOUND('',#475,.T.);
#475 = EDGE_LOOP('',(#476));
#476 = ORIENTED_EDGE('',*,*,#477,.F.);
#477 = EDGE_CURVE('',#478,#478,#480,.T.);
#478 = VERTEX_POINT('',#479);
#479 = CARTESIAN_POINT('',(-10.,242.875,0.));
#480 = CIRCLE('',#481,2.125);
#481 = AXIS2_PLACEMENT_3D('',#482,#483,#484);
#482 = CARTESIAN_POINT('',(-10.,245.,0.));
#483 = DIRECTION('',(-1.,0.,0.));
#484 = DIRECTION('',(0.,-1.,0.));
#485 = FACE_BOUND('',#486,.T.);
#486 = EDGE_LOOP('',(#487));
#487 = ORIENTED_EDGE('',*,*,#488,.F.);
#488 = EDGE_CURVE('',#489,#489,#491,.T.);
#489 = VERTEX_POINT('',#490);
#490 = CARTESIAN_POINT('',(-10.,262.875,-2.22044604925E-15));
#491 = CIRCLE('',#492,2.125);
#492 = AXIS2_PLACEMENT_3D('',#493,#494,#495);
#493 = CARTESIAN_POINT('',(-10.,265.,-2.22044604925E-15));
#494 = DIRECTION('',(-1.,0.,0.));
#495 = DIRECTION('',(0.,-1.,0.));
#496 = FACE_BOUND('',#497,.T.);
#497 = EDGE_LOOP('',(#498));
#498 = ORIENTED_EDGE('',*,*,#499,.F.);
#499 = EDGE_CURVE('',#500,#500,#502,.T.);
#500 = VERTEX_POINT('',#501);
#501 = CARTESIAN_POINT('',(-10.,282.875,-4.440892098501E-15));
#502 = CIRCLE('',#503,2.125);
#503 = AXIS2_PLACEMENT_3D('',#504,#505,#506);
#504 = CARTESIAN_POINT('',(-10.,285.,-4.440892098501E-15));
#505 = DIRECTION('',(-1.,0.,0.));
#506 = DIRECTION('',(0.,-1.,0.));
#507 = FACE_BOUND('',#508,.T.);
#508 = EDGE_LOOP('',(#509));
#509 = ORIENTED_EDGE('',*,*,#510,.F.);
#510 = EDGE_CURVE('',#511,#511,#513,.T.);
#511 = VERTEX_POINT('',#512);
#512 = CARTESIAN_POINT('',(-10.,302.875,-6.661338147751E-15));
#513 = CIRCLE('',#514,2.125);
#514 = AXIS2_PLACEMENT_3D('',#515,#516,#517);
#515 = CARTESIAN_POINT('',(-10.,305.,-6.661338147751E-15));
#516 = DIRECTION('',(-1.,0.,0.));
#517 = DIRECTION('',(0.,-1.,0.));
#518 = PLANE('',#519);
#519 = AXIS2_PLACEMENT_3D('',#520,#521,#522);
#520 = CARTESIAN_POINT('',(-10.,268.98,-3.717026686445E-15));
#521 = DIRECTION('',(-1.,-0.,-5.350836339569E-16));
#522 = DIRECTION('',(5.350836339569E-16,0.,-1.));
#523 = ADVANCED_FACE('',(#524),#542,.F.);
#524 = FACE_BOUND('',#525,.T.);
#525 = EDGE_LOOP('',(#526,#533,#534,#535));
#526 = ORIENTED_EDGE('',*,*,#527,.F.);
#527 = EDGE_CURVE('',#478,#528,#530,.T.);
#528 = VERTEX_POINT('',#529);
#529 = CARTESIAN_POINT('',(-4.3,243.37368538209,0.));
#530 = B_SPLINE_CURVE_WITH_KNOTS('',1,(#531,#532),.UNSPECIFIED.,.F.,.F.,
  (2,2),(0.,1.),.PIECEWISE_BEZIER_KNOTS.);
#531 = CARTESIAN_POINT('',(-10.,242.875,0.));
#532 = CARTESIAN_POINT('',(0.,243.74988663525,0.));
#533 = ORIENTED_EDGE('',*,*,#477,.T.);
#534 = ORIENTED_EDGE('',*,*,#527,.T.);
#535 = ORIENTED_EDGE('',*,*,#536,.T.);
#536 = EDGE_CURVE('',#528,#528,#537,.T.);
#537 = CIRCLE('',#538,1.626314617902);
#538 = AXIS2_PLACEMENT_3D('',#539,#540,#541);
#539 = CARTESIAN_POINT('',(-4.3,245.,0.));
#540 = DIRECTION('',(1.,0.,-0.));
#541 = DIRECTION('',(0.,-1.,0.));
#542 = CONICAL_SURFACE('',#543,2.125,8.726646259972E-02);
#543 = AXIS2_PLACEMENT_3D('',#544,#545,#546);
#544 = CARTESIAN_POINT('',(-10.,245.,0.));
#545 = DIRECTION('',(-1.,-0.,-0.));
#546 = DIRECTION('',(0.,-1.,0.));
#547 = ADVANCED_FACE('',(#548),#566,.F.);
#548 = FACE_BOUND('',#549,.T.);
#549 = EDGE_LOOP('',(#550,#557,#558,#559));
#550 = ORIENTED_EDGE('',*,*,#551,.F.);
#551 = EDGE_CURVE('',#489,#552,#554,.T.);
#552 = VERTEX_POINT('',#553);
#553 = CARTESIAN_POINT('',(-4.3,263.37368538209,-2.22044604925E-15));
#554 = B_SPLINE_CURVE_WITH_KNOTS('',1,(#555,#556),.UNSPECIFIED.,.F.,.F.,
  (2,2),(0.,1.),.PIECEWISE_BEZIER_KNOTS.);
#555 = CARTESIAN_POINT('',(-10.,262.875,-2.22044604925E-15));
#556 = CARTESIAN_POINT('',(2.22044604925E-15,263.74988663525,
    -2.22044604925E-15));
#557 = ORIENTED_EDGE('',*,*,#488,.T.);
#558 = ORIENTED_EDGE('',*,*,#551,.T.);
#559 = ORIENTED_EDGE('',*,*,#560,.T.);
#560 = EDGE_CURVE('',#552,#552,#561,.T.);
#561 = CIRCLE('',#562,1.626314617902);
#562 = AXIS2_PLACEMENT_3D('',#563,#564,#565);
#563 = CARTESIAN_POINT('',(-4.3,265.,-2.22044604925E-15));
#564 = DIRECTION('',(1.,0.,-0.));
#565 = DIRECTION('',(0.,-1.,0.));
#566 = CONICAL_SURFACE('',#567,2.125,8.726646259972E-02);
#567 = AXIS2_PLACEMENT_3D('',#568,#569,#570);
#568 = CARTESIAN_POINT('',(-10.,265.,-2.22044604925E-15));
#569 = DIRECTION('',(-1.,-0.,-0.));
#570 = DIRECTION('',(0.,-1.,0.));
#571 = ADVANCED_FACE('',(#572),#590,.F.);
#572 = FACE_BOUND('',#573,.T.);
#573 = EDGE_LOOP('',(#574,#581,#582,#583));
#574 = ORIENTED_EDGE('',*,*,#575,.F.);
#575 = EDGE_CURVE('',#500,#576,#578,.T.);
#576 = VERTEX_POINT('',#577);
#577 = CARTESIAN_POINT('',(-4.3,283.37368538209,-4.440892098501E-15));
#578 = B_SPLINE_CURVE_WITH_KNOTS('',1,(#579,#580),.UNSPECIFIED.,.F.,.F.,
  (2,2),(0.,1.),.PIECEWISE_BEZIER_KNOTS.);
#579 = CARTESIAN_POINT('',(-10.,282.875,-4.440892098501E-15));
#580 = CARTESIAN_POINT('',(4.440892098501E-15,283.74988663525,
    -4.440892098501E-15));
#581 = ORIENTED_EDGE('',*,*,#499,.T.);
#582 = ORIENTED_EDGE('',*,*,#575,.T.);
#583 = ORIENTED_EDGE('',*,*,#584,.T.);
#584 = EDGE_CURVE('',#576,#576,#585,.T.);
#585 = CIRCLE('',#586,1.626314617902);
#586 = AXIS2_PLACEMENT_3D('',#587,#588,#589);
#587 = CARTESIAN_POINT('',(-4.3,285.,-4.440892098501E-15));
#588 = DIRECTION('',(1.,0.,-0.));
#589 = DIRECTION('',(0.,-1.,0.));
#590 = CONICAL_SURFACE('',#591,2.125,8.726646259972E-02);
#591 = AXIS2_PLACEMENT_3D('',#592,#593,#594);
#592 = CARTESIAN_POINT('',(-10.,285.,-4.440892098501E-15));
#593 = DIRECTION('',(-1.,-0.,-0.));
#594 = DIRECTION('',(0.,-1.,0.));
#595 = ADVANCED_FACE('',(#596),#614,.F.);
#596 = FACE_BOUND('',#597,.T.);
#597 = EDGE_LOOP('',(#598,#605,#606,#607));
#598 = ORIENTED_EDGE('',*,*,#599,.F.);
#599 = EDGE_CURVE('',#511,#600,#602,.T.);
#600 = VERTEX_POINT('',#601);
#601 = CARTESIAN_POINT('',(-4.3,303.37368538209,-6.661338147751E-15));
#602 = B_SPLINE_CURVE_WITH_KNOTS('',1,(#603,#604),.UNSPECIFIED.,.F.,.F.,
  (2,2),(0.,1.),.PIECEWISE_BEZIER_KNOTS.);
#603 = CARTESIAN_POINT('',(-10.,302.875,-6.661338147751E-15));
#604 = CARTESIAN_POINT('',(6.661338147751E-15,303.74988663525,
    -6.661338147751E-15));
#605 = ORIENTED_EDGE('',*,*,#510,.T.);
#606 = ORIENTED_EDGE('',*,*,#599,.T.);
#607 = ORIENTED_EDGE('',*,*,#608,.T.);
#608 = EDGE_CURVE('',#600,#600,#609,.T.);
#609 = CIRCLE('',#610,1.626314617902);
#610 = AXIS2_PLACEMENT_3D('',#611,#612,#613);
#611 = CARTESIAN_POINT('',(-4.3,305.,-6.661338147751E-15));
#612 = DIRECTION('',(1.,0.,-0.));
#613 = DIRECTION('',(0.,-1.,0.));
#614 = CONICAL_SURFACE('',#615,2.125,8.726646259972E-02);
#615 = AXIS2_PLACEMENT_3D('',#616,#617,#618);
#616 = CARTESIAN_POINT('',(-10.,305.,-6.661338147751E-15));
#617 = DIRECTION('',(-1.,-0.,-0.));
#618 = DIRECTION('',(0.,-1.,0.));
#619 = ADVANCED_FACE('',(#620,#630,#633,#636,#639),#642,.T.);
#620 = FACE_BOUND('',#621,.T.);
#621 = EDGE_LOOP('',(#622,#623,#624,#625,#626,#627,#628,#629));
#622 = ORIENTED_EDGE('',*,*,#419,.T.);
#623 = ORIENTED_EDGE('',*,*,#189,.F.);
#624 = ORIENTED_EDGE('',*,*,#434,.F.);
#625 = ORIENTED_EDGE('',*,*,#273,.T.);
#626 = ORIENTED_EDGE('',*,*,#312,.T.);
#627 = ORIENTED_EDGE('',*,*,#350,.F.);
#628 = ORIENTED_EDGE('',*,*,#39,.F.);
#629 = ORIENTED_EDGE('',*,*,#101,.T.);
#630 = FACE_BOUND('',#631,.T.);
#631 = EDGE_LOOP('',(#632));
#632 = ORIENTED_EDGE('',*,*,#560,.F.);
#633 = FACE_BOUND('',#634,.T.);
#634 = EDGE_LOOP('',(#635));
#635 = ORIENTED_EDGE('',*,*,#584,.F.);
#636 = FACE_BOUND('',#637,.T.);
#637 = EDGE_LOOP('',(#638));
#638 = ORIENTED_EDGE('',*,*,#608,.F.);
#639 = FACE_BOUND('',#640,.T.);
#640 = EDGE_LOOP('',(#641));
#641 = ORIENTED_EDGE('',*,*,#536,.F.);
#642 = PLANE('',#643);
#643 = AXIS2_PLACEMENT_3D('',#644,#645,#646);
#644 = CARTESIAN_POINT('',(-4.3,268.84745166004,-6.319389456166E-15));
#645 = DIRECTION('',(1.,0.,0.));
#646 = DIRECTION('',(0.,0.,1.));
#647 = ( GEOMETRIC_REPRESENTATION_CONTEXT(3) 
GLOBAL_UNCERTAINTY_ASSIGNED_CONTEXT((#651)) GLOBAL_UNIT_ASSIGNED_CONTEXT
((#648,#649,#650)) REPRESENTATION_CONTEXT('Context #1',
  '3D Context with UNIT and UNCERTAINTY') );
#648 = ( LENGTH_UNIT() NAMED_UNIT(*) SI_UNIT(.MILLI.,.METRE.) );
#649 = ( NAMED_UNIT(*) PLANE_ANGLE_UNIT() SI_UNIT($,.RADIAN.) );
#650 = ( NAMED_UNIT(*) SI_UNIT($,.STERADIAN.) SOLID_ANGLE_UNIT() );
#651 = UNCERTAINTY_MEASURE_WITH_UNIT(LENGTH_MEASURE(2.E-05),#648,
  'distance_accuracy_value','confusion accuracy');
#652 = PRODUCT_RELATED_PRODUCT_CATEGORY('part',$,(#7));
#653 = MECHANICAL_DESIGN_GEOMETRIC_PRESENTATION_REPRESENTATION('',(#654)
  ,#647);
#654 = STYLED_ITEM('color',(#655),#15);
#655 = PRESENTATION_STYLE_ASSIGNMENT((#656,#662));
#656 = SURFACE_STYLE_USAGE(.BOTH.,#657);
#657 = SURFACE_SIDE_STYLE('',(#658));
#658 = SURFACE_STYLE_FILL_AREA(#659);
#659 = FILL_AREA_STYLE('',(#660));
#660 = FILL_AREA_STYLE_COLOUR('',#661);
#661 = COLOUR_RGB('',0.447059003357,0.474510015008,0.501960993452);
#662 = CURVE_STYLE('',#663,POSITIVE_LENGTH_MEASURE(0.1),#664);
#663 = DRAUGHTING_PRE_DEFINED_CURVE_FONT('continuous');
#664 = COLOUR_RGB('',9.803921802644E-02,9.803921802644E-02,
  9.803921802644E-02);
ENDSEC;
END-ISO-10303-21;
