ISO-10303-21;
HEADER;
FILE_DESCRIPTION(('FreeCAD Model'),'2;1');
FILE_NAME('Open CASCADE Shape Model','2026-02-24T19:03:28',(''),(''),
  'Open CASCADE STEP processor 7.9','FreeCAD','Unknown');
FILE_SCHEMA(('AUTOMOTIVE_DESIGN { 1 0 10303 214 1 1 1 1 }'));
ENDSEC;
DATA;
#1 = APPLICATION_PROTOCOL_DEFINITION('international standard',
  'automotive_design',2000,#2);
#2 = APPLICATION_CONTEXT(
  'core data for automotive mechanical design processes');
#3 = SHAPE_DEFINITION_REPRESENTATION(#4,#10);
#4 = PRODUCT_DEFINITION_SHAPE('','',#5);
#5 = PRODUCT_DEFINITION('design','',#6,#9);
#6 = PRODUCT_DEFINITION_FORMATION('','',#7);
#7 = PRODUCT('DrillMarker005','DrillMarker005','',(#8));
#8 = PRODUCT_CONTEXT('',#2,'mechanical');
#9 = PRODUCT_DEFINITION_CONTEXT('part definition',#2,'design');
#10 = ADVANCED_BREP_SHAPE_REPRESENTATION('',(#11,#15),#651);
#11 = AXIS2_PLACEMENT_3D('',#12,#13,#14);
#12 = CARTESIAN_POINT('',(0.,0.,0.));
#13 = DIRECTION('',(0.,0.,1.));
#14 = DIRECTION('',(1.,0.,-0.));
#15 = MANIFOLD_SOLID_BREP('',#16);
#16 = CLOSED_SHELL('',(#17,#79,#174,#198,#238,#263,#288,#341,#366,#391,
    #415,#439,#463,#485,#497,#523,#556,#587,#616,#635));
#17 = ADVANCED_FACE('',(#18,#52,#63),#74,.T.);
#18 = FACE_BOUND('',#19,.T.);
#19 = EDGE_LOOP('',(#20,#30,#38,#46));
#20 = ORIENTED_EDGE('',*,*,#21,.T.);
#21 = EDGE_CURVE('',#22,#24,#26,.T.);
#22 = VERTEX_POINT('',#23);
#23 = CARTESIAN_POINT('',(-1.144084826876E-14,3.25,11.45));
#24 = VERTEX_POINT('',#25);
#25 = CARTESIAN_POINT('',(85.,3.25,11.45));
#26 = LINE('',#27,#28);
#27 = CARTESIAN_POINT('',(-1.796895965356E-14,3.25,11.45));
#28 = VECTOR('',#29,1.);
#29 = DIRECTION('',(1.,-1.110223024625E-15,-1.110223024625E-16));
#30 = ORIENTED_EDGE('',*,*,#31,.T.);
#31 = EDGE_CURVE('',#24,#32,#34,.T.);
#32 = VERTEX_POINT('',#33);
#33 = CARTESIAN_POINT('',(85.,-5.25,11.45));
#34 = LINE('',#35,#36);
#35 = CARTESIAN_POINT('',(85.,3.25,11.45));
#36 = VECTOR('',#37,1.);
#37 = DIRECTION('',(6.661338147751E-16,-1.,1.665334536938E-15));
#38 = ORIENTED_EDGE('',*,*,#39,.F.);
#39 = EDGE_CURVE('',#40,#32,#42,.T.);
#40 = VERTEX_POINT('',#41);
#41 = CARTESIAN_POINT('',(-1.144084826876E-14,-5.25,11.45));
#42 = LINE('',#43,#44);
#43 = CARTESIAN_POINT('',(-1.419420136983E-14,-5.25,11.45));
#44 = VECTOR('',#45,1.);
#45 = DIRECTION('',(1.,-1.110223024625E-15,-1.110223024625E-16));
#46 = ORIENTED_EDGE('',*,*,#47,.F.);
#47 = EDGE_CURVE('',#22,#40,#48,.T.);
#48 = LINE('',#49,#50);
#49 = CARTESIAN_POINT('',(-2.123301534596E-14,3.25,11.45));
#50 = VECTOR('',#51,1.);
#51 = DIRECTION('',(6.661338147751E-16,-1.,1.665334536938E-15));
#52 = FACE_BOUND('',#53,.T.);
#53 = EDGE_LOOP('',(#54));
#54 = ORIENTED_EDGE('',*,*,#55,.T.);
#55 = EDGE_CURVE('',#56,#56,#58,.T.);
#56 = VERTEX_POINT('',#57);
#57 = CARTESIAN_POINT('',(77.5,-4.25,11.45));
#58 = CIRCLE('',#59,1.5);
#59 = AXIS2_PLACEMENT_3D('',#60,#61,#62);
#60 = CARTESIAN_POINT('',(77.5,-2.75,11.45));
#61 = DIRECTION('',(2.341930812375E-31,8.881784197001E-16,1.));
#62 = DIRECTION('',(4.440892098501E-16,-1.,8.881784197001E-16));
#63 = FACE_BOUND('',#64,.T.);
#64 = EDGE_LOOP('',(#65));
#65 = ORIENTED_EDGE('',*,*,#66,.T.);
#66 = EDGE_CURVE('',#67,#67,#69,.T.);
#67 = VERTEX_POINT('',#68);
#68 = CARTESIAN_POINT('',(52.5,-4.25,11.45));
#69 = CIRCLE('',#70,1.5);
#70 = AXIS2_PLACEMENT_3D('',#71,#72,#73);
#71 = CARTESIAN_POINT('',(52.5,-2.75,11.45));
#72 = DIRECTION('',(2.341930812375E-31,8.881784197001E-16,1.));
#73 = DIRECTION('',(4.440892098501E-16,-1.,8.881784197001E-16));
#74 = PLANE('',#75);
#75 = AXIS2_PLACEMENT_3D('',#76,#77,#78);
#76 = CARTESIAN_POINT('',(-1.796895965356E-14,3.25,11.45));
#77 = DIRECTION('',(1.221245327088E-15,-1.110223024625E-16,-1.));
#78 = DIRECTION('',(4.440892098501E-16,-1.,1.443289932013E-15));
#79 = ADVANCED_FACE('',(#80),#169,.T.);
#80 = FACE_BOUND('',#81,.F.);
#81 = EDGE_LOOP('',(#82,#90,#98,#106,#114,#122,#130,#138,#146,#154,#162,
    #168));
#82 = ORIENTED_EDGE('',*,*,#83,.T.);
#83 = EDGE_CURVE('',#32,#84,#86,.T.);
#84 = VERTEX_POINT('',#85);
#85 = CARTESIAN_POINT('',(85.,-5.25,15.45));
#86 = LINE('',#87,#88);
#87 = CARTESIAN_POINT('',(85.,-5.25,11.45));
#88 = VECTOR('',#89,1.);
#89 = DIRECTION('',(-1.665334536938E-15,-3.330669073875E-16,1.));
#90 = ORIENTED_EDGE('',*,*,#91,.T.);
#91 = EDGE_CURVE('',#84,#92,#94,.T.);
#92 = VERTEX_POINT('',#93);
#93 = CARTESIAN_POINT('',(85.,19.75,15.45));
#94 = LINE('',#95,#96);
#95 = CARTESIAN_POINT('',(85.,-5.25,15.45));
#96 = VECTOR('',#97,1.);
#97 = DIRECTION('',(-6.661338147751E-16,1.,-1.665334536938E-15));
#98 = ORIENTED_EDGE('',*,*,#99,.T.);
#99 = EDGE_CURVE('',#92,#100,#102,.T.);
#100 = VERTEX_POINT('',#101);
#101 = CARTESIAN_POINT('',(85.,19.75,11.45));
#102 = LINE('',#103,#104);
#103 = CARTESIAN_POINT('',(85.,19.75,15.45));
#104 = VECTOR('',#105,1.);
#105 = DIRECTION('',(1.665334536938E-15,3.330669073875E-16,-1.));
#106 = ORIENTED_EDGE('',*,*,#107,.T.);
#107 = EDGE_CURVE('',#100,#108,#110,.T.);
#108 = VERTEX_POINT('',#109);
#109 = CARTESIAN_POINT('',(85.,11.25,11.45));
#110 = LINE('',#111,#112);
#111 = CARTESIAN_POINT('',(85.,19.75,11.45));
#112 = VECTOR('',#113,1.);
#113 = DIRECTION('',(6.661338147751E-16,-1.,1.665334536938E-15));
#114 = ORIENTED_EDGE('',*,*,#115,.T.);
#115 = EDGE_CURVE('',#108,#116,#118,.T.);
#116 = VERTEX_POINT('',#117);
#117 = CARTESIAN_POINT('',(85.,11.25,7.15));
#118 = LINE('',#119,#120);
#119 = CARTESIAN_POINT('',(85.,11.25,11.45));
#120 = VECTOR('',#121,1.);
#121 = DIRECTION('',(1.665334536938E-15,3.330669073875E-16,-1.));
#122 = ORIENTED_EDGE('',*,*,#123,.T.);
#123 = EDGE_CURVE('',#116,#124,#126,.T.);
#124 = VERTEX_POINT('',#125);
#125 = CARTESIAN_POINT('',(85.,14.5,7.15));
#126 = LINE('',#127,#128);
#127 = CARTESIAN_POINT('',(85.,11.25,7.15));
#128 = VECTOR('',#129,1.);
#129 = DIRECTION('',(-6.661338147751E-16,1.,-1.665334536938E-15));
#130 = ORIENTED_EDGE('',*,*,#131,.T.);
#131 = EDGE_CURVE('',#124,#132,#134,.T.);
#132 = VERTEX_POINT('',#133);
#133 = CARTESIAN_POINT('',(85.,14.5,1.382227665658E-14));
#134 = LINE('',#135,#136);
#135 = CARTESIAN_POINT('',(85.,14.5,7.15));
#136 = VECTOR('',#137,1.);
#137 = DIRECTION('',(1.665334536938E-15,3.330669073875E-16,-1.));
#138 = ORIENTED_EDGE('',*,*,#139,.T.);
#139 = EDGE_CURVE('',#132,#140,#142,.T.);
#140 = VERTEX_POINT('',#141);
#141 = CARTESIAN_POINT('',(85.,-5.662137425588E-14,2.831068712794E-14));
#142 = LINE('',#143,#144);
#143 = CARTESIAN_POINT('',(85.,14.5,-1.705302565824E-13));
#144 = VECTOR('',#145,1.);
#145 = DIRECTION('',(6.661338147751E-16,-1.,1.665334536938E-15));
#146 = ORIENTED_EDGE('',*,*,#147,.T.);
#147 = EDGE_CURVE('',#140,#148,#150,.T.);
#148 = VERTEX_POINT('',#149);
#149 = CARTESIAN_POINT('',(85.,-5.423994586806E-14,7.15));
#150 = LINE('',#151,#152);
#151 = CARTESIAN_POINT('',(85.,-5.662137425588E-14,-1.42108547152E-13));
#152 = VECTOR('',#153,1.);
#153 = DIRECTION('',(-1.665334536938E-15,-3.330669073875E-16,1.));
#154 = ORIENTED_EDGE('',*,*,#155,.T.);
#155 = EDGE_CURVE('',#148,#156,#158,.T.);
#156 = VERTEX_POINT('',#157);
#157 = CARTESIAN_POINT('',(85.,3.25,7.15));
#158 = LINE('',#159,#160);
#159 = CARTESIAN_POINT('',(85.,-5.90028026437E-14,7.15));
#160 = VECTOR('',#161,1.);
#161 = DIRECTION('',(-6.661338147751E-16,1.,-1.665334536938E-15));
#162 = ORIENTED_EDGE('',*,*,#163,.T.);
#163 = EDGE_CURVE('',#156,#24,#164,.T.);
#164 = LINE('',#165,#166);
#165 = CARTESIAN_POINT('',(85.,3.25,7.15));
#166 = VECTOR('',#167,1.);
#167 = DIRECTION('',(-1.665334536938E-15,-3.330669073875E-16,1.));
#168 = ORIENTED_EDGE('',*,*,#31,.T.);
#169 = PLANE('',#170);
#170 = AXIS2_PLACEMENT_3D('',#171,#172,#173);
#171 = CARTESIAN_POINT('',(85.,7.25,9.22340255591));
#172 = DIRECTION('',(1.,-1.33226762955E-15,-3.330669073875E-16));
#173 = DIRECTION('',(-1.665334536938E-15,-3.330669073875E-16,1.));
#174 = ADVANCED_FACE('',(#175),#193,.T.);
#175 = FACE_BOUND('',#176,.T.);
#176 = EDGE_LOOP('',(#177,#185,#186,#187));
#177 = ORIENTED_EDGE('',*,*,#178,.T.);
#178 = EDGE_CURVE('',#179,#156,#181,.T.);
#179 = VERTEX_POINT('',#180);
#180 = CARTESIAN_POINT('',(-7.144285163463E-15,3.25,7.15));
#181 = LINE('',#182,#183);
#182 = CARTESIAN_POINT('',(-1.17628129459E-14,3.25,7.15));
#183 = VECTOR('',#184,1.);
#184 = DIRECTION('',(1.,-1.110223024625E-15,-1.110223024625E-16));
#185 = ORIENTED_EDGE('',*,*,#163,.T.);
#186 = ORIENTED_EDGE('',*,*,#21,.F.);
#187 = ORIENTED_EDGE('',*,*,#188,.F.);
#188 = EDGE_CURVE('',#179,#22,#189,.T.);
#189 = LINE('',#190,#191);
#190 = CARTESIAN_POINT('',(-1.407207683712E-14,3.25,7.15));
#191 = VECTOR('',#192,1.);
#192 = DIRECTION('',(-1.665334536938E-15,-3.330669073875E-16,1.));
#193 = PLANE('',#194);
#194 = AXIS2_PLACEMENT_3D('',#195,#196,#197);
#195 = CARTESIAN_POINT('',(-1.17628129459E-14,3.25,7.15));
#196 = DIRECTION('',(2.22044604925E-16,-1.,1.221245327088E-15));
#197 = DIRECTION('',(-1.443289932013E-15,-1.110223024625E-16,1.));
#198 = ADVANCED_FACE('',(#199),#233,.T.);
#199 = FACE_BOUND('',#200,.T.);
#200 = EDGE_LOOP('',(#201,#202,#210,#218,#226,#232));
#201 = ORIENTED_EDGE('',*,*,#47,.T.);
#202 = ORIENTED_EDGE('',*,*,#203,.F.);
#203 = EDGE_CURVE('',#204,#40,#206,.T.);
#204 = VERTEX_POINT('',#205);
#205 = CARTESIAN_POINT('',(-7.315660324596E-15,-5.25,1.748601263785E-15)
  );
#206 = LINE('',#207,#208);
#207 = CARTESIAN_POINT('',(-6.14992614874E-15,-5.25,2.914335439641E-15)
  );
#208 = VECTOR('',#209,1.);
#209 = DIRECTION('',(-5.551115123126E-16,-1.110223024625E-16,1.));
#210 = ORIENTED_EDGE('',*,*,#211,.F.);
#211 = EDGE_CURVE('',#212,#204,#214,.T.);
#212 = VERTEX_POINT('',#213);
#213 = CARTESIAN_POINT('',(0.,0.,0.));
#214 = LINE('',#215,#216);
#215 = CARTESIAN_POINT('',(-1.170104127187E-14,19.75,-1.096345236817E-14
    ));
#216 = VECTOR('',#217,1.);
#217 = DIRECTION('',(2.22044604925E-16,-1.,5.551115123126E-16));
#218 = ORIENTED_EDGE('',*,*,#219,.T.);
#219 = EDGE_CURVE('',#212,#220,#222,.T.);
#220 = VERTEX_POINT('',#221);
#221 = CARTESIAN_POINT('',(-7.144285163463E-15,2.381428387821E-15,7.15)
  );
#222 = LINE('',#223,#224);
#223 = CARTESIAN_POINT('',(-1.529368234687E-56,2.29588740395E-41,
    -3.823420586718E-56));
#224 = VECTOR('',#225,1.);
#225 = DIRECTION('',(-1.665334536938E-15,-3.330669073875E-16,1.));
#226 = ORIENTED_EDGE('',*,*,#227,.T.);
#227 = EDGE_CURVE('',#220,#179,#228,.T.);
#228 = LINE('',#229,#230);
#229 = CARTESIAN_POINT('',(-1.19071419391E-14,-2.381428387821E-15,7.15)
  );
#230 = VECTOR('',#231,1.);
#231 = DIRECTION('',(-6.661338147751E-16,1.,-1.665334536938E-15));
#232 = ORIENTED_EDGE('',*,*,#188,.T.);
#233 = PLANE('',#234);
#234 = AXIS2_PLACEMENT_3D('',#235,#236,#237);
#235 = CARTESIAN_POINT('',(-1.321372014292E-14,7.25,7.725));
#236 = DIRECTION('',(1.,-4.440892098501E-16,-1.110223024625E-16));
#237 = DIRECTION('',(-5.551115123126E-16,-1.110223024625E-16,1.));
#238 = ADVANCED_FACE('',(#239),#258,.F.);
#239 = FACE_BOUND('',#240,.F.);
#240 = EDGE_LOOP('',(#241,#250,#256,#257));
#241 = ORIENTED_EDGE('',*,*,#242,.F.);
#242 = EDGE_CURVE('',#243,#243,#245,.T.);
#243 = VERTEX_POINT('',#244);
#244 = CARTESIAN_POINT('',(77.5,-4.25,15.45));
#245 = CIRCLE('',#246,1.5);
#246 = AXIS2_PLACEMENT_3D('',#247,#248,#249);
#247 = CARTESIAN_POINT('',(77.5,-2.75,15.45));
#248 = DIRECTION('',(2.22044604925E-16,1.110223024625E-15,1.));
#249 = DIRECTION('',(6.661338147751E-16,-1.,1.110223024625E-15));
#250 = ORIENTED_EDGE('',*,*,#251,.T.);
#251 = EDGE_CURVE('',#243,#56,#252,.T.);
#252 = LINE('',#253,#254);
#253 = CARTESIAN_POINT('',(77.5,-4.25,15.45));
#254 = VECTOR('',#255,1.);
#255 = DIRECTION('',(8.881784197001E-16,-2.958228394579E-31,-1.));
#256 = ORIENTED_EDGE('',*,*,#55,.T.);
#257 = ORIENTED_EDGE('',*,*,#251,.F.);
#258 = CYLINDRICAL_SURFACE('',#259,1.5);
#259 = AXIS2_PLACEMENT_3D('',#260,#261,#262);
#260 = CARTESIAN_POINT('',(77.5,-2.75,15.45));
#261 = DIRECTION('',(-6.661338147751E-16,2.22044604925E-16,1.));
#262 = DIRECTION('',(4.440892098501E-16,-1.,8.881784197001E-16));
#263 = ADVANCED_FACE('',(#264),#283,.F.);
#264 = FACE_BOUND('',#265,.F.);
#265 = EDGE_LOOP('',(#266,#275,#281,#282));
#266 = ORIENTED_EDGE('',*,*,#267,.F.);
#267 = EDGE_CURVE('',#268,#268,#270,.T.);
#268 = VERTEX_POINT('',#269);
#269 = CARTESIAN_POINT('',(52.5,-4.25,15.45));
#270 = CIRCLE('',#271,1.5);
#271 = AXIS2_PLACEMENT_3D('',#272,#273,#274);
#272 = CARTESIAN_POINT('',(52.5,-2.75,15.45));
#273 = DIRECTION('',(2.22044604925E-16,1.110223024625E-15,1.));
#274 = DIRECTION('',(6.661338147751E-16,-1.,1.110223024625E-15));
#275 = ORIENTED_EDGE('',*,*,#276,.T.);
#276 = EDGE_CURVE('',#268,#67,#277,.T.);
#277 = LINE('',#278,#279);
#278 = CARTESIAN_POINT('',(52.5,-4.25,15.45));
#279 = VECTOR('',#280,1.);
#280 = DIRECTION('',(8.881784197001E-16,-2.958228394579E-31,-1.));
#281 = ORIENTED_EDGE('',*,*,#66,.T.);
#282 = ORIENTED_EDGE('',*,*,#276,.F.);
#283 = CYLINDRICAL_SURFACE('',#284,1.5);
#284 = AXIS2_PLACEMENT_3D('',#285,#286,#287);
#285 = CARTESIAN_POINT('',(52.5,-2.75,15.45));
#286 = DIRECTION('',(-6.661338147751E-16,2.22044604925E-16,1.));
#287 = DIRECTION('',(4.440892098501E-16,-1.,8.881784197001E-16));
#288 = ADVANCED_FACE('',(#289,#314,#325),#336,.T.);
#289 = FACE_BOUND('',#290,.T.);
#290 = EDGE_LOOP('',(#291,#299,#300,#308));
#291 = ORIENTED_EDGE('',*,*,#292,.T.);
#292 = EDGE_CURVE('',#293,#100,#295,.T.);
#293 = VERTEX_POINT('',#294);
#294 = CARTESIAN_POINT('',(-1.144084826876E-14,19.75,11.45));
#295 = LINE('',#296,#297);
#296 = CARTESIAN_POINT('',(-2.529643161608E-14,19.75,11.45));
#297 = VECTOR('',#298,1.);
#298 = DIRECTION('',(1.,-1.110223024625E-15,-1.110223024625E-16));
#299 = ORIENTED_EDGE('',*,*,#107,.T.);
#300 = ORIENTED_EDGE('',*,*,#301,.F.);
#301 = EDGE_CURVE('',#302,#108,#304,.T.);
#302 = VERTEX_POINT('',#303);
#303 = CARTESIAN_POINT('',(-1.144084826876E-14,11.25,11.45));
#304 = LINE('',#305,#306);
#305 = CARTESIAN_POINT('',(-2.152167333236E-14,11.25,11.45));
#306 = VECTOR('',#307,1.);
#307 = DIRECTION('',(1.,-1.110223024625E-15,-1.110223024625E-16));
#308 = ORIENTED_EDGE('',*,*,#309,.F.);
#309 = EDGE_CURVE('',#293,#302,#310,.T.);
#310 = LINE('',#311,#312);
#311 = CARTESIAN_POINT('',(-3.222422328975E-14,19.75,11.45));
#312 = VECTOR('',#313,1.);
#313 = DIRECTION('',(6.661338147751E-16,-1.,1.665334536938E-15));
#314 = FACE_BOUND('',#315,.T.);
#315 = EDGE_LOOP('',(#316));
#316 = ORIENTED_EDGE('',*,*,#317,.T.);
#317 = EDGE_CURVE('',#318,#318,#320,.T.);
#318 = VERTEX_POINT('',#319);
#319 = CARTESIAN_POINT('',(77.5,15.75,11.45));
#320 = CIRCLE('',#321,1.5);
#321 = AXIS2_PLACEMENT_3D('',#322,#323,#324);
#322 = CARTESIAN_POINT('',(77.5,17.25,11.45));
#323 = DIRECTION('',(2.341930812375E-31,8.881784197001E-16,1.));
#324 = DIRECTION('',(4.440892098501E-16,-1.,8.881784197001E-16));
#325 = FACE_BOUND('',#326,.T.);
#326 = EDGE_LOOP('',(#327));
#327 = ORIENTED_EDGE('',*,*,#328,.T.);
#328 = EDGE_CURVE('',#329,#329,#331,.T.);
#329 = VERTEX_POINT('',#330);
#330 = CARTESIAN_POINT('',(52.5,15.75,11.45));
#331 = CIRCLE('',#332,1.5);
#332 = AXIS2_PLACEMENT_3D('',#333,#334,#335);
#333 = CARTESIAN_POINT('',(52.5,17.25,11.45));
#334 = DIRECTION('',(2.341930812375E-31,8.881784197001E-16,1.));
#335 = DIRECTION('',(4.440892098501E-16,-1.,8.881784197001E-16));
#336 = PLANE('',#337);
#337 = AXIS2_PLACEMENT_3D('',#338,#339,#340);
#338 = CARTESIAN_POINT('',(-2.529643161608E-14,19.75,11.45));
#339 = DIRECTION('',(1.221245327088E-15,-1.110223024625E-16,-1.));
#340 = DIRECTION('',(4.440892098501E-16,-1.,1.443289932013E-15));
#341 = ADVANCED_FACE('',(#342),#361,.F.);
#342 = FACE_BOUND('',#343,.F.);
#343 = EDGE_LOOP('',(#344,#353,#359,#360));
#344 = ORIENTED_EDGE('',*,*,#345,.F.);
#345 = EDGE_CURVE('',#346,#346,#348,.T.);
#346 = VERTEX_POINT('',#347);
#347 = CARTESIAN_POINT('',(77.5,15.75,15.45));
#348 = CIRCLE('',#349,1.5);
#349 = AXIS2_PLACEMENT_3D('',#350,#351,#352);
#350 = CARTESIAN_POINT('',(77.5,17.25,15.45));
#351 = DIRECTION('',(2.22044604925E-16,1.110223024625E-15,1.));
#352 = DIRECTION('',(6.661338147751E-16,-1.,1.110223024625E-15));
#353 = ORIENTED_EDGE('',*,*,#354,.T.);
#354 = EDGE_CURVE('',#346,#318,#355,.T.);
#355 = LINE('',#356,#357);
#356 = CARTESIAN_POINT('',(77.5,15.75,15.45));
#357 = VECTOR('',#358,1.);
#358 = DIRECTION('',(8.881784197001E-16,-2.958228394579E-31,-1.));
#359 = ORIENTED_EDGE('',*,*,#317,.T.);
#360 = ORIENTED_EDGE('',*,*,#354,.F.);
#361 = CYLINDRICAL_SURFACE('',#362,1.5);
#362 = AXIS2_PLACEMENT_3D('',#363,#364,#365);
#363 = CARTESIAN_POINT('',(77.5,17.25,15.45));
#364 = DIRECTION('',(-6.661338147751E-16,2.22044604925E-16,1.));
#365 = DIRECTION('',(4.440892098501E-16,-1.,8.881784197001E-16));
#366 = ADVANCED_FACE('',(#367),#386,.F.);
#367 = FACE_BOUND('',#368,.F.);
#368 = EDGE_LOOP('',(#369,#378,#384,#385));
#369 = ORIENTED_EDGE('',*,*,#370,.F.);
#370 = EDGE_CURVE('',#371,#371,#373,.T.);
#371 = VERTEX_POINT('',#372);
#372 = CARTESIAN_POINT('',(52.5,15.75,15.45));
#373 = CIRCLE('',#374,1.5);
#374 = AXIS2_PLACEMENT_3D('',#375,#376,#377);
#375 = CARTESIAN_POINT('',(52.5,17.25,15.45));
#376 = DIRECTION('',(2.22044604925E-16,1.110223024625E-15,1.));
#377 = DIRECTION('',(6.661338147751E-16,-1.,1.110223024625E-15));
#378 = ORIENTED_EDGE('',*,*,#379,.T.);
#379 = EDGE_CURVE('',#371,#329,#380,.T.);
#380 = LINE('',#381,#382);
#381 = CARTESIAN_POINT('',(52.5,15.75,15.45));
#382 = VECTOR('',#383,1.);
#383 = DIRECTION('',(8.881784197001E-16,-2.958228394579E-31,-1.));
#384 = ORIENTED_EDGE('',*,*,#328,.T.);
#385 = ORIENTED_EDGE('',*,*,#379,.F.);
#386 = CYLINDRICAL_SURFACE('',#387,1.5);
#387 = AXIS2_PLACEMENT_3D('',#388,#389,#390);
#388 = CARTESIAN_POINT('',(52.5,17.25,15.45));
#389 = DIRECTION('',(-6.661338147751E-16,2.22044604925E-16,1.));
#390 = DIRECTION('',(4.440892098501E-16,-1.,8.881784197001E-16));
#391 = ADVANCED_FACE('',(#392),#410,.T.);
#392 = FACE_BOUND('',#393,.T.);
#393 = EDGE_LOOP('',(#394,#395,#396,#404));
#394 = ORIENTED_EDGE('',*,*,#301,.T.);
#395 = ORIENTED_EDGE('',*,*,#115,.T.);
#396 = ORIENTED_EDGE('',*,*,#397,.F.);
#397 = EDGE_CURVE('',#398,#116,#400,.T.);
#398 = VERTEX_POINT('',#399);
#399 = CARTESIAN_POINT('',(-7.144285163463E-15,11.25,7.15));
#400 = LINE('',#401,#402);
#401 = CARTESIAN_POINT('',(-1.53155266247E-14,11.25,7.15));
#402 = VECTOR('',#403,1.);
#403 = DIRECTION('',(1.,-1.110223024625E-15,-1.110223024625E-16));
#404 = ORIENTED_EDGE('',*,*,#405,.F.);
#405 = EDGE_CURVE('',#302,#398,#406,.T.);
#406 = LINE('',#407,#408);
#407 = CARTESIAN_POINT('',(-2.656208586416E-14,11.25,11.45));
#408 = VECTOR('',#409,1.);
#409 = DIRECTION('',(1.665334536938E-15,3.330669073875E-16,-1.));
#410 = PLANE('',#411);
#411 = AXIS2_PLACEMENT_3D('',#412,#413,#414);
#412 = CARTESIAN_POINT('',(-2.152167333236E-14,11.25,11.45));
#413 = DIRECTION('',(-2.22044604925E-16,1.,-1.221245327088E-15));
#414 = DIRECTION('',(1.443289932013E-15,1.110223024625E-16,-1.));
#415 = ADVANCED_FACE('',(#416),#434,.T.);
#416 = FACE_BOUND('',#417,.T.);
#417 = EDGE_LOOP('',(#418,#419,#420,#428));
#418 = ORIENTED_EDGE('',*,*,#397,.T.);
#419 = ORIENTED_EDGE('',*,*,#123,.T.);
#420 = ORIENTED_EDGE('',*,*,#421,.F.);
#421 = EDGE_CURVE('',#422,#124,#424,.T.);
#422 = VERTEX_POINT('',#423);
#423 = CARTESIAN_POINT('',(-7.144285163463E-15,14.5,7.15));
#424 = LINE('',#425,#426);
#425 = CARTESIAN_POINT('',(-1.675881655672E-14,14.5,7.15));
#426 = VECTOR('',#427,1.);
#427 = DIRECTION('',(1.,-1.110223024625E-15,-1.110223024625E-16));
#428 = ORIENTED_EDGE('',*,*,#429,.F.);
#429 = EDGE_CURVE('',#398,#422,#430,.T.);
#430 = LINE('',#431,#432);
#431 = CARTESIAN_POINT('',(-1.940114735532E-14,11.25,7.15));
#432 = VECTOR('',#433,1.);
#433 = DIRECTION('',(-6.661338147751E-16,1.,-1.665334536938E-15));
#434 = PLANE('',#435);
#435 = AXIS2_PLACEMENT_3D('',#436,#437,#438);
#436 = CARTESIAN_POINT('',(-1.53155266247E-14,11.25,7.15));
#437 = DIRECTION('',(-1.221245327088E-15,1.110223024625E-16,1.));
#438 = DIRECTION('',(-4.440892098501E-16,1.,-1.443289932013E-15));
#439 = ADVANCED_FACE('',(#440),#458,.T.);
#440 = FACE_BOUND('',#441,.T.);
#441 = EDGE_LOOP('',(#442,#443,#444,#452));
#442 = ORIENTED_EDGE('',*,*,#421,.T.);
#443 = ORIENTED_EDGE('',*,*,#131,.T.);
#444 = ORIENTED_EDGE('',*,*,#445,.F.);
#445 = EDGE_CURVE('',#446,#132,#448,.T.);
#446 = VERTEX_POINT('',#447);
#447 = CARTESIAN_POINT('',(5.916456789158E-30,14.5,-1.448841047136E-14)
  );
#448 = LINE('',#449,#450);
#449 = CARTESIAN_POINT('',(-6.439293542826E-15,14.5,-2.092770401418E-14)
  );
#450 = VECTOR('',#451,1.);
#451 = DIRECTION('',(1.,-1.110223024625E-15,-1.110223024625E-16));
#452 = ORIENTED_EDGE('',*,*,#453,.F.);
#453 = EDGE_CURVE('',#422,#446,#454,.T.);
#454 = LINE('',#455,#456);
#455 = CARTESIAN_POINT('',(-2.156608225334E-14,14.5,7.15));
#456 = VECTOR('',#457,1.);
#457 = DIRECTION('',(1.665334536938E-15,3.330669073875E-16,-1.));
#458 = PLANE('',#459);
#459 = AXIS2_PLACEMENT_3D('',#460,#461,#462);
#460 = CARTESIAN_POINT('',(-1.675881655672E-14,14.5,7.15));
#461 = DIRECTION('',(-2.22044604925E-16,1.,-1.221245327088E-15));
#462 = DIRECTION('',(1.443289932013E-15,1.110223024625E-16,-1.));
#463 = ADVANCED_FACE('',(#464),#480,.T.);
#464 = FACE_BOUND('',#465,.T.);
#465 = EDGE_LOOP('',(#466,#472,#473,#479));
#466 = ORIENTED_EDGE('',*,*,#467,.T.);
#467 = EDGE_CURVE('',#212,#140,#468,.T.);
#468 = LINE('',#469,#470);
#469 = CARTESIAN_POINT('',(0.,0.,0.));
#470 = VECTOR('',#471,1.);
#471 = DIRECTION('',(1.,-1.110223024625E-15,-1.110223024625E-16));
#472 = ORIENTED_EDGE('',*,*,#147,.T.);
#473 = ORIENTED_EDGE('',*,*,#474,.F.);
#474 = EDGE_CURVE('',#220,#148,#475,.T.);
#475 = LINE('',#476,#477);
#476 = CARTESIAN_POINT('',(-1.031952301389E-14,-7.93809462607E-16,7.15)
  );
#477 = VECTOR('',#478,1.);
#478 = DIRECTION('',(1.,-1.110223024625E-15,-1.110223024625E-16));
#479 = ORIENTED_EDGE('',*,*,#219,.F.);
#480 = PLANE('',#481);
#481 = AXIS2_PLACEMENT_3D('',#482,#483,#484);
#482 = CARTESIAN_POINT('',(-1.019578823125E-56,2.29588740395E-41,
    -3.313631175156E-56));
#483 = DIRECTION('',(2.22044604925E-16,-1.,1.221245327088E-15));
#484 = DIRECTION('',(-1.443289932013E-15,-1.110223024625E-16,1.));
#485 = ADVANCED_FACE('',(#486),#492,.T.);
#486 = FACE_BOUND('',#487,.T.);
#487 = EDGE_LOOP('',(#488,#489,#490,#491));
#488 = ORIENTED_EDGE('',*,*,#474,.T.);
#489 = ORIENTED_EDGE('',*,*,#155,.T.);
#490 = ORIENTED_EDGE('',*,*,#178,.F.);
#491 = ORIENTED_EDGE('',*,*,#227,.F.);
#492 = PLANE('',#493);
#493 = AXIS2_PLACEMENT_3D('',#494,#495,#496);
#494 = CARTESIAN_POINT('',(-1.031952301389E-14,-7.93809462607E-16,7.15)
  );
#495 = DIRECTION('',(-1.221245327088E-15,1.110223024625E-16,1.));
#496 = DIRECTION('',(-4.440892098501E-16,1.,-1.443289932013E-15));
#497 = ADVANCED_FACE('',(#498),#518,.T.);
#498 = FACE_BOUND('',#499,.T.);
#499 = EDGE_LOOP('',(#500,#508,#509,#510,#511,#512));
#500 = ORIENTED_EDGE('',*,*,#501,.F.);
#501 = EDGE_CURVE('',#293,#502,#504,.T.);
#502 = VERTEX_POINT('',#503);
#503 = CARTESIAN_POINT('',(-7.315660324596E-15,19.75,-6.578071420904E-15
    ));
#504 = LINE('',#505,#506);
#505 = CARTESIAN_POINT('',(-2.02775141371E-14,19.75,15.45));
#506 = VECTOR('',#507,1.);
#507 = DIRECTION('',(5.551115123126E-16,1.110223024625E-16,-1.));
#508 = ORIENTED_EDGE('',*,*,#309,.T.);
#509 = ORIENTED_EDGE('',*,*,#405,.T.);
#510 = ORIENTED_EDGE('',*,*,#429,.T.);
#511 = ORIENTED_EDGE('',*,*,#453,.T.);
#512 = ORIENTED_EDGE('',*,*,#513,.F.);
#513 = EDGE_CURVE('',#502,#446,#514,.T.);
#514 = LINE('',#515,#516);
#515 = CARTESIAN_POINT('',(-1.170104127187E-14,19.75,-1.096345236817E-14
    ));
#516 = VECTOR('',#517,1.);
#517 = DIRECTION('',(2.22044604925E-16,-1.,5.551115123126E-16));
#518 = PLANE('',#519);
#519 = AXIS2_PLACEMENT_3D('',#520,#521,#522);
#520 = CARTESIAN_POINT('',(-1.321372014292E-14,7.25,7.725));
#521 = DIRECTION('',(1.,-4.440892098501E-16,-1.110223024625E-16));
#522 = DIRECTION('',(-5.551115123126E-16,-1.110223024625E-16,1.));
#523 = ADVANCED_FACE('',(#524),#551,.T.);
#524 = FACE_BOUND('',#525,.T.);
#525 = EDGE_LOOP('',(#526,#527,#528,#536,#544,#550));
#526 = ORIENTED_EDGE('',*,*,#39,.T.);
#527 = ORIENTED_EDGE('',*,*,#83,.T.);
#528 = ORIENTED_EDGE('',*,*,#529,.F.);
#529 = EDGE_CURVE('',#530,#84,#532,.T.);
#530 = VERTEX_POINT('',#531);
#531 = CARTESIAN_POINT('',(-4.,-5.25,15.45));
#532 = LINE('',#533,#534);
#533 = CARTESIAN_POINT('',(-1.543765115741E-14,-5.25,15.45));
#534 = VECTOR('',#535,1.);
#535 = DIRECTION('',(1.,-6.661338147751E-16,3.330669073875E-16));
#536 = ORIENTED_EDGE('',*,*,#537,.F.);
#537 = EDGE_CURVE('',#538,#530,#540,.T.);
#538 = VERTEX_POINT('',#539);
#539 = CARTESIAN_POINT('',(-4.,-5.25,1.304512053935E-15));
#540 = LINE('',#541,#542);
#541 = CARTESIAN_POINT('',(-4.,-5.25,4.440892098501E-15));
#542 = VECTOR('',#543,1.);
#543 = DIRECTION('',(-5.551115123126E-16,-1.110223024625E-16,1.));
#544 = ORIENTED_EDGE('',*,*,#545,.F.);
#545 = EDGE_CURVE('',#204,#538,#546,.T.);
#546 = LINE('',#547,#548);
#547 = CARTESIAN_POINT('',(-7.315660324596E-15,-5.25,1.748601263785E-15)
  );
#548 = VECTOR('',#549,1.);
#549 = DIRECTION('',(-1.,2.22044604925E-16,-1.110223024625E-16));
#550 = ORIENTED_EDGE('',*,*,#203,.T.);
#551 = PLANE('',#552);
#552 = AXIS2_PLACEMENT_3D('',#553,#554,#555);
#553 = CARTESIAN_POINT('',(35.841072283389,-5.25,12.383927716611));
#554 = DIRECTION('',(-6.624788843374E-16,-1.,1.110223024625E-16));
#555 = DIRECTION('',(-1.,6.624788843374E-16,-1.110223024625E-16));
#556 = ADVANCED_FACE('',(#557),#582,.F.);
#557 = FACE_BOUND('',#558,.T.);
#558 = EDGE_LOOP('',(#559,#569,#575,#576));
#559 = ORIENTED_EDGE('',*,*,#560,.T.);
#560 = EDGE_CURVE('',#561,#563,#565,.T.);
#561 = VERTEX_POINT('',#562);
#562 = CARTESIAN_POINT('',(-4.,19.75,15.45));
#563 = VERTEX_POINT('',#564);
#564 = CARTESIAN_POINT('',(-4.,19.75,-7.022160630754E-15));
#565 = LINE('',#566,#567);
#566 = CARTESIAN_POINT('',(-4.,19.75,15.45));
#567 = VECTOR('',#568,1.);
#568 = DIRECTION('',(5.551115123126E-16,1.110223024625E-16,-1.));
#569 = ORIENTED_EDGE('',*,*,#570,.T.);
#570 = EDGE_CURVE('',#563,#538,#571,.T.);
#571 = LINE('',#572,#573);
#572 = CARTESIAN_POINT('',(-4.,19.75,-8.881784197001E-15));
#573 = VECTOR('',#574,1.);
#574 = DIRECTION('',(2.22044604925E-16,-1.,5.551115123126E-16));
#575 = ORIENTED_EDGE('',*,*,#537,.T.);
#576 = ORIENTED_EDGE('',*,*,#577,.T.);
#577 = EDGE_CURVE('',#530,#561,#578,.T.);
#578 = LINE('',#579,#580);
#579 = CARTESIAN_POINT('',(-4.,-5.25,15.45));
#580 = VECTOR('',#581,1.);
#581 = DIRECTION('',(-2.22044604925E-16,1.,-5.551115123126E-16));
#582 = PLANE('',#583);
#583 = AXIS2_PLACEMENT_3D('',#584,#585,#586);
#584 = CARTESIAN_POINT('',(-4.,7.25,7.725));
#585 = DIRECTION('',(1.,-4.440892098501E-16,-1.110223024625E-16));
#586 = DIRECTION('',(-5.551115123126E-16,-1.110223024625E-16,1.));
#587 = ADVANCED_FACE('',(#588,#599,#602,#605,#608),#611,.T.);
#588 = FACE_BOUND('',#589,.T.);
#589 = EDGE_LOOP('',(#590,#591,#592,#598));
#590 = ORIENTED_EDGE('',*,*,#529,.T.);
#591 = ORIENTED_EDGE('',*,*,#91,.T.);
#592 = ORIENTED_EDGE('',*,*,#593,.F.);
#593 = EDGE_CURVE('',#561,#92,#594,.T.);
#594 = LINE('',#595,#596);
#595 = CARTESIAN_POINT('',(-1.543765115741E-14,19.75,15.45));
#596 = VECTOR('',#597,1.);
#597 = DIRECTION('',(1.,-6.661338147751E-16,3.330669073875E-16));
#598 = ORIENTED_EDGE('',*,*,#577,.F.);
#599 = FACE_BOUND('',#600,.T.);
#600 = EDGE_LOOP('',(#601));
#601 = ORIENTED_EDGE('',*,*,#242,.F.);
#602 = FACE_BOUND('',#603,.T.);
#603 = EDGE_LOOP('',(#604));
#604 = ORIENTED_EDGE('',*,*,#345,.F.);
#605 = FACE_BOUND('',#606,.T.);
#606 = EDGE_LOOP('',(#607));
#607 = ORIENTED_EDGE('',*,*,#267,.F.);
#608 = FACE_BOUND('',#609,.T.);
#609 = EDGE_LOOP('',(#610));
#610 = ORIENTED_EDGE('',*,*,#370,.F.);
#611 = PLANE('',#612);
#612 = AXIS2_PLACEMENT_3D('',#613,#614,#615);
#613 = CARTESIAN_POINT('',(40.5,7.25,15.45));
#614 = DIRECTION('',(-3.449288040031E-16,8.789070835647E-16,1.));
#615 = DIRECTION('',(8.525233642388E-32,1.,-8.789070835647E-16));
#616 = ADVANCED_FACE('',(#617),#630,.T.);
#617 = FACE_BOUND('',#618,.T.);
#618 = EDGE_LOOP('',(#619,#620,#621,#622,#623,#629));
#619 = ORIENTED_EDGE('',*,*,#593,.T.);
#620 = ORIENTED_EDGE('',*,*,#99,.T.);
#621 = ORIENTED_EDGE('',*,*,#292,.F.);
#622 = ORIENTED_EDGE('',*,*,#501,.T.);
#623 = ORIENTED_EDGE('',*,*,#624,.T.);
#624 = EDGE_CURVE('',#502,#563,#625,.T.);
#625 = LINE('',#626,#627);
#626 = CARTESIAN_POINT('',(-7.315660324596E-15,19.75,-6.578071420904E-15
    ));
#627 = VECTOR('',#628,1.);
#628 = DIRECTION('',(-1.,2.22044604925E-16,-1.110223024625E-16));
#629 = ORIENTED_EDGE('',*,*,#560,.F.);
#630 = PLANE('',#631);
#631 = AXIS2_PLACEMENT_3D('',#632,#633,#634);
#632 = CARTESIAN_POINT('',(35.841072283389,19.75,12.383927716611));
#633 = DIRECTION('',(6.62610597534E-16,1.,-1.110223024625E-16));
#634 = DIRECTION('',(1.,-6.62610597534E-16,1.110223024625E-16));
#635 = ADVANCED_FACE('',(#636),#646,.T.);
#636 = FACE_BOUND('',#637,.T.);
#637 = EDGE_LOOP('',(#638,#639,#640,#641,#642,#643,#644,#645));
#638 = ORIENTED_EDGE('',*,*,#624,.F.);
#639 = ORIENTED_EDGE('',*,*,#513,.T.);
#640 = ORIENTED_EDGE('',*,*,#445,.T.);
#641 = ORIENTED_EDGE('',*,*,#139,.T.);
#642 = ORIENTED_EDGE('',*,*,#467,.F.);
#643 = ORIENTED_EDGE('',*,*,#211,.T.);
#644 = ORIENTED_EDGE('',*,*,#545,.T.);
#645 = ORIENTED_EDGE('',*,*,#570,.F.);
#646 = PLANE('',#647);
#647 = AXIS2_PLACEMENT_3D('',#648,#649,#650);
#648 = CARTESIAN_POINT('',(36.585526315789,7.25,5.975605001072E-15));
#649 = DIRECTION('',(1.110223024625E-16,-7.380762980931E-16,-1.));
#650 = DIRECTION('',(-6.961697836323E-32,-1.,7.380762980931E-16));
#651 = ( GEOMETRIC_REPRESENTATION_CONTEXT(3) 
GLOBAL_UNCERTAINTY_ASSIGNED_CONTEXT((#655)) GLOBAL_UNIT_ASSIGNED_CONTEXT
((#652,#653,#654)) REPRESENTATION_CONTEXT('Context #1',
  '3D Context with UNIT and UNCERTAINTY') );
#652 = ( LENGTH_UNIT() NAMED_UNIT(*) SI_UNIT(.MILLI.,.METRE.) );
#653 = ( NAMED_UNIT(*) PLANE_ANGLE_UNIT() SI_UNIT($,.RADIAN.) );
#654 = ( NAMED_UNIT(*) SI_UNIT($,.STERADIAN.) SOLID_ANGLE_UNIT() );
#655 = UNCERTAINTY_MEASURE_WITH_UNIT(LENGTH_MEASURE(1.E-07),#652,
  'distance_accuracy_value','confusion accuracy');
#656 = PRODUCT_RELATED_PRODUCT_CATEGORY('part',$,(#7));
#657 = MECHANICAL_DESIGN_GEOMETRIC_PRESENTATION_REPRESENTATION('',(#658)
  ,#651);
#658 = STYLED_ITEM('color',(#659),#15);
#659 = PRESENTATION_STYLE_ASSIGNMENT((#660,#666));
#660 = SURFACE_STYLE_USAGE(.BOTH.,#661);
#661 = SURFACE_SIDE_STYLE('',(#662));
#662 = SURFACE_STYLE_FILL_AREA(#663);
#663 = FILL_AREA_STYLE('',(#664));
#664 = FILL_AREA_STYLE_COLOUR('',#665);
#665 = COLOUR_RGB('',0.447058818107,0.474509808674,0.501960817233);
#666 = CURVE_STYLE('',#667,POSITIVE_LENGTH_MEASURE(0.1),#668);
#667 = DRAUGHTING_PRE_DEFINED_CURVE_FONT('continuous');
#668 = COLOUR_RGB('',9.803921802644E-02,9.803921802644E-02,
  9.803921802644E-02);
ENDSEC;
END-ISO-10303-21;
